<svg width="62" height="60" viewBox="0 0 62 60" fill="none" xmlns="http://www.w3.org/2000/svg" xmlns:xlink="http://www.w3.org/1999/xlink">
<path d="M6.526,60C4.732,60 3.195,59.347 1.917,58.042C0.639,56.736 0,55.167 0,53.333L0,6.667C0,4.833 0.639,3.264 1.917,1.958C3.195,0.653 4.732,0 6.526,0L52.211,0C54.005,0 55.542,0.653 56.82,1.958C58.098,3.264 58.737,4.833 58.737,6.667L58.737,15L52.211,15L52.211,6.667L6.526,6.667L6.526,53.333L52.211,53.333L52.211,45L58.737,45L58.737,53.333C58.737,55.167 58.098,56.736 56.82,58.042C55.542,59.347 54.005,60 52.211,60L6.526,60ZM32.632,46.667C30.837,46.667 29.3,46.014 28.022,44.708C26.744,43.403 26.105,41.833 26.105,40L26.105,20C26.105,18.167 26.744,16.597 28.022,15.292C29.3,13.986 30.837,13.333 32.632,13.333L55.474,13.333C57.268,13.333 58.805,13.986 60.083,15.292C61.361,16.597 62,18.167 62,20L62,40C62,41.833 61.361,43.403 60.083,44.708C58.805,46.014 57.268,46.667 55.474,46.667L32.632,46.667ZM55.474,40L55.474,20L32.632,20L32.632,40L55.474,40ZM42.421,35C43.781,35 44.936,34.514 45.888,33.542C46.84,32.569 47.316,31.389 47.316,30C47.316,28.611 46.84,27.431 45.888,26.458C44.936,25.486 43.781,25 42.421,25C41.061,25 39.906,25.486 38.954,26.458C38.002,27.431 37.526,28.611 37.526,30C37.526,31.389 38.002,32.569 38.954,33.542C39.906,34.514 41.061,35 42.421,35Z" fill="#000000"/>
</svg>
