<svg width="18" height="12" viewBox="0 0 18 12" fill="none" xmlns="http://www.w3.org/2000/svg" xmlns:xlink="http://www.w3.org/1999/xlink">
<path d="M1.195,5.495C2.893,3.847 5.216,2.823 7.764,2.823C10.312,2.823 12.635,3.847 14.333,5.495L16.331,3.497C14.133,1.324 11.111,0 7.789,0C4.467,0 1.444,1.349 -0.754,3.497L1.195,5.495Z" fill="#FFFFFF"/>
<path d="M3.842,8.143C4.866,7.169 6.24,6.569 7.764,6.569C9.288,6.569 10.661,7.169 11.686,8.143L13.659,6.169C12.135,4.696 10.062,3.771 7.764,3.771C5.466,3.771 3.393,4.696 1.869,6.169L3.842,8.143Z" fill="#FFFFFF"/>
<path d="M6.49,10.816C6.84,10.516 7.264,10.316 7.739,10.316C8.214,10.316 8.663,10.516 8.988,10.816L10.986,8.817C10.137,8.018 8.988,7.519 7.739,7.519C6.465,7.519 5.341,8.018 4.492,8.817L6.49,10.816Z" fill="#FFFFFF"/>
</svg>
