<svg width="318" height="333" viewBox="0 0 318 333" fill="none" xmlns="http://www.w3.org/2000/svg">
<path d="M309.591 133.225C310.325 132.267 310.975 131.398 311.646 130.545C315.46 125.68 317.635 120.238 317.588 113.974C317.531 105.483 317.552 96.9866 317.505 88.4956C317.479 83.1678 315.471 78.6621 311.724 74.9057C311.069 74.2449 310.382 73.6154 309.628 72.8922C309.628 72.2886 309.617 71.6695 309.628 71.0503C309.701 67.9234 309.253 64.8589 308.639 61.7997C306.1 49.1411 300.335 38.0486 292.063 28.2776C285.46 20.4785 277.51 14.235 268.369 9.6149C261.251 6.01972 253.676 3.67843 245.934 1.87824C241.543 0.858473 237.115 0 232.573 0C190.492 0.0156086 148.417 0.0312223 106.336 0.00520795C101.565 5.08104e-06 96.8721 0.483872 92.2103 1.42039C83.4018 3.18936 74.8483 5.78559 66.8567 9.92187C58.22 14.3911 50.5041 20.0831 44.115 27.544C36.576 36.3472 30.6084 45.9673 27.4398 57.2003C25.8061 62.9911 24.7447 68.8547 24.7395 74.8901C24.7187 91.4092 24.6927 107.928 24.6719 124.447C24.6719 125.29 24.6719 126.133 24.6719 127.626C23.3451 126.794 22.5387 126.216 21.6698 125.753C17.8301 123.703 13.8291 122.762 9.56796 124.281C2.42962 126.825 -0.452763 134.25 0.0571175 140.118C0.436927 144.478 1.644 148.672 3.34013 152.704C4.7293 156.003 6.16008 159.286 7.74695 162.491C10.4004 167.855 13.0955 173.203 15.9467 178.469C18.3504 182.917 20.9726 187.246 23.5377 191.601C24.4013 193.063 24.6771 194.587 24.6719 196.273C24.6511 216.065 24.6511 235.856 24.7135 255.648C24.7239 258.905 24.8124 262.204 25.3118 265.414C26.3888 272.354 28.5168 279.004 31.5501 285.351C34.0683 290.632 37.0547 295.611 40.577 300.304C44.5728 305.622 48.9797 310.497 54.2554 314.565C62.0181 320.549 70.4519 325.257 79.7859 328.348C88.0376 331.079 96.4975 332.536 105.181 332.541C147.413 332.562 189.65 332.531 231.881 332.578C237.438 332.583 242.87 331.906 248.265 330.653C256.043 328.847 263.395 325.918 270.32 321.985C277.755 317.755 284.149 312.25 289.81 305.83C294.784 300.195 298.951 294.076 302.255 287.328C307.224 277.167 309.674 266.512 309.638 255.154C309.518 215.414 309.591 175.675 309.591 135.93C309.591 135.014 309.591 134.083 309.591 133.225ZM297.656 67.4552C297.635 68.9692 296.23 70.2803 294.753 70.1607C293.348 70.0514 292.25 68.7611 292.297 67.2731C292.344 65.8891 293.494 64.6716 294.773 64.656C296.251 64.6404 297.682 66.0244 297.656 67.4552ZM291.506 48.7301C293.436 49.5781 294.149 50.5094 293.884 51.7425C293.645 52.8507 292.666 53.7248 291.636 53.7508C290.455 53.7768 289.368 52.9236 289.123 51.7685C288.868 50.5511 289.576 49.6145 291.506 48.7301ZM172.324 14.3391C173.006 14.2767 173.599 14.1778 174.197 14.1726L197.985 14.1674C198.526 14.1674 199.082 14.131 199.613 14.235C200.883 14.4796 201.595 15.4889 201.491 16.7792C201.392 17.9915 200.695 18.7407 199.348 18.7407C190.492 18.7303 181.632 18.6627 172.777 18.6107C172.704 18.6107 172.631 18.5534 172.293 18.4182C172.256 17.6689 172.189 16.9822 172.194 16.2954C172.189 15.6918 172.267 15.0831 172.324 14.3391ZM188.307 30.6345C188.292 32.9237 186.341 34.7083 183.812 34.7396C181.32 34.7708 179.603 33.1527 179.587 30.7593C179.572 28.1215 181.575 25.9779 184.02 26.0091C186.445 26.0455 188.318 28.0695 188.307 30.6345ZM166.986 46.1286C167.012 48.704 165.175 50.858 162.782 50.8164C160.477 50.7748 158.365 49.5417 158.224 46.5136C158.099 43.8862 160.092 41.7114 162.553 41.6802C164.988 41.6438 166.96 43.6208 166.986 46.1286ZM155.165 12.721C160.342 12.5285 165.009 17.2163 165.004 22.5596C164.998 27.3567 161.611 32.3046 155.233 32.2838C149.962 32.3098 145.743 28.0903 145.696 22.8302C145.644 17.3672 149.431 12.9291 155.165 12.721ZM147.314 43.0225C148.802 43.0121 149.692 43.9694 149.655 45.5407C149.619 47.0339 148.817 47.8143 147.335 47.7987C145.8 47.7831 144.863 46.8154 144.947 45.3326C145.025 43.9226 145.94 43.0329 147.314 43.0225ZM131.419 16.8521C131.851 15.6034 132.819 15.2912 134.941 15.7127C136.726 18.106 136.279 19.3026 133.339 20.0154C131.497 19.0269 130.972 18.1528 131.419 16.8521ZM110.124 78.5737C111.503 78.5581 112.543 79.4998 112.606 80.8161C112.668 82.1741 111.679 83.2146 110.327 83.2094C108.938 83.2042 108.037 82.2781 108.027 80.8369C108.017 79.4478 108.813 78.5893 110.124 78.5737ZM109.754 89.5205C111.716 89.8119 112.507 90.3946 112.59 91.6173C112.684 92.944 111.867 93.7661 109.994 94.2239C107.273 92.7723 107.2 91.2895 109.754 89.5205ZM94.5256 20.1299C94.6036 17.1487 95.9147 15.4577 98.4849 14.8282C100.389 14.3599 102.299 15.26 103.121 17.0082C103.995 18.876 103.553 20.7438 101.914 21.9613C101.544 22.237 101.123 22.4348 100.634 22.7209C100.634 24.9061 100.634 27.1226 100.634 29.4222C98.6358 29.4222 96.7212 29.4222 94.6817 29.4222C94.6192 28.8447 94.5152 28.3296 94.5152 27.8093C94.4944 25.2495 94.4527 22.6897 94.5256 20.1299ZM81.8618 14.9582C84.1198 14.9686 86.0553 16.9041 86.0033 19.0997C85.9512 21.3578 84.0314 23.0955 81.6641 23.0123C79.4581 22.9342 77.6215 21.1184 77.6267 19.0061C77.6319 16.7636 79.5309 14.9478 81.8618 14.9582ZM87.9075 87.5591C89.0313 88.4748 88.9845 89.7286 87.6578 91.5913C86.8617 91.5913 85.9565 91.5913 85.0876 91.5913C83.8909 89.968 83.8441 88.6516 84.9263 87.6527C85.7743 86.8619 87.0074 86.8254 87.9075 87.5591ZM70.53 29.4482C76.1907 29.4118 79.7286 34.7135 79.5309 38.6157C79.5673 43.7977 75.7276 47.7467 70.66 47.7727C65.6965 47.7987 61.4613 44.3388 61.3833 38.9747C61.3053 33.5949 65.3895 29.4794 70.53 29.4482ZM70.1293 53.7872C72.0544 53.3034 72.0856 53.3034 73.6777 53.756C73.6777 55.9152 73.6777 58.0588 73.6777 60.2648C72.4966 60.2648 71.4509 60.2648 70.2074 60.2648C70.0305 58.0276 70.1762 55.8892 70.1293 53.7872ZM71.7214 61.6071C75.4623 61.5915 78.9014 65.0306 78.7817 68.8027C78.6412 73.2616 75.1345 75.9983 71.9035 75.9306C67.7828 75.8474 64.9057 73.0014 64.8224 68.8599C64.7444 64.578 68.5373 61.1805 71.7214 61.6071ZM48.4386 38.0538C48.7872 37.2681 49.4583 36.9456 50.296 36.9508C51.732 36.9664 52.2523 37.9497 52.5957 39.1256C51.9713 41.6229 51.5915 41.8727 49.1202 41.3784C48.1628 40.4367 47.8767 39.3233 48.4386 38.0538ZM41.5032 59.448C41.5656 55.8632 44.1722 53.2826 47.7102 53.3086C51.2689 53.3294 54.3074 56.4303 54.1669 59.9006C54.0265 63.4386 51.2169 66.5603 48.1056 66.3886C43.9745 66.1597 41.1546 62.9391 41.5032 59.448ZM35.6343 115.878C35.6395 107.392 35.6187 98.9013 35.6655 90.4154C35.6811 87.3821 35.8112 84.3541 35.9621 81.326C36.1182 78.2823 37.9808 76.4613 41.0505 76.3833C43.8497 76.3104 46.6592 76.3833 49.4583 76.3573C51.1909 76.3417 52.4552 77.0024 53.2252 78.7194C52.3719 81.1543 52.091 81.3988 49.9266 81.4197C47.5905 81.4457 45.2544 81.4249 42.9183 81.4249C42.1587 81.4249 41.3991 81.4249 40.4002 81.4249C40.0307 85.8369 40.2649 90.0148 40.2128 94.1823C40.1608 98.3082 40.1504 102.439 40.2128 106.565C40.2753 110.743 40.447 114.921 40.5718 118.927C39.6665 120.077 38.6936 120.389 37.5334 119.999C36.2483 119.567 35.8216 118.495 35.6655 117.283C35.5979 116.815 35.6291 116.341 35.6343 115.878ZM34.4429 230.581C32.8612 230.581 31.6073 229.337 31.6385 227.787C31.6645 226.34 32.8612 225.128 34.3128 225.076C35.8372 225.024 37.0443 226.283 37.0443 227.927C37.0391 229.535 36.0193 230.575 34.4429 230.581ZM42.3356 285.632C40.3741 284.841 39.6405 283.952 39.8174 282.682C39.9579 281.652 41.0089 280.715 42.0599 280.674C43.2045 280.632 44.3959 281.501 44.6717 282.589C44.9787 283.806 44.2555 284.779 42.3356 285.632ZM58.6674 302.458C56.1076 302.411 54.2086 300.466 54.3178 298.01C54.4271 295.575 56.3105 293.723 58.6518 293.749C61.0347 293.775 63.0846 295.887 63.0274 298.265C62.965 300.721 61.1076 302.505 58.6674 302.458ZM286.891 166.164C287.276 162.288 289.066 159.947 291.485 160.186C294.014 160.436 295.616 161.663 295.694 164.577C295.767 167.283 294.123 169.291 290.221 169.379C278.462 180.857 266.662 192.381 254.972 203.791C252.792 203.791 250.851 203.791 248.629 203.791C261.553 191.08 274.3 178.547 286.891 166.164ZM254.805 170.399C256.153 170.753 257.136 171.278 257.183 172.73C257.23 174.145 256.319 174.785 255.294 175.264C253.749 175.16 252.823 174.452 252.568 173.047C252.375 171.955 253.088 171.148 254.805 170.399ZM290.632 188.432C289.643 188.417 288.78 188.583 287.906 189.743C287.906 193.64 287.906 197.657 287.906 201.804C286.553 201.804 285.346 201.804 283.884 201.804C283.738 201.122 283.462 200.409 283.452 199.691C283.41 196.585 283.384 193.479 283.462 190.378C283.52 188.141 284.18 186.07 286.033 184.634C286.745 184.083 287.62 183.562 288.483 183.422C291.319 182.959 294.196 183.141 297.047 183.37C298.499 183.484 299.232 184.488 299.191 185.919C299.154 187.241 298.249 188.349 296.917 188.411C294.826 188.5 292.729 188.463 290.632 188.432ZM292.365 213.947C292.401 218.005 289.441 221.111 285.434 221.195C281.485 221.273 278.046 217.985 278.067 214.353C278.093 209.431 281.631 206.673 284.852 206.705C289.092 206.736 292.323 209.8 292.365 213.947ZM298.681 150.972C298.343 151.84 297.541 152.158 296.064 152.017C294.976 151.913 294.066 151.086 293.962 149.993C293.884 149.171 294.295 148.583 294.961 147.959C295.783 147.184 297.073 147.101 297.942 147.772C298.754 148.396 299.102 149.895 298.681 150.972ZM270.112 211.497C270.112 213.005 270.112 214.363 270.112 215.726C268.426 216.117 241.2 216.252 236.897 215.898C238.281 214.332 239.618 212.828 240.794 211.502C250.742 211.497 260.357 211.497 270.112 211.497ZM265.148 242.677C260.559 242.735 256.59 238.796 256.824 234.176C257.079 229.129 260.669 225.555 264.966 225.726C269.316 225.732 273.254 229.733 273.26 234.15C273.265 238.723 269.555 242.62 265.148 242.677ZM247.667 265.034C250.138 265.07 252.1 267.068 252.063 269.524C252.027 272.094 250.06 274.066 247.641 273.967C245.133 273.863 243.348 271.902 243.421 269.332C243.494 266.756 245.232 265.003 247.667 265.034ZM246.408 231.85C246.928 231.418 247.667 231.335 248.265 231.652C249.633 232.376 249.972 233.26 249.358 234.644C248.952 235.549 248.01 236.106 247.027 236.007C246.012 235.903 245.482 235.471 245.206 234.644C244.883 233.708 245.289 232.771 246.408 231.85ZM251.73 256.803C249.274 256.793 247.729 255.325 247.708 252.989C247.688 250.352 249.483 248.395 251.97 248.536C254.3 248.666 255.976 250.622 255.986 252.875C256.002 254.888 254.404 256.944 251.73 256.803ZM238.067 233.77C237.989 237.584 235.221 240.414 231.637 240.341C227.932 240.268 225.128 237.235 225.248 233.432C225.362 229.707 228.218 227.053 231.964 227.183C235.508 227.303 238.14 230.149 238.067 233.77ZM238.713 250.627C239.254 250.627 239.795 250.685 240.565 250.726C240.95 251.33 241.278 251.84 241.527 252.23C241.538 253.609 240.617 254.784 239.327 255.071C238.728 255.201 238.088 255.19 237.469 255.19C225.872 255.195 214.28 255.195 202.683 255.19C201.908 255.19 201.117 255.206 200.357 255.076C199.02 254.842 198.208 253.837 198.276 252.672C198.349 251.449 199.155 250.752 200.654 250.638C200.966 250.612 201.278 250.627 201.585 250.627C213.968 250.622 226.34 250.622 238.713 250.627ZM230.034 271.257C230.034 273.551 228.239 275.372 225.929 275.429C223.468 275.492 221.611 273.702 221.6 271.277C221.59 268.749 223.328 266.824 225.633 266.798C227.964 266.767 230.034 268.863 230.034 271.257ZM205.211 266.163C205.914 266.163 206.616 266.132 207.308 266.215C208.885 266.397 209.805 267.36 209.842 268.77C209.873 270.06 208.848 270.991 207.194 271.158C206.809 271.194 206.418 271.173 206.028 271.173C188.671 271.158 171.315 271.132 153.958 271.142C152.163 271.142 150.706 270.794 150.16 268.681C150.56 266.678 151.851 266.132 153.604 266.142C158.661 266.168 163.724 266.158 168.781 266.158C180.924 266.158 193.068 266.158 205.211 266.163ZM263.322 284.8C263.322 273.582 263.322 262.365 263.322 251.153C263.322 250.466 263.322 249.779 263.322 248.848C264.961 248.848 266.267 248.848 267.843 248.848C267.875 249.821 267.922 250.726 267.922 251.626C267.927 262.953 267.932 274.274 267.937 285.601H263.317C263.322 285.336 263.322 285.065 263.322 284.8ZM272.308 199.644C270.97 199.686 269.888 198.723 269.831 197.454C269.774 196.185 270.986 195.035 272.37 195.035C273.691 195.035 274.436 195.81 274.472 197.225C274.508 198.692 273.697 199.603 272.308 199.644ZM279.264 300.606C277.755 300.273 277.37 299.009 278.046 296.61C280.179 295.554 280.736 295.7 282.255 297.791C281.647 300.174 280.799 300.944 279.264 300.606ZM285.819 286.324C282.422 286.22 279.628 283.28 279.753 279.935C279.888 276.314 282.516 273.811 286.064 273.931C289.513 274.051 292.182 276.928 292.016 280.351C291.849 283.723 289.05 286.418 285.819 286.324ZM299.518 261.746C299.154 262.948 298.223 263.593 297.094 263.624C294.217 263.702 291.314 263.817 288.462 263.541C285.372 263.244 283.754 261.215 283.749 258.177C283.733 250.076 283.759 241.975 283.769 233.874C283.769 233.494 283.821 233.114 283.863 232.48C285.289 232.48 286.496 232.48 287.911 232.48C287.911 241.137 287.911 249.675 287.911 258.38C288.691 258.468 289.284 258.593 289.872 258.598C292.287 258.614 294.701 258.536 297.115 258.614C298.988 258.671 300.013 260.102 299.518 261.746ZM298.124 232.823C296.834 232.87 295.986 232.043 295.944 230.685C295.903 229.181 296.907 228.005 298.223 228.026C299.404 228.047 300.434 229.035 300.502 230.216C300.585 231.569 299.487 232.771 298.124 232.823ZM306.168 112.111C305.804 115.035 305.289 117.975 304.451 120.79C302.599 127.002 298.639 131.534 292.781 134.369C291.87 134.811 290.97 135.269 290.065 135.722C284.555 138.459 281.392 142.881 280.538 148.974C280.419 149.817 280.221 150.654 280.06 151.492C278.842 157.912 273.156 162.22 266.626 162.303C262.578 162.355 258.525 162.314 254.254 162.314C252.516 164.02 250.7 165.826 248.858 167.605C243.255 173.016 237.656 178.432 232.017 183.812C231.241 184.551 230.804 185.357 230.586 186.393C228.744 195.144 220.222 199.395 212.069 195.654C211.788 195.524 211.502 195.394 211.34 195.321C206.85 199.702 202.407 204.036 197.99 208.354C197.032 208.271 196.195 208.125 195.357 208.146C192.881 208.198 191.32 209.493 190.638 211.892C189.951 214.316 190.581 216.392 192.376 218.052C194.056 219.608 196.127 220.06 198.224 219.108C200.388 218.125 201.824 216.418 202.048 213.921C202.09 213.458 202.053 212.99 202.053 212.308C204.821 209.702 207.646 207.048 210.44 204.421C214.103 204.421 217.599 204.421 221.2 204.421C221.928 203.729 222.662 203.047 223.385 202.35C228.931 196.996 234.472 191.632 240.029 186.283C241.657 184.717 243.317 183.183 244.972 181.648C246.449 180.279 248.177 180.206 249.571 181.419C251.246 182.87 251.538 184.983 250.268 186.616C249.982 186.986 249.633 187.303 249.3 187.631C236.325 200.44 223.359 213.255 210.373 226.049C203.265 233.047 196.132 240.019 188.984 246.97C187.48 248.432 185.851 249.753 184.311 251.116C175.441 251.116 166.721 251.116 157.72 251.116C150.8 257.656 143.792 264.285 136.84 270.851C134.504 270.851 132.402 270.851 130.306 270.851C126.331 270.851 122.356 270.825 118.386 270.872C117.101 270.887 115.982 270.57 114.827 269.998C111.955 268.577 108.99 267.516 105.681 267.563C103.204 267.599 100.92 268.223 98.6931 269.181C97.0178 269.904 95.5297 270.861 95.2124 273.01C91.4819 272.152 88.8649 274.097 86.2998 276.173C84.0418 278.005 84.0522 278.015 82.1532 278.265C81.5132 277.875 80.7952 277.432 80.0148 276.949C78.2302 277.557 76.5601 278.733 74.4477 278.182C74.1407 278.92 73.9326 279.576 73.6205 280.169C72.6996 281.917 71.3832 282.287 69.3749 282.245C66.2272 282.177 63.8651 281.012 62.0909 278.421C61.6799 277.823 60.8578 277.516 60.2439 277.042C59.7028 276.626 58.9484 276.272 58.7246 275.71C58.0951 274.165 56.9349 273.905 55.5197 273.988C54.9005 274.025 54.2866 274.051 53.7819 273.785C51.8048 272.776 49.8225 271.772 47.6009 270.638C47.424 270.122 47.8715 269.446 48.2981 268.832C49.7757 266.709 49.9318 264.555 48.7664 262.23C48.3969 261.491 48.1888 260.586 48.1888 259.758C48.1732 256.553 46.1285 254.467 44.0838 252.495C43.1941 251.637 42.268 250.856 41.5344 249.842C40.7227 248.713 39.8018 247.662 38.8653 246.496C38.8601 244.332 39.037 244.207 42.6478 243.957C46.6748 241.153 48.9329 237.199 49.8173 232.412C51.0556 225.726 49.5468 219.743 45.0151 214.623C44.2503 213.76 43.2721 213.083 42.3512 212.371C41.6592 211.835 41.0817 211.283 40.8372 210.383C40.1972 207.985 39.4845 205.612 38.73 202.995C38.7508 202.948 38.8133 202.631 38.985 202.386C40.088 200.81 40.0359 199.119 39.2711 197.501C38.2462 195.326 37.0859 193.208 35.9101 191.112C35.1869 189.821 34.3128 188.62 33.5324 187.366C32.523 185.742 31.9715 183.994 32.0704 182.048C32.164 180.212 31.6385 178.583 30.5875 177.012C27.8144 172.876 25.1818 168.641 22.4867 164.447C22.1485 163.922 21.8363 163.365 21.4045 162.923C19.3754 160.852 18.418 158.261 17.5492 155.566C16.0195 150.826 14.2818 146.159 12.6949 141.435C12.1226 139.733 11.8572 137.97 12.6689 136.284C13.8031 135.706 14.5523 136.456 15.3431 136.856C17.1433 137.772 18.8863 138.812 20.7021 139.697C23.163 140.899 25.6916 141.299 28.3919 140.368C29.1203 140.118 30.0777 140.327 30.8737 140.545C31.8414 140.81 32.7571 141.284 33.678 141.7C36.6801 143.053 39.8903 143.349 43.064 142.99C44.7602 142.798 46.373 141.757 47.9963 141.024C48.5478 140.774 49.0005 140.301 49.6561 139.811C51.451 139.811 53.3865 139.811 55.5769 139.811C55.6081 138.859 55.6602 138.037 55.6602 137.21C55.6549 123.807 55.6498 110.405 55.6394 97.0023C55.6394 96.534 55.6237 96.0657 55.6394 95.5975C55.7278 93.4227 57.0545 91.8982 58.9588 91.7734C60.8838 91.6485 62.7413 93.1938 63.0222 95.2177C63.1159 95.9044 63.0742 96.6172 63.0742 97.3196C63.0898 105.738 63.1003 114.151 63.1159 122.569C63.1159 123.256 63.1159 123.948 63.1159 124.801C66.0399 125.035 68.8026 124.879 71.659 124.905C71.659 110.883 71.659 97.0491 71.659 83.0534C73.173 83.0534 74.5986 83.0534 76.2479 83.0534C76.2479 96.971 76.2479 110.8 76.2479 124.744C76.9815 124.822 77.5018 124.926 78.0273 124.926C82.9388 124.952 87.8451 124.962 92.7566 124.973C93.3029 124.973 93.8544 124.973 94.3903 124.895C96.1957 124.624 97.2935 123.318 97.2831 121.508C97.2727 119.676 95.972 118.188 94.1874 118.001C93.8024 117.959 93.407 118.006 93.0219 118.017C87.5329 118.121 83.5631 113.875 84.1719 108.433C84.5673 104.9 86.1854 102.028 89.432 100.379C90.6442 99.7598 92.075 99.5777 93.7555 99.0938C93.8492 98.8232 94.1666 98.277 94.2186 97.7098C94.3123 96.6277 94.2654 95.535 94.2654 94.4425C94.2654 82.4446 94.2446 70.4416 94.2758 58.4438C94.2914 53.0745 94.4059 47.6999 94.4735 42.3305C94.4839 41.5709 94.4735 40.8113 94.4735 39.8488C91.6224 39.8488 89.0053 39.8488 86.3519 39.8488C85.8472 38.4596 86.2166 37.2161 86.0449 36.0351C87.6942 35.5252 96.6171 35.3847 100.389 35.8061C100.441 36.1235 100.535 36.4825 100.545 36.8467C101.242 57.0078 100.977 77.1741 101.045 97.3404C101.05 98.9169 100.93 100.447 100.337 101.924C99.2082 104.718 97.6889 105.738 94.6452 105.748C93.4018 105.753 92.1739 105.67 91.2061 106.768C89.791 108.376 89.8794 110.025 91.586 111.367C91.8305 111.56 92.1062 111.7 92.4965 111.94C93.4798 111.877 94.5672 111.836 95.6494 111.742C97.3767 111.591 98.8856 112.122 100.218 113.173C105.837 117.585 105.566 127.179 99.718 131.268C98.0635 132.429 96.2321 132.892 94.2186 132.886C85.0251 132.86 75.8265 132.876 66.633 132.876C65.556 132.876 64.4738 132.876 63.2459 132.876C63.2459 135.17 63.2459 137.309 63.2459 139.728C78.8077 139.822 94.3643 139.718 110.103 139.806C118.745 148.011 126.924 156.794 135.675 165.248C135.675 167.033 135.633 168.895 135.685 170.758C135.732 172.501 135.873 174.244 136.003 176.497C125.956 166.799 116.695 157.038 107.179 147.845C89.6921 147.845 72.5539 147.845 55.1919 147.845C50.4053 151.736 46.1025 156.362 41.1806 160.815C39.5625 160.815 37.6999 160.743 35.8476 160.836C33.5844 160.951 32.2681 162.735 32.7831 164.832C33.1109 166.18 34.318 167.21 35.832 167.303C36.7581 167.361 37.6947 167.267 38.6312 167.225C39.0942 167.205 39.5625 167.08 40.0203 167.111C40.5562 167.147 41.0817 167.309 41.5032 167.392C41.6905 169.775 41.5708 172.142 42.1015 174.358C44.0213 182.376 48.9068 187.673 57.0389 189.681C58.3136 189.993 59.656 190.144 60.9671 190.149C81.2218 190.186 101.477 190.196 121.737 190.186C124.614 190.186 127.491 190.035 130.467 189.946C133.568 187.048 136.69 184.135 139.837 181.195C141.617 182.933 143.313 184.593 145.201 186.434C141.169 190.336 137.236 194.166 133.172 197.87C132.73 197.907 132.345 197.964 131.965 197.964C107.028 197.964 82.0959 197.959 57.1586 197.948C55.6029 197.948 54.0421 197.917 52.4864 197.953C51.295 197.98 50.1815 198.25 49.2814 199.129C47.4917 200.867 47.9287 203.505 50.2388 204.452C50.9308 204.733 51.7476 204.811 52.5124 204.816C65.7589 204.873 79.0054 204.91 92.2519 204.946C94.1146 204.951 95.972 204.946 98.1572 204.946C95.8159 208.005 92.793 209.946 90.254 212.485C89.4632 212.485 88.688 212.485 87.9179 212.485C78.4903 212.48 69.0627 212.464 59.6299 212.49C58.7142 212.49 57.7309 212.574 56.9089 212.917C55.7122 213.422 54.8641 214.431 54.8225 215.794C54.7861 217.142 55.5145 218.187 56.6747 218.827C57.273 219.155 57.9754 219.353 58.657 219.457C59.5779 219.597 60.5196 219.634 61.4509 219.639C69.7911 219.655 78.1261 219.644 86.4663 219.675C87.7046 219.681 88.9845 219.691 90.1708 219.982C94.8273 221.122 97.1374 224.53 98.0219 228.905C98.8492 232.984 97.2883 236.413 94.1718 239.082C92.3352 240.653 90.0875 241.325 87.6838 241.335C81.4508 241.366 75.2177 241.319 68.9847 241.377C67.6788 241.387 66.326 241.538 65.0721 241.892C59.4218 243.484 55.811 249.67 57.4916 254.998C58.8027 259.155 61.7943 261.595 66.0607 262.329C67.8141 262.63 69.6299 262.688 71.4144 262.693C79.3644 262.719 87.3092 262.703 95.2592 262.672C100.087 262.651 104.916 262.542 109.744 262.537C113.48 262.531 117.22 262.682 120.956 262.656C125.55 262.625 130.139 262.49 135.025 262.391C138.412 259.217 141.918 255.903 145.462 252.625C149.005 249.347 152.59 246.106 156.32 242.693C165.04 242.693 173.911 242.693 182.782 242.693C185.16 240.414 187.454 238.218 190.003 235.773C177.719 235.773 165.774 235.773 153.765 235.773C150.831 238.499 147.881 241.273 144.9 244.004C143.178 245.581 141.372 247.074 139.66 248.661C138.682 249.571 137.6 249.889 136.273 249.883C128.87 249.836 121.466 249.857 114.068 249.862C113.209 249.862 112.351 249.956 111.497 249.894C109.895 249.779 108.657 250.367 107.538 251.496C106.06 252.984 104.473 254.368 102.876 255.846C102.325 255.846 101.784 255.846 101.242 255.846C90.8003 255.856 80.3582 255.867 69.916 255.872C69.2917 255.872 68.6569 255.903 68.0534 255.799C66.2012 255.476 64.5675 253.739 64.5883 252.193C64.6143 250.331 66.3104 248.525 68.3083 248.291C68.9223 248.218 69.5518 248.26 70.1762 248.26C79.6818 248.26 89.1874 248.26 98.8648 248.26C100.993 246.356 103.194 244.389 105.488 242.339C115.321 242.339 125.207 242.339 134.895 242.339C137.288 240.836 147.225 231.678 149.556 228.864C149.556 223.739 149.64 218.526 149.509 213.312C149.463 211.481 150.004 210.211 151.398 209.088C153.386 207.485 155.269 205.753 157.48 203.833C157.48 211.923 157.48 219.618 157.48 227.105C157.709 227.36 157.756 227.423 157.808 227.475C157.865 227.527 157.933 227.61 157.995 227.61C167.423 227.636 176.851 227.657 186.278 227.672C187.366 227.672 188.453 227.625 189.546 227.584C189.686 227.579 189.816 227.454 190.118 227.298C190.165 226.564 190.222 225.732 190.29 224.722C189.686 224.207 189.082 223.609 188.406 223.115C183.947 219.873 182.355 213.182 185.784 207.594C187.652 204.551 190.17 202.366 193.906 201.913C194.41 201.85 194.988 201.595 195.336 201.242C198.937 197.589 202.501 193.9 206.07 190.217C206.117 190.165 206.122 190.076 206.195 189.868C204.79 186.393 204.4 182.782 205.961 179.109C207.188 176.205 209.124 173.947 211.85 172.381C215.851 170.077 223.203 169.884 228.583 176.793C232.422 173.047 236.231 169.307 240.071 165.592C243.931 161.861 247.812 158.157 251.668 154.463C255.227 154.463 258.65 154.473 262.073 154.458C263.551 154.452 265.034 154.431 266.512 154.353C270.252 154.156 272.953 151.331 273.27 148.36C273.442 146.742 273.796 145.134 274.212 143.558C275.33 139.328 278.088 136.154 281.1 133.173C282.708 131.586 284.415 130.103 286.074 128.573C289.066 125.805 289.066 125.805 292.833 124.89C294.773 123.152 296.21 120.961 296.875 118.646C295.226 118.095 293.52 118.448 291.86 118.381C290.231 118.313 288.592 118.365 286.902 118.365C283.967 121.175 281.043 123.969 278.119 126.768C276.428 128.386 274.727 129.983 273.057 131.622C272.172 132.486 271.184 132.912 269.925 132.907C262.521 132.881 255.117 132.923 247.719 132.881C245.029 132.866 243.452 131.357 243.421 128.989C243.39 126.742 244.712 125.295 246.98 125.254C249.706 125.207 252.433 125.264 255.164 125.264C259.061 125.264 262.958 125.228 266.855 125.249C268.182 125.254 269.17 124.817 270.154 123.865C274.618 119.52 279.181 115.28 283.837 110.873C287.063 110.873 290.408 110.873 293.754 110.873C295.393 110.873 297.026 110.936 298.66 110.868C301.027 110.774 302.234 109.395 302.099 107.096C302.016 105.681 301.371 104.765 299.992 104.349C299.258 104.125 298.462 104.016 297.698 104.016C290.138 103.995 282.578 104.011 275.023 104.021C274.566 104.021 274.108 104.089 273.468 104.135C273.598 104.661 273.66 105.093 273.811 105.483C275.273 109.219 273.124 113.906 269.805 116.341C266.631 118.667 262.001 118.688 258.879 116.341C257.1 115.009 256.189 113.209 256.205 110.91C256.251 104.052 256.236 97.1948 256.241 90.3374C256.246 84.4165 256.241 78.4957 256.241 72.5072C261.355 67.117 263.14 60.6082 262.126 53.3606C261.215 46.857 257.937 41.701 252.417 38.0746C242.407 31.5034 225.461 33.0902 219.004 49.1619C217.932 48.7977 217.235 47.9288 216.502 47.1848C215.138 45.8008 213.916 44.2764 212.558 42.8872C211.757 42.0756 210.882 41.2639 209.889 40.728C208.588 40.0205 207.303 40.4055 206.283 41.472C205.279 42.5282 204.967 43.8133 205.57 45.1297C205.945 45.9517 206.564 46.6957 207.183 47.3773C210.393 50.8788 213.64 54.3439 217.36 58.3554C217.334 60.4469 218.26 63.2565 219.55 65.9203C220.841 68.5946 222.521 71.0347 224.738 73.0014C224.738 73.9483 224.738 74.786 224.738 75.811C223.494 75.4728 222.875 74.5415 222.167 73.8183C215.347 66.8672 208.552 59.8902 201.788 52.8871C200.721 51.7841 199.681 50.8684 198.005 50.9569C195.57 51.0922 193.916 53.5687 194.977 55.7903C195.435 56.7425 196.195 57.5905 196.954 58.3501C205.263 66.6799 213.604 74.9785 221.928 83.2927C222.641 84.0003 223.281 84.7807 223.947 85.5143C223.978 100.405 224.051 115.197 223.916 129.713C211.85 141.18 200.045 152.387 188.26 163.609C186.341 165.436 184.514 167.361 182.589 169.176C181.804 169.915 180.935 170.612 179.993 171.133C178.427 171.996 176.45 171.663 175.467 170.54C174.587 169.535 174.436 167.501 175.279 166.138C175.763 165.352 176.398 164.64 177.064 163.994C187.433 153.984 197.823 143.995 208.193 133.984C210.987 131.284 213.713 128.511 216.356 125.883C216.356 113.516 216.356 101.446 216.356 89.0263C207.225 79.7964 198.031 70.3115 188.375 60.9412C186.767 62.5853 185.326 64.0525 183.723 65.6914C192.36 74.5363 200.883 83.2719 209.41 92.0023C209.41 93.8285 209.41 95.6027 209.41 97.4081C207.267 95.3477 205.175 93.3394 202.933 91.1854C201.928 91.0606 200.779 90.8941 199.623 90.79C198.094 90.6496 196.876 90.0824 195.763 88.9222C190.518 83.4852 185.18 78.1367 179.868 72.7621C179.436 72.3251 178.942 71.94 178.297 71.3677C177.459 72.4343 176.653 73.4541 175.846 74.479C175.716 74.3802 175.581 74.2865 175.451 74.1877C175.451 74.8797 175.451 75.5716 175.451 76.2584C175.446 84.7495 175.441 93.2458 175.43 101.737C175.43 102.517 175.456 103.303 175.352 104.073C175.139 105.597 173.973 106.768 172.47 107.085C171.086 107.377 169.603 106.83 168.895 105.488C168.406 104.557 168 103.454 167.99 102.429C167.922 93.3186 167.948 84.2084 167.948 75.041C166.133 74.786 164.156 74.7808 162.376 74.1825C160.586 73.5789 158.994 72.3823 157.444 71.5134C157.444 73.5789 157.444 75.811 157.444 78.043C157.459 99.7077 157.485 121.367 157.48 143.032C157.48 143.875 157.402 144.765 157.121 145.545C156.429 147.439 154.733 148.271 152.579 147.933C151.008 147.689 149.827 146.299 149.65 144.463C149.608 144 149.634 143.526 149.634 143.063C149.634 120.155 149.634 97.2416 149.634 74.3334C149.634 72.7777 149.634 71.2221 149.634 69.5623C149.166 69.4323 148.745 69.3126 148.256 69.1773C147.829 69.6924 147.439 70.1607 147.054 70.6289C144.187 74.094 140.493 75.8006 136.013 75.7589C133.833 75.7381 131.653 75.6029 129.478 75.5352C128.636 75.5092 127.793 75.53 126.835 75.53C126.835 82.9441 126.835 90.2333 126.835 97.663C130.498 99.2343 132.756 102.106 133.969 105.811C135.009 108.99 134.541 112.106 133.344 115.16C131.247 120.514 125.79 123.516 120.04 122.829C113.875 122.09 109.026 116.971 108.407 111.201C107.777 105.363 111.529 98.5735 119.161 96.638C119.161 89.3124 119.161 81.9452 119.161 74.4842C115.415 73.2043 114.546 70.2699 114.557 66.7164C114.593 52.4553 114.572 38.1942 114.572 23.9384C114.572 23.4701 114.546 23.0019 114.593 22.5388C114.796 20.5877 116.149 19.2038 117.845 19.1934C119.619 19.183 121.341 20.6242 121.534 22.4608C121.669 23.7719 121.591 25.109 121.57 26.4306C121.528 29.5315 122.99 31.1444 126.091 31.3889C126.398 31.4149 126.705 31.4617 127.028 31.5034C128.251 32.4139 129.38 33.5429 129.593 34.9945C129.78 36.2952 129.302 37.6948 129.052 39.5002C129.733 40.1089 130.597 40.8789 131.747 41.9091C131.742 41.8987 131.82 42.2837 131.991 42.6219C133.667 45.9673 132.34 48.8081 130.051 51.0453C125.03 55.9464 125.758 57.1951 125.743 62.0078C125.738 63.7143 125.743 65.426 125.743 67.1014C128.027 67.8246 133.453 67.965 135.462 67.4083C137.558 66.8256 139.291 65.6862 140.644 63.9953C141.518 62.9027 142.288 61.7268 143.126 60.603C143.63 59.9266 144.177 59.2763 144.723 58.5895C146.856 58.9329 148.672 59.8382 150.519 60.603C152.028 61.2273 153.417 62.1274 154.915 62.7726C156.185 63.3189 157.537 63.6727 158.854 64.1097C159.572 64.3491 160.368 64.4739 161.003 64.8589C165.435 67.5592 169.65 66.784 173.708 64.0837C174.993 63.2252 176.164 62.1638 177.277 61.0817C186.689 51.8726 196.07 42.6375 205.466 33.4128C210.357 28.6106 215.284 23.8447 220.154 19.0165C221.221 17.9551 222.344 17.4712 223.874 17.4764C239.691 17.4972 255.513 17.4608 271.329 17.4452C271.933 17.4452 272.536 17.5285 273.301 17.5857C274.061 22.0237 274.805 26.3733 275.523 30.5616C273.218 34.8904 273.239 35.187 276.028 38.9331C274.873 41.0142 275.627 42.8768 277.079 44.599C277.276 44.8331 277.51 45.0776 277.604 45.3638C278.156 46.9715 278.665 48.5896 279.175 50.1556C279.841 50.5771 280.424 50.9413 281.168 51.4095C280.778 52.4969 280.179 53.5219 280.081 54.5989C279.987 55.6239 280.419 56.6956 280.653 57.9183C281.09 58.2045 281.662 58.5843 282.38 59.0577C282.318 60.0151 282.255 60.9984 282.172 62.2679C282.448 62.6529 282.895 63.2721 283.348 63.9068C283.348 64.9266 283.234 65.9567 283.374 66.9453C283.65 68.8964 282.823 70.2595 281.329 71.3365C280.648 71.8256 279.909 72.2418 279.201 72.6892C278.655 72.4187 278.244 72.2106 277.833 72.0129C275.247 70.7798 273.546 70.9879 271.512 73.0274C268.707 75.8474 267.38 79.3229 268.02 83.2511C268.858 88.3967 271.683 92.0491 276.756 93.8389C282.796 95.9721 288.442 92.7099 290.835 88.4904C291.407 87.481 291.886 86.4248 292.484 85.2386C296.522 87.9493 300.575 90.379 305.382 87.4602C306.516 88.173 306.74 89.1563 306.709 90.1813C306.47 97.4809 307.073 104.822 306.168 112.111ZM147.475 156.419C149.947 155.992 151.986 155.378 154.036 155.332C161.882 155.155 168.235 161.096 168.692 168.942C168.843 171.492 168.063 173.921 166.757 176.049C162.86 182.413 158.24 183.979 151.757 182.615C144.634 181.122 141.549 175.113 141.367 169.66C141.325 168.51 141.528 167.329 141.768 166.19C141.986 165.129 142.402 164.114 142.819 162.803C131.726 151.507 120.665 140.243 109.244 128.615C113.011 128.558 116.3 128.677 119.671 128.813C129.291 137.881 138.214 147.642 147.475 156.419ZM135.238 91.6849C133.292 90.7224 132.418 88.8389 132.933 86.8358C133.427 84.9004 134.952 83.7349 137.038 83.6881C139.983 83.6257 141.669 85.0305 142.137 87.9805C142.293 88.9742 142.46 89.9836 142.46 90.9877C142.491 107.736 142.496 124.489 142.501 141.242C142.501 141.627 142.46 142.007 142.428 142.626C140.639 141.169 139.208 139.645 138.188 137.808C137.839 137.184 137.85 136.31 137.845 135.545C137.735 122.304 137.647 109.068 137.558 95.8264C137.553 94.7442 137.558 93.662 137.558 92.5694C136.664 92.2364 135.92 92.0231 135.238 91.6849ZM166.398 115.811C168.521 113.579 171.996 113.589 174.093 115.837C176.325 118.22 175.742 121.315 172.366 124.354C172.366 125.686 172.366 127.153 172.366 128.625C172.366 130.087 172.366 131.549 172.366 133.251C171.07 133.251 170.139 133.261 169.208 133.24C168.989 133.235 168.776 133.136 168.401 133.032C168.401 130.098 168.401 127.168 168.401 124.39C164.593 121.05 164.005 118.329 166.398 115.811ZM174.197 139.276C174.41 139.354 174.655 139.354 175.113 139.426C180.092 134.593 185.154 129.676 190.347 124.64C189.905 124.323 189.634 124.068 189.311 123.911C180.649 119.63 178.115 107.595 186.648 100.03C192.589 94.7598 202.272 95.7484 207.079 102.996C212.214 110.733 209.795 119.78 202.126 124.052C200.399 125.014 198.931 126.185 197.553 127.585C192.303 132.902 186.981 138.147 181.689 143.422C181.304 143.802 180.945 144.208 180.508 144.676C180.935 147.298 180.451 149.77 178.776 151.908C176.731 154.51 174.124 155.732 170.789 154.978C167.465 154.223 164.634 151.502 164.213 148.459C163.349 142.262 169.28 137.543 174.197 139.276ZM174.613 201.533C168.583 201.465 163.64 196.653 163.713 190.727C163.791 184.53 168.895 179.332 174.816 179.541C180.654 179.561 185.388 184.551 185.368 190.659C185.347 196.736 180.539 201.601 174.613 201.533ZM177.719 214.462C177.688 218.458 175.076 221.132 171.205 221.132C167.303 221.132 164.213 218.224 164.176 214.514C164.14 210.768 167.511 207.189 170.997 207.277C174.889 207.386 177.751 210.44 177.719 214.462ZM131.076 219.925C126.934 219.925 122.819 219.925 118.87 219.925C113.859 224.675 109.884 225.784 105.847 223.661C102.184 221.736 99.9574 217.412 100.639 213.536C101.378 209.327 104.786 205.898 108.818 205.31C113.474 204.634 116.695 206.726 119.723 212.48C122.272 212.48 124.895 212.48 127.834 212.48C135.909 205.31 143.526 197.293 151.736 189.873C153.469 189.873 155.155 189.873 157.085 189.873C157.085 191.752 157.085 193.37 157.085 195.097C148.464 203.333 139.801 211.601 131.076 219.925ZM142.413 226.658C142.397 227.126 142.002 227.667 141.632 228.021C139.125 230.451 136.58 232.839 134.27 235.029C127.808 235.029 121.7 235.029 115.597 235.029C115.524 234.842 115.446 234.655 115.373 234.467C117.918 232.089 120.462 229.712 122.975 227.37C126.305 227.37 129.489 227.37 132.725 227.37C135.977 224.613 138.677 221.242 142.454 218.791C142.449 221.58 142.491 224.119 142.413 226.658ZM109.421 234.514C108.641 235.612 107.314 235.721 105.53 234.837C104.671 232.027 105.327 231.091 108.256 231.137C109.838 232.636 110.129 233.515 109.421 234.514ZM83.4747 175.534C95.9304 175.451 108.386 175.472 120.842 175.487C122.231 175.487 123.662 175.54 125.004 175.857C126.695 176.258 127.907 177.335 128.131 179.208C128.37 181.195 127.189 182.714 125.191 182.948C124.421 183.037 123.636 183.032 122.86 183.032C108.771 183.026 94.6765 182.964 80.5871 183.052C78.1938 183.068 76.1647 182.563 74.328 181.081C73.7297 180.602 73.0481 180.222 72.2573 179.697C68.9171 182.87 64.8848 183.869 60.4208 183.38C57.4343 183.052 54.9578 181.658 52.8246 179.619C48.4282 175.415 46.7581 168.079 50.3376 162.059C53.6935 156.419 59.7548 153.901 66.1856 155.763C69.6559 156.768 72.4082 158.875 74.3645 161.965C76.2999 165.019 76.5497 168.375 76.1126 171.84C77.8972 174.509 80.3218 175.555 83.4747 175.534ZM80.5923 158.292C80.5351 157.397 81.1126 156.273 81.815 155.925C82.6006 155.535 83.8077 155.68 84.4164 156.336C84.7182 156.658 84.9939 157.101 85.0668 157.527C85.2281 158.448 85.2697 159.4 84.1979 160.373C83.7088 160.373 82.9388 160.472 82.2052 160.347C81.2947 160.201 80.6599 159.275 80.5923 158.292ZM91.6952 162.257C91.8149 158.11 94.6713 155.144 98.5162 155.17C101.846 154.796 105.498 158.485 105.327 161.991C105.139 165.821 102.241 168.823 98.4381 168.76C94.9782 168.708 91.6016 165.451 91.6952 162.257ZM111.752 164.806C111.986 163.76 112.798 163.146 113.948 163.146C115.16 163.146 116.029 163.817 116.305 164.967C116.487 165.722 116.362 166.268 115.795 166.788C114.812 167.678 113.287 167.678 112.299 166.794C111.695 166.258 111.565 165.654 111.752 164.806ZM192.698 193.354C192.698 185.102 192.698 177.413 192.698 169.686C193.489 168.365 204.285 158.105 207.251 155.893C207.984 155.893 208.812 155.893 209.634 155.893C210.232 157.891 209.743 159.463 208.317 160.821C206.065 162.969 203.843 165.139 201.627 167.324C200.139 168.791 198.687 170.295 197.251 171.752C197.251 174.65 197.251 177.366 197.251 180.082C197.251 182.803 197.251 185.524 197.251 188.489C195.914 189.92 194.493 191.434 192.698 193.354ZM249.321 68.6622C249.321 71.7371 249.321 74.9213 249.321 78.2719C247.511 79.5622 245.695 80.863 243.671 82.3042C243.671 76.2012 243.671 70.3324 243.671 64.4479C248.848 60.5145 248.967 57.4709 247.88 54.141C246.694 50.4938 243.645 48.5636 239.805 48.6884C236.377 48.7977 233.406 50.9933 232.615 54.3023C231.793 57.7414 231.845 61.0713 237.375 64.7185C237.375 70.6341 237.375 76.3781 237.375 82.5591C235.232 80.9098 233.229 79.6819 231.491 77.8973C231.491 74.8849 231.491 71.862 231.491 68.8131C227.428 65.7226 225.575 61.5395 225.451 56.654C225.352 52.6166 226.715 48.9018 229.613 46.0714C235.575 40.2494 244.342 40.2338 250.268 45.6968C255.507 50.5198 258.125 60.551 249.321 68.6622ZM249.394 117.47C247.053 117.866 245.456 117.84 243.65 117.366C243.65 108.079 243.65 98.7608 243.65 89.2552C245.414 88.1886 247.068 86.8046 249.165 86.097C249.602 87.6579 249.779 114.099 249.394 117.47ZM234.93 113.037C238.374 113.011 240.32 116.242 240.211 118.407C240.086 120.857 238.484 123.5 234.967 123.48C231.985 123.459 229.483 121.19 229.706 118.459C229.972 115.119 232.032 113.064 234.93 113.037ZM231.684 85.2802C233.645 86.815 235.528 88.2926 237.36 89.7286C237.36 95.3529 237.36 100.852 237.36 106.487C235.315 106.487 233.557 106.487 231.84 106.487C231.356 104.697 231.247 88.5996 231.684 85.2802ZM234.046 130.493C234.826 129.775 235.705 129.172 236.72 128.376C237.292 130.103 237.001 131.57 237.048 133.001C237.095 134.479 237.058 135.956 237.058 137.09C234.54 139.723 232.266 142.174 229.915 144.541C227.558 146.913 225.123 149.203 222.646 151.601C222.526 152.761 223 153.781 223.869 154.645C225.461 156.232 227.657 156.237 229.254 154.65C233.343 150.592 237.417 146.518 241.507 142.465C242.391 141.591 243.307 140.748 244.316 139.791C249.992 139.791 255.523 139.739 261.049 139.811C263.801 139.848 265.315 141.518 265.18 144.067C265.06 146.315 263.624 147.819 261.288 147.876C257.786 147.964 254.28 147.923 250.773 147.933C249.685 147.938 248.598 147.933 247.334 147.933C244.868 150.321 242.36 152.751 239.847 155.181C238 156.965 236.163 158.766 234.295 160.524C231.309 163.339 227.797 164.395 223.76 163.521C217.433 162.147 211.574 153.287 218.057 145.54C219.202 144.171 220.575 142.996 221.881 141.773C225.929 137.996 229.977 134.234 234.046 130.493Z" fill="#116034"/>
<path d="M73.3863 227.293C77.5954 227.293 81.7994 227.293 86.0085 227.293C86.4767 227.293 86.945 227.272 87.4132 227.293C89.3799 227.381 90.561 228.323 90.7119 229.904C90.8784 231.679 89.7545 233.375 88.0636 233.796C87.4705 233.947 86.8357 234.004 86.2218 234.004C77.6527 234.004 69.0783 233.989 60.5092 233.968C59.812 233.968 59.094 233.952 58.4229 233.786C56.914 233.411 55.9463 232.017 56.014 230.477C56.0816 228.9 57.1222 227.641 58.6726 227.36C59.2813 227.251 59.9161 227.287 60.5352 227.287C64.8224 227.282 69.1044 227.282 73.3915 227.282C73.3863 227.287 73.3863 227.287 73.3863 227.293Z" fill="#116034"/>
<path d="M217.854 190.019C214.467 189.983 211.725 187.376 211.788 184.244C211.855 180.654 214.363 178.11 217.782 178.157C221.413 178.203 224.004 180.659 223.989 184.041C223.968 187.433 221.278 190.056 217.854 190.019Z" fill="#116034"/>
<path d="M127.236 109.744C127.184 113.105 124.374 116.034 121.112 115.79C117.689 115.535 115.337 113.105 115.186 109.682C115.051 106.591 118.375 103.542 121.435 103.631C124.671 103.719 127.288 106.482 127.236 109.744Z" fill="#116034"/>
<path d="M259.883 107.887C259.914 105.431 261.746 103.594 264.191 103.574C266.355 103.553 268.65 105.748 268.686 107.876C268.723 109.999 266.475 112.262 264.342 112.241C261.725 112.221 259.852 110.389 259.883 107.887Z" fill="#116034"/>
<path d="M62.1949 176.351C58.6778 176.33 55.2231 172.87 55.3271 169.473C55.4416 165.67 58.6465 162.725 62.5279 162.709C66.0294 162.694 69.4217 165.43 69.4529 169.686C69.4789 173.365 66.0814 176.377 62.1949 176.351Z" fill="#116034"/>
<path d="M202.938 111.534C202.979 115.42 199.582 118.828 195.68 118.813C191.819 118.797 188.422 115.41 188.328 111.544C188.24 107.663 190.763 104.094 195.196 103.99C199.8 103.886 202.896 107.252 202.938 111.534Z" fill="#116034"/>
<path d="M154.858 162.813C158.391 162.907 161.663 166.065 161.58 169.291C161.481 173.053 158.302 176.044 154.546 175.893C151.05 175.753 148.136 172.636 148.198 169.098C148.266 165.399 151.112 162.714 154.858 162.813Z" fill="#116034"/>
<path d="M105.998 214.696C106.149 212.287 108.199 210.399 110.467 210.576C112.73 210.753 114.63 212.953 114.473 215.227C114.328 217.36 112.012 219.332 109.765 219.202C107.616 219.077 105.696 216.876 105.998 214.696Z" fill="#116034"/>
<path d="M170.066 190.711C169.931 187.834 172.511 186.159 174.681 186.185C177.053 186.211 179.005 188.136 179.067 190.472C179.129 192.87 176.949 194.983 174.395 194.998C172.085 195.009 170.076 193.026 170.066 190.711Z" fill="#116034"/>
<path d="M155.29 26.7115C152.844 26.7063 150.987 24.8385 151.023 22.4192C151.055 20.1351 152.928 18.3037 155.227 18.3037C157.558 18.3089 159.457 20.2496 159.499 22.6689C159.546 24.9634 157.72 26.7167 155.29 26.7115Z" fill="#116034"/>
<path d="M70.5715 35.0101C72.7203 35.0153 74.2447 36.4982 74.2864 38.6261C74.328 40.6344 72.4758 42.4502 70.3894 42.4554C68.3967 42.4554 66.5601 40.7541 66.5081 38.8551C66.4508 36.6646 68.2094 35.0049 70.5715 35.0101Z" fill="#116034"/>
<path d="M264.899 237.209C262.989 237.209 261.777 236.064 261.751 234.238C261.725 232.24 262.916 230.976 264.862 230.934C266.72 230.898 268.228 232.282 268.26 234.051C268.291 235.752 266.74 237.209 264.899 237.209Z" fill="#116034"/>
<path d="M284.987 211.913C286.959 212.631 287.588 213.25 287.479 214.296C287.385 215.201 286.605 215.935 285.627 216.049C284.456 216.184 283.561 215.701 283.218 214.738C282.796 213.578 283.197 212.912 284.987 211.913Z" fill="#116034"/>
<path d="M69.7548 68.7195C70.6809 67.0234 71.3677 66.6071 72.5903 66.9401C73.4956 67.1847 73.9847 67.8662 73.9275 68.8132C73.865 69.7913 73.1835 70.5457 72.2313 70.6914C71.0451 70.8683 70.5612 70.4989 69.7548 68.7195Z" fill="#116034"/>
<path d="M172.87 215.367C172.079 216.299 170.612 216.262 169.785 215.367C169.202 214.738 169.098 214.197 169.338 213.546C169.634 212.74 170.461 212.235 171.346 212.319C172.319 212.412 173.12 213.141 173.255 214.041C173.328 214.535 173.208 214.972 172.87 215.367Z" fill="#116034"/>
<path d="M98.4329 163.698C97.2362 163.703 96.4142 163.006 96.409 161.97C96.4038 160.904 97.4287 159.952 98.5369 159.999C99.5151 160.04 100.42 160.972 100.446 161.965C100.472 162.969 99.6347 163.693 98.4329 163.698Z" fill="#116034"/>
<path d="M230.128 234.634C229.951 232.584 229.951 232.584 231.642 231.746C232.755 232.048 233.765 232.547 233.655 233.895C233.614 234.41 233.161 235.055 232.703 235.341C231.632 236.018 230.804 235.393 230.128 234.634Z" fill="#116034"/>
<path d="M45.8632 59.7341C46.7528 58.1785 47.372 57.7727 48.3553 58.0744C49.1878 58.3294 49.6508 58.9121 49.6508 59.7914C49.6508 60.5978 49.2034 61.0869 48.4438 61.2898C47.4032 61.576 46.8361 61.243 45.8632 59.7341Z" fill="#116034"/>
<path d="M285.564 278.421C286.647 278.567 287.562 278.894 287.568 280.05C287.573 280.58 287.266 281.272 286.86 281.61C285.97 282.354 285.138 281.881 284.389 281.158C284.092 280.008 284.113 279.009 285.564 278.421Z" fill="#116034"/>
<path d="M76.2427 124.749C76.9763 124.827 77.4966 124.931 78.0221 124.931C82.9336 124.957 87.8399 124.968 92.7514 124.978C93.2977 124.978 93.8493 124.978 94.3851 124.9C96.1905 124.629 97.2883 123.324 97.2779 121.513C97.2675 119.682 95.9668 118.194 94.1822 118.006C93.7972 117.965 93.4018 118.011 93.0168 118.022C87.5278 118.126 83.558 113.88 84.1667 108.438C84.5621 104.905 86.1802 102.033 89.4268 100.384C90.6391 99.765 92.0699 99.5829 93.7504 99.099C93.844 98.8285 94.1614 98.2822 94.2134 97.7151C94.3071 96.6329 94.2603 95.5403 94.2603 94.4477C94.2603 82.4499 94.2395 70.4468 94.2707 58.449C94.2863 53.0797 94.4007 47.7051 94.4684 42.3357C94.4788 41.5761 94.4684 40.8165 94.4684 39.854C91.6172 39.854 89.0002 39.854 86.3467 39.854C85.842 38.4648 86.2114 37.2213 86.0397 36.0403C87.689 35.5304 96.612 35.3899 100.384 35.8114C100.436 36.1287 100.53 36.4877 100.54 36.8519C101.237 57.013 100.972 77.1793 101.04 97.3457C101.045 98.9221 100.925 100.452 100.332 101.929C99.203 104.723 97.6838 105.743 94.6401 105.753C93.4018 105.759 92.1687 105.675 91.201 106.773C89.7858 108.381 89.8743 110.03 91.5808 111.373C91.8253 111.565 92.1011 111.706 92.4913 111.945C93.4746 111.882 94.562 111.841 95.6442 111.747C97.3716 111.596 98.8804 112.127 100.212 113.178C105.831 117.59 105.561 127.184 99.7129 131.274C98.0584 132.434 96.227 132.897 94.2134 132.892C85.02 132.866 75.8213 132.881 66.6278 132.881C65.5508 132.881 64.4687 132.881 63.2408 132.881C63.2408 135.176 63.2408 137.314 63.2408 139.733C78.8026 139.827 94.3591 139.723 110.098 139.811C118.74 148.016 126.919 156.799 135.67 165.253C135.67 167.038 135.628 168.901 135.68 170.763C135.727 172.506 135.868 174.249 135.998 176.502C125.951 166.804 116.69 157.043 107.174 147.85C89.6869 147.85 72.5487 147.85 55.1867 147.85C50.4001 151.742 46.0973 156.367 41.1754 160.821C39.5573 160.821 37.6947 160.748 35.8425 160.841C33.5792 160.956 32.2629 162.74 32.778 164.837C33.1058 166.185 34.3128 167.215 35.8269 167.309C36.753 167.366 37.6895 167.272 38.626 167.231C39.0891 167.21 39.5573 167.085 40.0152 167.116C40.5511 167.153 41.0766 167.314 41.498 167.397C41.6853 169.78 41.5656 172.147 42.0963 174.364C44.0162 182.381 48.9017 187.678 57.0338 189.686C58.3085 189.998 59.6508 190.149 60.9619 190.154C81.2167 190.191 101.471 190.201 121.731 190.191C124.609 190.191 127.486 190.04 130.462 189.951C133.563 187.053 136.684 184.14 139.832 181.2C141.612 182.938 143.308 184.598 145.196 186.44C141.164 190.342 137.231 194.171 133.167 197.875C132.725 197.912 132.34 197.969 131.96 197.969C107.023 197.969 82.0908 197.964 57.1534 197.954C55.5978 197.954 54.0369 197.922 52.4813 197.959C51.2898 197.985 50.1764 198.255 49.2763 199.135C47.4865 200.872 47.9235 203.51 50.2336 204.457C50.9256 204.738 51.7424 204.816 52.5073 204.821C65.7538 204.878 79.0003 204.915 92.2468 204.951C94.1094 204.957 95.9668 204.951 98.152 204.951C95.8107 208.011 92.7879 209.951 90.2489 212.49C89.458 212.49 88.6828 212.49 87.9128 212.49C78.4852 212.485 69.0576 212.469 59.6248 212.495C58.7091 212.495 57.7257 212.579 56.9037 212.922C55.707 213.427 54.859 214.436 54.8173 215.799C54.7809 217.147 55.5093 218.193 56.6696 218.833C57.2679 219.16 57.9703 219.358 58.6518 219.462C59.5728 219.603 60.5145 219.639 61.4458 219.644C69.786 219.66 78.121 219.649 86.4612 219.681C87.6995 219.686 88.9794 219.696 90.1656 219.988C94.8222 221.127 97.1322 224.535 98.0167 228.911C98.844 232.99 97.2831 236.418 94.1666 239.087C92.33 240.659 90.0824 241.33 87.6786 241.34C81.4456 241.371 75.2126 241.325 68.9795 241.382C67.6736 241.392 66.3209 241.543 65.067 241.897C59.4167 243.489 55.8059 249.675 57.4864 255.003C58.7975 259.16 61.7892 261.6 66.0555 262.334C67.8089 262.636 69.6247 262.693 71.4093 262.698C79.3593 262.724 87.304 262.708 95.254 262.677C100.082 262.656 104.911 262.547 109.739 262.542C113.474 262.537 117.215 262.688 120.951 262.662C125.545 262.63 130.134 262.495 135.02 262.396C138.407 259.222 141.913 255.908 145.456 252.63C149 249.353 152.584 246.111 156.315 242.698C165.035 242.698 173.906 242.698 182.777 242.698C185.154 240.419 187.449 238.224 189.998 235.778C177.714 235.778 165.768 235.778 153.76 235.778C150.826 238.505 147.876 241.278 144.895 244.009C143.172 245.586 141.367 247.079 139.655 248.666C138.677 249.576 137.595 249.894 136.268 249.889C128.865 249.842 121.461 249.862 114.062 249.868C113.204 249.868 112.345 249.961 111.492 249.899C109.89 249.784 108.651 250.372 107.533 251.501C106.055 252.989 104.468 254.373 102.871 255.851C102.32 255.851 101.778 255.851 101.237 255.851C90.7952 255.861 80.353 255.872 69.9109 255.877C69.2865 255.877 68.6517 255.908 68.0482 255.804C66.196 255.482 64.5623 253.744 64.5831 252.199C64.6091 250.336 66.3053 248.531 68.3032 248.296C68.9171 248.224 69.5467 248.265 70.171 248.265C79.6766 248.265 89.1823 248.265 98.8596 248.265C100.988 246.361 103.188 244.394 105.483 242.344C115.316 242.344 125.202 242.344 134.889 242.344C137.283 240.841 147.22 231.684 149.551 228.869C149.551 223.744 149.634 218.531 149.504 213.318C149.457 211.486 149.999 210.217 151.393 209.093C153.38 207.49 155.264 205.758 157.475 203.838C157.475 211.928 157.475 219.623 157.475 227.11C157.704 227.365 157.751 227.428 157.803 227.48C157.86 227.532 157.928 227.615 157.985 227.615C167.413 227.641 176.84 227.662 186.268 227.677C187.355 227.677 188.443 227.631 189.535 227.589C189.676 227.584 189.806 227.459 190.107 227.303C190.154 226.569 190.212 225.737 190.279 224.727C189.676 224.212 189.072 223.614 188.396 223.12C183.937 219.878 182.345 213.187 185.773 207.6C187.641 204.556 190.16 202.371 193.895 201.918C194.4 201.856 194.977 201.601 195.326 201.247C198.926 197.594 202.49 193.906 206.059 190.222C206.106 190.17 206.112 190.082 206.184 189.873C204.78 186.398 204.389 182.787 205.95 179.114C207.178 176.211 209.114 173.953 211.84 172.387C215.841 170.082 223.193 169.889 228.572 176.799C232.412 173.053 236.22 169.312 240.06 165.597C243.921 161.866 247.802 158.162 251.657 154.468C255.216 154.468 258.64 154.478 262.063 154.463C263.541 154.458 265.024 154.437 266.501 154.359C270.242 154.161 272.942 151.336 273.26 148.365C273.431 146.747 273.785 145.139 274.201 143.563C275.32 139.333 278.078 136.159 281.09 133.178C282.698 131.591 284.404 130.108 286.064 128.578C289.056 125.811 289.056 125.811 292.822 124.895C294.763 123.157 296.199 120.967 296.865 118.651C295.216 118.1 293.509 118.454 291.85 118.386C290.221 118.318 288.582 118.37 286.891 118.37C283.957 121.18 281.033 123.974 278.109 126.773C276.418 128.391 274.717 129.988 273.046 131.627C272.162 132.491 271.173 132.918 269.914 132.912C262.511 132.886 255.107 132.928 247.708 132.886C245.019 132.871 243.442 131.362 243.411 128.995C243.38 126.747 244.701 125.301 246.97 125.259C249.696 125.212 252.422 125.269 255.154 125.269C259.051 125.269 262.948 125.233 266.845 125.254C268.171 125.259 269.16 124.822 270.143 123.87C274.607 119.525 279.17 115.285 283.827 110.878C287.052 110.878 290.398 110.878 293.743 110.878C295.382 110.878 297.016 110.941 298.65 110.873C301.017 110.779 302.224 109.406 302.089 107.101C302.006 105.686 301.36 104.77 299.982 104.354C299.248 104.13 298.452 104.021 297.687 104.021C290.127 104 282.568 104.016 275.013 104.026C274.555 104.026 274.097 104.094 273.457 104.141C273.587 104.666 273.65 105.098 273.801 105.488C275.263 109.224 273.114 113.912 269.795 116.347C266.621 118.672 261.99 118.693 258.869 116.347C257.089 115.015 256.179 113.214 256.194 110.915C256.241 104.057 256.226 97.2 256.231 90.3426C256.236 84.4217 256.231 78.5009 256.231 72.5124C261.345 67.1222 263.13 60.6134 262.115 53.3658C261.205 46.8622 257.927 41.7062 252.407 38.0798C242.396 31.5086 225.451 33.0955 218.994 49.1671C217.922 48.8029 217.225 47.934 216.491 47.19C215.128 45.8061 213.905 44.2816 212.547 42.8925C211.746 42.0808 210.872 41.2692 209.878 40.7333C208.578 40.0257 207.293 40.4107 206.273 41.4773C205.269 42.5335 204.956 43.8186 205.56 45.1349C205.935 45.9569 206.554 46.701 207.173 47.3825C210.383 50.8841 213.63 54.3492 217.35 58.3606C217.324 60.4521 218.25 63.2617 219.54 65.9255C220.83 68.5998 222.511 71.04 224.727 73.0066C224.727 73.9536 224.727 74.7912 224.727 75.8162C223.484 75.478 222.865 74.5467 222.157 73.8235C215.336 66.8725 208.541 59.8954 201.777 52.8924C200.711 51.7894 199.67 50.8737 197.995 50.9621C195.56 51.0974 193.906 53.5739 194.967 55.7956C195.425 56.7477 196.184 57.5958 196.944 58.3554C205.253 66.6852 213.593 74.9837 221.918 83.2979C222.631 84.0055 223.271 84.7859 223.937 85.5195C223.968 100.41 224.041 115.202 223.905 129.718C211.84 141.185 200.035 152.392 188.25 163.615C186.33 165.441 184.504 167.366 182.579 169.182C181.793 169.92 180.924 170.618 179.983 171.138C178.417 172.002 176.44 171.669 175.456 170.545C174.577 169.541 174.426 167.506 175.269 166.143C175.753 165.358 176.388 164.645 177.053 164C187.423 153.989 197.813 144 208.182 133.989C210.976 131.289 213.702 128.516 216.346 125.889C216.346 113.521 216.346 101.451 216.346 89.0315C207.214 79.8016 198.021 70.3168 188.365 60.9464C186.757 62.5905 185.316 64.0577 183.713 65.6966C192.35 74.5415 200.872 83.2771 209.4 92.0075C209.4 93.8337 209.4 95.6079 209.4 97.4133C207.256 95.353 205.165 93.3447 202.922 91.1907C201.918 91.0658 200.768 90.8993 199.613 90.7952C198.083 90.6548 196.866 90.0877 195.753 88.9274C190.508 83.4904 185.17 78.1419 179.858 72.7673C179.426 72.3303 178.932 71.9453 178.287 71.3729C177.449 72.4395 176.642 73.4593 175.836 74.4843C175.706 74.3854 175.571 74.2918 175.441 74.1929C175.441 74.8849 175.441 75.5769 175.441 76.2636C175.435 84.7547 175.43 93.251 175.42 101.742C175.42 102.523 175.446 103.308 175.342 104.078C175.128 105.603 173.963 106.773 172.459 107.091C171.075 107.382 169.593 106.836 168.885 105.493C168.396 104.562 167.99 103.459 167.98 102.434C167.912 93.3238 167.938 84.2136 167.938 75.0462C166.122 74.7912 164.145 74.786 162.366 74.1877C160.576 73.5842 158.984 72.3875 157.433 71.5186C157.433 73.5842 157.433 75.8162 157.433 78.0482C157.449 99.713 157.475 121.373 157.47 143.037C157.47 143.88 157.392 144.77 157.111 145.55C156.419 147.444 154.723 148.277 152.569 147.938C150.998 147.694 149.816 146.305 149.64 144.468C149.598 144.005 149.624 143.532 149.624 143.068C149.624 120.16 149.624 97.2468 149.624 74.3386C149.624 72.7829 149.624 71.2273 149.624 69.5675C149.156 69.4375 148.734 69.3178 148.245 69.1825C147.819 69.6976 147.428 70.1659 147.043 70.6341C144.177 74.0993 140.483 75.8058 136.003 75.7642C133.823 75.7434 131.648 75.6081 129.468 75.5404C128.625 75.5144 127.782 75.5352 126.825 75.5352C126.825 82.9493 126.825 90.2385 126.825 97.6682C130.488 99.2395 132.746 102.111 133.958 105.816C134.999 108.995 134.53 112.111 133.334 115.165C131.237 120.519 125.779 123.521 120.03 122.835C113.865 122.096 109.016 116.976 108.396 111.206C107.767 105.368 111.518 98.5787 119.151 96.6433C119.151 89.3176 119.151 81.9504 119.151 74.4895C115.405 73.2096 114.536 70.2751 114.546 66.7216C114.583 52.4605 114.562 38.1995 114.562 23.9436C114.562 23.4754 114.536 23.0071 114.583 22.5441C114.786 20.593 116.138 19.209 117.834 19.1986C119.609 19.1882 121.331 20.6294 121.523 22.466C121.659 23.7771 121.581 25.1143 121.56 26.4358C121.518 29.5367 122.98 31.1496 126.081 31.3941C126.388 31.4201 126.695 31.467 127.018 31.5086C128.24 32.4191 129.369 33.5481 129.583 34.9997C129.77 36.3004 129.291 37.7 129.041 39.5054C129.723 40.1141 130.587 40.8841 131.742 41.9143C131.737 41.9039 131.815 42.2889 131.986 42.6271C133.662 45.9725 132.335 48.8133 130.046 51.0505C125.025 55.9516 125.753 57.2003 125.738 62.013C125.732 63.7195 125.738 65.4313 125.738 67.1066C128.022 67.8298 133.448 67.9703 135.457 67.4136C137.553 66.8308 139.286 65.6914 140.639 64.0005C141.513 62.9079 142.283 61.732 143.12 60.6082C143.625 59.9318 144.171 59.2815 144.718 58.5947C146.851 58.9381 148.667 59.8434 150.514 60.6082C152.023 61.2326 153.412 62.1327 154.91 62.7778C156.18 63.3241 157.532 63.6779 158.849 64.115C159.567 64.3543 160.363 64.4792 160.997 64.8642C165.43 67.5645 169.645 66.7892 173.703 64.0889C174.988 63.2305 176.159 62.1691 177.272 61.0869C186.684 51.8778 196.065 42.6427 205.461 33.418C210.352 28.6158 215.279 23.85 220.149 19.0217C221.215 17.9603 222.339 17.4765 223.869 17.4817C239.686 17.5025 255.508 17.466 271.324 17.4504C271.928 17.4504 272.531 17.5337 273.296 17.5909C274.056 22.029 274.8 26.3786 275.518 30.5669C273.213 34.8956 273.234 35.187 276.022 38.9383C274.867 41.0194 275.622 42.8821 277.073 44.6042C277.271 44.8383 277.505 45.0829 277.599 45.369C278.15 46.9767 278.66 48.5948 279.17 50.1609C279.836 50.5823 280.419 50.9465 281.163 51.4148C280.773 52.5022 280.174 53.5271 280.075 54.6041C279.982 55.6291 280.414 56.7009 280.648 57.9235C281.085 58.2097 281.657 58.5895 282.375 59.063C282.313 60.0203 282.25 61.0036 282.167 62.2731C282.443 62.6581 282.89 63.2825 283.343 63.912C283.343 64.9318 283.228 65.962 283.369 66.9505C283.645 68.9016 282.817 70.2647 281.324 71.3417C280.643 71.8308 279.904 72.247 279.196 72.6945C278.65 72.4239 278.239 72.2158 277.828 72.0181C275.242 70.785 273.541 70.9931 271.506 73.0327C268.702 75.8526 267.375 79.3281 268.015 83.2563C268.853 88.4019 271.678 92.0543 276.751 93.8441C282.791 95.9773 288.436 92.7151 290.83 88.4956C291.402 87.4862 291.881 86.43 292.479 85.2438C296.517 87.9545 300.57 90.3842 305.377 87.4654C306.511 88.1782 306.735 89.1615 306.704 90.1865C306.49 97.5017 307.094 104.843 306.189 112.132C305.824 115.056 305.309 117.996 304.472 120.811C302.619 127.023 298.66 131.555 292.802 134.39C291.891 134.832 290.991 135.29 290.086 135.743C284.576 138.48 281.413 142.902 280.559 148.995C280.44 149.837 280.242 150.675 280.081 151.513C278.863 157.933 273.176 162.241 266.647 162.324C262.599 162.376 258.546 162.335 254.274 162.335C252.537 164.041 250.721 165.847 248.879 167.626C243.276 173.037 237.677 178.453 232.037 183.833C231.262 184.572 230.825 185.378 230.607 186.414C228.765 195.165 220.242 199.416 212.09 195.675C211.809 195.545 211.522 195.415 211.361 195.342C206.871 199.722 202.428 204.056 198.011 208.375C197.053 208.292 196.216 208.146 195.378 208.167C192.901 208.219 191.341 209.514 190.659 211.913C189.972 214.337 190.602 216.413 192.397 218.073C194.077 219.629 196.148 220.081 198.245 219.129C200.409 218.146 201.845 216.439 202.069 213.942C202.11 213.479 202.074 213.011 202.074 212.329C204.842 209.722 207.667 207.069 210.461 204.441C214.124 204.441 217.62 204.441 221.221 204.441C221.949 203.749 222.683 203.068 223.406 202.371C228.952 197.017 234.493 191.653 240.05 186.304C241.678 184.738 243.338 183.203 244.993 181.669C246.47 180.3 248.197 180.227 249.592 181.44C251.267 182.896 251.559 185.004 250.289 186.637C250.003 187.007 249.654 187.324 249.321 187.652C236.345 200.461 223.38 213.276 210.393 226.07C203.286 233.068 196.153 240.04 189.004 246.991C187.501 248.453 185.872 249.774 184.332 251.137C175.461 251.137 166.736 251.137 157.74 251.137C150.821 257.677 143.812 264.306 136.861 270.872C134.525 270.872 132.423 270.872 130.327 270.872C126.352 270.872 122.377 270.846 118.407 270.893C117.122 270.908 116.003 270.591 114.848 270.018C111.976 268.598 109.01 267.537 105.701 267.583C103.225 267.62 100.941 268.244 98.7139 269.202C97.0386 269.925 95.5506 270.882 95.2332 273.031C91.5027 272.172 88.8857 274.118 86.3207 276.194C84.0627 278.026 84.0731 278.036 82.174 278.286C81.5341 277.896 80.8161 277.453 80.0356 276.969C78.251 277.578 76.5809 278.754 74.4686 278.203C74.1616 278.941 73.9535 279.597 73.6413 280.19C72.7204 281.938 71.4041 282.308 69.3958 282.266C66.248 282.198 63.8859 281.033 62.1118 278.442C61.7007 277.844 60.8787 277.537 60.2647 277.063C59.7236 276.647 58.9692 276.293 58.7455 275.731C58.116 274.186 56.9557 273.926 55.5405 274.009C54.9214 274.045 54.3075 274.071 53.8028 273.806C51.8257 272.797 49.8434 271.793 47.6218 270.658C47.4449 270.143 47.8923 269.467 48.319 268.853C49.7966 266.73 49.9527 264.576 48.7872 262.251C48.4178 261.512 48.2097 260.606 48.2097 259.779C48.1941 256.574 46.1494 254.488 44.1046 252.516C43.2149 251.658 42.2888 250.877 41.5552 249.862C40.7436 248.733 39.8227 247.682 38.8862 246.517C38.881 244.353 39.0578 244.228 42.6686 243.978C46.6957 241.174 48.9537 237.22 49.8382 232.433C51.0765 225.747 49.5676 219.764 45.0359 214.644C44.2711 213.781 43.293 213.104 42.3721 212.391C41.6801 211.856 41.1026 211.304 40.858 210.404C40.2181 208.005 39.5053 205.633 38.7509 203.016C38.7717 202.969 38.8341 202.652 39.0058 202.407C40.1088 200.831 40.0568 199.14 39.292 197.522C38.267 195.347 37.1068 193.229 35.9309 191.133C35.2077 189.842 34.3336 188.64 33.5532 187.386C32.5439 185.763 31.9924 184.015 32.0912 182.069C32.1849 180.233 31.6594 178.604 30.6084 177.033C27.8353 172.896 25.2026 168.661 22.5075 164.468C22.1693 163.942 21.8572 163.386 21.4253 162.943C19.3962 160.873 18.4389 158.282 17.57 155.587C16.0404 150.847 14.3026 146.18 12.7157 141.456C12.1434 139.754 11.8781 137.99 12.6897 136.305C13.8239 135.727 14.5732 136.476 15.364 136.877C17.1642 137.793 18.9071 138.833 20.7229 139.718C23.1839 140.92 25.7125 141.32 28.4128 140.389C29.1412 140.139 30.0985 140.347 30.8946 140.566C31.8623 140.831 32.778 141.305 33.6989 141.721C36.701 143.074 39.9111 143.37 43.0849 143.011C44.781 142.819 46.3939 141.778 48.0172 141.045C48.5687 140.795 49.0213 140.321 49.6769 139.832C51.4719 139.832 53.4074 139.832 55.5978 139.832C55.629 138.88 55.681 138.058 55.681 137.231C55.6758 123.828 55.6706 110.426 55.6602 97.0231C55.6602 96.5548 55.6446 96.0866 55.6602 95.6183C55.7486 93.4435 57.0754 91.9191 58.9796 91.7942C60.9047 91.6693 62.7621 93.2146 63.0431 95.2385C63.1367 95.9253 63.0951 96.6381 63.0951 97.3405C63.1107 105.759 63.1211 114.172 63.1367 122.59C63.1367 123.277 63.1367 123.969 63.1367 124.822C66.0607 125.056 68.8235 124.9 71.6798 124.926M73.3864 227.292V227.287C69.0992 227.287 64.8172 227.287 60.5301 227.292C59.9057 227.292 59.271 227.256 58.6674 227.365C57.117 227.646 56.0764 228.905 56.0088 230.482C55.9412 232.022 56.9089 233.416 58.4177 233.791C59.0889 233.957 59.8069 233.973 60.5041 233.973C69.0732 233.999 77.6475 234.009 86.2166 234.009C86.8306 234.009 87.4653 233.947 88.0585 233.801C89.7494 233.38 90.8784 231.684 90.7067 229.91C90.5558 228.328 89.3748 227.386 87.4081 227.298C86.9398 227.277 86.4716 227.298 86.0033 227.298C81.8046 227.292 77.5955 227.292 73.3864 227.292ZM217.854 190.019C221.283 190.056 223.968 187.433 223.983 184.041C223.999 180.659 221.408 178.203 217.776 178.157C214.358 178.11 211.855 180.659 211.783 184.244C211.725 187.376 214.467 189.983 217.854 190.019ZM127.236 109.744C127.288 106.482 124.666 103.719 121.435 103.626C118.376 103.537 115.051 106.591 115.186 109.676C115.337 113.105 117.689 115.53 121.112 115.785C124.374 116.034 127.184 113.105 127.236 109.744ZM259.883 107.887C259.852 110.389 261.73 112.221 264.342 112.241C266.475 112.257 268.723 109.999 268.686 107.876C268.65 105.748 266.355 103.558 264.191 103.573C261.741 103.594 259.909 105.431 259.883 107.887Z" fill="#FFC424"/>
<path d="M72.2574 179.697C68.9171 182.87 64.8849 183.869 60.4209 183.38C57.4344 183.052 54.9579 181.658 52.8247 179.619C48.4283 175.415 46.7581 168.079 50.3377 162.059C53.6936 156.419 59.7549 153.901 66.1856 155.763C69.6559 156.768 72.4083 158.875 74.3645 161.965C76.3 165.019 76.5497 168.375 76.1127 171.84C77.9025 174.509 80.327 175.555 83.4748 175.534C95.9304 175.451 108.386 175.472 120.842 175.487C122.231 175.487 123.662 175.539 125.004 175.857C126.695 176.257 127.907 177.334 128.131 179.208C128.37 181.195 127.189 182.714 125.191 182.948C124.421 183.037 123.636 183.032 122.86 183.032C108.771 183.026 94.6765 182.964 80.5872 183.052C78.1938 183.068 76.1647 182.563 74.3281 181.081C73.7298 180.602 73.0482 180.222 72.2574 179.697ZM62.195 176.351C66.0816 176.377 69.479 173.359 69.453 169.691C69.4218 165.436 66.0296 162.699 62.528 162.714C58.6467 162.73 55.4417 165.675 55.3273 169.478C55.2232 172.876 58.6779 176.33 62.195 176.351Z" fill="#FFC424"/>
<path d="M180.508 144.681C180.935 147.304 180.451 149.775 178.776 151.913C176.731 154.515 174.124 155.737 170.789 154.983C167.465 154.229 164.634 151.508 164.213 148.464C163.349 142.262 169.286 137.543 174.197 139.281C174.41 139.359 174.655 139.359 175.113 139.432C180.092 134.598 185.154 129.682 190.347 124.645C189.905 124.328 189.634 124.073 189.311 123.917C180.649 119.635 178.115 107.601 186.648 100.036C192.589 94.7651 202.272 95.7536 207.079 103.001C212.214 110.738 209.795 119.786 202.126 124.057C200.399 125.02 198.932 126.19 197.553 127.59C192.303 132.907 186.981 138.152 181.689 143.428C181.309 143.802 180.95 144.208 180.508 144.681ZM202.938 111.534C202.891 107.252 199.8 103.881 195.196 103.99C190.763 104.094 188.24 107.663 188.328 111.544C188.417 115.41 191.814 118.797 195.68 118.813C199.582 118.834 202.979 115.42 202.938 111.534Z" fill="#FFC424"/>
<path d="M142.824 162.803C131.731 151.508 120.67 140.243 109.25 128.615C113.017 128.558 116.305 128.677 119.676 128.813C129.291 137.876 138.214 147.637 147.47 156.414C149.941 155.987 151.981 155.373 154.031 155.326C161.877 155.149 168.229 161.091 168.687 168.937C168.838 171.486 168.058 173.916 166.752 176.044C162.855 182.407 158.235 183.973 151.752 182.61C144.629 181.117 141.544 175.108 141.362 169.655C141.32 168.505 141.523 167.324 141.762 166.185C141.991 165.129 142.408 164.114 142.824 162.803ZM154.858 162.813C151.112 162.714 148.261 165.399 148.198 169.098C148.136 172.636 151.055 175.758 154.546 175.893C158.297 176.039 161.481 173.053 161.58 169.291C161.663 166.065 158.391 162.907 154.858 162.813Z" fill="#FFC424"/>
<path d="M244.321 139.786C249.998 139.786 255.528 139.733 261.054 139.806C263.806 139.843 265.32 141.513 265.185 144.062C265.065 146.31 263.629 147.814 261.293 147.871C257.792 147.959 254.285 147.918 250.778 147.928C249.691 147.933 248.603 147.928 247.339 147.928C244.873 150.316 242.365 152.746 239.852 155.176C238.005 156.96 236.168 158.76 234.301 160.519C231.314 163.334 227.802 164.39 223.765 163.516C217.438 162.142 211.58 153.282 218.062 145.535C219.207 144.166 220.581 142.99 221.887 141.768C225.924 137.996 229.977 134.234 234.046 130.493C234.826 129.775 235.705 129.172 236.72 128.376C237.292 130.103 237.001 131.57 237.048 133.001C237.095 134.479 237.058 135.956 237.058 137.09C234.54 139.723 232.266 142.174 229.915 144.541C227.558 146.913 225.123 149.203 222.646 151.601C222.527 152.761 223 153.781 223.869 154.645C225.461 156.232 227.657 156.237 229.254 154.65C233.343 150.592 237.417 146.518 241.507 142.465C242.391 141.586 243.307 140.748 244.321 139.786Z" fill="#FFC424"/>
<path d="M157.085 189.879C157.085 191.757 157.085 193.375 157.085 195.102C148.464 203.333 139.801 211.601 131.076 219.925C126.934 219.925 122.819 219.925 118.87 219.925C113.859 224.675 109.884 225.784 105.847 223.661C102.184 221.736 99.9574 217.412 100.639 213.536C101.378 209.327 104.786 205.898 108.818 205.31C113.474 204.634 116.695 206.726 119.723 212.48C122.273 212.48 124.895 212.48 127.834 212.48C135.909 205.31 143.526 197.293 151.736 189.873C153.464 189.879 155.155 189.879 157.085 189.879ZM105.998 214.696C105.696 216.876 107.621 219.077 109.765 219.202C112.012 219.332 114.323 217.36 114.473 215.227C114.63 212.953 112.736 210.753 110.467 210.576C108.194 210.399 106.149 212.287 105.998 214.696Z" fill="#FFC424"/>
<path d="M237.381 64.7236C237.381 70.6393 237.381 76.3833 237.381 82.5643C235.237 80.915 233.234 79.6871 231.496 77.9025C231.496 74.8901 231.496 71.8672 231.496 68.8183C227.433 65.7278 225.581 61.5447 225.456 56.6592C225.357 52.6218 226.72 48.9069 229.618 46.0766C235.58 40.2546 244.347 40.239 250.273 45.702C255.502 50.525 258.119 60.5562 249.321 68.6622C249.321 71.7371 249.321 74.9213 249.321 78.2719C247.511 79.5622 245.695 80.8629 243.671 82.3041C243.671 76.2012 243.671 70.3323 243.671 64.4479C248.848 60.5145 248.967 57.4709 247.88 54.141C246.694 50.4938 243.645 48.5636 239.805 48.6884C236.377 48.7977 233.406 50.9933 232.615 54.3023C231.798 57.7466 231.85 61.0764 237.381 64.7236Z" fill="#FFC424"/>
<path d="M174.816 179.535C180.654 179.556 185.388 184.546 185.368 190.654C185.347 196.736 180.539 201.601 174.613 201.533C168.583 201.465 163.64 196.653 163.713 190.727C163.786 184.53 168.895 179.332 174.816 179.535ZM170.066 190.711C170.082 193.026 172.085 195.009 174.395 194.998C176.949 194.988 179.129 192.87 179.067 190.472C179.005 188.141 177.053 186.216 174.681 186.185C172.511 186.164 169.931 187.839 170.066 190.711Z" fill="#FFC424"/>
<path d="M155.233 32.2838C149.962 32.3099 145.743 28.0903 145.696 22.8302C145.649 17.3672 149.437 12.9292 155.165 12.7211C160.342 12.5286 165.009 17.2163 165.004 22.5597C164.993 27.3567 161.606 32.3047 155.233 32.2838ZM155.29 26.7116C157.714 26.7168 159.541 24.9634 159.499 22.6689C159.457 20.2496 157.553 18.3037 155.227 18.3037C152.928 18.2985 151.055 20.1299 151.023 22.4192C150.987 24.8385 152.85 26.7064 155.29 26.7116Z" fill="#FFC424"/>
<path d="M79.531 38.6156C79.5674 43.7977 75.7277 47.7467 70.6601 47.7727C65.6966 47.7987 61.4615 44.3388 61.3834 38.9746C61.3054 33.5949 65.3948 29.4794 70.5301 29.4482C76.1856 29.4118 79.7235 34.7135 79.531 38.6156ZM70.5717 35.0101C68.2044 35.0048 66.451 36.6646 66.5082 38.8498C66.5603 40.7488 68.3969 42.4553 70.3896 42.4501C72.4759 42.4501 74.3282 40.6344 74.2865 38.6208C74.2501 36.5033 72.7205 35.0153 70.5717 35.0101Z" fill="#FFC424"/>
<path d="M115.368 234.467C117.912 232.09 120.457 229.712 122.97 227.371C126.3 227.371 129.484 227.371 132.72 227.371C135.972 224.613 138.672 221.242 142.449 218.791C142.449 221.58 142.491 224.119 142.413 226.658C142.397 227.126 142.002 227.667 141.632 228.021C139.125 230.451 136.58 232.839 134.27 235.029C127.808 235.029 121.7 235.029 115.597 235.029C115.519 234.842 115.441 234.655 115.368 234.467Z" fill="#FFC424"/>
<path d="M249.394 117.47C247.053 117.866 245.456 117.84 243.65 117.366C243.65 108.079 243.65 98.7608 243.65 89.2552C245.414 88.1886 247.068 86.8046 249.165 86.097C249.602 87.6579 249.779 114.099 249.394 117.47Z" fill="#FFC424"/>
<path d="M264.966 225.726C269.316 225.732 273.254 229.733 273.26 234.15C273.265 238.723 269.555 242.625 265.148 242.677C260.559 242.735 256.59 238.796 256.824 234.176C257.084 229.129 260.669 225.555 264.966 225.726ZM264.899 237.209C266.74 237.209 268.291 235.752 268.26 234.051C268.223 232.282 266.72 230.898 264.862 230.934C262.922 230.971 261.725 232.24 261.751 234.238C261.772 236.065 262.989 237.209 264.899 237.209Z" fill="#FFC424"/>
<path d="M292.365 213.947C292.401 218.005 289.441 221.111 285.434 221.195C281.485 221.273 278.046 217.985 278.067 214.353C278.093 209.431 281.631 206.674 284.852 206.705C289.092 206.736 292.323 209.8 292.365 213.947ZM284.987 211.913C283.197 212.912 282.797 213.578 283.218 214.738C283.567 215.7 284.456 216.184 285.627 216.049C286.605 215.935 287.385 215.196 287.479 214.296C287.588 213.255 286.959 212.631 284.987 211.913Z" fill="#FFC424"/>
<path d="M71.7215 61.6071C75.4623 61.5915 78.9014 65.0306 78.7818 68.8027C78.6413 73.2616 75.1345 75.9983 71.9036 75.9306C67.7829 75.8474 64.9057 73.0014 64.8225 68.8599C64.7444 64.578 68.5373 61.1805 71.7215 61.6071ZM69.7548 68.7195C70.5612 70.4989 71.0451 70.8683 72.2314 70.6862C73.1887 70.5405 73.8703 69.7861 73.9275 68.8079C73.9847 67.8662 73.4956 67.1794 72.5904 66.9349C71.3677 66.6071 70.6809 67.0233 69.7548 68.7195Z" fill="#FFC424"/>
<path d="M177.719 214.462C177.688 218.458 175.076 221.132 171.205 221.132C167.303 221.132 164.213 218.224 164.176 214.514C164.14 210.768 167.511 207.189 170.997 207.277C174.889 207.386 177.751 210.44 177.719 214.462ZM170.342 215.883C170.862 216.304 171.601 216.33 172.163 215.966C173.042 215.404 173.365 214.795 173.255 214.041C173.12 213.141 172.319 212.412 171.346 212.319C170.461 212.235 169.639 212.74 169.338 213.546C169.036 214.363 169.275 215.008 170.342 215.883Z" fill="#FFC424"/>
<path d="M98.5162 155.165C101.846 154.791 105.498 158.479 105.327 161.986C105.139 165.815 102.241 168.817 98.4382 168.755C94.9783 168.703 91.6016 165.446 91.6953 162.251C91.8201 158.11 94.6713 155.144 98.5162 155.165ZM98.433 163.698C99.6348 163.693 100.473 162.969 100.446 161.965C100.42 160.972 99.5152 160.035 98.537 159.999C97.4288 159.952 96.4039 160.904 96.4091 161.97C96.4143 163.001 97.2363 163.703 98.433 163.698Z" fill="#FFC424"/>
<path d="M238.067 233.77C237.989 237.584 235.221 240.414 231.637 240.341C227.932 240.268 225.128 237.235 225.248 233.432C225.362 229.707 228.218 227.053 231.965 227.183C235.508 227.303 238.14 230.149 238.067 233.77ZM230.128 234.634C230.809 235.393 231.637 236.018 232.703 235.341C233.156 235.055 233.614 234.41 233.655 233.895C233.765 232.553 232.75 232.048 231.642 231.746C229.951 232.584 229.951 232.584 230.128 234.634Z" fill="#FFC424"/>
<path d="M168.406 124.401C164.598 121.05 164.005 118.329 166.398 115.811C168.521 113.579 171.996 113.589 174.093 115.837C176.325 118.22 175.742 121.315 172.366 124.354" fill="#FFC424"/>
<path d="M41.5032 59.4479C41.5656 55.8632 44.1723 53.2825 47.7102 53.3085C51.269 53.3294 54.3075 56.4303 54.167 59.9006C54.0265 63.4385 51.217 66.5603 48.1056 66.3886C43.9746 66.1596 41.1546 62.9391 41.5032 59.4479ZM45.8632 59.7341C46.8309 61.2377 47.4033 61.5707 48.4386 61.2898C49.1982 61.0868 49.6457 60.5978 49.6457 59.7913C49.6457 58.912 49.1826 58.3293 48.3502 58.0744C47.372 57.7726 46.7529 58.1836 45.8632 59.7341Z" fill="#FFC424"/>
<path d="M237.36 106.487C235.315 106.487 233.557 106.487 231.84 106.487C231.356 104.692 231.247 88.5996 231.684 85.2802C233.645 86.815 235.528 88.2926 237.36 89.7286C237.36 95.3529 237.36 100.852 237.36 106.487Z" fill="#FFC424"/>
<path d="M286.064 273.931C289.513 274.051 292.182 276.928 292.016 280.351C291.849 283.723 289.05 286.423 285.819 286.324C282.422 286.22 279.628 283.281 279.753 279.935C279.883 276.309 282.516 273.806 286.064 273.931ZM285.564 278.421C284.113 279.009 284.092 280.008 284.394 281.163C285.143 281.881 285.975 282.354 286.865 281.616C287.266 281.277 287.578 280.585 287.573 280.055C287.562 278.895 286.647 278.567 285.564 278.421Z" fill="#FFC424"/>
<path d="M234.961 123.485C231.98 123.464 229.478 121.196 229.701 118.464C229.977 115.124 232.032 113.063 234.93 113.043C238.374 113.017 240.32 116.248 240.211 118.412C240.081 120.863 238.479 123.506 234.961 123.485Z" fill="#FFC424"/>
<path d="M162.548 41.6749C164.988 41.6437 166.955 43.6208 166.981 46.1286C167.007 48.704 165.17 50.858 162.777 50.8164C160.472 50.7747 158.36 49.5417 158.219 46.5136C158.099 43.8861 160.087 41.7061 162.548 41.6749Z" fill="#FFC424"/>
<path d="M247.667 265.034C250.138 265.071 252.1 267.068 252.063 269.524C252.027 272.094 250.06 274.066 247.641 273.967C245.133 273.863 243.348 271.902 243.421 269.332C243.494 266.756 245.232 265.003 247.667 265.034Z" fill="#FFC424"/>
<path d="M225.929 275.424C223.468 275.487 221.611 273.697 221.601 271.272C221.59 268.744 223.328 266.819 225.633 266.793C227.964 266.767 230.04 268.863 230.04 271.257C230.034 273.546 228.239 275.372 225.929 275.424Z" fill="#FFC424"/>
<path d="M86.0033 19.0998C85.9513 21.3578 84.0315 23.0956 81.6641 23.0123C79.4581 22.9343 77.6215 21.1185 77.6267 19.0061C77.6319 16.7585 79.531 14.9479 81.8619 14.9583C84.1147 14.9687 86.0554 16.9042 86.0033 19.0998Z" fill="#FFC424"/>
<path d="M37.0443 227.922C37.0443 229.535 36.0194 230.581 34.4481 230.581C32.8664 230.581 31.6125 229.337 31.6438 227.787C31.6698 226.34 32.8664 225.128 34.318 225.076C35.8373 225.019 37.0443 226.278 37.0443 227.922Z" fill="#FFC424"/>
<path d="M292.302 67.2731C292.349 65.8891 293.499 64.6716 294.779 64.656C296.251 64.6404 297.677 66.0244 297.656 67.4551C297.635 68.9692 296.23 70.2803 294.753 70.1606C293.353 70.0514 292.255 68.7611 292.302 67.2731Z" fill="#FFC424"/>
<path d="M144.947 45.3274C145.025 43.9226 145.935 43.0329 147.309 43.0173C148.797 43.0069 149.686 43.9642 149.65 45.5355" fill="#FFC424"/>
<path d="M87.6578 91.5913C86.8618 91.5913 85.9565 91.5913 85.0876 91.5913C83.891 89.968 83.8441 88.6517 84.9263 87.6527C85.7796 86.8619 87.0127 86.8255 87.9128 87.5591C89.0314 88.4696 88.9846 89.7235 87.6578 91.5913Z" fill="#FFC424"/>
<path d="M295.944 230.685C295.903 229.181 296.907 228.005 298.223 228.026C299.404 228.047 300.434 229.035 300.502 230.216C300.58 231.569 299.482 232.776 298.119 232.823C296.834 232.87 295.986 232.043 295.944 230.685Z" fill="#FFC424"/>
<path d="M108.027 80.8318C108.017 79.4426 108.813 78.5842 110.124 78.5686C111.503 78.5529 112.543 79.4947 112.606 80.811C112.668 82.1689 111.679 83.2095 110.327 83.2043C108.938 83.2043 108.037 82.273 108.027 80.8318Z" fill="#FFC424"/>
<path d="M109.541 93.969C107.413 92.6839 107.345 91.3624 109.328 89.8275C109.593 89.6246 109.936 89.5414 110.264 89.6038C111.851 89.9212 112.512 90.4987 112.59 91.6121C112.673 92.814 112.018 93.5996 110.504 94.0783C110.186 94.1824 109.832 94.1459 109.541 93.969Z" fill="#FFC424"/>
<path d="M134.942 15.7127C136.726 18.106 136.279 19.3026 133.339 20.0154C131.502 19.0217 130.972 18.1528 131.424 16.8521C131.851 15.6034 132.819 15.2912 134.942 15.7127Z" fill="#FFC424"/>
<path d="M110.337 94.4737C111.886 94.4737 113.142 93.2181 113.142 91.6693C113.142 90.1205 111.886 88.865 110.337 88.865C108.788 88.865 107.533 90.1205 107.533 91.6693C107.533 93.2181 108.788 94.4737 110.337 94.4737Z" fill="#FFC424"/>
<path d="M86.4924 92.1324C88.0412 92.1324 89.2968 90.8768 89.2968 89.328C89.2968 87.7792 88.0412 86.5237 86.4924 86.5237C84.9437 86.5237 83.6881 87.7792 83.6881 89.328C83.6881 90.8768 84.9437 92.1324 86.4924 92.1324Z" fill="#FFC424"/>
<path d="M110.337 83.7194C111.886 83.7194 113.142 82.4639 113.142 80.9151C113.142 79.3663 111.886 78.1107 110.337 78.1107C108.788 78.1107 107.533 79.3663 107.533 80.9151C107.533 82.4639 108.788 83.7194 110.337 83.7194Z" fill="#FFC424"/>
<path d="M231.803 229.332C234.061 229.337 236.106 231.413 236.111 233.702C236.111 236.075 234.186 238.104 231.897 238.13C229.514 238.161 227.454 236.117 227.579 233.718C227.709 231.101 229.571 229.244 231.803 229.332ZM231.767 235.294C232.724 235.294 233.531 234.54 233.51 233.656C233.489 232.735 232.709 232.022 231.746 232.037C230.737 232.058 230.118 232.714 230.133 233.749C230.149 234.701 230.778 235.294 231.767 235.294Z" fill="#FFC424"/>
<path d="M285.107 209.696C287.365 209.702 289.409 211.778 289.415 214.067C289.415 216.439 287.489 218.468 285.2 218.494C282.817 218.526 280.757 216.481 280.882 214.082C281.012 211.46 282.875 209.603 285.107 209.696ZM285.07 215.659C286.027 215.659 286.834 214.904 286.813 214.02C286.792 213.099 286.012 212.386 285.049 212.402C284.04 212.423 283.421 213.078 283.436 214.114C283.447 215.061 284.076 215.659 285.07 215.659Z" fill="#FFC424"/>
<path d="M74.2188 294.404H80.2957V308.4C80.2957 315.013 77.1376 317.463 71.6954 317.463C70.4571 317.463 68.8078 317.297 67.6736 316.917L68.3135 312.037C69.0523 312.245 70.0045 312.417 70.9878 312.417C72.9389 312.417 74.2188 311.548 74.2188 308.421V294.404Z" fill="white"/>
<path d="M105.654 305.523C105.654 312.817 101.268 317.463 94.2706 317.463C87.2363 317.463 83.3706 312.188 83.3706 305.882C83.3706 299.274 87.6942 294.035 94.6452 294.035C101.945 294.035 105.654 299.446 105.654 305.523ZM89.8014 305.773C89.8014 310.039 91.6588 312.646 94.562 312.646C97.5172 312.646 99.2237 309.8 99.2237 305.71C99.2237 301.808 97.4756 298.842 94.5256 298.842C91.664 298.848 89.8014 301.6 89.8014 305.773Z" fill="white"/>
<path d="M108.896 294.716C110.269 294.462 113.261 294.227 116.065 294.227C119.27 294.227 121.216 294.456 122.98 295.336C124.749 296.158 126.034 297.791 126.034 300.008C126.034 301.917 124.988 303.78 122.356 304.774V304.857C125.134 305.606 126.799 307.666 126.799 310.362C126.799 312.5 125.764 314.175 124.26 315.309C122.553 316.589 119.733 317.344 114.869 317.344C112.127 317.344 110.113 317.167 108.896 316.974V294.716ZM114.916 303.14H116.133C118.698 303.14 119.947 302.229 119.947 300.767C119.947 299.435 118.937 298.598 116.903 298.598C115.883 298.598 115.311 298.655 114.916 298.733V303.14ZM114.916 312.828C115.363 312.895 115.883 312.895 116.664 312.895C118.682 312.895 120.41 312.089 120.41 310.091C120.41 308.171 118.651 307.432 116.372 307.432H114.916V312.828Z" fill="white"/>
<path d="M151.471 305.523C151.471 312.817 147.085 317.463 140.087 317.463C133.053 317.463 129.187 312.188 129.187 305.882C129.187 299.274 133.511 294.035 140.462 294.035C147.761 294.035 151.471 299.446 151.471 305.523ZM135.618 305.773C135.618 310.039 137.475 312.646 140.379 312.646C143.334 312.646 145.04 309.8 145.04 305.71C145.04 301.808 143.292 298.842 140.347 298.842C137.475 298.848 135.618 301.6 135.618 305.773Z" fill="white"/>
<path d="M154.712 294.716C156.362 294.446 158.745 294.227 162.194 294.227C165.462 294.227 167.798 294.815 169.39 296.038C170.94 297.183 171.97 299.186 171.97 301.501C171.97 303.801 171.205 305.809 169.764 307.099C167.928 308.738 165.269 309.472 162.21 309.472C161.622 309.472 161.096 309.42 160.727 309.394V317.094H154.712V294.716ZM160.727 304.732C161.055 304.789 161.461 304.815 162.116 304.815C164.483 304.815 165.961 303.598 165.961 301.642C165.961 299.951 164.842 298.806 162.527 298.806C161.637 298.806 161.039 298.874 160.727 298.946V304.732Z" fill="white"/>
<path d="M174.52 313.931C174.52 311.85 175.961 310.388 177.985 310.388C180.024 310.388 181.419 311.808 181.445 313.931C181.445 316.001 180.056 317.463 177.98 317.463C175.94 317.463 174.52 316.001 174.52 313.931Z" fill="white"/>
<path d="M201.481 316.511C200.622 316.933 198.484 317.448 195.768 317.448C187.277 317.448 183.552 312.162 183.552 306.121C183.552 298.119 189.415 294.056 196.184 294.056C198.791 294.056 200.914 294.545 201.856 295.065L200.669 299.847C199.686 299.436 198.281 299.03 196.471 299.03C192.979 299.03 189.957 301.09 189.957 305.736C189.957 309.852 192.412 312.412 196.58 312.412C198.052 312.412 199.702 312.125 200.643 311.761L201.481 316.511Z" fill="white"/>
<path d="M226.096 305.523C226.096 312.817 221.71 317.463 214.712 317.463C207.677 317.463 203.812 312.188 203.812 305.882C203.812 299.274 208.135 294.035 215.086 294.035C222.386 294.035 226.096 299.446 226.096 305.523ZM210.243 305.773C210.243 310.039 212.105 312.646 215.008 312.646C217.964 312.646 219.67 309.8 219.67 305.71C219.67 301.808 217.922 298.842 214.972 298.842C212.1 298.848 210.243 301.6 210.243 305.773Z" fill="white"/>
<path d="M228.884 313.931C228.884 311.85 230.326 310.388 232.349 310.388C234.389 310.388 235.783 311.808 235.809 313.931C235.809 316.001 234.42 317.463 232.344 317.463C230.305 317.463 228.884 316.001 228.884 313.931Z" fill="white"/>
<path d="M237.459 313.863L247.5 299.555V299.43H238.411V294.404H255.377V297.88L245.643 311.943V312.068H255.549V317.094H237.464V313.863H237.459Z" fill="white"/>
<path d="M264.597 311.834L263.317 317.094H257.032L263.613 294.404H271.709L278.473 317.094H271.907L270.46 311.834H264.597ZM269.628 307.349L268.577 303.27C268.234 301.99 267.802 300.138 267.448 298.801H267.38C267.042 300.138 266.709 302.006 266.381 303.296L265.403 307.354H269.628V307.349Z" fill="white"/>
</svg>
