<svg width="636" height="666" viewBox="0 0 636 666" fill="none" xmlns="http://www.w3.org/2000/svg" xmlns:xlink="http://www.w3.org/1999/xlink">
<path d="M619.182,266.45C620.65,264.534 621.95,262.796 623.292,261.09C630.92,251.36 635.27,240.476 635.176,227.948C635.062,210.966 635.104,193.973 635.01,176.991C634.958,166.336 630.942,157.324 623.448,149.811C622.138,148.49 620.764,147.231 619.256,145.784C619.256,144.577 619.234,143.339 619.256,142.101C619.402,135.847 618.506,129.718 617.278,123.599C612.2,98.282 600.67,76.097 584.126,56.555C570.92,40.957 555.02,28.47 536.738,19.23C522.502,12.039 507.352,7.357 491.868,3.756C483.086,1.717 474.23,0 465.146,0C380.984,0.031 296.834,0.062 212.672,0.01C203.13,0 193.744,0.968 184.421,2.841C166.804,6.379 149.697,11.571 133.713,19.844C116.44,28.782 101.008,40.166 88.23,55.088C73.152,72.694 61.217,91.935 54.88,114.401C51.612,125.982 49.489,137.709 49.479,149.78C49.437,182.818 49.385,215.856 49.344,248.894C49.344,250.58 49.344,252.266 49.344,255.252C46.69,253.588 45.077,252.432 43.34,251.506C35.66,247.406 27.658,245.524 19.136,248.562C4.859,253.65 -0.906,268.5 0.114,280.236C0.874,288.956 3.288,297.344 6.68,305.408C9.459,312.006 12.32,318.572 15.494,324.982C20.801,335.71 26.191,346.406 31.893,356.938C36.701,365.834 41.945,374.492 47.075,383.202C48.803,386.126 49.354,389.174 49.344,392.546C49.302,432.13 49.302,471.712 49.427,511.296C49.448,517.81 49.625,524.408 50.624,530.828C52.778,544.708 57.034,558.008 63.1,570.702C68.137,581.264 74.109,591.222 81.154,600.608C89.146,611.244 97.959,620.994 108.511,629.13C124.036,641.098 140.904,650.514 159.572,656.696C176.075,662.158 192.995,665.072 210.362,665.082C294.826,665.124 379.3,665.062 463.762,665.156C474.876,665.166 485.74,663.812 496.53,661.306C512.086,657.694 526.79,651.836 540.64,643.97C555.51,635.51 568.298,624.5 579.62,611.66C589.568,600.39 597.902,588.152 604.51,574.656C614.448,554.334 619.348,533.024 619.276,510.308C619.036,430.828 619.182,351.35 619.182,271.86C619.182,270.028 619.182,268.166 619.182,266.45ZM595.312,134.91C595.27,137.938 592.46,140.561 589.506,140.321C586.696,140.103 584.5,137.522 584.594,134.546C584.688,131.778 586.988,129.343 589.546,129.312C592.502,129.281 595.364,132.049 595.312,134.91ZM583.012,97.46C586.872,99.156 588.298,101.019 587.768,103.485C587.29,105.701 585.332,107.45 583.272,107.502C580.91,107.554 578.736,105.847 578.246,103.537C577.736,101.102 579.152,99.229 583.012,97.46ZM344.648,28.678C346.012,28.553 347.198,28.356 348.394,28.345L395.97,28.335C397.052,28.335 398.164,28.262 399.226,28.47C401.766,28.959 403.19,30.978 402.982,33.558C402.784,35.983 401.39,37.481 398.696,37.481C380.984,37.461 363.264,37.325 345.554,37.221C345.408,37.221 345.262,37.107 344.586,36.836C344.512,35.338 344.378,33.964 344.388,32.591C344.378,31.384 344.534,30.166 344.648,28.678ZM376.614,61.269C376.584,65.847 372.682,69.417 367.624,69.479C362.64,69.542 359.206,66.305 359.174,61.519C359.144,56.243 363.15,51.956 368.04,52.018C372.89,52.091 376.636,56.139 376.614,61.269ZM333.972,92.257C334.024,97.408 330.35,101.716 325.564,101.633C320.954,101.55 316.73,99.083 316.448,93.027C316.198,87.772 320.184,83.423 325.106,83.36C329.976,83.288 333.92,87.242 333.972,92.257ZM310.33,25.442C320.684,25.057 330.018,34.433 330.008,45.119C329.996,54.713 323.222,64.609 310.466,64.568C299.924,64.62 291.486,56.181 291.392,45.66C291.288,34.734 298.862,25.858 310.33,25.442ZM294.628,86.045C297.604,86.024 299.384,87.939 299.31,91.081C299.238,94.068 297.634,95.629 294.67,95.597C291.6,95.566 289.726,93.631 289.894,90.665C290.05,87.845 291.88,86.066 294.628,86.045ZM262.838,33.704C263.702,31.207 265.638,30.582 269.882,31.425C273.452,36.212 272.558,38.605 266.678,40.031C262.994,38.054 261.944,36.306 262.838,33.704ZM220.248,157.147C223.006,157.116 225.086,159 225.212,161.632C225.336,164.348 223.358,166.429 220.654,166.419C217.876,166.408 216.074,164.556 216.054,161.674C216.034,158.896 217.626,157.179 220.248,157.147ZM219.508,179.041C223.432,179.624 225.014,180.789 225.18,183.235C225.368,185.888 223.734,187.532 219.988,188.448C214.546,185.545 214.4,182.579 219.508,179.041ZM189.051,40.26C189.207,34.297 191.829,30.915 196.97,29.656C200.778,28.72 204.598,30.52 206.242,34.016C207.99,37.752 207.106,41.488 203.828,43.923C203.088,44.474 202.246,44.87 201.268,45.442C201.268,49.812 201.268,54.245 201.268,58.844C197.272,58.844 193.442,58.844 189.363,58.844C189.238,57.689 189.03,56.659 189.03,55.619C188.989,50.499 188.905,45.379 189.051,40.26ZM163.724,29.916C168.24,29.937 172.111,33.808 172.007,38.199C171.902,42.716 168.063,46.191 163.328,46.025C158.916,45.868 155.243,42.237 155.253,38.012C155.264,33.527 159.062,29.896 163.724,29.916ZM175.815,175.118C178.063,176.95 177.969,179.457 175.316,183.183C173.723,183.183 171.913,183.183 170.175,183.183C167.782,179.936 167.688,177.303 169.853,175.305C171.549,173.724 174.015,173.651 175.815,175.118ZM141.06,58.896C152.381,58.824 159.457,69.427 159.062,77.231C159.135,87.595 151.455,95.493 141.32,95.545C131.393,95.597 122.923,88.678 122.767,77.949C122.611,67.19 130.779,58.959 141.06,58.896ZM140.259,107.574C144.109,106.607 144.171,106.607 147.355,107.512C147.355,111.83 147.355,116.118 147.355,120.53C144.993,120.53 142.902,120.53 140.415,120.53C140.061,116.055 140.352,111.778 140.259,107.574ZM143.443,123.214C150.925,123.183 157.803,130.061 157.563,137.605C157.282,146.523 150.269,151.997 143.807,151.861C135.566,151.695 129.811,146.003 129.645,137.72C129.489,129.156 137.075,122.361 143.443,123.214ZM96.877,76.108C97.574,74.536 98.917,73.891 100.592,73.902C103.464,73.933 104.505,75.899 105.191,78.251C103.943,83.246 103.183,83.745 98.24,82.757C96.326,80.873 95.753,78.647 96.877,76.108ZM83.006,118.896C83.131,111.726 88.344,106.565 95.42,106.617C102.538,106.659 108.615,112.861 108.334,119.801C108.053,126.877 102.434,133.121 96.211,132.777C87.949,132.319 82.309,125.878 83.006,118.896ZM71.269,231.756C71.279,214.784 71.237,197.803 71.331,180.831C71.362,174.764 71.622,168.708 71.924,162.652C72.236,156.565 75.962,152.923 82.101,152.767C87.699,152.621 93.318,152.767 98.917,152.715C102.382,152.683 104.91,154.005 106.45,157.439C104.744,162.309 104.182,162.798 99.853,162.839C95.181,162.891 90.509,162.85 85.837,162.85C84.317,162.85 82.798,162.85 80.8,162.85C80.061,171.674 80.53,180.03 80.426,188.365C80.322,196.616 80.301,204.878 80.426,213.13C80.551,221.486 80.894,229.842 81.144,237.854C79.333,240.154 77.387,240.778 75.067,239.998C72.497,239.134 71.643,236.99 71.331,234.566C71.196,233.63 71.258,232.682 71.269,231.756ZM68.886,461.162C65.722,461.162 63.215,458.674 63.277,455.574C63.329,452.68 65.722,450.256 68.626,450.152C71.674,450.048 74.089,452.566 74.089,455.854C74.078,459.07 72.039,461.15 68.886,461.162ZM84.671,571.264C80.748,569.682 79.281,567.904 79.635,565.364C79.916,563.304 82.018,561.43 84.12,561.348C86.409,561.264 88.792,563.002 89.343,565.178C89.957,567.612 88.511,569.558 84.671,571.264ZM117.335,604.916C112.215,604.822 108.417,600.932 108.636,596.02C108.854,591.15 112.621,587.446 117.304,587.498C122.069,587.55 126.169,591.774 126.055,596.53C125.93,601.442 122.215,605.01 117.335,604.916ZM573.782,332.328C574.552,324.576 578.132,319.894 582.97,320.372C588.028,320.872 591.232,323.326 591.388,329.154C591.534,334.566 588.246,338.582 580.442,338.758C556.924,361.714 533.324,384.762 509.944,407.582C505.584,407.582 501.702,407.582 497.258,407.582C523.106,382.16 548.6,357.094 573.782,332.328ZM509.61,340.798C512.306,341.506 514.272,342.556 514.366,345.46C514.46,348.29 512.638,349.57 510.588,350.528C507.498,350.32 505.646,348.904 505.136,346.094C504.75,343.91 506.176,342.296 509.61,340.798ZM581.264,376.864C579.286,376.834 577.56,377.166 575.812,379.486C575.812,387.28 575.812,395.314 575.812,403.608C573.106,403.608 570.692,403.608 567.768,403.608C567.476,402.244 566.924,400.818 566.904,399.382C566.82,393.17 566.768,386.958 566.924,380.756C567.04,376.282 568.36,372.14 572.066,369.268C573.49,368.166 575.24,367.124 576.966,366.844C582.638,365.918 588.392,366.282 594.094,366.74C596.998,366.968 598.464,368.976 598.382,371.838C598.308,374.482 596.498,376.698 593.834,376.822C589.652,377 585.458,376.926 581.264,376.864ZM584.73,427.894C584.802,436.01 578.882,442.222 570.868,442.39C562.97,442.546 556.092,435.97 556.134,428.706C556.186,418.862 563.262,413.346 569.704,413.41C578.184,413.472 584.646,419.6 584.73,427.894ZM597.362,301.944C596.686,303.68 595.082,304.316 592.128,304.034C589.952,303.826 588.132,302.172 587.924,299.986C587.768,298.342 588.59,297.166 589.922,295.918C591.566,294.368 594.146,294.202 595.884,295.544C597.508,296.792 598.204,299.79 597.362,301.944ZM540.224,422.994C540.224,426.01 540.224,428.726 540.224,431.452C536.852,432.234 482.4,432.504 473.794,431.796C476.562,428.664 479.236,425.656 481.588,423.004C501.484,422.994 520.714,422.994 540.224,422.994ZM530.296,485.354C521.118,485.47 513.18,477.592 513.648,468.352C514.158,458.258 521.338,451.11 529.932,451.452C538.632,451.464 546.508,459.466 546.52,468.3C546.53,477.446 539.11,485.24 530.296,485.354ZM495.334,530.068C500.276,530.14 504.2,534.136 504.126,539.048C504.054,544.188 500.12,548.132 495.282,547.934C490.266,547.726 486.696,543.804 486.842,538.664C486.988,533.512 490.464,530.006 495.334,530.068ZM492.816,463.7C493.856,462.836 495.334,462.67 496.53,463.304C499.266,464.752 499.944,466.52 498.716,469.288C497.904,471.098 496.02,472.212 494.054,472.014C492.024,471.806 490.964,470.942 490.412,469.288C489.766,467.416 490.578,465.542 492.816,463.7ZM503.46,513.606C498.548,513.586 495.458,510.65 495.416,505.978C495.376,500.704 498.966,496.79 503.94,497.072C508.6,497.332 511.952,501.244 511.972,505.75C512.004,509.776 508.808,513.888 503.46,513.606ZM476.134,467.54C475.978,475.168 470.442,480.828 463.274,480.682C455.864,480.536 450.256,474.47 450.496,466.864C450.724,459.414 456.436,454.106 463.928,454.366C471.016,454.606 476.28,460.298 476.134,467.54ZM477.426,501.254C478.508,501.254 479.59,501.37 481.13,501.452C481.9,502.66 482.556,503.68 483.054,504.46C483.076,507.218 481.234,509.568 478.654,510.142C477.456,510.402 476.176,510.38 474.938,510.38C451.744,510.39 428.56,510.39 405.366,510.38C403.816,510.38 402.234,510.412 400.714,510.152C398.04,509.684 396.416,507.674 396.552,505.344C396.698,502.898 398.31,501.504 401.308,501.276C401.932,501.224 402.556,501.254 403.17,501.254C427.936,501.244 452.68,501.244 477.426,501.254ZM460.068,542.514C460.068,547.102 456.478,550.744 451.858,550.858C446.936,550.984 443.222,547.404 443.2,542.554C443.18,537.498 446.656,533.648 451.266,533.596C455.928,533.534 460.068,537.726 460.068,542.514ZM410.422,532.326C411.828,532.326 413.232,532.264 414.616,532.43C417.77,532.794 419.61,534.72 419.684,537.54C419.746,540.12 417.696,541.982 414.388,542.316C413.618,542.388 412.836,542.346 412.056,542.346C377.342,542.316 342.63,542.264 307.916,542.284C304.326,542.284 301.412,541.588 300.32,537.362C301.12,533.356 303.702,532.264 307.208,532.284C317.322,532.336 327.448,532.316 337.562,532.316C361.848,532.316 386.136,532.316 410.422,532.326ZM526.644,569.6C526.644,547.164 526.644,524.73 526.644,502.306C526.644,500.932 526.644,499.558 526.644,497.696C529.922,497.696 532.534,497.696 535.686,497.696C535.75,499.642 535.844,501.452 535.844,503.252C535.854,525.906 535.864,548.548 535.874,571.202L526.634,571.202C526.644,570.672 526.644,570.13 526.644,569.6ZM544.616,399.288C541.94,399.372 539.776,397.446 539.662,394.908C539.548,392.37 541.972,390.07 544.74,390.07C547.382,390.07 548.872,391.62 548.944,394.45C549.016,397.384 547.394,399.206 544.616,399.288ZM558.528,601.212C555.51,600.546 554.74,598.018 556.092,593.22C560.358,591.108 561.472,591.4 564.51,595.582C563.294,600.348 561.598,601.888 558.528,601.212ZM571.638,572.648C564.844,572.44 559.256,566.56 559.506,559.87C559.776,552.628 565.032,547.622 572.128,547.862C579.026,548.102 584.364,553.856 584.032,560.702C583.698,567.446 578.1,572.836 571.638,572.648ZM599.036,523.492C598.308,525.896 596.446,527.186 594.188,527.248C588.434,527.404 582.628,527.634 576.924,527.082C570.744,526.488 567.508,522.43 567.498,516.354C567.466,500.152 567.518,483.95 567.538,467.748C567.538,466.988 567.642,466.228 567.726,464.96C570.578,464.96 572.992,464.96 575.822,464.96C575.822,482.274 575.822,499.35 575.822,516.76C577.382,516.936 578.568,517.186 579.744,517.196C584.574,517.228 589.402,517.072 594.23,517.228C597.976,517.342 600.026,520.204 599.036,523.492ZM596.248,465.646C593.668,465.74 591.972,464.086 591.888,461.37C591.806,458.362 593.814,456.01 596.446,456.052C598.808,456.094 600.868,458.07 601.004,460.432C601.17,463.138 598.974,465.542 596.248,465.646ZM612.336,224.222C611.608,230.07 610.578,235.95 608.902,241.58C605.198,254.004 597.278,263.068 585.562,268.738C583.74,269.622 581.94,270.538 580.13,271.444C569.11,276.918 562.784,285.762 561.076,297.948C560.838,299.634 560.442,301.308 560.12,302.984C557.684,315.824 546.312,324.44 533.252,324.606C525.156,324.71 517.05,324.628 508.508,324.628C505.032,328.04 501.4,331.652 497.716,335.21C486.51,346.032 475.312,356.864 464.034,367.624C462.482,369.102 461.608,370.714 461.172,372.786C457.488,390.288 440.444,398.79 424.138,391.308C423.576,391.048 423.004,390.788 422.68,390.642C413.7,399.404 404.814,408.072 395.98,416.708C394.064,416.542 392.39,416.25 390.714,416.292C385.762,416.396 382.64,418.986 381.276,423.784C379.902,428.632 381.162,432.784 384.752,436.104C388.112,439.216 392.254,440.12 396.448,438.216C400.776,436.25 403.648,432.836 404.096,427.842C404.18,426.916 404.106,425.98 404.106,424.616C409.642,419.404 415.292,414.096 420.88,408.842C428.206,408.842 435.198,408.842 442.4,408.842C443.856,407.458 445.324,406.094 446.77,404.7C457.862,393.992 468.944,383.264 480.058,372.566C483.314,369.434 486.634,366.366 489.944,363.296C492.898,360.558 496.354,360.412 499.142,362.838C502.492,365.74 503.076,369.966 500.536,373.232C499.964,373.972 499.266,374.606 498.6,375.262C472.65,400.88 446.718,426.51 420.746,452.098C406.53,466.094 392.264,480.038 377.968,493.94C374.96,496.864 371.702,499.506 368.622,502.232C350.882,502.232 333.442,502.232 315.44,502.232C301.6,515.312 287.584,528.57 273.68,541.702C269.008,541.702 264.804,541.702 260.612,541.702C252.662,541.702 244.712,541.65 236.772,541.744C234.202,541.774 231.964,541.14 229.654,539.996C223.91,537.154 217.98,535.032 211.362,535.126C206.408,535.198 201.84,536.446 197.386,538.362C194.036,539.808 191.059,541.722 190.425,546.02C182.964,544.304 177.73,548.194 172.6,552.346C168.084,556.01 168.104,556.03 164.306,556.53C163.026,555.75 161.59,554.864 160.03,553.898C156.46,555.114 153.12,557.466 148.895,556.364C148.281,557.84 147.865,559.152 147.241,560.338C145.399,563.834 142.766,564.574 138.75,564.49C132.454,564.354 127.73,562.024 124.182,556.842C123.36,555.646 121.716,555.032 120.488,554.084C119.406,553.252 117.897,552.544 117.449,551.42C116.19,548.33 113.87,547.81 111.039,547.976C109.801,548.05 108.573,548.102 107.564,547.57C103.61,545.552 99.645,543.544 95.202,541.276C94.848,540.244 95.743,538.892 96.596,537.664C99.551,533.418 99.864,529.11 97.533,524.46C96.794,522.982 96.378,521.172 96.378,519.516C96.346,513.106 92.257,508.934 88.168,504.99C86.388,503.274 84.536,501.712 83.069,499.684C81.445,497.426 79.604,495.324 77.731,492.992C77.72,488.664 78.074,488.414 85.296,487.914C93.35,482.306 97.866,474.398 99.635,464.824C102.111,451.452 99.094,439.486 90.03,429.246C88.501,427.52 86.544,426.166 84.702,424.742C83.318,423.67 82.163,422.566 81.674,420.766C80.394,415.97 78.969,411.224 77.46,405.99C77.502,405.896 77.627,405.262 77.97,404.772C80.176,401.62 80.072,398.238 78.542,395.002C76.492,390.652 74.172,386.416 71.82,382.224C70.374,379.642 68.626,377.24 67.065,374.732C65.046,371.484 63.943,367.988 64.141,364.096C64.328,360.424 63.277,357.166 61.175,354.024C55.629,345.752 50.364,337.282 44.973,328.894C44.297,327.844 43.673,326.73 42.809,325.846C38.751,321.704 36.836,316.522 35.098,311.132C32.039,301.652 28.564,292.318 25.39,282.87C24.245,279.466 23.714,275.94 25.338,272.568C27.606,271.412 29.105,272.912 30.686,273.712C34.287,275.544 37.773,277.624 41.404,279.394C46.326,281.798 51.383,282.598 56.784,280.736C58.241,280.236 60.155,280.654 61.747,281.09C63.683,281.62 65.514,282.568 67.356,283.4C73.36,286.106 79.781,286.698 86.128,285.98C89.52,285.596 92.746,283.514 95.993,282.048C97.096,281.548 98.001,280.602 99.312,279.622C102.902,279.622 106.773,279.622 111.154,279.622C111.216,277.718 111.32,276.074 111.32,274.42C111.31,247.614 111.3,220.81 111.279,194.005C111.279,193.068 111.247,192.131 111.279,191.195C111.456,186.845 114.109,183.796 117.918,183.547C121.768,183.297 125.483,186.388 126.044,190.435C126.232,191.809 126.148,193.234 126.148,194.639C126.18,211.476 126.201,228.302 126.232,245.138C126.232,246.512 126.232,247.896 126.232,249.602C132.08,250.07 137.605,249.758 143.318,249.81C143.318,221.766 143.318,194.098 143.318,166.107C146.346,166.107 149.197,166.107 152.496,166.107C152.496,193.942 152.496,221.6 152.496,249.488C153.963,249.644 155.004,249.852 156.055,249.852C165.878,249.904 175.69,249.924 185.513,249.946C186.606,249.946 187.709,249.946 188.781,249.79C192.391,249.248 194.587,246.636 194.566,243.016C194.545,239.352 191.944,236.376 188.375,236.002C187.605,235.918 186.814,236.012 186.044,236.034C175.066,236.242 167.126,227.75 168.344,216.866C169.135,209.8 172.371,204.056 178.864,200.758C181.288,199.52 184.15,199.155 187.511,198.188C187.698,197.646 188.333,196.554 188.437,195.42C188.625,193.255 188.531,191.07 188.531,188.885C188.531,164.889 188.489,140.883 188.552,116.888C188.583,106.149 188.812,95.4 188.947,84.661C188.968,83.142 188.947,81.623 188.947,79.698C183.245,79.698 178.011,79.698 172.704,79.698C171.694,76.919 172.433,74.432 172.09,72.07C175.388,71.05 193.234,70.769 200.778,71.612C200.882,72.247 201.07,72.965 201.09,73.693C202.484,114.016 201.954,154.348 202.09,194.681C202.1,197.834 201.86,200.894 200.674,203.848C198.416,209.436 195.378,211.476 189.29,211.496C186.804,211.506 184.348,211.34 182.412,213.536C179.582,216.752 179.759,220.05 183.172,222.734C183.661,223.12 184.212,223.4 184.993,223.88C186.96,223.754 189.134,223.672 191.299,223.484C194.753,223.182 197.771,224.244 200.436,226.346C211.674,235.17 211.132,254.358 199.436,262.536C196.127,264.858 192.464,265.784 188.437,265.772C170.05,265.72 151.653,265.752 133.266,265.752C131.112,265.752 128.948,265.752 126.492,265.752C126.492,270.34 126.492,274.618 126.492,279.456C157.615,279.644 188.729,279.436 220.206,279.612C237.49,296.022 253.848,313.588 271.35,330.496C271.35,334.066 271.266,337.79 271.37,341.516C271.464,345.002 271.746,348.488 272.006,352.994C251.912,333.598 233.39,314.076 214.358,295.69C179.384,295.69 145.108,295.69 110.384,295.69C100.811,303.472 92.205,312.724 82.361,321.63C79.125,321.63 75.4,321.486 71.695,321.672C67.169,321.902 64.536,325.47 65.566,329.664C66.222,332.36 68.636,334.42 71.664,334.606C73.516,334.722 75.389,334.534 77.262,334.45C78.188,334.41 79.125,334.16 80.041,334.222C81.112,334.294 82.163,334.618 83.006,334.784C83.381,339.55 83.142,344.284 84.203,348.716C88.043,364.752 97.814,375.346 114.078,379.362C116.627,379.986 119.312,380.288 121.934,380.298C162.444,380.372 202.954,380.392 243.474,380.372C249.228,380.372 254.982,380.07 260.934,379.892C267.136,374.096 273.38,368.27 279.674,362.39C283.234,365.866 286.626,369.186 290.402,372.868C282.338,380.672 274.472,388.332 266.344,395.74C265.46,395.814 264.69,395.928 263.93,395.928C214.056,395.928 164.192,395.918 114.317,395.896C111.206,395.896 108.084,395.834 104.973,395.906C102.59,395.96 100.363,396.5 98.563,398.258C94.983,401.734 95.857,407.01 100.478,408.904C101.862,409.466 103.495,409.622 105.025,409.632C131.518,409.746 158.011,409.82 184.504,409.892C188.229,409.902 191.944,409.892 196.314,409.892C191.632,416.01 185.586,419.892 180.508,424.97C178.926,424.97 177.376,424.97 175.836,424.97C156.981,424.96 138.125,424.928 119.26,424.98C117.428,424.98 115.462,425.148 113.818,425.834C111.424,426.844 109.728,428.862 109.645,431.588C109.572,434.284 111.029,436.374 113.349,437.654C114.546,438.31 115.951,438.706 117.314,438.914C119.156,439.194 121.039,439.268 122.902,439.278C139.582,439.31 156.252,439.288 172.933,439.35C175.409,439.362 177.969,439.382 180.342,439.964C189.655,442.244 194.275,449.06 196.044,457.81C197.698,465.968 194.577,472.826 188.344,478.164C184.67,481.306 180.175,482.65 175.368,482.67C162.902,482.732 150.435,482.638 137.969,482.754C135.358,482.774 132.652,483.076 130.144,483.784C118.844,486.968 111.622,499.34 114.983,509.996C117.605,518.31 123.589,523.19 132.121,524.658C135.628,525.26 139.26,525.376 142.829,525.386C158.729,525.438 174.618,525.406 190.518,525.344C200.174,525.302 209.832,525.084 219.488,525.074C226.96,525.062 234.44,525.364 241.912,525.312C251.1,525.25 260.278,524.98 270.05,524.782C276.824,518.434 283.836,511.806 290.924,505.25C298.01,498.694 305.18,492.212 312.64,485.386C330.08,485.386 347.822,485.386 365.564,485.386C370.32,480.828 374.908,476.436 380.006,471.546C355.438,471.546 331.548,471.546 307.53,471.546C301.662,476.998 295.762,482.546 289.8,488.008C286.356,491.162 282.744,494.148 279.32,497.322C277.364,499.142 275.2,499.778 272.546,499.766C257.74,499.672 242.932,499.714 228.136,499.724C226.418,499.724 224.702,499.912 222.994,499.788C219.79,499.558 217.314,500.734 215.076,502.992C212.12,505.968 208.946,508.736 205.752,511.692C204.65,511.692 203.568,511.692 202.484,511.692C181.601,511.712 160.716,511.734 139.832,511.744C138.583,511.744 137.314,511.806 136.107,511.598C132.402,510.952 129.135,507.478 129.177,504.386C129.229,500.662 132.621,497.05 136.617,496.582C137.845,496.436 139.104,496.52 140.352,496.52C159.364,496.52 178.375,496.52 197.73,496.52C201.986,492.712 206.388,488.778 210.976,484.678C230.642,484.678 250.414,484.678 269.79,484.678C274.576,481.672 294.45,463.356 299.112,457.728C299.112,447.478 299.28,437.052 299.018,426.624C298.926,422.962 300.008,420.422 302.796,418.176C306.772,414.97 310.538,411.506 314.96,407.666C314.96,423.846 314.96,439.236 314.96,454.21C315.418,454.72 315.512,454.846 315.616,454.95C315.73,455.054 315.866,455.22 315.99,455.22C334.846,455.272 353.702,455.314 372.556,455.344C374.732,455.344 376.906,455.25 379.092,455.168C379.372,455.158 379.632,454.908 380.236,454.596C380.33,453.128 380.444,451.464 380.58,449.444C379.372,448.414 378.164,447.218 376.812,446.23C367.894,439.746 364.71,426.364 371.568,415.188C375.304,409.102 380.34,404.732 387.812,403.826C388.82,403.7 389.976,403.19 390.672,402.484C397.874,395.178 405.002,387.8 412.14,380.434C412.234,380.33 412.244,380.152 412.39,379.736C409.58,372.786 408.8,365.564 411.922,358.218C414.376,352.41 418.248,347.894 423.7,344.762C431.702,340.154 446.406,339.768 457.166,353.586C464.844,346.094 472.462,338.614 480.142,331.184C487.862,323.722 495.624,316.314 503.336,308.926C510.454,308.926 517.3,308.946 524.146,308.916C527.102,308.904 530.068,308.862 533.024,308.706C540.504,308.312 545.906,302.662 546.54,296.72C546.884,293.484 547.592,290.268 548.424,287.116C550.66,278.656 556.176,272.308 562.2,266.346C565.416,263.172 568.83,260.206 572.148,257.146C578.132,251.61 578.132,251.61 585.666,249.78C589.546,246.304 592.42,241.922 593.75,237.292C590.452,236.19 587.04,236.896 583.72,236.762C580.462,236.626 577.184,236.73 573.804,236.73C567.934,242.35 562.086,247.938 556.238,253.536C552.856,256.772 549.454,259.966 546.114,263.244C544.344,264.972 542.368,265.824 539.85,265.814C525.042,265.762 510.234,265.846 495.438,265.762C490.058,265.732 486.904,262.714 486.842,257.978C486.78,253.484 489.424,250.59 493.96,250.508C499.412,250.414 504.866,250.528 510.328,250.528C518.122,250.528 525.916,250.456 533.71,250.498C536.364,250.508 538.34,249.634 540.308,247.73C549.236,239.04 558.362,230.56 567.674,221.746C574.126,221.746 580.816,221.746 587.508,221.746C590.786,221.746 594.052,221.872 597.32,221.736C602.054,221.548 604.468,218.79 604.198,214.192C604.032,211.362 602.742,209.53 599.984,208.698C598.516,208.25 596.924,208.032 595.396,208.032C580.276,207.99 565.156,208.022 550.046,208.042C549.132,208.042 548.216,208.178 546.936,208.27C547.196,209.322 547.32,210.186 547.622,210.966C550.546,218.438 546.248,227.812 539.61,232.682C533.262,237.334 524.002,237.376 517.758,232.682C514.2,230.018 512.378,226.418 512.41,221.82C512.502,208.104 512.472,194.39 512.482,180.675C512.492,168.833 512.482,156.991 512.482,145.014C522.71,134.234 526.28,121.216 524.252,106.721C522.43,93.714 515.874,83.402 504.834,76.149C484.814,63.007 450.922,66.18 438.008,98.324C435.864,97.595 434.47,95.858 433.004,94.37C430.276,91.602 427.832,88.553 425.116,85.774C423.514,84.151 421.764,82.528 419.778,81.456C417.176,80.041 414.606,80.811 412.566,82.944C410.558,85.056 409.934,87.627 411.14,90.259C411.89,91.903 413.128,93.391 414.366,94.755C420.786,101.758 427.28,108.688 434.72,116.711C434.668,120.894 436.52,126.513 439.1,131.841C441.682,137.189 445.042,142.069 449.476,146.003C449.476,147.897 449.476,149.572 449.476,151.622C446.988,150.946 445.75,149.083 444.334,147.637C430.694,133.734 417.104,119.78 403.576,105.774C401.442,103.568 399.362,101.737 396.01,101.914C391.14,102.184 387.832,107.137 389.954,111.581C390.87,113.485 392.39,115.181 393.908,116.7C410.526,133.36 427.208,149.957 443.856,166.585C445.282,168.001 446.562,169.561 447.894,171.029C447.956,200.81 448.102,230.394 447.832,259.426C423.7,282.36 400.09,304.774 376.52,327.218C372.682,330.872 369.028,334.722 365.178,338.352C363.608,339.83 361.87,341.224 359.986,342.266C356.854,343.992 352.9,343.326 350.934,341.08C349.174,339.07 348.872,335.002 350.558,332.276C351.526,330.704 352.796,329.28 354.128,327.988C374.866,307.968 395.646,287.99 416.386,267.968C421.974,262.568 427.426,257.022 432.712,251.766C432.712,227.032 432.712,202.892 432.712,178.053C414.45,159.593 396.062,140.623 376.75,121.882C373.534,125.171 370.652,128.105 367.446,131.383C384.72,149.073 401.766,166.544 418.82,184.005C418.82,187.657 418.82,191.205 418.82,194.816C414.534,190.695 410.35,186.679 405.866,182.371C403.856,182.121 401.558,181.788 399.246,181.58C396.188,181.299 393.752,180.165 391.526,177.844C381.036,166.97 370.36,156.273 359.736,145.524C358.872,144.65 357.884,143.88 356.594,142.735C354.918,144.869 353.306,146.908 351.692,148.958C351.432,148.76 351.162,148.573 350.902,148.375C350.902,149.759 350.902,151.143 350.902,152.517C350.892,169.499 350.882,186.492 350.86,203.474C350.86,205.034 350.912,206.606 350.704,208.146C350.278,211.194 347.946,213.536 344.94,214.17C342.172,214.754 339.206,213.66 337.79,210.976C336.812,209.114 336,206.908 335.98,204.858C335.844,186.637 335.896,168.417 335.896,150.082C332.266,149.572 328.312,149.562 324.752,148.365C321.172,147.158 317.988,144.765 314.888,143.027C314.888,147.158 314.888,151.622 314.888,156.086C314.918,199.415 314.97,242.734 314.96,286.064C314.96,287.75 314.804,289.53 314.242,291.09C312.858,294.878 309.466,296.542 305.158,295.866C302.016,295.378 299.654,292.598 299.3,288.926C299.216,288 299.268,287.052 299.268,286.126C299.268,240.31 299.268,194.483 299.268,148.667C299.268,145.555 299.268,142.444 299.268,139.125C298.332,138.865 297.49,138.625 296.512,138.355C295.658,139.385 294.878,140.321 294.108,141.258C288.374,148.188 280.986,151.601 272.026,151.518C267.666,151.476 263.306,151.206 258.956,151.07C257.272,151.018 255.586,151.06 253.67,151.06C253.67,165.888 253.67,180.467 253.67,195.326C260.996,198.469 265.512,204.212 267.938,211.622C270.018,217.98 269.082,224.212 266.688,230.32C262.494,241.028 251.58,247.032 240.08,245.658C227.75,244.18 218.052,233.942 216.814,222.402C215.554,210.726 223.058,197.147 238.322,193.276C238.322,178.625 238.322,163.89 238.322,148.968C230.83,146.409 229.092,140.54 229.114,133.433C229.186,104.911 229.144,76.388 229.144,47.877C229.144,46.94 229.092,46.004 229.186,45.078C229.592,41.175 232.298,38.408 235.69,38.387C239.238,38.366 242.682,41.248 243.068,44.922C243.338,47.544 243.182,50.218 243.14,52.861C243.056,59.063 245.98,62.289 252.182,62.778C252.796,62.83 253.41,62.923 254.056,63.007C256.502,64.828 258.76,67.086 259.186,69.989C259.56,72.59 258.604,75.39 258.104,79C259.466,80.218 261.194,81.758 263.494,83.818C263.484,83.797 263.64,84.567 263.982,85.244C267.334,91.935 264.68,97.616 260.102,102.091C250.06,111.893 251.516,114.39 251.486,124.016C251.476,127.429 251.486,130.852 251.486,134.203C256.054,135.649 266.906,135.93 270.924,134.817C275.116,133.651 278.582,131.372 281.288,127.991C283.036,125.805 284.576,123.454 286.252,121.206C287.26,119.853 288.354,118.553 289.446,117.179C293.712,117.866 297.344,119.676 301.038,121.206C304.056,122.455 306.834,124.255 309.83,125.545C312.37,126.638 315.074,127.345 317.708,128.219C319.144,128.698 320.736,128.948 322.006,129.718C330.87,135.118 339.3,133.568 347.416,128.167C349.986,126.45 352.328,124.328 354.554,122.163C373.378,103.745 392.14,85.275 410.932,66.826C420.714,57.221 430.568,47.689 440.308,38.033C442.442,35.91 444.688,34.942 447.748,34.953C479.382,34.994 511.026,34.922 542.658,34.89C543.866,34.89 545.072,35.057 546.602,35.171C548.122,44.047 549.61,52.747 551.046,61.123C546.436,69.781 546.478,70.374 552.056,77.866C549.746,82.028 551.254,85.754 554.158,89.198C554.552,89.666 555.02,90.155 555.208,90.728C556.312,93.943 557.33,97.179 558.35,100.311C559.682,101.154 560.848,101.883 562.336,102.819C561.556,104.994 560.358,107.044 560.162,109.198C559.974,111.248 560.838,113.391 561.306,115.837C562.18,116.409 563.324,117.169 564.76,118.115C564.636,120.03 564.51,121.997 564.344,124.536C564.896,125.306 565.79,126.544 566.696,127.814C566.696,129.853 566.468,131.913 566.748,133.891C567.3,137.793 565.646,140.519 562.658,142.673C561.296,143.651 559.818,144.484 558.402,145.378C557.31,144.837 556.488,144.421 555.666,144.026C550.494,141.56 547.092,141.976 543.024,146.055C537.414,151.695 534.76,158.646 536.04,166.502C537.716,176.793 543.366,184.098 553.512,187.678C565.592,191.944 576.884,185.42 581.67,176.981C582.814,174.962 583.772,172.85 584.968,170.477C593.044,175.899 601.15,180.758 610.764,174.92C613.032,176.346 613.48,178.313 613.418,180.363C612.94,194.962 614.146,209.644 612.336,224.222ZM294.95,312.838C299.894,311.984 303.972,310.756 308.072,310.664C323.764,310.31 336.47,322.192 337.384,337.884C337.686,342.984 336.126,347.842 333.514,352.098C325.72,364.826 316.48,367.958 303.514,365.23C289.268,362.244 283.098,350.226 282.734,339.32C282.65,337.02 283.056,334.658 283.536,332.38C283.972,330.258 284.804,328.228 285.638,325.606C263.452,303.014 241.33,280.486 218.488,257.23C226.022,257.116 232.6,257.354 239.342,257.626C258.582,275.762 276.428,295.284 294.95,312.838ZM270.476,183.37C266.584,181.445 264.836,177.678 265.866,173.672C266.854,169.801 269.904,167.47 274.076,167.376C279.966,167.251 283.338,170.061 284.274,175.961C284.586,177.948 284.92,179.967 284.92,181.975C284.982,215.472 284.992,248.978 285.002,282.484C285.002,283.254 284.92,284.014 284.856,285.252C281.278,282.338 278.416,279.29 276.376,275.616C275.678,274.368 275.7,272.62 275.69,271.09C275.47,244.608 275.294,218.136 275.116,191.653C275.106,189.488 275.116,187.324 275.116,185.139C273.328,184.473 271.84,184.046 270.476,183.37ZM332.796,231.622C337.042,227.158 343.992,227.178 348.186,231.674C352.65,236.44 351.484,242.63 344.732,248.708C344.732,251.372 344.732,254.306 344.732,257.25C344.732,260.174 344.732,263.098 344.732,266.502C342.14,266.502 340.278,266.522 338.416,266.48C337.978,266.47 337.552,266.272 336.802,266.064C336.802,260.196 336.802,254.336 336.802,248.78C329.186,242.1 328.01,236.658 332.796,231.622ZM348.394,278.552C348.82,278.708 349.31,278.708 350.226,278.852C360.184,269.186 370.308,259.352 380.694,249.28C379.81,248.646 379.268,248.136 378.622,247.822C361.298,239.26 356.23,215.19 373.296,200.06C385.178,189.52 404.544,191.497 414.158,205.992C424.428,221.466 419.59,239.56 404.252,248.104C400.798,250.028 397.862,252.37 395.106,255.17C384.606,265.804 373.962,276.294 363.378,286.844C362.608,287.604 361.89,288.416 361.016,289.352C361.87,294.596 360.902,299.54 357.552,303.816C353.462,309.02 348.248,311.464 341.578,309.956C334.93,308.446 329.268,303.004 328.426,296.918C326.698,284.524 338.56,275.086 348.394,278.552ZM349.226,403.066C337.166,402.93 327.28,393.306 327.426,381.454C327.582,369.06 337.79,358.664 349.632,359.082C361.308,359.122 370.776,369.102 370.736,381.318C370.694,393.472 361.078,403.202 349.226,403.066ZM355.438,428.924C355.376,436.916 350.152,442.264 342.41,442.264C334.606,442.264 328.426,436.448 328.352,429.028C328.28,421.536 335.022,414.378 341.994,414.554C349.778,414.772 355.502,420.88 355.438,428.924ZM262.152,439.85C253.868,439.85 245.638,439.85 237.74,439.85C227.718,449.35 219.768,451.568 211.694,447.322C204.368,443.472 199.915,434.824 201.278,427.072C202.756,418.654 209.572,411.796 217.636,410.62C226.948,409.268 233.39,413.452 239.446,424.96C244.544,424.96 249.79,424.96 255.668,424.96C271.818,410.62 287.052,394.586 303.472,379.746C306.938,379.746 310.31,379.746 314.17,379.746C314.17,383.504 314.17,386.74 314.17,390.194C296.928,406.666 279.602,423.202 262.152,439.85ZM284.826,453.316C284.794,454.252 284.004,455.334 283.264,456.042C278.25,460.902 273.16,465.678 268.54,470.058C255.616,470.058 243.4,470.058 231.194,470.058C231.048,469.684 230.892,469.31 230.746,468.934C235.836,464.178 240.924,459.424 245.95,454.74C252.61,454.74 258.978,454.74 265.45,454.74C271.954,449.226 277.354,442.484 284.908,437.582C284.898,443.16 284.982,448.238 284.826,453.316ZM218.842,469.028C217.282,471.224 214.628,471.442 211.06,469.674C209.342,464.054 210.654,462.182 216.512,462.274C219.676,465.272 220.258,467.03 218.842,469.028ZM166.949,351.068C191.861,350.902 216.772,350.944 241.684,350.974C244.462,350.974 247.324,351.08 250.008,351.714C253.39,352.516 255.814,354.67 256.262,358.416C256.74,362.39 254.378,365.428 250.382,365.896C248.842,366.074 247.272,366.064 245.72,366.064C217.542,366.052 189.353,365.928 161.174,366.104C156.388,366.136 152.329,365.126 148.656,362.162C147.459,361.204 146.096,360.444 144.515,359.394C137.834,365.74 129.77,367.738 120.842,366.76C114.869,366.104 109.916,363.316 105.649,359.238C96.856,350.83 93.516,336.158 100.675,324.118C107.387,312.838 119.51,307.802 132.371,311.526C139.312,313.536 144.816,317.75 148.729,323.93C152.6,330.038 153.099,336.75 152.225,343.68C155.794,349.018 160.644,351.11 166.949,351.068ZM161.185,316.584C161.07,314.794 162.225,312.546 163.63,311.85C165.201,311.07 167.615,311.36 168.833,312.672C169.436,313.316 169.988,314.202 170.134,315.054C170.456,316.896 170.539,318.8 168.396,320.746C167.418,320.746 165.878,320.944 164.41,320.694C162.589,320.402 161.32,318.55 161.185,316.584ZM183.39,324.514C183.63,316.22 189.343,310.288 197.032,310.34C203.692,309.592 210.996,316.97 210.654,323.982C210.278,331.642 204.482,337.646 196.876,337.52C189.956,337.416 183.203,330.902 183.39,324.514ZM223.504,329.612C223.972,327.52 225.596,326.292 227.896,326.292C230.32,326.292 232.058,327.634 232.61,329.934C232.974,331.444 232.724,332.536 231.59,333.576C229.624,335.356 226.574,335.356 224.598,333.588C223.39,332.516 223.13,331.308 223.504,329.612ZM385.396,386.708C385.396,370.204 385.396,354.826 385.396,339.372C386.978,336.73 408.57,316.21 414.502,311.786C415.968,311.786 417.624,311.786 419.268,311.786C420.464,315.782 419.486,318.926 416.634,321.642C412.13,325.938 407.686,330.278 403.254,334.648C400.278,337.582 397.374,340.59 394.502,343.504C394.502,349.3 394.502,354.732 394.502,360.164C394.502,365.606 394.502,371.048 394.502,376.978C391.828,379.84 388.986,382.868 385.396,386.708ZM498.642,137.324C498.642,143.474 498.642,149.843 498.642,156.544C495.022,159.124 491.39,161.726 487.342,164.608C487.342,152.402 487.342,140.665 487.342,128.896C497.696,121.029 497.934,114.942 495.76,108.282C493.388,100.988 487.29,97.127 479.61,97.377C472.754,97.595 466.812,101.987 465.23,108.605C463.586,115.483 463.69,122.143 474.75,129.437C474.75,141.268 474.75,152.756 474.75,165.118C470.464,161.82 466.458,159.364 462.982,155.795C462.982,149.77 462.982,143.724 462.982,137.626C454.856,131.445 451.15,123.079 450.902,113.308C450.704,105.233 453.43,97.804 459.226,92.143C471.15,80.499 488.684,80.468 500.536,91.394C511.014,101.04 516.25,121.102 498.642,137.324ZM498.788,234.94C494.106,235.732 490.912,235.68 487.3,234.732C487.3,216.158 487.3,197.522 487.3,178.51C490.828,176.377 494.136,173.609 498.33,172.194C499.204,175.316 499.558,228.198 498.788,234.94ZM469.86,226.074C476.748,226.022 480.64,232.484 480.422,236.814C480.172,241.714 476.968,247 469.934,246.96C463.97,246.918 458.966,242.38 459.412,236.918C459.944,230.238 464.064,226.128 469.86,226.074ZM463.368,170.56C467.29,173.63 471.056,176.585 474.72,179.457C474.72,190.706 474.72,201.704 474.72,212.974C470.63,212.974 467.114,212.974 463.68,212.974C462.712,209.394 462.494,177.199 463.368,170.56ZM468.092,260.986C469.652,259.55 471.41,258.344 473.44,256.752C474.584,260.206 474.002,263.14 474.096,266.002C474.19,268.958 474.116,271.912 474.116,274.18C469.08,279.446 464.532,284.348 459.83,289.082C455.116,293.826 450.246,298.406 445.292,303.202C445.052,305.522 446,307.562 447.738,309.29C450.922,312.464 455.314,312.474 458.508,309.3C466.686,301.184 474.834,293.036 483.014,284.93C484.782,283.182 486.614,281.496 488.632,279.582C499.984,279.582 511.046,279.478 522.098,279.622C527.602,279.696 530.63,283.036 530.36,288.134C530.12,292.63 527.248,295.638 522.576,295.752C515.572,295.928 508.56,295.846 501.546,295.866C499.37,295.876 497.196,295.866 494.668,295.866C489.736,300.642 484.72,305.502 479.694,310.362C476,313.93 472.326,317.532 468.59,321.048C462.618,326.678 455.594,328.79 447.52,327.042C434.866,324.294 423.148,306.574 436.114,291.08C438.404,288.342 441.15,285.992 443.762,283.546C451.858,275.992 459.954,268.468 468.092,260.986Z" fill="#116034"/>
<path d="M146.773,454.585C155.191,454.585 163.599,454.585 172.017,454.585C172.953,454.585 173.89,454.543 174.826,454.585C178.76,454.762 181.122,456.645 181.424,459.809C181.757,463.357 179.509,466.749 176.127,467.592C174.941,467.894 173.671,468.008 172.444,468.008C155.305,468.008 138.157,467.977 121.018,467.936C119.624,467.936 118.188,467.904 116.846,467.571C113.828,466.822 111.893,464.033 112.028,460.953C112.163,457.8 114.244,455.282 117.345,454.72C118.563,454.502 119.832,454.575 121.07,454.575C129.645,454.564 138.209,454.564 146.783,454.564C146.773,454.575 146.773,454.575 146.773,454.585Z" fill="#116034"/>
<path d="M435.709,380.038C428.935,379.965 423.451,374.752 423.576,368.488C423.711,361.308 428.726,356.219 435.563,356.313C442.826,356.407 448.008,361.318 447.977,368.082C447.935,374.866 442.556,380.111 435.709,380.038Z" fill="#116034"/>
<path d="M254.472,219.488C254.368,226.21 248.749,232.069 242.224,231.58C235.377,231.07 230.674,226.21 230.372,219.363C230.102,213.182 236.751,207.085 242.87,207.262C249.342,207.438 254.576,212.964 254.472,219.488Z" fill="#116034"/>
<path d="M519.766,215.773C519.829,210.862 523.491,207.189 528.382,207.147C532.711,207.105 537.3,211.497 537.373,215.753C537.446,219.998 532.95,224.525 528.684,224.483C523.45,224.441 519.704,220.779 519.766,215.773Z" fill="#116034"/>
<path d="M124.39,352.702C117.356,352.661 110.446,345.741 110.654,338.946C110.883,331.339 117.293,325.45 125.056,325.419C132.059,325.387 138.843,330.861 138.906,339.373C138.958,346.73 132.163,352.754 124.39,352.702Z" fill="#116034"/>
<path d="M405.875,223.068C405.959,230.841 399.164,237.657 391.359,237.625C383.638,237.594 376.843,230.82 376.656,223.089C376.479,215.326 381.526,208.188 390.392,207.98C399.601,207.771 405.792,214.504 405.875,223.068Z" fill="#116034"/>
<path d="M309.716,325.627C316.782,325.814 323.327,332.13 323.16,338.582C322.963,346.105 316.605,352.088 309.092,351.787C302.099,351.506 296.272,345.273 296.397,338.197C296.532,330.798 302.224,325.429 309.716,325.627Z" fill="#116034"/>
<path d="M211.996,429.393C212.298,424.575 216.398,420.798 220.934,421.151C225.461,421.505 229.259,425.907 228.947,430.454C228.655,434.72 224.025,438.664 219.53,438.404C215.232,438.154 211.392,433.753 211.996,429.393Z" fill="#116034"/>
<path d="M340.132,381.422C339.861,375.668 345.023,372.317 349.362,372.369C354.107,372.421 358.009,376.271 358.134,380.944C358.259,385.741 353.899,389.965 348.79,389.997C344.169,390.017 340.153,386.053 340.132,381.422Z" fill="#116034"/>
<path d="M310.58,53.423C305.689,53.413 301.974,49.677 302.047,44.838C302.109,40.27 305.855,36.607 310.455,36.607C315.117,36.618 318.915,40.499 318.998,45.338C319.092,49.927 315.439,53.433 310.58,53.423Z" fill="#116034"/>
<path d="M141.143,70.02C145.441,70.031 148.489,72.996 148.573,77.252C148.656,81.269 144.952,84.9 140.779,84.911C136.793,84.911 133.12,81.508 133.016,77.71C132.902,73.329 136.419,70.01 141.143,70.02Z" fill="#116034"/>
<path d="M529.797,474.418C525.978,474.418 523.554,472.129 523.502,468.477C523.45,464.481 525.833,461.952 529.724,461.869C533.439,461.796 536.457,464.564 536.519,468.102C536.582,471.505 533.481,474.418 529.797,474.418Z" fill="#116034"/>
<path d="M569.974,423.826C573.917,425.262 575.177,426.5 574.958,428.592C574.771,430.402 573.21,431.869 571.254,432.098C568.912,432.369 567.123,431.401 566.436,429.476C565.593,427.156 566.394,425.824 569.974,423.826Z" fill="#116034"/>
<path d="M139.51,137.439C141.362,134.047 142.735,133.214 145.181,133.88C146.991,134.369 147.969,135.732 147.855,137.626C147.73,139.583 146.367,141.091 144.463,141.383C142.09,141.737 141.122,140.998 139.51,137.439Z" fill="#116034"/>
<path d="M345.741,430.735C344.159,432.597 341.225,432.525 339.57,430.735C338.405,429.476 338.196,428.393 338.675,427.093C339.268,425.48 340.923,424.471 342.692,424.637C344.638,424.824 346.24,426.281 346.511,428.081C346.656,429.07 346.417,429.944 345.741,430.735Z" fill="#116034"/>
<path d="M196.866,327.396C194.472,327.406 192.828,326.012 192.818,323.941C192.808,321.808 194.857,319.904 197.074,319.997C199.03,320.08 200.841,321.943 200.893,323.931C200.945,325.939 199.269,327.385 196.866,327.396Z" fill="#116034"/>
<path d="M460.256,469.267C459.902,465.168 459.902,465.168 463.284,463.492C465.511,464.096 467.529,465.095 467.311,467.79C467.228,468.82 466.322,470.11 465.407,470.683C463.263,472.035 461.609,470.787 460.256,469.267Z" fill="#116034"/>
<path d="M91.726,119.468C93.506,116.357 94.744,115.545 96.711,116.149C98.376,116.659 99.302,117.824 99.302,119.583C99.302,121.196 98.407,122.174 96.888,122.58C94.806,123.152 93.672,122.486 91.726,119.468Z" fill="#116034"/>
<path d="M571.129,556.842C573.293,557.133 575.125,557.789 575.135,560.099C575.146,561.16 574.532,562.544 573.72,563.221C571.941,564.709 570.276,563.762 568.777,562.315C568.184,560.016 568.226,558.018 571.129,556.842Z" fill="#116034"/>
<path d="M152.485,249.499C153.953,249.655 154.993,249.863 156.044,249.863C165.867,249.915 175.68,249.935 185.503,249.957C186.595,249.957 187.699,249.957 188.77,249.801C192.381,249.259 194.577,246.647 194.556,243.027C194.535,239.363 191.934,236.387 188.364,236.013C187.594,235.929 186.804,236.023 186.034,236.043C175.056,236.251 167.116,227.761 168.333,216.876C169.124,209.811 172.36,204.067 178.854,200.768C181.278,199.53 184.14,199.166 187.501,198.198C187.688,197.657 188.323,196.564 188.427,195.43C188.614,193.266 188.521,191.08 188.521,188.895C188.521,164.9 188.479,140.894 188.541,116.898C188.573,106.159 188.801,95.41 188.937,84.671C188.958,83.152 188.937,81.633 188.937,79.708C183.234,79.708 178,79.708 172.693,79.708C171.684,76.93 172.423,74.443 172.079,72.08C175.378,71.061 193.224,70.78 200.768,71.623C200.872,72.257 201.059,72.975 201.08,73.704C202.475,114.026 201.944,154.359 202.079,194.691C202.09,197.844 201.85,200.903 200.664,203.859C198.406,209.447 195.368,211.486 189.28,211.507C186.804,211.517 184.337,211.351 182.402,213.546C179.572,216.762 179.749,220.06 183.162,222.745C183.651,223.13 184.202,223.411 184.983,223.89C186.949,223.765 189.124,223.682 191.288,223.494C194.743,223.193 197.761,224.254 200.425,226.356C211.663,235.181 211.122,254.369 199.426,262.547C196.117,264.867 192.454,265.793 188.427,265.783C170.04,265.731 151.643,265.763 133.256,265.763C131.102,265.763 128.937,265.763 126.482,265.763C126.482,270.351 126.482,274.629 126.482,279.467C157.605,279.655 188.718,279.447 220.196,279.623C237.48,296.033 253.838,313.597 271.34,330.507C271.34,334.077 271.256,337.801 271.36,341.527C271.454,345.013 271.734,348.499 271.996,353.005C251.902,333.607 233.38,314.087 214.348,295.699C179.374,295.699 145.097,295.699 110.373,295.699C100.8,303.483 92.195,312.735 82.351,321.641C79.115,321.641 75.389,321.495 71.685,321.683C67.158,321.911 64.526,325.481 65.556,329.675C66.212,332.369 68.626,334.431 71.654,334.617C73.506,334.731 75.379,334.545 77.252,334.461C78.178,334.419 79.115,334.169 80.03,334.233C81.102,334.305 82.153,334.627 82.996,334.795C83.371,339.561 83.131,344.295 84.193,348.727C88.032,364.763 97.803,375.355 114.068,379.373C116.617,379.997 119.302,380.299 121.924,380.309C162.433,380.381 202.943,380.403 243.462,380.381C249.216,380.381 254.972,380.081 260.924,379.903C267.126,374.107 273.368,368.279 279.664,362.401C283.222,365.877 286.616,369.195 290.392,372.879C282.328,380.683 274.462,388.343 266.334,395.751C265.45,395.823 264.68,395.939 263.92,395.939C214.046,395.939 164.182,395.927 114.307,395.907C111.196,395.907 108.074,395.845 104.963,395.917C102.58,395.969 100.353,396.511 98.553,398.269C94.973,401.745 95.847,407.021 100.467,408.915C101.851,409.477 103.485,409.633 105.015,409.643C131.508,409.757 158.001,409.829 184.494,409.903C188.219,409.913 191.934,409.903 196.304,409.903C191.621,416.021 185.576,419.903 180.498,424.981C178.916,424.981 177.366,424.981 175.826,424.981C156.97,424.971 138.115,424.939 119.25,424.991C117.418,424.991 115.451,425.157 113.807,425.845C111.414,426.853 109.718,428.873 109.635,431.599C109.562,434.293 111.019,436.385 113.339,437.665C114.536,438.321 115.941,438.717 117.304,438.925C119.145,439.205 121.029,439.279 122.892,439.289C139.572,439.319 156.242,439.299 172.922,439.361C175.399,439.371 177.959,439.393 180.331,439.975C189.644,442.255 194.264,449.071 196.033,457.821C197.688,465.979 194.566,472.837 188.333,478.175C184.66,481.317 180.165,482.659 175.357,482.681C162.891,482.743 150.425,482.649 137.959,482.763C135.347,482.785 132.642,483.087 130.134,483.793C118.833,486.979 111.612,499.351 114.973,510.005C117.595,518.321 123.578,523.201 132.111,524.667C135.618,525.271 139.249,525.385 142.819,525.397C158.719,525.449 174.608,525.417 190.508,525.355C200.165,525.313 209.821,525.095 219.478,525.083C226.948,525.073 234.43,525.375 241.902,525.323C251.09,525.261 260.268,524.991 270.038,524.793C276.812,518.445 283.826,511.817 290.912,505.261C298,498.705 305.168,492.223 312.63,485.397C330.07,485.397 347.812,485.397 365.554,485.397C370.308,480.839 374.898,476.447 379.996,471.557C355.428,471.557 331.536,471.557 307.52,471.557C301.652,477.009 295.752,482.555 289.788,488.019C286.344,491.171 282.734,494.159 279.31,497.331C277.354,499.153 275.19,499.787 272.536,499.777C257.728,499.683 242.922,499.725 228.124,499.735C226.408,499.735 224.69,499.923 222.984,499.797C219.779,499.569 217.303,500.745 215.066,503.003C212.11,505.979 208.937,508.747 205.742,511.703C204.639,511.703 203.557,511.703 202.475,511.703C181.59,511.723 160.706,511.743 139.822,511.755C138.573,511.755 137.303,511.817 136.096,511.609C132.392,510.963 129.125,507.487 129.166,504.397C129.218,500.673 132.611,497.061 136.606,496.593C137.834,496.447 139.093,496.531 140.342,496.531C159.353,496.531 178.365,496.531 197.719,496.531C201.975,492.723 206.377,488.789 210.966,484.689C230.632,484.689 250.404,484.689 269.778,484.689C274.566,481.681 294.44,463.367 299.102,457.739C299.102,447.489 299.268,437.061 299.008,426.635C298.914,422.973 299.996,420.433 302.786,418.185C306.76,414.981 310.528,411.515 314.95,407.677C314.95,423.857 314.95,439.247 314.95,454.221C315.408,454.731 315.502,454.855 315.606,454.959C315.72,455.063 315.856,455.231 315.97,455.231C334.824,455.283 353.68,455.323 372.536,455.355C374.71,455.355 376.884,455.261 379.07,455.179C379.352,455.167 379.612,454.919 380.214,454.605C380.308,453.139 380.422,451.473 380.558,449.455C379.352,448.425 378.144,447.229 376.792,446.239C367.874,439.757 364.69,426.375 371.546,415.199C375.282,409.111 380.318,404.741 387.79,403.837C388.8,403.711 389.954,403.201 390.652,402.493C397.852,395.189 404.98,387.811 412.118,380.445C412.212,380.341 412.222,380.163 412.368,379.747C409.558,372.795 408.778,365.575 411.9,358.227C414.356,352.421 418.226,347.905 423.68,344.773C431.682,340.163 446.384,339.779 457.144,353.597C464.824,346.105 472.44,338.623 480.12,331.193C487.842,323.733 495.604,316.325 503.314,308.937C510.432,308.937 517.28,308.957 524.126,308.925C527.082,308.915 530.046,308.873 533.002,308.717C540.484,308.323 545.884,302.671 546.52,296.731C546.862,293.493 547.57,290.279 548.402,287.125C550.64,278.665 556.154,272.319 562.18,266.355C565.396,263.181 568.808,260.217 572.128,257.157C578.112,251.621 578.11,251.621 585.644,249.789C589.526,246.315 592.398,241.933 593.73,237.303C590.432,236.199 587.018,236.907 583.698,236.773C580.442,236.637 577.164,236.741 573.782,236.741C567.914,242.361 562.066,247.947 556.218,253.547C552.836,256.783 549.432,259.977 546.092,263.255C544.324,264.983 542.346,265.835 539.828,265.825C525.02,265.773 510.214,265.857 495.416,265.773C490.036,265.741 486.884,262.725 486.822,257.989C486.76,253.495 489.402,250.601 493.938,250.519C499.392,250.425 504.844,250.539 510.308,250.539C518.102,250.539 525.896,250.467 533.688,250.507C536.342,250.519 538.32,249.645 540.286,247.739C549.214,239.051 558.34,230.57 567.654,221.757C574.104,221.757 580.796,221.757 587.486,221.757C590.764,221.757 594.032,221.881 597.3,221.746C602.034,221.559 604.448,218.812 604.178,214.202C604.01,211.372 602.72,209.54 599.962,208.708C598.496,208.26 596.904,208.042 595.374,208.042C580.254,208 565.136,208.031 550.026,208.052C549.11,208.052 548.194,208.187 546.914,208.281C547.174,209.332 547.3,210.196 547.602,210.976C550.526,218.448 546.228,227.823 539.588,232.693C533.242,237.345 523.98,237.387 517.736,232.693C514.178,230.029 512.358,226.429 512.388,221.829C512.482,208.115 512.45,194.4 512.462,180.685C512.472,168.843 512.462,157.002 512.462,145.025C522.69,134.244 526.26,121.227 524.23,106.732C522.41,93.724 515.854,83.412 504.814,76.16C484.792,63.017 450.9,66.191 437.988,98.334C435.844,97.606 434.45,95.868 432.982,94.38C430.256,91.612 427.81,88.563 425.094,85.785C423.492,84.162 421.744,82.538 419.756,81.466C417.156,80.051 414.584,80.821 412.546,82.954C410.538,85.067 409.912,87.637 411.12,90.27C411.87,91.914 413.108,93.402 414.346,94.765C420.766,101.768 427.26,108.698 434.7,116.721C434.648,120.904 436.5,126.523 439.08,131.851C441.66,137.2 445.022,142.08 449.454,146.013C449.454,147.907 449.454,149.582 449.454,151.632C446.968,150.956 445.73,149.093 444.314,147.647C430.672,133.745 417.082,119.791 403.554,105.785C401.422,103.579 399.34,101.747 395.99,101.924C391.12,102.195 387.81,107.148 389.934,111.591C390.85,113.495 392.368,115.191 393.888,116.711C410.506,133.37 427.186,149.967 443.836,166.596C445.26,168.011 446.54,169.572 447.872,171.039C447.936,200.82 448.08,230.404 447.81,259.435C423.68,282.371 400.068,304.785 376.5,327.229C372.66,330.881 369.008,334.731 365.158,338.363C363.586,339.841 361.848,341.235 359.966,342.275C356.834,344.003 352.878,343.337 350.912,341.089C349.154,339.081 348.852,335.013 350.538,332.287C351.506,330.715 352.774,329.289 354.106,327.999C374.846,307.979 395.626,287.999 416.364,267.979C421.952,262.579 427.404,257.033 432.69,251.777C432.69,227.043 432.69,202.901 432.69,178.063C414.428,159.603 396.042,140.633 376.728,121.893C373.514,125.181 370.632,128.115 367.426,131.393C384.7,149.083 401.744,166.554 418.8,184.015C418.8,187.667 418.8,191.216 418.8,194.827C414.512,190.706 410.328,186.689 405.844,182.381C403.836,182.132 401.536,181.799 399.226,181.59C396.166,181.309 393.732,180.175 391.506,177.855C381.016,166.981 370.34,156.284 359.716,145.535C358.852,144.66 357.864,143.89 356.572,142.746C354.898,144.879 353.284,146.919 351.672,148.968C351.412,148.771 351.142,148.583 350.88,148.386C350.88,149.77 350.88,151.154 350.88,152.527C350.87,169.509 350.86,186.502 350.84,203.484C350.84,205.045 350.892,206.616 350.684,208.156C350.256,211.205 347.926,213.546 344.918,214.181C342.15,214.764 339.184,213.671 337.77,210.987C336.792,209.124 335.98,206.918 335.96,204.868C335.824,186.648 335.876,168.427 335.876,150.092C332.244,149.582 328.29,149.572 324.732,148.375C321.152,147.168 317.968,144.775 314.866,143.037C314.866,147.168 314.866,151.632 314.866,156.096C314.898,199.426 314.95,242.745 314.94,286.075C314.94,287.761 314.784,289.539 314.222,291.101C312.838,294.889 309.446,296.553 305.138,295.877C301.994,295.387 299.632,292.609 299.278,288.937C299.196,288.011 299.248,287.063 299.248,286.137C299.248,240.321 299.248,194.494 299.248,148.677C299.248,145.566 299.248,142.454 299.248,139.135C298.312,138.875 297.468,138.636 296.49,138.365C295.636,139.395 294.856,140.332 294.086,141.268C288.352,148.198 280.964,151.611 272.006,151.528C267.646,151.487 263.296,151.216 258.936,151.081C257.25,151.029 255.564,151.07 253.65,151.07C253.65,165.899 253.65,180.477 253.65,195.336C260.976,198.479 265.492,204.223 267.916,211.632C269.998,217.99 269.06,224.223 266.668,230.331C262.474,241.039 251.558,247.043 240.06,245.669C227.73,244.191 218.031,233.952 216.793,222.412C215.534,210.737 223.036,197.157 238.302,193.286C238.302,178.635 238.302,163.901 238.302,148.979C230.81,146.419 229.072,140.55 229.092,133.443C229.166,104.921 229.124,76.399 229.124,47.887C229.124,46.951 229.072,46.014 229.166,45.088C229.57,41.186 232.276,38.418 235.668,38.397C239.218,38.376 242.662,41.259 243.046,44.932C243.316,47.554 243.16,50.229 243.12,52.872C243.036,59.073 245.96,62.299 252.162,62.788C252.776,62.84 253.39,62.934 254.034,63.017C256.48,64.838 258.738,67.096 259.164,69.999C259.54,72.601 258.582,75.4 258.082,79.011C259.446,80.228 261.174,81.768 263.484,83.829C263.472,83.808 263.628,84.578 263.972,85.254C267.322,91.945 264.67,97.627 260.09,102.101C250.05,111.903 251.506,114.401 251.476,124.026C251.464,127.439 251.476,130.862 251.476,134.213C256.044,135.66 266.896,135.94 270.912,134.827C275.106,133.662 278.572,131.383 281.278,128.001C283.026,125.816 284.566,123.464 286.24,121.216C287.25,119.864 288.342,118.563 289.436,117.189C293.702,117.876 297.334,119.687 301.028,121.216C304.044,122.465 306.824,124.265 309.82,125.556C312.358,126.648 315.064,127.356 317.698,128.23C319.134,128.708 320.726,128.958 321.994,129.728C330.86,135.129 339.29,133.578 347.406,128.178C349.976,126.461 352.316,124.338 354.544,122.174C373.368,103.756 392.13,85.285 410.922,66.836C420.704,57.232 430.558,47.7 440.298,38.043C442.43,35.921 444.678,34.953 447.738,34.963C479.372,35.005 511.014,34.932 542.648,34.901C543.856,34.901 545.062,35.067 546.592,35.182C548.112,44.058 549.6,52.757 551.036,61.134C546.426,69.791 546.468,70.374 552.044,77.876C549.734,82.039 551.244,85.764 554.146,89.208C554.542,89.677 555.01,90.166 555.198,90.738C556.3,93.953 557.32,97.19 558.34,100.322C559.672,101.165 560.838,101.893 562.326,102.829C561.546,105.004 560.348,107.054 560.15,109.208C559.964,111.258 560.828,113.402 561.296,115.847C562.17,116.419 563.314,117.179 564.75,118.126C564.626,120.041 564.5,122.007 564.334,124.546C564.886,125.316 565.78,126.565 566.686,127.824C566.686,129.864 566.456,131.924 566.738,133.901C567.29,137.803 565.634,140.529 562.648,142.683C561.284,143.662 559.808,144.494 558.392,145.389C557.3,144.848 556.478,144.432 555.656,144.036C550.484,141.57 547.082,141.986 543.012,146.065C537.404,151.705 534.75,158.656 536.03,166.513C537.706,176.804 543.356,184.109 553.502,187.688C565.582,191.955 576.872,185.43 581.66,176.991C582.804,174.972 583.762,172.86 584.958,170.488C593.032,175.909 601.138,180.768 610.754,174.931C613.022,176.356 613.47,178.323 613.408,180.373C612.98,195.003 614.188,209.686 612.378,224.264C611.648,230.112 610.618,235.991 608.944,241.621C605.238,254.045 597.32,263.109 585.604,268.781C583.782,269.665 581.982,270.581 580.172,271.485C569.152,276.959 562.824,285.805 561.118,297.989C560.88,299.675 560.484,301.351 560.162,303.025C557.726,315.867 546.352,324.483 533.294,324.649C525.198,324.753 517.092,324.669 508.548,324.669C505.074,328.083 501.442,331.693 497.758,335.253C486.55,346.075 475.354,356.907 464.074,367.665C462.524,369.143 461.65,370.757 461.212,372.827C457.53,390.329 440.484,398.831 424.178,391.349C423.618,391.089 423.044,390.829 422.722,390.683C413.742,399.445 404.856,408.113 396.022,416.749C394.106,416.583 392.432,416.291 390.756,416.333C385.802,416.437 382.68,419.029 381.318,423.825C379.944,428.675 381.204,432.827 384.794,436.147C388.154,439.257 392.296,440.163 396.49,438.259C400.818,436.291 403.69,432.879 404.138,427.883C404.22,426.957 404.148,426.021 404.148,424.659C409.684,419.445 415.334,414.137 420.922,408.883C428.248,408.883 435.24,408.883 442.442,408.883C443.898,407.499 445.366,406.135 446.812,404.741C457.904,394.035 468.986,383.305 480.1,372.609C483.356,369.477 486.676,366.407 489.984,363.337C492.94,360.601 496.394,360.455 499.184,362.879C502.534,365.793 503.116,370.007 500.578,373.275C500.006,374.013 499.308,374.649 498.642,375.303C472.69,400.923 446.76,426.553 420.786,452.139C406.572,466.135 392.306,480.079 378.008,493.981C375.002,496.905 371.744,499.549 368.664,502.275C350.922,502.275 333.472,502.275 315.48,502.275C301.642,515.355 287.624,528.611 273.722,541.743C269.05,541.743 264.846,541.743 260.652,541.743C252.702,541.743 244.752,541.691 236.814,541.785C234.244,541.817 232.006,541.181 229.696,540.037C223.952,537.197 218.021,535.073 211.403,535.167C206.45,535.239 201.881,536.489 197.428,538.403C194.077,539.849 191.101,541.765 190.466,546.061C183.005,544.345 177.771,548.237 172.641,552.389C168.125,556.051 168.146,556.073 164.348,556.571C163.068,555.791 161.632,554.907 160.071,553.939C156.502,555.157 153.162,557.509 148.937,556.405C148.323,557.883 147.907,559.193 147.283,560.381C145.441,563.877 142.808,564.615 138.792,564.533C132.496,564.397 127.772,562.065 124.224,556.883C123.401,555.687 121.757,555.073 120.529,554.127C119.447,553.293 117.938,552.587 117.491,551.463C116.232,548.371 113.911,547.851 111.081,548.019C109.843,548.091 108.615,548.143 107.606,547.613C103.651,545.593 99.687,543.585 95.244,541.317C94.89,540.287 95.785,538.933 96.638,537.707C99.593,533.461 99.905,529.153 97.574,524.501C96.836,523.023 96.419,521.213 96.419,519.559C96.388,513.149 92.299,508.975 88.209,505.033C86.43,503.315 84.578,501.755 83.11,499.725C81.487,497.467 79.645,495.365 77.772,493.035C77.762,488.705 78.116,488.455 85.337,487.957C93.391,482.347 97.907,474.439 99.676,464.865C102.153,451.495 99.135,439.527 90.072,429.289C88.542,427.561 86.586,426.209 84.744,424.783C83.36,423.711 82.205,422.609 81.716,420.809C80.436,416.011 79.011,411.265 77.502,406.031C77.543,405.939 77.668,405.303 78.012,404.815C80.218,401.661 80.114,398.279 78.584,395.043C76.534,390.693 74.214,386.459 71.862,382.265C70.415,379.685 68.667,377.281 67.106,374.773C65.088,371.527 63.985,368.031 64.182,364.139C64.37,360.465 63.319,357.209 61.217,354.065C55.671,345.793 50.405,337.323 45.015,328.935C44.339,327.885 43.714,326.771 42.851,325.887C38.792,321.745 36.878,316.563 35.14,311.173C32.081,301.693 28.605,292.359 25.431,282.911C24.287,279.509 23.756,275.981 25.379,272.609C27.648,271.455 29.146,272.953 30.728,273.755C34.328,275.585 37.814,277.667 41.446,279.435C46.368,281.839 51.425,282.641 56.826,280.779C58.282,280.279 60.197,280.695 61.789,281.131C63.725,281.663 65.556,282.609 67.398,283.441C73.402,286.147 79.822,286.741 86.17,286.023C89.562,285.637 92.788,283.557 96.034,282.089C97.137,281.589 98.043,280.643 99.354,279.665C102.944,279.665 106.815,279.665 111.196,279.665C111.258,277.761 111.362,276.117 111.362,274.461C111.352,247.657 111.341,220.851 111.32,194.046C111.32,193.11 111.289,192.173 111.32,191.237C111.497,186.887 114.151,183.838 117.959,183.588C121.809,183.339 125.524,186.429 126.086,190.477C126.273,191.85 126.19,193.276 126.19,194.681C126.221,211.517 126.242,228.343 126.273,245.181C126.273,246.553 126.273,247.937 126.273,249.645C132.121,250.113 137.647,249.801 143.36,249.853M146.773,454.585L146.773,454.575C138.198,454.575 129.634,454.575 121.06,454.585C119.811,454.585 118.542,454.513 117.335,454.731C114.234,455.293 112.153,457.811 112.018,460.963C111.882,464.043 113.818,466.833 116.835,467.581C118.178,467.915 119.614,467.947 121.008,467.947C138.146,467.999 155.295,468.019 172.433,468.019C173.661,468.019 174.931,467.893 176.117,467.603C179.499,466.759 181.757,463.367 181.413,459.819C181.112,456.655 178.75,454.773 174.816,454.595C173.88,454.553 172.943,454.595 172.007,454.595C163.609,454.585 155.191,454.585 146.773,454.585ZM435.708,380.039C442.566,380.111 447.936,374.867 447.966,368.083C447.998,361.319 442.816,356.407 435.552,356.313C428.716,356.219 423.71,361.319 423.566,368.489C423.45,374.753 428.934,379.965 435.708,380.039ZM254.472,219.488C254.576,212.964 249.332,207.438 242.87,207.251C236.75,207.074 230.102,213.182 230.372,219.353C230.674,226.21 235.378,231.059 242.224,231.569C248.748,232.069 254.368,226.21 254.472,219.488ZM519.766,215.773C519.704,220.778 523.46,224.441 528.684,224.483C532.95,224.514 537.446,219.998 537.372,215.752C537.3,211.496 532.71,207.116 528.382,207.147C523.48,207.189 519.818,210.862 519.766,215.773Z" fill="#FFC424"/>
<path d="M144.515,359.393C137.834,365.741 129.77,367.738 120.842,366.76C114.869,366.105 109.916,363.316 105.649,359.237C96.857,350.829 93.516,336.157 100.675,324.118C107.387,312.838 119.51,307.802 132.371,311.527C139.312,313.535 144.816,317.749 148.729,323.93C152.6,330.039 153.099,336.75 152.225,343.68C155.805,349.019 160.654,351.11 166.949,351.068C191.861,350.902 216.772,350.944 241.683,350.975C244.462,350.975 247.323,351.079 250.008,351.714C253.39,352.515 255.814,354.669 256.262,358.415C256.741,362.39 254.378,365.428 250.383,365.897C248.843,366.074 247.271,366.063 245.721,366.063C217.542,366.053 189.353,365.928 161.174,366.105C156.388,366.136 152.329,365.127 148.656,362.161C147.46,361.204 146.096,360.444 144.515,359.393ZM124.39,352.702C132.163,352.754 138.958,346.719 138.906,339.383C138.844,330.871 132.059,325.398 125.056,325.429C117.293,325.46 110.883,331.35 110.655,338.956C110.446,345.751 117.356,352.661 124.39,352.702Z" fill="#FFC424"/>
<path d="M361.016,289.363C361.87,294.607 360.902,299.55 357.551,303.827C353.462,309.03 348.249,311.475 341.578,309.966C334.929,308.457 329.268,303.015 328.426,296.928C326.698,284.524 338.571,275.086 348.394,278.562C348.821,278.718 349.31,278.718 350.226,278.863C360.184,269.196 370.309,259.363 380.694,249.29C379.809,248.655 379.268,248.146 378.623,247.833C361.297,239.27 356.23,215.201 373.295,200.071C385.179,189.53 404.544,191.507 414.158,206.002C424.429,221.476 419.59,239.571 404.252,248.114C400.798,250.039 397.863,252.381 395.106,255.18C384.606,265.815 373.961,276.304 363.378,286.855C362.619,287.604 361.901,288.416 361.016,289.363ZM405.876,223.068C405.782,214.504 399.601,207.761 390.392,207.98C381.526,208.188 376.479,215.326 376.656,223.089C376.833,230.82 383.628,237.594 391.36,237.625C399.164,237.667 405.959,230.841 405.876,223.068Z" fill="#FFC424"/>
<path d="M285.648,325.606C263.463,303.015 241.34,280.487 218.5,257.23C226.033,257.115 232.61,257.355 239.353,257.625C258.582,275.752 276.428,295.273 294.94,312.828C299.883,311.974 303.962,310.746 308.062,310.653C323.754,310.299 336.459,322.182 337.375,337.874C337.676,342.973 336.116,347.832 333.504,352.088C325.71,364.815 316.47,367.947 303.504,365.22C289.259,362.234 283.088,350.215 282.724,339.31C282.641,337.01 283.046,334.648 283.525,332.37C283.983,330.257 284.815,328.228 285.648,325.606ZM309.716,325.627C302.224,325.429 296.522,330.798 296.397,338.197C296.272,345.273 302.11,351.516 309.092,351.787C316.594,352.078 322.963,346.105 323.16,338.582C323.327,332.13 316.782,325.814 309.716,325.627Z" fill="#FFC424"/>
<path d="M488.643,279.571C499.995,279.571 511.057,279.467 522.108,279.613C527.612,279.685 530.64,283.026 530.37,288.125C530.13,292.62 527.258,295.627 522.586,295.741C515.583,295.918 508.57,295.835 501.556,295.856C499.381,295.866 497.207,295.856 494.678,295.856C489.746,300.632 484.73,305.492 479.704,310.351C476.01,313.92 472.337,317.521 468.601,321.038C462.628,326.667 455.605,328.78 447.53,327.032C434.876,324.284 423.159,306.563 436.125,291.069C438.414,288.333 441.161,285.981 443.773,283.536C451.848,275.991 459.954,268.468 468.091,260.986C469.652,259.55 471.411,258.343 473.44,256.751C474.585,260.206 474.002,263.14 474.096,266.002C474.189,268.957 474.116,271.912 474.116,274.181C469.08,279.446 464.533,284.347 459.829,289.082C455.115,293.827 450.245,298.405 445.292,303.202C445.053,305.523 446,307.562 447.738,309.29C450.922,312.463 455.313,312.474 458.508,309.3C466.687,301.184 474.834,293.036 483.013,284.93C484.782,283.171 486.614,281.496 488.643,279.571Z" fill="#FFC424"/>
<path d="M314.17,379.757C314.17,383.514 314.17,386.75 314.17,390.205C296.927,406.666 279.602,423.201 262.151,439.85C253.869,439.85 245.638,439.85 237.74,439.85C227.719,449.351 219.769,451.567 211.694,447.322C204.369,443.472 199.915,434.824 201.278,427.072C202.756,418.654 209.571,411.796 217.636,410.621C226.949,409.268 233.39,413.451 239.446,424.96C244.545,424.96 249.789,424.96 255.669,424.96C271.818,410.621 287.052,394.585 303.473,379.747C306.927,379.757 310.309,379.757 314.17,379.757ZM211.996,429.393C211.392,433.753 215.243,438.154 219.53,438.404C224.025,438.664 228.645,434.72 228.947,430.454C229.259,425.907 225.471,421.505 220.934,421.151C216.387,420.797 212.298,424.575 211.996,429.393Z" fill="#FFC424"/>
<path d="M474.761,129.447C474.761,141.279 474.761,152.767 474.761,165.129C470.474,161.83 466.468,159.374 462.992,155.805C462.992,149.78 462.992,143.734 462.992,137.637C454.866,131.456 451.161,123.089 450.911,113.318C450.714,105.244 453.44,97.814 459.236,92.153C471.161,80.509 488.695,80.478 500.547,91.404C511.005,101.05 516.239,121.112 498.643,137.324C498.643,143.474 498.643,149.842 498.643,156.544C495.021,159.124 491.39,161.726 487.342,164.608C487.342,152.402 487.342,140.665 487.342,128.896C497.696,121.029 497.935,114.942 495.76,108.282C493.388,100.988 487.29,97.127 479.61,97.377C472.753,97.595 466.811,101.987 465.23,108.605C463.596,115.493 463.7,122.153 474.761,129.447Z" fill="#FFC424"/>
<path d="M349.632,359.071C361.308,359.112 370.777,369.092 370.735,381.308C370.694,393.472 361.079,403.202 349.227,403.066C337.166,402.931 327.281,393.306 327.427,381.454C327.572,369.06 337.791,358.665 349.632,359.071ZM340.132,381.422C340.163,386.053 344.169,390.018 348.79,389.997C353.899,389.976 358.259,385.741 358.134,380.944C358.009,376.282 354.107,372.432 349.362,372.369C345.023,372.328 339.861,375.678 340.132,381.422Z" fill="#FFC424"/>
<path d="M310.465,64.568C299.924,64.62 291.485,56.181 291.391,45.66C291.298,34.734 298.873,25.858 310.33,25.442C320.684,25.057 330.018,34.433 330.007,45.119C329.986,54.713 323.212,64.609 310.465,64.568ZM310.58,53.423C315.429,53.433 319.081,49.927 318.998,45.338C318.915,40.499 315.106,36.607 310.455,36.607C305.855,36.597 302.109,40.26 302.047,44.838C301.974,49.677 305.699,53.413 310.58,53.423Z" fill="#FFC424"/>
<path d="M159.062,77.231C159.135,87.595 151.455,95.493 141.32,95.545C131.393,95.597 122.923,88.678 122.767,77.949C122.611,67.19 130.79,58.959 141.06,58.896C152.371,58.824 159.447,69.427 159.062,77.231ZM141.143,70.02C136.409,70.01 132.902,73.329 133.017,77.7C133.121,81.498 136.794,84.911 140.779,84.9C144.952,84.9 148.656,81.269 148.573,77.242C148.5,73.007 145.441,70.031 141.143,70.02Z" fill="#FFC424"/>
<path d="M230.737,468.934C235.825,464.179 240.913,459.424 245.939,454.741C252.599,454.741 258.967,454.741 265.44,454.741C271.943,449.226 277.344,442.483 284.898,437.582C284.898,443.16 284.982,448.237 284.826,453.315C284.794,454.252 284.004,455.334 283.265,456.042C278.249,460.901 273.161,465.677 268.541,470.058C255.617,470.058 243.4,470.058 231.194,470.058C231.038,469.684 230.882,469.309 230.737,468.934Z" fill="#FFC424"/>
<path d="M498.788,234.941C494.106,235.731 490.911,235.679 487.3,234.732C487.3,216.158 487.3,197.522 487.3,178.51C490.828,176.377 494.137,173.609 498.33,172.194C499.204,175.316 499.558,228.198 498.788,234.941Z" fill="#FFC424"/>
<path d="M529.933,451.453C538.632,451.463 546.509,459.465 546.519,468.3C546.53,477.446 539.111,485.251 530.297,485.355C521.119,485.469 513.179,477.592 513.648,468.352C514.168,458.258 521.338,451.109 529.933,451.453ZM529.797,474.418C533.481,474.418 536.582,471.505 536.52,468.102C536.447,464.564 533.439,461.796 529.725,461.869C525.843,461.942 523.45,464.481 523.502,468.477C523.544,472.129 525.978,474.418 529.797,474.418Z" fill="#FFC424"/>
<path d="M584.729,427.894C584.802,436.011 578.881,442.223 570.869,442.39C562.971,442.546 556.093,435.969 556.134,428.706C556.186,418.862 563.262,413.347 569.703,413.409C578.184,413.472 584.646,419.601 584.729,427.894ZM569.974,423.826C566.394,425.824 565.593,427.155 566.436,429.476C567.133,431.401 568.912,432.369 571.254,432.098C573.21,431.869 574.771,430.392 574.958,428.591C575.177,426.51 573.918,425.262 569.974,423.826Z" fill="#FFC424"/>
<path d="M143.443,123.214C150.925,123.183 157.803,130.061 157.564,137.605C157.283,146.523 150.269,151.997 143.807,151.861C135.566,151.695 129.811,146.003 129.645,137.72C129.489,129.156 137.075,122.361 143.443,123.214ZM139.51,137.439C141.122,140.998 142.09,141.737 144.463,141.372C146.377,141.081 147.741,139.572 147.855,137.616C147.969,135.732 146.991,134.359 145.181,133.87C142.735,133.214 141.362,134.047 139.51,137.439Z" fill="#FFC424"/>
<path d="M355.439,428.924C355.376,436.916 350.153,442.264 342.411,442.264C334.607,442.264 328.426,436.448 328.353,429.028C328.28,421.536 335.023,414.377 341.995,414.554C349.778,414.773 355.501,420.881 355.439,428.924ZM340.684,431.765C341.724,432.608 343.202,432.66 344.326,431.932C346.084,430.808 346.729,429.59 346.511,428.081C346.24,426.281 344.638,424.824 342.692,424.637C340.923,424.471 339.279,425.48 338.675,427.093C338.072,428.727 338.55,430.017 340.684,431.765Z" fill="#FFC424"/>
<path d="M197.032,310.33C203.692,309.581 210.997,316.959 210.654,323.972C210.279,331.631 204.483,337.635 196.876,337.51C189.957,337.406 183.203,330.892 183.391,324.503C183.64,316.22 189.343,310.289 197.032,310.33ZM196.866,327.396C199.27,327.385 200.945,325.939 200.893,323.931C200.841,321.943 199.03,320.07 197.074,319.997C194.858,319.904 192.808,321.808 192.818,323.941C192.829,326.001 194.473,327.406 196.866,327.396Z" fill="#FFC424"/>
<path d="M476.135,467.54C475.979,475.168 470.443,480.828 463.273,480.683C455.865,480.537 450.256,474.47 450.495,466.864C450.724,459.413 456.437,454.106 463.929,454.367C471.015,454.606 476.281,460.298 476.135,467.54ZM460.256,469.268C461.619,470.787 463.273,472.036 465.407,470.683C466.312,470.11 467.228,468.82 467.311,467.79C467.529,465.105 465.5,464.096 463.284,463.492C459.902,465.168 459.902,465.168 460.256,469.268Z" fill="#FFC424"/>
<path d="M336.813,248.801C329.196,242.1 328.009,236.658 332.796,231.621C337.041,227.157 343.993,227.178 348.186,231.673C352.65,236.439 351.485,242.631 344.731,248.708Z" fill="#FFC424"/>
<path d="M83.006,118.896C83.131,111.726 88.345,106.565 95.42,106.617C102.538,106.659 108.615,112.861 108.334,119.801C108.053,126.877 102.434,133.12 96.211,132.777C87.949,132.319 82.309,125.878 83.006,118.896ZM91.726,119.468C93.662,122.475 94.807,123.141 96.877,122.58C98.397,122.174 99.291,121.196 99.291,119.583C99.291,117.824 98.365,116.659 96.7,116.149C94.744,115.545 93.506,116.367 91.726,119.468Z" fill="#FFC424"/>
<path d="M474.72,212.974C470.63,212.974 467.113,212.974 463.679,212.974C462.712,209.384 462.493,177.199 463.367,170.56C467.29,173.63 471.057,176.585 474.72,179.457C474.72,190.706 474.72,201.705 474.72,212.974Z" fill="#FFC424"/>
<path d="M572.128,547.862C579.027,548.101 584.365,553.856 584.032,560.703C583.699,567.446 578.101,572.846 571.639,572.648C564.844,572.44 559.256,566.561 559.506,559.87C559.766,552.617 565.031,547.612 572.128,547.862ZM571.129,556.842C568.226,558.018 568.184,560.016 568.788,562.326C570.286,563.762 571.951,564.709 573.73,563.231C574.532,562.555 575.156,561.171 575.145,560.11C575.125,557.789 573.293,557.133 571.129,556.842Z" fill="#FFC424"/>
<path d="M469.923,246.97C463.96,246.928 458.955,242.391 459.403,236.928C459.954,230.248 464.064,226.127 469.86,226.085C476.749,226.033 480.641,232.495 480.422,236.824C480.162,241.725 476.957,247.011 469.923,246.97Z" fill="#FFC424"/>
<path d="M325.096,83.35C329.976,83.287 333.909,87.242 333.961,92.257C334.013,97.408 330.34,101.716 325.554,101.633C320.944,101.549 316.719,99.083 316.438,93.027C316.199,87.772 320.174,83.412 325.096,83.35Z" fill="#FFC424"/>
<path d="M495.333,530.068C500.276,530.141 504.199,534.137 504.126,539.048C504.054,544.189 500.12,548.133 495.281,547.935C490.266,547.727 486.697,543.804 486.842,538.663C486.988,533.513 490.464,530.006 495.333,530.068Z" fill="#FFC424"/>
<path d="M451.859,550.848C446.937,550.973 443.222,547.394 443.201,542.545C443.18,537.487 446.656,533.637 451.265,533.585C455.927,533.533 460.079,537.727 460.079,542.513C460.069,547.092 456.479,550.744 451.859,550.848Z" fill="#FFC424"/>
<path d="M172.007,38.2C171.903,42.716 168.063,46.191 163.328,46.025C158.916,45.869 155.243,42.237 155.253,38.012C155.264,33.517 159.062,29.896 163.724,29.917C168.229,29.937 172.111,33.808 172.007,38.2Z" fill="#FFC424"/>
<path d="M74.089,455.844C74.089,459.07 72.039,461.161 68.896,461.161C65.733,461.161 63.225,458.674 63.288,455.573C63.34,452.681 65.733,450.256 68.636,450.152C71.675,450.037 74.089,452.556 74.089,455.844Z" fill="#FFC424"/>
<path d="M584.604,134.546C584.698,131.778 586.998,129.343 589.558,129.312C592.502,129.281 595.354,132.049 595.312,134.91C595.27,137.938 592.461,140.561 589.506,140.321C586.706,140.103 584.511,137.522 584.604,134.546Z" fill="#FFC424"/>
<path d="M289.893,90.655C290.049,87.845 291.87,86.066 294.617,86.035C297.594,86.014 299.373,87.928 299.3,91.071Z" fill="#FFC424"/>
<path d="M175.316,183.183C173.724,183.183 171.913,183.183 170.175,183.183C167.782,179.936 167.688,177.303 169.853,175.305C171.559,173.724 174.025,173.651 175.826,175.118C178.063,176.939 177.969,179.447 175.316,183.183Z" fill="#FFC424"/>
<path d="M591.888,461.369C591.805,458.362 593.814,456.01 596.446,456.052C598.808,456.094 600.869,458.071 601.004,460.433C601.16,463.138 598.964,465.552 596.238,465.646C593.668,465.74 591.972,464.085 591.888,461.369Z" fill="#FFC424"/>
<path d="M216.054,161.664C216.033,158.885 217.625,157.168 220.248,157.137C223.005,157.106 225.086,158.989 225.211,161.622C225.336,164.338 223.359,166.419 220.653,166.409C217.875,166.409 216.075,164.546 216.054,161.664Z" fill="#FFC424"/>
<path d="M219.082,187.938C214.826,185.368 214.691,182.725 218.655,179.655C219.186,179.249 219.873,179.083 220.528,179.208C223.702,179.842 225.024,180.997 225.18,183.224C225.346,185.628 224.035,187.199 221.007,188.157C220.372,188.365 219.665,188.292 219.082,187.938Z" fill="#FFC424"/>
<path d="M269.883,31.425C273.452,36.212 272.557,38.605 266.678,40.031C263.005,38.043 261.943,36.306 262.849,33.704C263.702,31.207 265.638,30.582 269.883,31.425Z" fill="#FFC424"/>
<path d="M220.674,188.947C223.772,188.947 226.283,186.436 226.283,183.339C226.283,180.241 223.772,177.73 220.674,177.73C217.577,177.73 215.066,180.241 215.066,183.339C215.066,186.436 217.577,188.947 220.674,188.947Z" fill="#FFC424"/>
<path d="M172.985,184.265C176.082,184.265 178.594,181.754 178.594,178.656C178.594,175.558 176.082,173.047 172.985,173.047C169.887,173.047 167.376,175.558 167.376,178.656C167.376,181.754 169.887,184.265 172.985,184.265Z" fill="#FFC424"/>
<path d="M220.674,167.439C223.772,167.439 226.283,164.928 226.283,161.83C226.283,158.733 223.772,156.221 220.674,156.221C217.577,156.221 215.066,158.733 215.066,161.83C215.066,164.928 217.577,167.439 220.674,167.439Z" fill="#FFC424"/>
<path d="M463.606,458.664C468.123,458.674 472.212,462.826 472.222,467.405C472.222,472.15 468.372,476.208 463.794,476.26C459.028,476.323 454.907,472.233 455.157,467.436C455.417,462.202 459.142,458.487 463.606,458.664ZM463.534,470.589C465.448,470.589 467.061,469.08 467.02,467.311C466.978,465.469 465.417,464.044 463.492,464.075C461.473,464.117 460.235,465.428 460.266,467.498C460.297,469.403 461.557,470.589 463.534,470.589Z" fill="#FFC424"/>
<path d="M570.213,419.393C574.729,419.403 578.819,423.555 578.829,428.134C578.829,432.879 574.979,436.937 570.4,436.989C565.635,437.051 561.514,432.962 561.764,428.165C562.024,422.92 565.749,419.205 570.213,419.393ZM570.14,431.318C572.055,431.318 573.668,429.809 573.626,428.04C573.585,426.198 572.024,424.773 570.099,424.804C568.08,424.845 566.842,426.157 566.873,428.227C566.894,430.121 568.153,431.318 570.14,431.318Z" fill="#FFC424"/>
<path d="M148.438,588.809L160.592,588.809L160.592,616.8C160.592,630.026 154.275,634.927 143.391,634.927C140.914,634.927 137.616,634.594 135.347,633.834L136.627,624.074C138.105,624.49 140.009,624.833 141.976,624.833C145.878,624.833 148.438,623.095 148.438,616.842L148.438,588.809Z" fill="#FFFFFF"/>
<path d="M211.309,611.046C211.309,625.635 202.537,634.927 188.541,634.927C174.473,634.927 166.741,624.375 166.741,611.764C166.741,598.548 175.388,588.07 189.29,588.07C203.89,588.07 211.309,598.892 211.309,611.046ZM179.603,611.545C179.603,620.078 183.318,625.291 189.124,625.291C195.034,625.291 198.447,619.599 198.447,611.42C198.447,603.616 194.951,597.685 189.051,597.685C183.328,597.695 179.603,603.2 179.603,611.545Z" fill="#FFFFFF"/>
<path d="M217.792,589.433C220.539,588.923 226.522,588.455 232.131,588.455C238.541,588.455 242.433,588.913 245.96,590.671C249.498,592.315 252.068,595.583 252.068,600.016C252.068,603.834 249.977,607.56 244.711,609.547L244.711,609.714C250.268,611.212 253.598,615.333 253.598,620.723C253.598,625 251.527,628.35 248.52,630.619C245.107,633.179 239.467,634.687 229.738,634.687C224.254,634.687 220.227,634.334 217.792,633.949L217.792,589.433ZM229.831,606.28L232.266,606.28C237.396,606.28 239.894,604.459 239.894,601.535C239.894,598.871 237.875,597.196 233.806,597.196C231.767,597.196 230.622,597.31 229.831,597.466L229.831,606.28ZM229.831,625.655C230.726,625.791 231.767,625.791 233.328,625.791C237.365,625.791 240.82,624.178 240.82,620.182C240.82,616.342 237.302,614.865 232.745,614.865L229.831,614.865L229.831,625.655Z" fill="#FFFFFF"/>
<path d="M302.942,611.046C302.942,625.635 294.17,634.927 280.174,634.927C266.106,634.927 258.374,624.375 258.374,611.764C258.374,598.548 267.021,588.07 280.923,588.07C295.523,588.07 302.942,598.892 302.942,611.046ZM271.236,611.545C271.236,620.078 274.951,625.291 280.757,625.291C286.667,625.291 290.08,619.599 290.08,611.42C290.08,603.616 286.584,597.685 280.695,597.685C274.951,597.695 271.236,603.2 271.236,611.545Z" fill="#FFFFFF"/>
<path d="M309.425,589.433C312.723,588.892 317.489,588.455 324.388,588.455C330.923,588.455 335.595,589.631 338.779,592.076C341.88,594.365 343.941,598.371 343.941,603.002C343.941,607.601 342.411,611.618 339.529,614.199C335.855,617.476 330.538,618.944 324.419,618.944C323.244,618.944 322.193,618.84 321.454,618.788L321.454,634.188L309.425,634.188L309.425,589.433ZM321.454,609.464C322.109,609.578 322.921,609.63 324.232,609.63C328.967,609.63 331.922,607.196 331.922,603.283C331.922,599.901 329.685,597.612 325.054,597.612C323.275,597.612 322.078,597.747 321.454,597.893L321.454,609.464Z" fill="#FFFFFF"/>
<path d="M349.039,627.861C349.039,623.699 351.922,620.775 355.97,620.775C360.049,620.775 362.837,623.616 362.889,627.861C362.889,632.003 360.111,634.927 355.959,634.927C351.88,634.927 349.039,632.003 349.039,627.861Z" fill="#FFFFFF"/>
<path d="M402.962,633.023C401.245,633.866 396.968,634.896 391.536,634.896C374.554,634.896 367.104,624.324 367.104,612.242C367.104,596.238 378.831,588.112 392.369,588.112C397.582,588.112 401.828,589.09 403.711,590.13L401.339,599.693C399.372,598.871 396.562,598.059 392.941,598.059C385.959,598.059 379.913,602.18 379.913,611.472C379.913,619.703 384.825,624.823 393.16,624.823C396.105,624.823 399.403,624.251 401.287,623.522L402.962,633.023Z" fill="#FFFFFF"/>
<path d="M452.191,611.046C452.191,625.635 443.419,634.927 429.424,634.927C415.355,634.927 407.624,624.375 407.624,611.764C407.624,598.548 416.271,588.07 430.173,588.07C444.772,588.07 452.191,598.892 452.191,611.046ZM420.485,611.545C420.485,620.078 424.21,625.291 430.017,625.291C435.927,625.291 439.34,619.599 439.34,611.42C439.34,603.616 435.844,597.685 429.944,597.685C424.2,597.695 420.485,603.2 420.485,611.545Z" fill="#FFFFFF"/>
<path d="M457.769,627.861C457.769,623.699 460.651,620.775 464.699,620.775C468.778,620.775 471.567,623.616 471.619,627.861C471.619,632.003 468.84,634.927 464.689,634.927C460.61,634.927 457.769,632.003 457.769,627.861Z" fill="#FFFFFF"/>
<path d="M474.917,627.726L495,599.11L495,598.861L476.822,598.861L476.822,588.809L510.755,588.809L510.755,595.76L491.286,623.886L491.286,624.136L511.098,624.136L511.098,634.188L474.928,634.188L474.928,627.726L474.917,627.726Z" fill="#FFFFFF"/>
<path d="M529.194,623.668L526.634,634.188L514.064,634.188L527.227,588.809L543.418,588.809L556.946,634.188L543.814,634.188L540.921,623.668L529.194,623.668ZM539.256,614.698L537.154,606.54C536.467,603.98 535.604,600.276 534.896,597.601L534.761,597.601C534.084,600.276 533.418,604.011 532.763,606.592L530.807,614.708L539.256,614.708L539.256,614.698Z" fill="#FFFFFF"/>
</svg>
