<svg width="64" height="64" viewBox="0 0 64 64" fill="none" xmlns="http://www.w3.org/2000/svg" xmlns:xlink="http://www.w3.org/1999/xlink">
<path d="M32.07,64L31.93,64C14.324,64 0,49.676 0,32.07L0,31.93C0,14.324 14.324,0 31.93,0L32.07,0C49.676,0 64,14.324 64,31.93L64,32.07C64,49.676 49.676,64 32.07,64ZM31.93,2.166C15.517,2.166 2.166,15.517 2.166,31.93L2.166,32.07C2.166,48.483 15.517,61.834 31.93,61.834L32.07,61.834C48.483,61.834 61.834,48.483 61.834,32.07L61.834,31.93C61.834,15.517 48.483,2.166 32.07,2.166L31.93,2.166Z" fill="#FFFFFF"/>
<path d="M13.624,15.082L27.883,34.146L13.535,49.646L16.765,49.646L29.328,36.076L39.477,49.646L50.467,49.646L35.406,29.51L48.762,15.082L45.532,15.082L33.964,27.58L24.616,15.082L13.626,15.082L13.624,15.082ZM18.373,17.461L23.42,17.461L45.714,47.267L40.666,47.267L18.373,17.461Z" fill="#FFFFFF"/>
</svg>
