<svg width="88" height="80" viewBox="0 0 88 80" fill="none" xmlns="http://www.w3.org/2000/svg" xmlns:xlink="http://www.w3.org/1999/xlink">
<path d="M32.073,79C29.262,79 26.741,78.273 24.511,76.818C22.28,75.364 20.554,73.364 19.332,70.818C18.354,72.091 17.116,73.076 15.619,73.773C14.122,74.47 12.579,74.818 10.99,74.818C7.873,74.818 5.261,73.758 3.152,71.636C1.044,69.515 -0.01,66.939 -0.01,63.909C-0.01,61.303 0.846,58.955 2.557,56.864C4.268,54.773 6.437,53.576 9.065,53.273C8.209,52.061 7.552,50.773 7.094,49.409C6.636,48.045 6.407,46.606 6.407,45.091C6.407,42.667 7.033,40.394 8.286,38.273C9.539,36.152 11.296,34.424 13.557,33.091C13.862,34.182 14.275,35.348 14.794,36.591C15.314,37.833 15.909,38.909 16.582,39.818C15.726,40.485 15.054,41.288 14.565,42.227C14.076,43.167 13.832,44.152 13.832,45.182C13.832,48.576 15.237,50.667 18.048,51.455C20.859,52.242 23.518,52.879 26.023,53.364L27.765,56.273C27.093,58.212 26.512,59.864 26.023,61.227C25.534,62.591 25.29,63.818 25.29,64.909C25.29,66.727 25.947,68.318 27.261,69.682C28.575,71.045 30.179,71.727 32.073,71.727C34.396,71.727 36.321,70.697 37.848,68.636C39.376,66.576 40.629,64.152 41.607,61.364C42.584,58.576 43.333,55.758 43.852,52.909C44.372,50.061 44.784,47.879 45.09,46.364L52.24,48.273C51.69,51 51.018,54.121 50.223,57.636C49.429,61.152 48.314,64.5 46.878,67.682C45.441,70.864 43.547,73.545 41.194,75.727C38.841,77.909 35.801,79 32.073,79ZM10.99,67.545C12.029,67.545 12.9,67.197 13.602,66.5C14.305,65.803 14.657,64.939 14.657,63.909C14.657,62.879 14.305,62.015 13.602,61.318C12.9,60.621 12.029,60.273 10.99,60.273C9.951,60.273 9.08,60.621 8.377,61.318C7.675,62.015 7.323,62.879 7.323,63.909C7.323,64.939 7.675,65.803 8.377,66.5C9.08,67.197 9.951,67.545 10.99,67.545ZM37.023,53.182C34.212,50.697 31.661,48.379 29.369,46.227C27.078,44.076 25.107,41.985 23.457,39.955C21.807,37.924 20.539,35.894 19.652,33.864C18.766,31.833 18.323,29.727 18.323,27.545C18.323,23.606 19.683,20.288 22.403,17.591C25.122,14.894 28.468,13.545 32.44,13.545C32.684,13.545 32.898,13.561 33.082,13.591C33.265,13.621 33.479,13.636 33.723,13.636C33.479,13.03 33.296,12.424 33.173,11.818C33.051,11.212 32.99,10.576 32.99,9.909C32.99,6.879 34.059,4.303 36.198,2.182C38.337,0.061 40.934,-1 43.99,-1C47.046,-1 49.643,0.061 51.782,2.182C53.921,4.303 54.99,6.879 54.99,9.909C54.99,10.576 54.929,11.197 54.807,11.773C54.684,12.348 54.501,12.939 54.257,13.545L55.54,13.545C59.207,13.545 62.323,14.712 64.89,17.045C67.457,19.379 68.984,22.273 69.473,25.727C68.373,25.545 67.136,25.455 65.761,25.455C64.386,25.455 63.118,25.515 61.957,25.636C61.529,24.242 60.75,23.091 59.619,22.182C58.489,21.273 57.129,20.818 55.54,20.818C53.401,20.818 51.736,21.439 50.544,22.682C49.352,23.924 47.718,25.727 45.64,28.091L42.248,28.091C40.109,25.606 38.444,23.773 37.253,22.591C36.061,21.409 34.457,20.818 32.44,20.818C30.484,20.818 28.865,21.455 27.582,22.727C26.298,24 25.657,25.606 25.657,27.545C25.657,28.939 26.054,30.379 26.848,31.864C27.643,33.348 28.758,34.924 30.194,36.591C31.63,38.258 33.372,40.03 35.419,41.909C37.466,43.788 39.743,45.818 42.248,48L37.023,53.182ZM43.99,13.545C45.029,13.545 45.9,13.197 46.602,12.5C47.305,11.803 47.657,10.939 47.657,9.909C47.657,8.879 47.305,8.015 46.602,7.318C45.9,6.621 45.029,6.273 43.99,6.273C42.951,6.273 42.08,6.621 41.378,7.318C40.675,8.015 40.323,8.879 40.323,9.909C40.323,10.939 40.675,11.803 41.378,12.5C42.08,13.197 42.951,13.545 43.99,13.545ZM55.815,79C54.471,79 53.141,78.818 51.828,78.455C50.514,78.091 49.246,77.515 48.023,76.727C48.696,75.879 49.368,74.879 50.04,73.727C50.712,72.576 51.323,71.515 51.873,70.545C52.546,70.97 53.218,71.273 53.89,71.455C54.562,71.636 55.234,71.727 55.907,71.727C57.862,71.727 59.497,71.045 60.811,69.682C62.125,68.318 62.782,66.697 62.782,64.818C62.782,63.667 62.537,62.424 62.048,61.091C61.559,59.758 60.979,58.121 60.307,56.182L62.048,53.273C64.615,52.788 67.289,52.152 70.069,51.364C72.85,50.576 74.24,48.485 74.24,45.091C74.24,42.667 73.339,40.909 71.536,39.818C69.733,38.727 67.762,38.182 65.623,38.182C63.057,38.182 60.062,38.667 56.64,39.636C53.218,40.606 49.215,41.848 44.632,43.364L42.707,36.273C47.473,34.758 51.721,33.485 55.448,32.455C59.176,31.424 62.598,30.909 65.715,30.909C69.932,30.909 73.629,32.152 76.807,34.636C79.984,37.121 81.573,40.606 81.573,45.091C81.573,46.606 81.344,48.045 80.886,49.409C80.428,50.773 79.771,52.061 78.915,53.273C81.543,53.576 83.712,54.773 85.423,56.864C87.134,58.955 87.99,61.303 87.99,63.909C87.99,66.939 86.936,69.515 84.828,71.636C82.719,73.758 80.107,74.818 76.99,74.818C75.401,74.818 73.858,74.47 72.361,73.773C70.864,73.076 69.626,72.091 68.648,70.818C67.426,73.364 65.7,75.364 63.469,76.818C61.239,78.273 58.687,79 55.815,79ZM77.082,67.545C78.121,67.545 78.976,67.197 79.648,66.5C80.321,65.803 80.657,64.939 80.657,63.909C80.657,62.879 80.305,62 79.603,61.273C78.9,60.545 78.029,60.182 76.99,60.182C75.951,60.182 75.08,60.53 74.378,61.227C73.675,61.924 73.323,62.788 73.323,63.818C73.323,64.848 73.69,65.727 74.423,66.455C75.157,67.182 76.043,67.545 77.082,67.545Z" fill="#FFFFFF"/>
</svg>
