<svg width="64" height="64" viewBox="0 0 64 64" fill="none" xmlns="http://www.w3.org/2000/svg" xmlns:xlink="http://www.w3.org/1999/xlink">
<path d="M23.244,64L21.97,53.76C21.28,53.493 20.63,53.173 20.02,52.8C19.41,52.427 18.813,52.027 18.229,51.6L8.756,55.6L0,40.4L8.199,34.16C8.146,33.787 8.119,33.427 8.119,33.08L8.119,30.92C8.119,30.573 8.146,30.213 8.199,29.84L0,23.6L8.756,8.4L18.229,12.4C18.813,11.973 19.423,11.573 20.06,11.2C20.697,10.827 21.333,10.507 21.97,10.24L23.244,0L40.756,0L42.03,10.24C42.72,10.507 43.37,10.827 43.98,11.2C44.59,11.573 45.187,11.973 45.771,12.4L55.244,8.4L64,23.6L55.801,29.84C55.854,30.213 55.881,30.573 55.881,30.92L55.881,33.08C55.881,33.427 55.828,33.787 55.721,34.16L63.92,40.4L55.164,55.6L45.771,51.6C45.187,52.027 44.577,52.427 43.94,52.8C43.303,53.173 42.667,53.493 42.03,53.76L40.756,64L23.244,64ZM28.816,57.6L35.104,57.6L36.219,49.12C37.864,48.693 39.39,48.067 40.796,47.24C42.202,46.413 43.489,45.413 44.657,44.24L52.537,47.52L55.642,42.08L48.796,36.88C49.061,36.133 49.247,35.347 49.353,34.52C49.459,33.693 49.512,32.853 49.512,32C49.512,31.147 49.459,30.307 49.353,29.48C49.247,28.653 49.061,27.867 48.796,27.12L55.642,21.92L52.537,16.48L44.657,19.84C43.489,18.613 42.202,17.587 40.796,16.76C39.39,15.933 37.864,15.307 36.219,14.88L35.184,6.4L28.896,6.4L27.781,14.88C26.136,15.307 24.61,15.933 23.204,16.76C21.798,17.587 20.511,18.587 19.343,19.76L11.463,16.48L8.358,21.92L15.204,27.04C14.939,27.84 14.753,28.64 14.647,29.44C14.541,30.24 14.488,31.093 14.488,32C14.488,32.853 14.541,33.68 14.647,34.48C14.753,35.28 14.939,36.08 15.204,36.88L8.358,42.08L11.463,47.52L19.343,44.16C20.511,45.387 21.798,46.413 23.204,47.24C24.61,48.067 26.136,48.693 27.781,49.12L28.816,57.6ZM32.159,43.2C35.237,43.2 37.864,42.107 40.04,39.92C42.216,37.733 43.303,35.093 43.303,32C43.303,28.907 42.216,26.267 40.04,24.08C37.864,21.893 35.237,20.8 32.159,20.8C29.028,20.8 26.388,21.893 24.239,24.08C22.09,26.267 21.015,28.907 21.015,32C21.015,35.093 22.09,37.733 24.239,39.92C26.388,42.107 29.028,43.2 32.159,43.2Z" fill="#000000"/>
</svg>
