<svg width="34" height="28" viewBox="0 0 34 28" fill="none" xmlns="http://www.w3.org/2000/svg" xmlns:xlink="http://www.w3.org/1999/xlink">
<path d="M7.233,9.6C7.233,10.276 6.997,10.851 6.524,11.324C6.05,11.797 5.487,12.034 4.834,12.034C4.18,12.034 3.605,11.797 3.11,11.324C2.614,10.851 2.377,10.276 2.4,9.6C2.422,8.924 2.659,8.361 3.11,7.91C3.56,7.459 4.135,7.223 4.834,7.2C5.532,7.177 6.095,7.414 6.524,7.91C6.952,8.406 7.188,8.969 7.233,9.6ZM10.85,18.05C10.85,18.726 10.625,19.301 10.174,19.774C9.723,20.247 9.149,20.484 8.45,20.484C7.752,20.484 7.188,20.247 6.76,19.774C6.332,19.301 6.095,18.726 6.05,18.05C6.005,17.374 6.242,16.811 6.76,16.36C7.279,15.909 7.842,15.673 8.45,15.65C9.059,15.628 9.633,15.864 10.174,16.36C10.715,16.856 10.94,17.419 10.85,18.05ZM18.929,8.991L20.855,16.191C20.923,16.507 20.867,16.811 20.686,17.104C20.506,17.397 20.269,17.577 19.977,17.645C19.684,17.712 19.379,17.678 19.064,17.543C18.748,17.408 18.557,17.16 18.489,16.8L16.596,9.6C15.853,9.532 15.177,9.251 14.568,8.755C13.96,8.259 13.566,7.639 13.385,6.896C13.137,5.927 13.261,5.014 13.757,4.158C14.253,3.302 14.996,2.738 15.988,2.468C16.979,2.197 17.892,2.321 18.726,2.84C19.56,3.358 20.123,4.102 20.416,5.071C20.619,5.814 20.574,6.547 20.281,7.268C19.988,7.989 19.537,8.563 18.929,8.991ZM31.401,9.6C31.401,10.276 31.165,10.851 30.691,11.324C30.218,11.797 29.644,12.034 28.968,12.034C28.292,12.034 27.728,11.797 27.278,11.324C26.827,10.851 26.59,10.276 26.568,9.6C26.545,8.924 26.782,8.361 27.278,7.91C27.773,7.459 28.337,7.223 28.968,7.2C29.599,7.177 30.173,7.414 30.691,7.91C31.21,8.406 31.446,8.969 31.401,9.6ZM19.3,21.667C19.3,22.343 19.075,22.918 18.624,23.391C18.174,23.864 17.599,24.101 16.901,24.101C16.202,24.101 15.639,23.864 15.211,23.391C14.782,22.918 14.546,22.343 14.501,21.667C14.456,20.991 14.692,20.428 15.211,19.977C15.729,19.526 16.292,19.29 16.901,19.267C17.509,19.245 18.084,19.481 18.624,19.977C19.165,20.473 19.391,21.036 19.3,21.667ZM27.751,18.05C27.751,18.726 27.525,19.301 27.075,19.774C26.624,20.247 26.049,20.484 25.351,20.484C24.652,20.484 24.089,20.247 23.661,19.774C23.233,19.301 22.996,18.726 22.951,18.05C22.906,17.374 23.143,16.811 23.661,16.36C24.179,15.909 24.742,15.673 25.351,15.65C25.959,15.628 26.534,15.864 27.075,16.36C27.616,16.856 27.841,17.419 27.751,18.05ZM33.801,9.6C33.801,6.332 32.911,3.302 31.131,0.507C30.906,0.124 30.568,-0.067 30.117,-0.067L3.684,-0.067C3.234,-0.067 2.896,0.124 2.67,0.507C0.89,3.279 0,6.31 0,9.6C0,11.898 0.451,14.084 1.352,16.157C2.253,18.23 3.448,20.033 4.935,21.566C6.422,23.098 8.225,24.303 10.343,25.182C12.461,26.061 14.647,26.501 16.901,26.501C19.154,26.501 21.34,26.061 23.458,25.182C25.576,24.303 27.379,23.098 28.866,21.566C30.353,20.033 31.548,18.23 32.449,16.157C33.35,14.084 33.801,11.898 33.801,9.6Z" fill="#FFFFFF"/>
</svg>
