<svg width="16" height="26" viewBox="0 0 16 26" fill="none" xmlns="http://www.w3.org/2000/svg" xmlns:xlink="http://www.w3.org/1999/xlink">
<path d="M3.789,0.656L14.789,11.656C15.161,12 15.348,12.423 15.348,12.924C15.348,13.425 15.161,13.862 14.789,14.234L3.789,25.234C3.445,25.578 3.016,25.75 2.5,25.75C1.984,25.75 1.555,25.578 1.211,25.234C0.839,24.862 0.652,24.425 0.652,23.924C0.652,23.422 0.839,23 1.211,22.656L10.922,12.945L1.211,3.234C0.839,2.862 0.652,2.425 0.652,1.924C0.652,1.423 0.839,1 1.211,0.656C1.555,0.284 1.984,0.098 2.5,0.098C3.016,0.098 3.445,0.284 3.789,0.656Z" fill="#FFFFFF"/>
</svg>
