<svg width="46" height="44" viewBox="0 0 46 44" fill="none" xmlns="http://www.w3.org/2000/svg" xmlns:xlink="http://www.w3.org/1999/xlink">
<path d="M44.059,21.706C44.059,28.7 40.711,34.945 35.541,38.892C31.919,41.639 27.398,43.288 22.502,43.288C17.606,43.288 13.085,41.664 9.463,38.892C4.293,34.945 0.946,28.725 0.946,21.706C0.946,9.792 10.612,0.15 22.502,0.15C34.392,0.15 44.059,9.792 44.059,21.706Z" fill="#116034"/>
<path d="M38.292,17.757C38.373,17.651 38.445,17.555 38.519,17.46C38.942,16.921 39.183,16.318 39.178,15.625C39.171,14.684 39.174,13.743 39.168,12.802C39.165,12.212 38.943,11.713 38.528,11.297C38.455,11.224 38.379,11.154 38.296,11.074C38.296,11.007 38.295,10.939 38.296,10.87C38.304,10.524 38.254,10.184 38.186,9.845C37.905,8.443 37.267,7.215 36.35,6.132C35.619,5.268 34.738,4.577 33.726,4.065C32.937,3.667 32.098,3.408 31.241,3.208C30.754,3.095 30.264,3 29.761,3C25.1,3.002 20.439,3.004 15.778,3.001C15.25,3 14.73,3.054 14.214,3.157C13.238,3.353 12.29,3.641 11.405,4.099C10.449,4.594 9.594,5.225 8.886,6.051C8.051,7.026 7.39,8.092 7.039,9.336C6.858,9.977 6.741,10.627 6.74,11.295C6.738,13.125 6.735,14.955 6.733,16.785C6.733,16.878 6.733,16.971 6.733,17.137C6.586,17.045 6.496,16.981 6.4,16.929C5.975,16.702 5.532,16.598 5.06,16.766C4.269,17.048 3.95,17.87 4.006,18.52C4.048,19.003 4.182,19.468 4.37,19.914C4.524,20.28 4.682,20.643 4.858,20.998C5.152,21.593 5.45,22.185 5.766,22.768C6.032,23.261 6.323,23.741 6.607,24.223C6.703,24.385 6.733,24.554 6.733,24.74C6.73,26.933 6.73,29.125 6.737,31.317C6.738,31.678 6.748,32.043 6.803,32.399C6.923,33.168 7.158,33.904 7.494,34.607C7.773,35.192 8.104,35.744 8.494,36.264C8.937,36.853 9.425,37.392 10.009,37.843C10.869,38.506 11.803,39.027 12.837,39.37C13.751,39.672 14.688,39.834 15.65,39.834C20.328,39.837 25.006,39.833 29.684,39.838C30.3,39.839 30.901,39.764 31.499,39.625C32.361,39.425 33.175,39.101 33.942,38.665C34.765,38.196 35.474,37.587 36.101,36.876C36.652,36.251 37.113,35.574 37.479,34.826C38.03,33.701 38.301,32.52 38.297,31.262C38.284,26.861 38.292,22.459 38.292,18.056C38.292,17.955 38.292,17.852 38.292,17.757ZM36.97,10.472C36.967,10.64 36.812,10.785 36.648,10.772C36.493,10.759 36.371,10.616 36.376,10.452C36.381,10.298 36.509,10.164 36.651,10.162C36.814,10.16 36.973,10.313 36.97,10.472ZM36.289,8.398C36.502,8.492 36.581,8.595 36.552,8.731C36.525,8.854 36.417,8.951 36.303,8.954C36.172,8.957 36.052,8.862 36.025,8.734C35.996,8.599 36.075,8.496 36.289,8.398ZM23.087,4.588C23.163,4.581 23.229,4.571 23.295,4.57L25.93,4.569C25.99,4.569 26.051,4.565 26.11,4.577C26.251,4.604 26.33,4.716 26.318,4.859C26.307,4.993 26.23,5.076 26.081,5.076C25.1,5.075 24.118,5.067 23.137,5.062C23.129,5.062 23.121,5.055 23.084,5.04C23.08,4.957 23.072,4.881 23.073,4.805C23.072,4.738 23.081,4.671 23.087,4.588ZM24.858,6.393C24.856,6.647 24.64,6.845 24.36,6.848C24.084,6.852 23.894,6.672 23.892,6.407C23.89,6.115 24.112,5.878 24.383,5.881C24.651,5.885 24.859,6.109 24.858,6.393ZM22.496,8.11C22.499,8.395 22.296,8.633 22.03,8.629C21.775,8.624 21.541,8.488 21.526,8.152C21.512,7.861 21.732,7.62 22.005,7.617C22.275,7.613 22.493,7.832 22.496,8.11ZM21.187,4.409C21.76,4.388 22.277,4.907 22.277,5.499C22.276,6.03 21.901,6.578 21.194,6.576C20.61,6.579 20.143,6.112 20.138,5.529C20.132,4.924 20.552,4.432 21.187,4.409ZM20.317,7.766C20.482,7.764 20.58,7.87 20.576,8.044C20.572,8.21 20.484,8.296 20.319,8.295C20.149,8.293 20.046,8.186 20.055,8.021C20.064,7.865 20.165,7.767 20.317,7.766ZM18.557,4.867C18.604,4.728 18.712,4.694 18.947,4.741C19.144,5.006 19.095,5.138 18.769,5.217C18.565,5.108 18.507,5.011 18.557,4.867ZM16.198,11.703C16.35,11.702 16.466,11.806 16.473,11.952C16.48,12.102 16.37,12.217 16.22,12.217C16.066,12.216 15.967,12.114 15.965,11.954C15.964,11.8 16.052,11.705 16.198,11.703ZM16.157,12.916C16.374,12.948 16.462,13.013 16.471,13.148C16.481,13.295 16.391,13.386 16.183,13.437C15.882,13.276 15.874,13.112 16.157,12.916ZM14.47,5.23C14.479,4.9 14.624,4.712 14.909,4.643C15.119,4.591 15.331,4.69 15.422,4.884C15.519,5.091 15.47,5.298 15.288,5.433C15.247,5.463 15.201,5.485 15.147,5.517C15.147,5.759 15.147,6.004 15.147,6.259C14.925,6.259 14.713,6.259 14.487,6.259C14.48,6.195 14.469,6.138 14.469,6.08C14.467,5.797 14.462,5.513 14.47,5.23ZM13.067,4.657C13.317,4.658 13.532,4.873 13.526,5.116C13.52,5.366 13.308,5.558 13.045,5.549C12.801,5.54 12.598,5.339 12.598,5.105C12.599,4.857 12.809,4.656 13.067,4.657ZM13.737,12.699C13.861,12.8 13.856,12.939 13.709,13.145C13.621,13.145 13.521,13.145 13.425,13.145C13.292,12.965 13.287,12.82 13.407,12.709C13.501,12.621 13.637,12.617 13.737,12.699ZM11.812,6.262C12.439,6.258 12.831,6.845 12.809,7.277C12.813,7.851 12.388,8.289 11.826,8.292C11.277,8.295 10.808,7.911 10.799,7.317C10.79,6.721 11.243,6.265 11.812,6.262ZM11.768,8.958C11.981,8.904 11.984,8.904 12.161,8.954C12.161,9.194 12.161,9.431 12.161,9.675C12.03,9.675 11.914,9.675 11.776,9.675C11.757,9.428 11.773,9.191 11.768,8.958ZM11.944,9.824C12.358,9.822 12.739,10.203 12.726,10.621C12.711,11.115 12.322,11.418 11.964,11.411C11.508,11.401 11.189,11.086 11.18,10.627C11.171,10.153 11.591,9.777 11.944,9.824ZM9.365,7.215C9.404,7.128 9.478,7.092 9.571,7.093C9.73,7.095 9.788,7.204 9.826,7.334C9.756,7.611 9.714,7.638 9.441,7.583C9.335,7.479 9.303,7.356 9.365,7.215ZM8.597,9.585C8.604,9.188 8.893,8.902 9.284,8.905C9.679,8.907 10.015,9.251 10,9.635C9.984,10.027 9.673,10.373 9.328,10.354C8.871,10.328 8.558,9.972 8.597,9.585ZM7.947,15.835C7.947,14.895 7.945,13.955 7.95,13.015C7.952,12.679 7.966,12.344 7.983,12.008C8,11.671 8.207,11.469 8.547,11.461C8.857,11.453 9.168,11.461 9.478,11.458C9.67,11.456 9.81,11.529 9.895,11.72C9.801,11.989 9.77,12.016 9.53,12.019C9.271,12.021 9.012,12.019 8.754,12.019C8.67,12.019 8.585,12.019 8.475,12.019C8.434,12.508 8.46,12.971 8.454,13.432C8.448,13.889 8.447,14.347 8.454,14.804C8.461,15.267 8.48,15.729 8.494,16.173C8.393,16.301 8.286,16.335 8.157,16.292C8.015,16.244 7.968,16.125 7.95,15.991C7.943,15.939 7.946,15.887 7.947,15.835ZM7.815,28.541C7.64,28.541 7.501,28.403 7.504,28.231C7.507,28.071 7.64,27.937 7.8,27.931C7.969,27.925 8.103,28.065 8.103,28.247C8.102,28.425 7.99,28.54 7.815,28.541ZM8.689,34.638C8.472,34.551 8.391,34.452 8.41,34.312C8.426,34.198 8.542,34.094 8.659,34.089C8.785,34.085 8.917,34.181 8.948,34.301C8.982,34.436 8.902,34.544 8.689,34.638ZM10.498,36.502C10.215,36.497 10.004,36.281 10.016,36.009C10.028,35.74 10.237,35.535 10.496,35.537C10.76,35.54 10.987,35.774 10.981,36.038C10.974,36.31 10.768,36.507 10.498,36.502ZM35.777,21.405C35.82,20.976 36.018,20.717 36.286,20.743C36.566,20.771 36.744,20.907 36.753,21.23C36.761,21.529 36.578,21.752 36.146,21.762C34.844,23.033 33.537,24.309 32.242,25.573C32,25.573 31.785,25.573 31.539,25.573C32.971,24.165 34.383,22.777 35.777,21.405ZM32.223,21.874C32.373,21.914 32.482,21.972 32.487,22.133C32.492,22.289 32.391,22.36 32.278,22.413C32.106,22.402 32.004,22.323 31.976,22.168C31.954,22.047 32.033,21.957 32.223,21.874ZM36.192,23.872C36.082,23.87 35.987,23.889 35.89,24.017C35.89,24.449 35.89,24.894 35.89,25.353C35.74,25.353 35.606,25.353 35.444,25.353C35.428,25.278 35.398,25.199 35.396,25.119C35.392,24.775 35.389,24.431 35.398,24.088C35.404,23.84 35.477,23.61 35.682,23.451C35.761,23.39 35.858,23.333 35.954,23.317C36.268,23.266 36.587,23.286 36.902,23.311C37.063,23.324 37.144,23.435 37.14,23.594C37.136,23.74 37.035,23.863 36.888,23.87C36.656,23.879 36.424,23.875 36.192,23.872ZM36.384,26.698C36.388,27.148 36.06,27.492 35.616,27.501C35.179,27.51 34.798,27.145 34.8,26.743C34.803,26.198 35.195,25.892 35.552,25.896C36.021,25.899 36.379,26.239 36.384,26.698ZM37.083,19.723C37.046,19.819 36.957,19.854 36.793,19.838C36.673,19.827 36.572,19.735 36.561,19.614C36.552,19.523 36.597,19.458 36.671,19.389C36.762,19.303 36.905,19.294 37.001,19.368C37.091,19.437 37.13,19.603 37.083,19.723ZM33.919,26.427C33.919,26.594 33.919,26.744 33.919,26.895C33.732,26.938 30.716,26.953 30.24,26.914C30.393,26.741 30.541,26.574 30.671,26.427C31.773,26.427 32.838,26.427 33.919,26.427ZM33.369,29.88C32.861,29.887 32.421,29.451 32.447,28.939C32.475,28.38 32.873,27.984 33.349,28.003C33.831,28.003 34.267,28.447 34.268,28.936C34.268,29.442 33.857,29.874 33.369,29.88ZM31.433,32.357C31.706,32.361 31.924,32.582 31.92,32.854C31.916,33.139 31.698,33.357 31.43,33.346C31.152,33.335 30.954,33.118 30.962,32.833C30.971,32.548 31.163,32.353 31.433,32.357ZM31.293,28.681C31.351,28.633 31.433,28.624 31.499,28.659C31.651,28.739 31.688,28.837 31.62,28.991C31.575,29.091 31.471,29.153 31.362,29.142C31.249,29.13 31.191,29.082 31.16,28.991C31.124,28.887 31.169,28.783 31.293,28.681ZM31.883,31.445C31.611,31.444 31.44,31.281 31.437,31.023C31.435,30.73 31.634,30.514 31.909,30.529C32.167,30.544 32.353,30.76 32.354,31.01C32.356,31.233 32.179,31.461 31.883,31.445ZM30.369,28.894C30.361,29.316 30.054,29.63 29.657,29.622C29.247,29.614 28.936,29.278 28.949,28.856C28.962,28.444 29.279,28.15 29.693,28.164C30.086,28.177 30.378,28.493 30.369,28.894ZM30.441,30.761C30.501,30.761 30.561,30.767 30.646,30.772C30.689,30.839 30.725,30.895 30.753,30.939C30.754,31.091 30.652,31.221 30.509,31.253C30.443,31.268 30.372,31.266 30.303,31.266C29.019,31.267 27.735,31.267 26.45,31.266C26.364,31.266 26.277,31.268 26.192,31.254C26.044,31.228 25.954,31.117 25.962,30.988C25.97,30.852 26.059,30.775 26.225,30.762C26.26,30.759 26.294,30.761 26.328,30.761C27.7,30.76 29.07,30.76 30.441,30.761ZM29.48,33.046C29.48,33.3 29.281,33.502 29.025,33.508C28.752,33.515 28.547,33.317 28.545,33.048C28.544,32.768 28.737,32.555 28.992,32.552C29.25,32.549 29.48,32.781 29.48,33.046ZM26.73,32.482C26.808,32.482 26.886,32.478 26.962,32.488C27.137,32.508 27.239,32.614 27.243,32.771C27.246,32.914 27.133,33.017 26.95,33.035C26.907,33.039 26.864,33.037 26.821,33.037C24.898,33.035 22.976,33.032 21.053,33.033C20.854,33.033 20.693,32.995 20.632,32.761C20.677,32.539 20.82,32.478 21.014,32.48C21.574,32.482 22.135,32.481 22.695,32.481C24.04,32.481 25.385,32.481 26.73,32.482ZM33.167,34.546C33.167,33.304 33.167,32.061 33.167,30.819C33.167,30.743 33.167,30.667 33.167,30.564C33.348,30.564 33.493,30.564 33.668,30.564C33.671,30.672 33.676,30.772 33.676,30.872C33.677,32.126 33.677,33.38 33.678,34.635L33.166,34.635C33.167,34.606 33.167,34.576 33.167,34.546ZM34.162,25.114C34.014,25.119 33.894,25.012 33.888,24.871C33.881,24.731 34.016,24.603 34.169,24.603C34.315,24.603 34.398,24.689 34.402,24.846C34.406,25.008 34.316,25.109 34.162,25.114ZM34.933,36.297C34.765,36.26 34.723,36.12 34.798,35.854C35.034,35.737 35.096,35.754 35.264,35.985C35.197,36.249 35.103,36.334 34.933,36.297ZM35.659,34.715C35.282,34.703 34.973,34.378 34.987,34.007C35.002,33.606 35.293,33.329 35.686,33.342C36.068,33.356 36.364,33.674 36.345,34.053C36.327,34.427 36.017,34.725 35.659,34.715ZM37.176,31.993C37.136,32.126 37.033,32.197 36.908,32.201C36.589,32.209 36.267,32.222 35.951,32.191C35.609,32.159 35.43,31.934 35.429,31.597C35.428,30.7 35.43,29.803 35.432,28.905C35.432,28.863 35.437,28.821 35.442,28.751C35.6,28.751 35.734,28.751 35.89,28.751C35.89,29.71 35.89,30.656 35.89,31.62C35.977,31.63 36.043,31.643 36.108,31.644C36.375,31.646 36.642,31.637 36.91,31.646C37.117,31.652 37.231,31.81 37.176,31.993ZM37.022,28.789C36.879,28.794 36.785,28.703 36.78,28.552C36.776,28.386 36.887,28.255 37.033,28.258C37.163,28.26 37.278,28.369 37.285,28.5C37.294,28.65 37.173,28.783 37.022,28.789ZM37.913,15.418C37.872,15.742 37.815,16.068 37.722,16.379C37.517,17.068 37.079,17.57 36.43,17.884C36.329,17.933 36.229,17.983 36.129,18.033C35.519,18.337 35.168,18.826 35.074,19.501C35.061,19.595 35.039,19.687 35.021,19.78C34.886,20.491 34.256,20.969 33.533,20.978C33.084,20.984 32.635,20.979 32.162,20.979C31.97,21.168 31.769,21.368 31.565,21.565C30.944,22.164 30.324,22.764 29.699,23.36C29.613,23.442 29.565,23.531 29.541,23.646C29.337,24.615 28.393,25.086 27.49,24.672C27.459,24.657 27.427,24.643 27.409,24.635C26.912,25.12 26.419,25.6 25.93,26.079C25.824,26.069 25.731,26.053 25.639,26.056C25.364,26.061 25.191,26.205 25.116,26.471C25.04,26.739 25.11,26.969 25.308,27.153C25.495,27.325 25.724,27.375 25.956,27.27C26.196,27.161 26.355,26.972 26.38,26.695C26.384,26.644 26.38,26.592 26.38,26.517C26.687,26.228 27,25.934 27.309,25.643C27.715,25.643 28.102,25.643 28.501,25.643C28.582,25.566 28.663,25.491 28.743,25.414C29.357,24.821 29.971,24.226 30.587,23.634C30.767,23.46 30.951,23.29 31.134,23.12C31.298,22.969 31.489,22.961 31.644,23.095C31.829,23.256 31.861,23.49 31.721,23.671C31.689,23.712 31.651,23.747 31.614,23.783C30.176,25.202 28.74,26.621 27.302,28.039C26.515,28.814 25.724,29.586 24.933,30.356C24.766,30.518 24.586,30.664 24.415,30.815C23.433,30.815 22.467,30.815 21.47,30.815C20.703,31.54 19.927,32.274 19.157,33.001C18.898,33.001 18.665,33.001 18.433,33.001C17.993,33.001 17.553,32.998 17.113,33.003C16.971,33.005 16.847,32.97 16.719,32.907C16.401,32.749 16.072,32.632 15.706,32.637C15.431,32.641 15.178,32.71 14.932,32.816C14.746,32.896 14.581,33.002 14.546,33.24C14.133,33.145 13.843,33.361 13.559,33.591C13.309,33.794 13.31,33.795 13.1,33.822C13.029,33.779 12.949,33.73 12.863,33.677C12.665,33.744 12.48,33.874 12.246,33.813C12.212,33.895 12.189,33.968 12.154,34.033C12.052,34.227 11.907,34.268 11.684,34.263C11.335,34.256 11.074,34.127 10.877,33.84C10.832,33.773 10.741,33.739 10.673,33.687C10.613,33.641 10.529,33.602 10.504,33.539C10.435,33.368 10.306,33.339 10.149,33.349C10.081,33.353 10.013,33.356 9.957,33.326C9.738,33.214 9.518,33.103 9.272,32.977C9.253,32.92 9.302,32.846 9.35,32.778C9.513,32.542 9.531,32.304 9.401,32.046C9.361,31.964 9.337,31.864 9.337,31.772C9.336,31.417 9.109,31.186 8.883,30.968C8.784,30.873 8.682,30.786 8.6,30.674C8.51,30.549 8.408,30.433 8.305,30.303C8.304,30.064 8.324,30.05 8.724,30.022C9.17,29.712 9.42,29.274 9.518,28.743C9.655,28.003 9.488,27.34 8.986,26.773C8.901,26.677 8.793,26.602 8.691,26.524C8.614,26.464 8.55,26.403 8.523,26.303C8.452,26.038 8.373,25.775 8.29,25.485C8.292,25.48 8.299,25.445 8.318,25.418C8.44,25.243 8.434,25.056 8.35,24.876C8.236,24.636 8.108,24.401 7.977,24.169C7.897,24.026 7.8,23.893 7.714,23.754C7.602,23.574 7.541,23.38 7.552,23.165C7.562,22.961 7.504,22.781 7.388,22.607C7.081,22.149 6.789,21.68 6.491,21.215C6.453,21.157 6.419,21.095 6.371,21.046C6.146,20.817 6.04,20.53 5.944,20.231C5.774,19.706 5.582,19.189 5.406,18.666C5.343,18.478 5.313,18.282 5.403,18.096C5.529,18.032 5.612,18.115 5.699,18.159C5.899,18.26 6.092,18.376 6.293,18.474C6.565,18.607 6.846,18.651 7.145,18.548C7.225,18.52 7.331,18.543 7.42,18.568C7.527,18.597 7.628,18.649 7.73,18.696C8.063,18.845 8.418,18.878 8.77,18.839C8.958,18.817 9.136,18.702 9.316,18.621C9.377,18.593 9.427,18.541 9.5,18.486C9.699,18.486 9.913,18.486 10.156,18.486C10.159,18.381 10.165,18.29 10.165,18.198C10.164,16.714 10.164,15.229 10.163,13.745C10.163,13.693 10.161,13.641 10.163,13.589C10.173,13.348 10.319,13.179 10.53,13.165C10.744,13.152 10.949,13.323 10.98,13.547C10.991,13.623 10.986,13.702 10.986,13.78C10.988,14.712 10.989,15.644 10.991,16.577C10.991,16.653 10.991,16.729 10.991,16.824C11.315,16.85 11.621,16.832 11.937,16.835C11.937,15.282 11.937,13.75 11.937,12.2C12.105,12.2 12.263,12.2 12.445,12.2C12.445,13.741 12.445,15.273 12.445,16.817C12.527,16.826 12.584,16.838 12.643,16.838C13.187,16.84 13.73,16.842 14.274,16.843C14.335,16.843 14.396,16.843 14.455,16.834C14.655,16.804 14.777,16.66 14.775,16.459C14.774,16.256 14.63,16.091 14.433,16.071C14.39,16.066 14.346,16.071 14.303,16.072C13.695,16.084 13.256,15.614 13.323,15.011C13.367,14.619 13.546,14.301 13.906,14.119C14.04,14.05 14.199,14.03 14.385,13.976C14.395,13.946 14.43,13.886 14.436,13.823C14.446,13.703 14.441,13.582 14.441,13.461C14.441,12.132 14.439,10.803 14.442,9.474C14.444,8.879 14.457,8.284 14.464,7.689C14.465,7.605 14.464,7.521 14.464,7.414C14.148,7.414 13.859,7.414 13.565,7.414C13.509,7.26 13.55,7.122 13.531,6.992C13.713,6.935 14.702,6.92 15.119,6.966C15.125,7.001 15.136,7.041 15.137,7.081C15.214,9.315 15.185,11.548 15.192,13.782C15.193,13.957 15.179,14.126 15.114,14.29C14.989,14.599 14.82,14.712 14.483,14.713C14.345,14.714 14.209,14.705 14.102,14.826C13.946,15.004 13.955,15.187 14.144,15.336C14.171,15.357 14.202,15.373 14.245,15.399C14.354,15.392 14.475,15.388 14.594,15.377C14.786,15.361 14.953,15.419 15.1,15.536C15.723,16.024 15.693,17.087 15.045,17.54C14.862,17.669 14.659,17.72 14.436,17.719C13.418,17.716 12.399,17.718 11.38,17.718C11.261,17.718 11.141,17.718 11.005,17.718C11.005,17.972 11.005,18.209 11.005,18.477C12.729,18.488 14.452,18.476 16.195,18.486C17.153,19.395 18.059,20.367 19.028,21.304C19.028,21.502 19.023,21.708 19.029,21.914C19.034,22.107 19.05,22.3 19.064,22.55C17.951,21.476 16.926,20.395 15.872,19.376C13.935,19.376 12.036,19.376 10.113,19.376C9.583,19.807 9.106,20.32 8.561,20.813C8.382,20.813 8.176,20.805 7.97,20.815C7.72,20.828 7.574,21.026 7.631,21.258C7.667,21.407 7.801,21.521 7.969,21.532C8.071,21.538 8.175,21.528 8.279,21.523C8.33,21.521 8.382,21.507 8.433,21.51C8.492,21.514 8.55,21.532 8.597,21.541C8.618,21.805 8.604,22.068 8.663,22.313C8.876,23.201 9.417,23.788 10.318,24.01C10.459,24.045 10.608,24.062 10.753,24.062C12.996,24.066 15.24,24.067 17.484,24.066C17.803,24.066 18.121,24.049 18.451,24.04C18.795,23.719 19.14,23.396 19.489,23.07C19.686,23.263 19.874,23.447 20.083,23.651C19.636,24.083 19.201,24.507 18.751,24.917C18.702,24.921 18.659,24.928 18.617,24.928C15.855,24.928 13.093,24.927 10.331,24.926C10.159,24.926 9.986,24.923 9.813,24.927C9.682,24.929 9.558,24.959 9.458,25.057C9.26,25.249 9.309,25.542 9.565,25.646C9.641,25.678 9.732,25.686 9.816,25.687C11.284,25.693 12.751,25.697 14.218,25.701C14.424,25.702 14.63,25.701 14.872,25.701C14.613,26.04 14.278,26.255 13.997,26.536C13.909,26.536 13.823,26.536 13.738,26.536C12.694,26.536 11.65,26.534 10.605,26.537C10.503,26.537 10.394,26.546 10.303,26.584C10.171,26.64 10.077,26.752 10.072,26.903C10.068,27.052 10.149,27.168 10.277,27.239C10.344,27.275 10.421,27.297 10.497,27.308C10.599,27.324 10.703,27.328 10.806,27.329C11.73,27.33 12.653,27.329 13.577,27.333C13.714,27.333 13.856,27.334 13.988,27.367C14.503,27.493 14.759,27.87 14.857,28.355C14.949,28.807 14.776,29.187 14.431,29.482C14.227,29.656 13.978,29.731 13.712,29.732C13.022,29.735 12.331,29.73 11.641,29.736C11.496,29.738 11.346,29.754 11.208,29.793C10.582,29.97 10.182,30.655 10.368,31.245C10.513,31.706 10.844,31.976 11.317,32.057C11.511,32.091 11.712,32.097 11.91,32.097C12.791,32.1 13.671,32.099 14.551,32.095C15.086,32.093 15.621,32.081 16.156,32.08C16.569,32.08 16.984,32.096 17.398,32.093C17.906,32.09 18.415,32.075 18.956,32.064C19.331,31.713 19.719,31.345 20.112,30.982C20.504,30.619 20.901,30.26 21.315,29.882C22.281,29.882 23.263,29.882 24.246,29.882C24.509,29.63 24.763,29.387 25.046,29.116C23.685,29.116 22.362,29.116 21.032,29.116C20.707,29.418 20.38,29.725 20.05,30.027C19.859,30.202 19.659,30.367 19.469,30.543C19.361,30.644 19.241,30.679 19.094,30.679C18.274,30.673 17.454,30.676 16.635,30.676C16.539,30.676 16.444,30.687 16.35,30.68C16.172,30.667 16.035,30.732 15.911,30.857C15.748,31.022 15.572,31.175 15.395,31.339C15.334,31.339 15.274,31.339 15.214,31.339C14.057,31.34 12.901,31.341 11.744,31.342C11.675,31.342 11.605,31.345 11.538,31.334C11.333,31.298 11.152,31.106 11.154,30.935C11.157,30.728 11.345,30.528 11.566,30.502C11.634,30.494 11.704,30.499 11.773,30.499C12.826,30.499 13.879,30.499 14.951,30.499C15.186,30.288 15.43,30.07 15.684,29.843C16.773,29.843 17.868,29.843 18.941,29.843C19.207,29.676 20.307,28.662 20.565,28.35C20.565,27.783 20.575,27.205 20.56,26.628C20.555,26.425 20.615,26.284 20.769,26.16C20.99,25.982 21.198,25.79 21.443,25.578C21.443,26.474 21.443,27.326 21.443,28.156C21.469,28.184 21.474,28.191 21.479,28.197C21.486,28.202 21.493,28.211 21.5,28.211C22.544,28.214 23.589,28.217 24.633,28.218C24.753,28.218 24.874,28.213 24.995,28.209C25.01,28.208 25.025,28.194 25.058,28.177C25.063,28.096 25.07,28.003 25.077,27.892C25.01,27.835 24.944,27.768 24.869,27.714C24.375,27.355 24.198,26.613 24.578,25.994C24.785,25.657 25.064,25.415 25.478,25.365C25.534,25.358 25.598,25.33 25.636,25.291C26.035,24.886 26.43,24.478 26.825,24.07C26.83,24.064 26.831,24.054 26.839,24.031C26.683,23.646 26.64,23.246 26.813,22.839C26.949,22.518 27.163,22.267 27.465,22.094C27.909,21.839 28.723,21.817 29.319,22.583C29.744,22.168 30.166,21.753 30.591,21.342C31.019,20.929 31.449,20.518 31.876,20.109C32.27,20.109 32.649,20.11 33.028,20.109C33.192,20.108 33.356,20.106 33.52,20.097C33.934,20.075 34.234,19.762 34.269,19.433C34.288,19.254 34.327,19.076 34.373,18.901C34.497,18.433 34.802,18.081 35.136,17.751C35.314,17.575 35.503,17.411 35.687,17.242C36.018,16.935 36.018,16.935 36.436,16.834C36.651,16.641 36.81,16.398 36.883,16.142C36.701,16.081 36.512,16.12 36.328,16.113C36.147,16.105 35.966,16.111 35.779,16.111C35.454,16.422 35.13,16.732 34.806,17.042C34.618,17.221 34.43,17.398 34.245,17.579C34.147,17.675 34.038,17.722 33.898,17.722C33.078,17.719 32.258,17.723 31.438,17.719C31.141,17.717 30.966,17.55 30.962,17.288C30.959,17.039 31.105,16.879 31.357,16.874C31.659,16.869 31.961,16.875 32.263,16.875C32.695,16.875 33.126,16.871 33.558,16.873C33.705,16.874 33.815,16.826 33.923,16.72C34.418,16.239 34.923,15.769 35.439,15.281C35.796,15.281 36.167,15.281 36.538,15.281C36.719,15.281 36.9,15.288 37.081,15.28C37.343,15.27 37.477,15.117 37.462,14.863C37.453,14.706 37.381,14.604 37.229,14.558C37.147,14.534 37.059,14.521 36.974,14.521C36.137,14.519 35.3,14.521 34.463,14.522C34.412,14.522 34.361,14.53 34.291,14.535C34.305,14.593 34.312,14.641 34.329,14.684C34.491,15.098 34.253,15.617 33.885,15.887C33.533,16.144 33.02,16.147 32.675,15.887C32.478,15.739 32.377,15.54 32.378,15.285C32.384,14.526 32.382,13.766 32.382,13.006C32.383,12.351 32.382,11.695 32.382,11.031C32.949,10.434 33.147,9.713 33.034,8.911C32.933,8.19 32.57,7.619 31.959,7.217C30.85,6.49 28.973,6.665 28.258,8.446C28.139,8.405 28.062,8.309 27.981,8.227C27.83,8.073 27.694,7.904 27.544,7.751C27.455,7.661 27.358,7.571 27.248,7.511C27.104,7.433 26.962,7.476 26.849,7.594C26.738,7.711 26.703,7.853 26.77,7.999C26.811,8.09 26.88,8.172 26.949,8.248C27.304,8.636 27.664,9.02 28.076,9.464C28.073,9.696 28.175,10.007 28.318,10.302C28.461,10.598 28.647,10.868 28.893,11.086C28.893,11.191 28.893,11.284 28.893,11.397C28.755,11.36 28.687,11.257 28.608,11.177C27.853,10.407 27.1,9.634 26.351,8.858C26.233,8.736 26.118,8.635 25.932,8.644C25.662,8.659 25.479,8.934 25.597,9.18C25.647,9.285 25.731,9.379 25.816,9.463C26.736,10.386 27.66,11.305 28.582,12.226C28.661,12.304 28.732,12.391 28.805,12.472C28.809,14.122 28.817,15.76 28.802,17.368C27.465,18.638 26.158,19.879 24.853,21.122C24.64,21.325 24.438,21.538 24.224,21.739C24.137,21.821 24.041,21.898 23.937,21.956C23.763,22.051 23.544,22.014 23.435,21.89C23.338,21.779 23.321,21.553 23.415,21.402C23.468,21.315 23.539,21.236 23.612,21.165C24.761,20.056 25.912,18.95 27.06,17.841C27.37,17.542 27.672,17.235 27.965,16.944C27.965,15.574 27.965,14.237 27.965,12.861C26.953,11.839 25.935,10.788 24.865,9.75C24.687,9.932 24.528,10.095 24.35,10.276C25.307,11.256 26.251,12.224 27.195,13.191C27.195,13.393 27.195,13.59 27.195,13.79C26.958,13.561 26.726,13.339 26.478,13.1C26.366,13.086 26.239,13.068 26.111,13.057C25.942,13.041 25.807,12.978 25.684,12.85C25.103,12.247 24.511,11.655 23.923,11.06C23.875,11.011 23.82,10.969 23.749,10.905C23.656,11.023 23.567,11.136 23.478,11.25C23.463,11.239 23.448,11.229 23.434,11.218C23.434,11.294 23.434,11.371 23.434,11.447C23.433,12.387 23.433,13.329 23.431,14.269C23.431,14.356 23.434,14.443 23.423,14.528C23.399,14.697 23.27,14.826 23.103,14.861C22.95,14.894 22.786,14.833 22.708,14.685C22.653,14.581 22.608,14.459 22.607,14.346C22.6,13.337 22.603,12.328 22.603,11.312C22.402,11.284 22.183,11.283 21.985,11.217C21.787,11.15 21.611,11.018 21.439,10.921C21.439,11.15 21.439,11.397 21.439,11.645C21.441,14.044 21.444,16.443 21.443,18.843C21.443,18.936 21.435,19.035 21.403,19.121C21.327,19.331 21.139,19.423 20.9,19.386C20.726,19.359 20.595,19.205 20.576,19.002C20.571,18.95 20.574,18.898 20.574,18.847C20.574,16.309 20.574,13.771 20.574,11.234C20.574,11.061 20.574,10.889 20.574,10.705C20.522,10.691 20.476,10.678 20.421,10.663C20.374,10.72 20.331,10.772 20.288,10.823C19.971,11.207 19.562,11.396 19.065,11.392C18.824,11.389 18.582,11.374 18.342,11.367C18.248,11.364 18.155,11.366 18.049,11.366C18.049,12.187 18.049,12.995 18.049,13.818C18.454,13.992 18.705,14.31 18.839,14.72C18.954,15.072 18.902,15.418 18.77,15.756C18.537,16.349 17.933,16.681 17.296,16.605C16.613,16.524 16.076,15.956 16.008,15.317C15.938,14.671 16.353,13.919 17.199,13.704C17.199,12.893 17.199,12.077 17.199,11.25C16.784,11.109 16.688,10.784 16.689,10.39C16.693,8.81 16.69,7.231 16.69,5.652C16.69,5.6 16.688,5.548 16.693,5.497C16.715,5.281 16.865,5.127 17.053,5.126C17.249,5.125 17.44,5.285 17.462,5.488C17.477,5.633 17.468,5.781 17.466,5.928C17.461,6.271 17.623,6.45 17.966,6.477C18,6.48 18.034,6.485 18.07,6.49C18.206,6.59 18.331,6.716 18.354,6.876C18.375,7.02 18.322,7.175 18.294,7.375C18.37,7.443 18.465,7.528 18.593,7.642C18.592,7.641 18.601,7.684 18.62,7.721C18.805,8.092 18.659,8.406 18.405,8.654C17.849,9.197 17.929,9.335 17.928,9.868C17.927,10.057 17.928,10.247 17.928,10.433C18.181,10.513 18.782,10.528 19.004,10.467C19.237,10.402 19.428,10.276 19.578,10.089C19.675,9.968 19.76,9.837 19.853,9.713C19.909,9.638 19.97,9.566 20.03,9.49C20.266,9.528 20.468,9.628 20.672,9.713C20.839,9.782 20.993,9.882 21.159,9.953C21.3,10.014 21.45,10.053 21.595,10.101C21.675,10.128 21.763,10.142 21.833,10.184C22.324,10.483 22.791,10.397 23.241,10.098C23.383,10.003 23.513,9.886 23.636,9.766C24.679,8.746 25.718,7.723 26.758,6.701C27.3,6.169 27.846,5.641 28.385,5.106C28.503,4.989 28.628,4.935 28.797,4.936C30.549,4.938 32.302,4.934 34.054,4.932C34.121,4.932 34.187,4.942 34.272,4.948C34.356,5.44 34.439,5.921 34.518,6.385C34.263,6.865 34.265,6.898 34.574,7.313C34.446,7.543 34.53,7.749 34.691,7.94C34.712,7.966 34.738,7.993 34.749,8.025C34.81,8.203 34.866,8.382 34.923,8.556C34.997,8.602 35.061,8.643 35.143,8.695C35.1,8.815 35.034,8.929 35.023,9.048C35.013,9.161 35.061,9.28 35.086,9.415C35.135,9.447 35.198,9.489 35.278,9.542C35.271,9.648 35.264,9.757 35.255,9.897C35.285,9.94 35.335,10.008 35.385,10.079C35.385,10.192 35.372,10.306 35.388,10.415C35.418,10.631 35.327,10.782 35.161,10.902C35.086,10.956 35.004,11.002 34.926,11.052C34.865,11.022 34.82,10.999 34.774,10.977C34.488,10.84 34.299,10.863 34.074,11.089C33.763,11.401 33.616,11.786 33.687,12.221C33.78,12.791 34.093,13.196 34.655,13.394C35.324,13.631 35.949,13.269 36.214,12.802C36.278,12.69 36.331,12.573 36.397,12.442C36.844,12.742 37.293,13.011 37.826,12.688C37.951,12.767 37.976,12.876 37.973,12.989C37.946,13.798 38.013,14.611 37.913,15.418ZM20.335,20.326C20.609,20.279 20.835,20.211 21.062,20.205C21.931,20.186 22.634,20.844 22.685,21.713C22.702,21.995 22.615,22.265 22.471,22.5C22.039,23.205 21.527,23.379 20.809,23.228C20.02,23.062 19.679,22.397 19.658,21.793C19.654,21.665 19.676,21.534 19.703,21.408C19.727,21.291 19.773,21.178 19.819,21.033C18.591,19.782 17.365,18.534 16.1,17.246C16.518,17.24 16.882,17.253 17.255,17.268C18.321,18.273 19.309,19.354 20.335,20.326ZM18.98,13.156C18.764,13.049 18.667,12.84 18.724,12.619C18.779,12.404 18.948,12.275 19.179,12.27C19.505,12.263 19.692,12.419 19.744,12.745C19.761,12.855 19.779,12.967 19.779,13.078C19.783,14.934 19.783,16.789 19.784,18.645C19.784,18.688 19.779,18.73 19.776,18.798C19.578,18.637 19.419,18.468 19.306,18.265C19.268,18.195 19.269,18.099 19.268,18.014C19.256,16.547 19.246,15.081 19.237,13.614C19.236,13.495 19.237,13.375 19.237,13.254C19.137,13.217 19.055,13.193 18.98,13.156ZM22.431,15.828C22.666,15.581 23.051,15.582 23.283,15.831C23.531,16.095 23.466,16.438 23.092,16.774C23.092,16.922 23.092,17.084 23.092,17.247C23.092,17.409 23.092,17.571 23.092,17.76C22.948,17.76 22.845,17.761 22.742,17.759C22.718,17.758 22.694,17.747 22.653,17.735C22.653,17.41 22.653,17.086 22.653,16.778C22.231,16.408 22.166,16.107 22.431,15.828ZM23.295,18.427C23.318,18.436 23.346,18.436 23.396,18.444C23.948,17.908 24.508,17.364 25.084,16.806C25.035,16.771 25.005,16.743 24.969,16.725C24.009,16.251 23.729,14.918 24.674,14.08C25.332,13.496 26.405,13.606 26.937,14.409C27.506,15.265 27.238,16.268 26.388,16.741C26.197,16.847 26.035,16.977 25.882,17.132C25.3,17.721 24.711,18.302 24.125,18.886C24.082,18.928 24.042,18.973 23.994,19.025C24.041,19.316 23.988,19.589 23.802,19.826C23.575,20.114 23.287,20.25 22.917,20.166C22.549,20.083 22.236,19.781 22.189,19.444C22.093,18.758 22.75,18.235 23.295,18.427ZM23.341,25.323C22.673,25.316 22.126,24.783 22.134,24.126C22.142,23.44 22.708,22.864 23.363,22.887C24.01,22.889 24.534,23.442 24.532,24.119C24.53,24.792 23.997,25.331 23.341,25.323ZM23.685,26.755C23.682,27.198 23.392,27.494 22.963,27.494C22.531,27.494 22.189,27.172 22.185,26.761C22.181,26.346 22.554,25.95 22.94,25.959C23.371,25.971 23.688,26.31 23.685,26.755ZM18.518,27.36C18.06,27.36 17.604,27.36 17.166,27.36C16.611,27.886 16.171,28.009 15.724,27.774C15.318,27.561 15.072,27.082 15.147,26.653C15.229,26.186 15.606,25.807 16.053,25.741C16.569,25.667 16.926,25.898 17.261,26.536C17.543,26.536 17.834,26.536 18.159,26.536C19.054,25.741 19.898,24.853 20.807,24.032C20.999,24.032 21.186,24.032 21.399,24.032C21.399,24.24 21.399,24.419 21.399,24.61C20.444,25.522 19.485,26.438 18.518,27.36ZM19.774,28.106C19.772,28.158 19.729,28.218 19.688,28.257C19.41,28.526 19.128,28.791 18.872,29.033C18.157,29.033 17.48,29.033 16.804,29.033C16.796,29.013 16.787,28.992 16.779,28.971C17.061,28.708 17.343,28.444 17.621,28.185C17.99,28.185 18.343,28.185 18.701,28.185C19.061,27.88 19.36,27.506 19.779,27.235C19.778,27.544 19.783,27.825 19.774,28.106ZM16.12,28.976C16.033,29.098 15.887,29.11 15.689,29.012C15.594,28.701 15.666,28.597 15.991,28.602C16.166,28.768 16.198,28.866 16.12,28.976ZM13.246,22.443C14.626,22.434 16.005,22.436 17.385,22.438C17.539,22.438 17.697,22.444 17.846,22.479C18.033,22.523 18.168,22.643 18.192,22.85C18.219,23.07 18.088,23.239 17.867,23.265C17.781,23.274 17.694,23.274 17.608,23.274C16.048,23.273 14.487,23.266 12.926,23.276C12.661,23.278 12.436,23.222 12.233,23.058C12.167,23.005 12.091,22.963 12.003,22.904C11.633,23.256 11.187,23.367 10.692,23.312C10.362,23.276 10.087,23.122 9.851,22.896C9.364,22.43 9.179,21.617 9.575,20.951C9.947,20.326 10.619,20.047 11.331,20.253C11.715,20.365 12.02,20.598 12.237,20.94C12.451,21.279 12.479,21.65 12.43,22.034C12.628,22.33 12.897,22.446 13.246,22.443ZM12.927,20.533C12.92,20.434 12.984,20.31 13.062,20.271C13.149,20.228 13.283,20.244 13.35,20.317C13.384,20.352 13.414,20.401 13.422,20.449C13.44,20.551 13.445,20.656 13.326,20.764C13.272,20.764 13.187,20.775 13.105,20.761C13.004,20.745 12.934,20.642 12.927,20.533ZM14.156,20.973C14.17,20.513 14.486,20.185 14.912,20.188C15.281,20.146 15.685,20.555 15.666,20.943C15.646,21.367 15.325,21.7 14.903,21.693C14.52,21.687 14.146,21.326 14.156,20.973ZM16.378,21.255C16.404,21.139 16.494,21.071 16.621,21.071C16.756,21.071 16.852,21.145 16.882,21.273C16.903,21.356 16.889,21.417 16.826,21.475C16.717,21.573 16.548,21.573 16.439,21.475C16.372,21.416 16.357,21.349 16.378,21.255ZM25.344,24.417C25.344,23.503 25.344,22.651 25.344,21.796C25.432,21.649 26.628,20.513 26.956,20.268C27.037,20.268 27.129,20.268 27.22,20.268C27.286,20.489 27.232,20.663 27.074,20.813C26.825,21.052 26.579,21.292 26.333,21.534C26.168,21.696 26.007,21.863 25.848,22.024C25.848,22.345 25.848,22.646 25.848,22.947C25.848,23.248 25.848,23.55 25.848,23.878C25.7,24.037 25.543,24.204 25.344,24.417ZM31.616,10.606C31.616,10.946 31.616,11.299 31.616,11.67C31.415,11.813 31.214,11.957 30.99,12.117C30.99,11.441 30.99,10.791 30.99,10.139C31.564,9.703 31.577,9.366 31.456,8.997C31.325,8.593 30.987,8.379 30.562,8.393C30.182,8.405 29.853,8.648 29.765,9.015C29.674,9.396 29.68,9.765 30.293,10.169C30.293,10.824 30.293,11.46 30.293,12.145C30.055,11.962 29.833,11.826 29.641,11.628C29.641,11.295 29.641,10.96 29.641,10.622C29.191,10.28 28.986,9.817 28.972,9.275C28.961,8.828 29.112,8.417 29.433,8.103C30.093,7.458 31.064,7.457 31.721,8.062C32.301,8.596 32.591,9.707 31.616,10.606ZM31.624,16.012C31.365,16.056 31.188,16.053 30.988,16C30.988,14.972 30.988,13.939 30.988,12.887C31.183,12.768 31.366,12.615 31.599,12.537C31.647,12.71 31.667,15.638 31.624,16.012ZM30.022,15.521C30.403,15.518 30.619,15.876 30.607,16.116C30.593,16.387 30.416,16.68 30.026,16.677C29.696,16.675 29.419,16.424 29.443,16.121C29.473,15.751 29.701,15.524 30.022,15.521ZM29.662,12.446C29.88,12.616 30.088,12.78 30.291,12.939C30.291,13.562 30.291,14.171 30.291,14.795C30.065,14.795 29.87,14.795 29.68,14.795C29.626,14.597 29.614,12.814 29.662,12.446ZM29.924,17.454C30.01,17.375 30.108,17.308 30.22,17.22C30.284,17.411 30.251,17.574 30.256,17.732C30.262,17.896 30.258,18.059 30.258,18.185C29.979,18.477 29.727,18.748 29.466,19.01C29.205,19.273 28.936,19.527 28.661,19.792C28.648,19.921 28.7,20.034 28.797,20.129C28.973,20.305 29.216,20.306 29.393,20.13C29.846,19.68 30.297,19.229 30.75,18.78C30.848,18.683 30.95,18.59 31.062,18.484C31.69,18.484 32.303,18.478 32.915,18.486C33.22,18.49 33.388,18.675 33.373,18.958C33.359,19.207 33.2,19.373 32.941,19.38C32.554,19.389 32.165,19.385 31.777,19.386C31.656,19.387 31.536,19.386 31.396,19.386C31.123,19.651 30.845,19.92 30.567,20.189C30.362,20.386 30.159,20.586 29.952,20.781C29.621,21.092 29.232,21.209 28.785,21.113C28.084,20.96 27.435,19.979 28.153,19.121C28.28,18.969 28.432,18.839 28.577,18.704C29.025,18.285 29.473,17.869 29.924,17.454Z" fill="#116034"/>
<path d="M12.128,28.176C12.595,28.176 13.06,28.176 13.526,28.176C13.578,28.176 13.63,28.174 13.682,28.176C13.9,28.186 14.031,28.29 14.047,28.466C14.066,28.662 13.941,28.85 13.754,28.897C13.688,28.913 13.618,28.92 13.55,28.92C12.601,28.92 11.651,28.918 10.702,28.916C10.625,28.916 10.545,28.914 10.471,28.895C10.304,28.854 10.197,28.7 10.204,28.529C10.212,28.354 10.327,28.215 10.499,28.184C10.566,28.172 10.636,28.176 10.705,28.176C11.18,28.175 11.654,28.175 12.129,28.175C12.128,28.176 12.128,28.176 12.128,28.176Z" fill="#116034"/>
<path d="M28.13,24.048C27.755,24.044 27.452,23.755 27.458,23.408C27.466,23.01 27.744,22.729 28.122,22.734C28.525,22.739 28.812,23.011 28.81,23.386C28.808,23.761 28.51,24.052 28.13,24.048Z" fill="#116034"/>
<path d="M18.093,15.156C18.087,15.528 17.776,15.853 17.415,15.826C17.036,15.797 16.775,15.528 16.758,15.149C16.743,14.807 17.112,14.469 17.45,14.479C17.809,14.489 18.099,14.795 18.093,15.156Z" fill="#116034"/>
<path d="M32.786,14.95C32.789,14.678 32.992,14.475 33.263,14.472C33.503,14.47 33.757,14.713 33.761,14.949C33.765,15.184 33.516,15.435 33.28,15.433C32.99,15.43 32.782,15.227 32.786,14.95Z" fill="#116034"/>
<path d="M10.889,22.534C10.499,22.531 10.116,22.148 10.128,21.772C10.141,21.351 10.496,21.024 10.926,21.023C11.313,21.021 11.689,21.324 11.693,21.795C11.696,22.203 11.319,22.537 10.889,22.534Z" fill="#116034"/>
<path d="M26.478,15.354C26.483,15.785 26.106,16.162 25.674,16.16C25.247,16.159 24.87,15.784 24.86,15.355C24.85,14.925 25.13,14.53 25.621,14.519C26.131,14.507 26.474,14.88 26.478,15.354Z" fill="#116034"/>
<path d="M21.153,21.034C21.544,21.045 21.906,21.394 21.897,21.752C21.886,22.168 21.534,22.5 21.118,22.483C20.731,22.467 20.408,22.122 20.415,21.73C20.422,21.321 20.738,21.023 21.153,21.034Z" fill="#116034"/>
<path d="M15.741,26.781C15.757,26.514 15.984,26.305 16.236,26.325C16.486,26.344 16.697,26.588 16.679,26.84C16.663,27.076 16.407,27.295 16.158,27.28C15.92,27.266 15.707,27.023 15.741,26.781Z" fill="#116034"/>
<path d="M22.837,24.124C22.822,23.806 23.108,23.62 23.348,23.623C23.611,23.626 23.827,23.839 23.834,24.098C23.841,24.363 23.6,24.597 23.317,24.599C23.061,24.6 22.838,24.381 22.837,24.124Z" fill="#116034"/>
<path d="M21.201,5.959C20.93,5.958 20.724,5.751 20.728,5.483C20.731,5.23 20.939,5.027 21.194,5.027C21.452,5.028 21.662,5.243 21.667,5.511C21.672,5.765 21.47,5.959 21.201,5.959Z" fill="#116034"/>
<path d="M11.817,6.878C12.055,6.879 12.224,7.043 12.228,7.279C12.233,7.501 12.028,7.702 11.796,7.703C11.576,7.703 11.372,7.514 11.367,7.304C11.36,7.061 11.555,6.877 11.817,6.878Z" fill="#116034"/>
<path d="M33.341,29.275C33.13,29.275 32.996,29.148 32.993,28.946C32.99,28.724 33.122,28.584 33.337,28.58C33.543,28.576 33.71,28.729 33.714,28.925C33.717,29.113 33.545,29.275 33.341,29.275Z" fill="#116034"/>
<path d="M35.566,26.473C35.785,26.552 35.855,26.621 35.843,26.737C35.832,26.837 35.746,26.918 35.637,26.931C35.508,26.946 35.409,26.892 35.371,26.786C35.324,26.657 35.368,26.583 35.566,26.473Z" fill="#116034"/>
<path d="M11.726,10.612C11.829,10.424 11.905,10.378 12.04,10.415C12.14,10.442 12.195,10.517 12.188,10.622C12.181,10.731 12.106,10.814 12,10.83C11.869,10.85 11.815,10.809 11.726,10.612Z" fill="#116034"/>
<path d="M23.148,26.855C23.06,26.959 22.898,26.955 22.806,26.855C22.742,26.786 22.73,26.726 22.757,26.654C22.789,26.564 22.881,26.508 22.979,26.518C23.087,26.528 23.175,26.609 23.19,26.708C23.199,26.763 23.185,26.812 23.148,26.855Z" fill="#116034"/>
<path d="M14.903,21.132C14.77,21.133 14.679,21.056 14.679,20.941C14.678,20.823 14.791,20.717 14.914,20.722C15.023,20.727 15.123,20.83 15.126,20.94C15.129,21.052 15.036,21.132 14.903,21.132Z" fill="#116034"/>
<path d="M29.49,28.989C29.47,28.762 29.47,28.762 29.658,28.67C29.781,28.703 29.893,28.758 29.881,28.908C29.876,28.965 29.826,29.036 29.775,29.068C29.656,29.143 29.565,29.074 29.49,28.989Z" fill="#116034"/>
<path d="M9.08,9.617C9.178,9.444 9.247,9.399 9.356,9.433C9.448,9.461 9.499,9.526 9.499,9.623C9.499,9.712 9.45,9.766 9.366,9.789C9.25,9.821 9.188,9.784 9.08,9.617Z" fill="#116034"/>
<path d="M35.63,33.84C35.75,33.856 35.852,33.892 35.852,34.02C35.853,34.079 35.819,34.155 35.774,34.193C35.675,34.275 35.583,34.223 35.5,34.143C35.467,34.015 35.47,33.905 35.63,33.84Z" fill="#116034"/>
<path d="M12.445,16.818C12.526,16.827 12.584,16.838 12.642,16.838C13.186,16.841 13.729,16.842 14.273,16.843C14.334,16.843 14.395,16.843 14.454,16.835C14.654,16.805 14.776,16.66 14.775,16.459C14.774,16.257 14.63,16.092 14.432,16.071C14.389,16.066 14.345,16.072 14.303,16.073C13.695,16.084 13.255,15.614 13.323,15.011C13.366,14.62 13.546,14.302 13.905,14.119C14.039,14.05 14.198,14.03 14.384,13.977C14.394,13.947 14.43,13.886 14.435,13.823C14.446,13.704 14.441,13.583 14.441,13.461C14.441,12.133 14.438,10.803 14.442,9.474C14.443,8.879 14.456,8.284 14.464,7.689C14.465,7.605 14.464,7.521 14.464,7.414C14.148,7.414 13.858,7.414 13.564,7.414C13.508,7.261 13.549,7.123 13.53,6.992C13.713,6.936 14.701,6.92 15.119,6.967C15.125,7.002 15.135,7.042 15.136,7.082C15.213,9.315 15.184,11.549 15.191,13.782C15.192,13.957 15.179,14.127 15.113,14.29C14.988,14.6 14.82,14.713 14.483,14.714C14.345,14.714 14.209,14.705 14.102,14.827C13.945,15.005 13.955,15.188 14.144,15.336C14.171,15.358 14.201,15.373 14.245,15.4C14.354,15.393 14.474,15.388 14.594,15.378C14.785,15.361 14.952,15.42 15.1,15.536C15.722,16.025 15.692,17.088 15.045,17.541C14.861,17.669 14.658,17.72 14.435,17.72C13.417,17.717 12.398,17.719 11.38,17.719C11.261,17.719 11.141,17.719 11.005,17.719C11.005,17.973 11.005,18.21 11.005,18.478C12.728,18.488 14.452,18.476 16.195,18.486C17.152,19.395 18.058,20.368 19.027,21.304C19.027,21.502 19.023,21.708 19.028,21.915C19.034,22.108 19.049,22.301 19.064,22.55C17.951,21.476 16.925,20.395 15.871,19.377C13.934,19.377 12.036,19.377 10.113,19.377C9.582,19.808 9.106,20.32 8.561,20.813C8.381,20.813 8.175,20.805 7.97,20.816C7.719,20.828 7.573,21.026 7.63,21.258C7.667,21.407 7.8,21.522 7.968,21.532C8.071,21.538 8.174,21.528 8.278,21.523C8.329,21.521 8.381,21.507 8.432,21.511C8.491,21.515 8.55,21.533 8.596,21.542C8.617,21.806 8.604,22.068 8.663,22.313C8.875,23.202 9.416,23.788 10.317,24.011C10.458,24.045 10.607,24.062 10.752,24.062C12.996,24.067 15.239,24.068 17.483,24.067C17.802,24.067 18.121,24.05 18.45,24.04C18.794,23.719 19.14,23.396 19.488,23.071C19.685,23.263 19.873,23.447 20.083,23.651C19.636,24.083 19.2,24.507 18.75,24.918C18.701,24.922 18.658,24.928 18.616,24.928C15.854,24.928 13.093,24.928 10.33,24.926C10.158,24.926 9.985,24.923 9.813,24.927C9.681,24.93 9.558,24.96 9.458,25.057C9.26,25.25 9.308,25.542 9.564,25.647C9.641,25.678 9.731,25.686 9.816,25.687C11.283,25.693 12.75,25.697 14.218,25.701C14.424,25.702 14.63,25.701 14.872,25.701C14.612,26.04 14.277,26.255 13.996,26.536C13.909,26.536 13.823,26.536 13.737,26.536C12.693,26.536 11.649,26.534 10.604,26.537C10.503,26.537 10.394,26.546 10.303,26.584C10.17,26.64 10.076,26.752 10.072,26.903C10.068,27.052 10.148,27.168 10.277,27.239C10.343,27.275 10.421,27.297 10.496,27.309C10.598,27.324 10.703,27.328 10.806,27.329C11.73,27.331 12.653,27.329 13.577,27.333C13.714,27.333 13.856,27.335 13.987,27.367C14.503,27.493 14.759,27.871 14.857,28.355C14.948,28.807 14.775,29.187 14.43,29.483C14.227,29.657 13.978,29.731 13.712,29.732C13.021,29.736 12.331,29.73 11.64,29.737C11.496,29.738 11.346,29.755 11.207,29.794C10.581,29.97 10.181,30.655 10.367,31.245C10.513,31.706 10.844,31.976 11.316,32.057C11.511,32.091 11.712,32.097 11.909,32.098C12.79,32.101 13.67,32.099 14.551,32.095C15.085,32.093 15.62,32.081 16.155,32.08C16.569,32.08 16.983,32.097 17.397,32.094C17.906,32.09 18.414,32.075 18.955,32.064C19.33,31.713 19.719,31.346 20.111,30.983C20.504,30.62 20.901,30.261 21.314,29.882C22.28,29.882 23.263,29.882 24.245,29.882C24.508,29.63 24.763,29.387 25.045,29.116C23.684,29.116 22.361,29.116 21.031,29.116C20.706,29.418 20.379,29.725 20.049,30.028C19.858,30.202 19.658,30.368 19.469,30.543C19.36,30.644 19.241,30.679 19.094,30.679C18.274,30.674 17.453,30.676 16.634,30.677C16.539,30.677 16.444,30.687 16.349,30.68C16.172,30.667 16.035,30.732 15.911,30.858C15.747,31.022 15.571,31.176 15.394,31.339C15.333,31.339 15.273,31.339 15.213,31.339C14.057,31.34 12.9,31.342 11.743,31.342C11.674,31.342 11.604,31.346 11.537,31.334C11.332,31.298 11.151,31.106 11.153,30.935C11.156,30.728 11.344,30.528 11.565,30.503C11.633,30.494 11.703,30.499 11.772,30.499C12.825,30.499 13.878,30.499 14.95,30.499C15.186,30.288 15.429,30.07 15.684,29.843C16.773,29.843 17.868,29.843 18.941,29.843C19.206,29.677 20.307,28.662 20.565,28.351C20.565,27.783 20.574,27.206 20.56,26.628C20.554,26.425 20.614,26.285 20.769,26.16C20.989,25.983 21.198,25.791 21.443,25.578C21.443,26.474 21.443,27.327 21.443,28.156C21.468,28.184 21.473,28.191 21.479,28.197C21.485,28.203 21.493,28.212 21.499,28.212C22.543,28.215 23.588,28.217 24.632,28.219C24.752,28.219 24.873,28.213 24.994,28.209C25.009,28.208 25.024,28.194 25.057,28.177C25.062,28.096 25.069,28.004 25.076,27.892C25.009,27.835 24.942,27.769 24.868,27.714C24.374,27.355 24.197,26.614 24.577,25.995C24.784,25.658 25.063,25.416 25.477,25.365C25.532,25.359 25.596,25.33 25.635,25.291C26.034,24.887 26.429,24.478 26.824,24.07C26.829,24.064 26.83,24.054 26.838,24.031C26.682,23.646 26.639,23.246 26.812,22.84C26.948,22.518 27.162,22.268 27.464,22.094C27.907,21.839 28.722,21.818 29.318,22.583C29.743,22.168 30.165,21.754 30.59,21.342C31.018,20.929 31.448,20.519 31.875,20.11C32.269,20.11 32.648,20.111 33.027,20.109C33.191,20.109 33.355,20.106 33.519,20.098C33.933,20.076 34.232,19.763 34.267,19.434C34.286,19.254 34.326,19.076 34.372,18.902C34.496,18.433 34.801,18.082 35.135,17.751C35.313,17.576 35.502,17.411 35.686,17.242C36.017,16.935 36.017,16.935 36.434,16.834C36.649,16.642 36.808,16.399 36.882,16.142C36.699,16.081 36.51,16.121 36.327,16.113C36.146,16.106 35.965,16.111 35.777,16.111C35.452,16.423 35.128,16.732 34.805,17.042C34.617,17.221 34.429,17.398 34.244,17.58C34.146,17.675 34.036,17.723 33.897,17.722C33.077,17.719 32.257,17.724 31.437,17.719C31.139,17.717 30.965,17.55 30.961,17.288C30.958,17.039 31.104,16.879 31.355,16.874C31.657,16.869 31.959,16.875 32.262,16.875C32.694,16.875 33.125,16.871 33.557,16.874C33.704,16.874 33.813,16.826 33.922,16.72C34.417,16.239 34.922,15.77 35.438,15.281C35.795,15.281 36.166,15.281 36.536,15.281C36.718,15.281 36.899,15.288 37.08,15.281C37.342,15.27 37.476,15.118 37.461,14.863C37.451,14.706 37.38,14.605 37.227,14.559C37.146,14.534 37.058,14.522 36.973,14.522C36.136,14.52 35.298,14.521 34.462,14.522C34.411,14.522 34.36,14.53 34.289,14.535C34.304,14.593 34.311,14.641 34.327,14.684C34.489,15.098 34.251,15.617 33.884,15.887C33.532,16.145 33.019,16.147 32.673,15.887C32.476,15.74 32.375,15.54 32.377,15.285C32.382,14.526 32.381,13.766 32.381,13.007C32.382,12.351 32.381,11.695 32.381,11.032C32.948,10.435 33.145,9.714 33.033,8.911C32.932,8.191 32.569,7.62 31.958,7.218C30.849,6.49 28.972,6.666 28.257,8.446C28.138,8.406 28.061,8.309 27.979,8.227C27.828,8.074 27.693,7.905 27.543,7.751C27.454,7.661 27.357,7.571 27.247,7.512C27.103,7.433 26.961,7.476 26.848,7.594C26.736,7.711 26.702,7.854 26.769,7.999C26.81,8.09 26.879,8.173 26.947,8.248C27.303,8.636 27.662,9.02 28.075,9.464C28.072,9.696 28.174,10.007 28.317,10.302C28.46,10.598 28.646,10.869 28.892,11.087C28.892,11.191 28.892,11.284 28.892,11.398C28.754,11.36 28.685,11.257 28.607,11.177C27.851,10.407 27.099,9.634 26.35,8.859C26.232,8.736 26.116,8.635 25.931,8.645C25.661,8.66 25.478,8.934 25.595,9.18C25.646,9.286 25.73,9.38 25.814,9.464C26.735,10.386 27.658,11.306 28.581,12.226C28.659,12.305 28.73,12.391 28.804,12.473C28.808,14.122 28.816,15.76 28.801,17.368C27.464,18.638 26.157,19.88 24.851,21.123C24.639,21.325 24.436,21.538 24.223,21.739C24.136,21.821 24.04,21.898 23.936,21.956C23.762,22.052 23.543,22.015 23.434,21.89C23.337,21.779 23.32,21.554 23.414,21.403C23.467,21.316 23.537,21.237 23.611,21.165C24.76,20.057 25.911,18.95 27.059,17.841C27.369,17.542 27.671,17.235 27.963,16.944C27.963,15.574 27.963,14.237 27.963,12.862C26.952,11.839 25.934,10.789 24.864,9.751C24.686,9.933 24.526,10.095 24.349,10.277C25.305,11.257 26.249,12.224 27.194,13.191C27.194,13.393 27.194,13.59 27.194,13.79C26.956,13.562 26.725,13.339 26.476,13.101C26.365,13.087 26.238,13.068 26.11,13.057C25.94,13.041 25.806,12.979 25.682,12.85C25.101,12.248 24.51,11.655 23.922,11.06C23.874,11.012 23.819,10.969 23.748,10.906C23.655,11.024 23.566,11.137 23.476,11.25C23.462,11.239 23.447,11.229 23.433,11.218C23.433,11.295 23.433,11.371 23.433,11.447C23.432,12.388 23.431,13.329 23.43,14.269C23.43,14.356 23.433,14.443 23.422,14.528C23.398,14.697 23.269,14.827 23.102,14.862C22.949,14.894 22.785,14.834 22.706,14.685C22.652,14.582 22.607,14.46 22.606,14.346C22.599,13.337 22.602,12.328 22.602,11.312C22.4,11.284 22.181,11.284 21.984,11.217C21.786,11.151 21.61,11.018 21.438,10.922C21.438,11.151 21.438,11.398 21.438,11.645C21.44,14.045 21.443,16.444 21.442,18.844C21.442,18.937 21.433,19.035 21.402,19.122C21.326,19.332 21.138,19.424 20.899,19.386C20.725,19.359 20.594,19.205 20.575,19.002C20.57,18.951 20.573,18.898 20.573,18.847C20.573,16.31 20.573,13.772 20.573,11.234C20.573,11.062 20.573,10.889 20.573,10.706C20.521,10.691 20.474,10.678 20.42,10.663C20.373,10.72 20.33,10.772 20.287,10.824C19.97,11.208 19.56,11.397 19.064,11.392C18.823,11.39 18.582,11.375 18.34,11.367C18.247,11.364 18.154,11.367 18.048,11.367C18.048,12.188 18.048,12.995 18.048,13.818C18.453,13.992 18.703,14.31 18.838,14.721C18.953,15.073 18.901,15.418 18.769,15.756C18.536,16.349 17.932,16.682 17.295,16.606C16.612,16.524 16.075,15.957 16.006,15.318C15.937,14.671 16.352,13.919 17.198,13.705C17.198,12.893 17.198,12.077 17.198,11.251C16.783,11.109 16.686,10.784 16.688,10.39C16.692,8.811 16.689,7.231 16.689,5.652C16.689,5.6 16.686,5.548 16.692,5.497C16.714,5.281 16.864,5.128 17.052,5.126C17.248,5.125 17.439,5.285 17.46,5.488C17.475,5.634 17.467,5.782 17.464,5.928C17.46,6.272 17.622,6.45 17.965,6.477C17.999,6.48 18.033,6.485 18.069,6.49C18.204,6.591 18.329,6.716 18.353,6.877C18.374,7.021 18.321,7.176 18.293,7.376C18.369,7.443 18.464,7.529 18.592,7.643C18.592,7.641 18.6,7.684 18.619,7.722C18.805,8.092 18.658,8.407 18.404,8.655C17.848,9.197 17.929,9.336 17.927,9.869C17.927,10.058 17.927,10.247 17.927,10.433C18.18,10.513 18.781,10.529 19.004,10.467C19.236,10.403 19.428,10.276 19.578,10.089C19.674,9.968 19.76,9.838 19.853,9.713C19.908,9.638 19.969,9.566 20.029,9.49C20.266,9.528 20.467,9.629 20.671,9.713C20.839,9.782 20.992,9.882 21.158,9.954C21.299,10.014 21.449,10.053 21.595,10.102C21.674,10.128 21.762,10.142 21.833,10.185C22.324,10.484 22.791,10.398 23.24,10.099C23.382,10.004 23.512,9.886 23.635,9.766C24.678,8.746 25.717,7.723 26.758,6.702C27.299,6.17 27.845,5.642 28.385,5.107C28.503,4.989 28.627,4.936 28.797,4.936C30.549,4.939 32.301,4.935 34.053,4.933C34.12,4.933 34.187,4.942 34.271,4.948C34.356,5.44 34.438,5.922 34.518,6.386C34.262,6.865 34.265,6.897 34.573,7.313C34.445,7.543 34.529,7.75 34.69,7.941C34.712,7.967 34.738,7.994 34.748,8.025C34.809,8.203 34.866,8.383 34.922,8.556C34.996,8.603 35.06,8.643 35.143,8.695C35.1,8.815 35.033,8.929 35.022,9.048C35.012,9.162 35.06,9.28 35.086,9.416C35.134,9.448 35.198,9.49 35.277,9.542C35.27,9.648 35.263,9.757 35.254,9.898C35.285,9.94 35.334,10.009 35.384,10.079C35.384,10.192 35.372,10.306 35.387,10.416C35.418,10.632 35.326,10.783 35.161,10.902C35.085,10.956 35.003,11.002 34.925,11.052C34.864,11.022 34.819,10.999 34.773,10.977C34.487,10.84 34.299,10.864 34.073,11.089C33.763,11.402 33.616,11.787 33.687,12.222C33.779,12.792 34.092,13.196 34.654,13.395C35.323,13.631 35.948,13.27 36.214,12.802C36.277,12.69 36.33,12.573 36.396,12.442C36.843,12.742 37.292,13.011 37.825,12.688C37.951,12.767 37.975,12.876 37.972,12.99C37.948,13.8 38.015,14.613 37.915,15.42C37.874,15.744 37.817,16.07 37.725,16.382C37.519,17.07 37.081,17.572 36.432,17.886C36.331,17.935 36.231,17.985 36.131,18.036C35.521,18.339 35.17,18.829 35.076,19.503C35.063,19.597 35.041,19.69 35.023,19.782C34.888,20.493 34.258,20.971 33.535,20.98C33.087,20.986 32.638,20.981 32.165,20.981C31.972,21.17 31.771,21.37 31.567,21.567C30.946,22.166 30.326,22.766 29.701,23.362C29.616,23.444 29.567,23.533 29.543,23.648C29.339,24.617 28.395,25.088 27.492,24.674C27.461,24.66 27.429,24.645 27.411,24.637C26.914,25.122 26.422,25.602 25.932,26.081C25.826,26.071 25.734,26.055 25.641,26.058C25.366,26.063 25.194,26.207 25.118,26.473C25.042,26.741 25.112,26.971 25.311,27.155C25.497,27.327 25.726,27.377 25.958,27.272C26.198,27.163 26.357,26.974 26.382,26.697C26.387,26.646 26.383,26.594 26.383,26.519C26.689,26.23 27.002,25.936 27.311,25.645C27.717,25.645 28.104,25.645 28.503,25.645C28.584,25.568 28.665,25.493 28.745,25.416C29.36,24.823 29.973,24.228 30.589,23.636C30.769,23.463 30.953,23.293 31.136,23.123C31.3,22.971 31.491,22.963 31.646,23.097C31.831,23.259 31.864,23.492 31.723,23.673C31.691,23.714 31.653,23.749 31.616,23.785C30.179,25.204 28.742,26.623 27.304,28.041C26.517,28.816 25.727,29.588 24.935,30.358C24.768,30.52 24.588,30.666 24.417,30.817C23.435,30.817 22.468,30.817 21.472,30.817C20.705,31.542 19.929,32.276 19.159,33.003C18.901,33.003 18.668,33.003 18.435,33.003C17.995,33.003 17.555,33 17.115,33.005C16.973,33.007 16.849,32.972 16.721,32.909C16.403,32.751 16.074,32.634 15.708,32.639C15.434,32.643 15.181,32.712 14.934,32.818C14.748,32.898 14.583,33.004 14.548,33.242C14.135,33.147 13.845,33.363 13.561,33.593C13.311,33.796 13.312,33.797 13.102,33.824C13.031,33.781 12.951,33.732 12.865,33.679C12.667,33.746 12.482,33.876 12.248,33.815C12.214,33.897 12.191,33.97 12.157,34.035C12.055,34.229 11.909,34.27 11.686,34.265C11.338,34.258 11.076,34.129 10.88,33.842C10.834,33.775 10.743,33.741 10.675,33.689C10.615,33.643 10.532,33.604 10.507,33.541C10.437,33.37 10.309,33.341 10.152,33.351C10.083,33.355 10.015,33.358 9.959,33.328C9.74,33.216 9.521,33.105 9.275,32.979C9.255,32.922 9.305,32.848 9.352,32.78C9.516,32.544 9.533,32.306 9.404,32.048C9.363,31.966 9.34,31.866 9.34,31.774C9.338,31.419 9.112,31.188 8.885,30.97C8.786,30.875 8.684,30.788 8.603,30.676C8.513,30.551 8.411,30.435 8.307,30.305C8.306,30.066 8.326,30.052 8.726,30.024C9.172,29.714 9.422,29.276 9.52,28.745C9.657,28.005 9.49,27.342 8.988,26.775C8.903,26.679 8.795,26.604 8.693,26.526C8.616,26.466 8.553,26.405 8.525,26.305C8.455,26.04 8.376,25.777 8.292,25.487C8.294,25.482 8.301,25.447 8.32,25.42C8.442,25.245 8.437,25.058 8.352,24.879C8.238,24.638 8.11,24.403 7.98,24.171C7.9,24.028 7.803,23.895 7.716,23.756C7.605,23.576 7.543,23.382 7.554,23.167C7.565,22.963 7.507,22.783 7.39,22.609C7.083,22.151 6.791,21.682 6.493,21.217C6.455,21.159 6.421,21.097 6.373,21.048C6.148,20.819 6.042,20.532 5.946,20.234C5.776,19.709 5.584,19.192 5.408,18.668C5.345,18.48 5.315,18.285 5.405,18.098C5.531,18.034 5.614,18.117 5.702,18.161C5.901,18.263 6.094,18.378 6.295,18.476C6.568,18.609 6.848,18.653 7.147,18.55C7.228,18.523 7.334,18.546 7.422,18.57C7.529,18.599 7.63,18.652 7.732,18.698C8.065,18.848 8.421,18.88 8.772,18.841C8.96,18.819 9.139,18.704 9.318,18.623C9.38,18.595 9.43,18.543 9.502,18.489C9.701,18.489 9.915,18.489 10.158,18.489C10.162,18.383 10.167,18.292 10.167,18.2C10.167,16.716 10.166,15.231 10.165,13.747C10.165,13.695 10.163,13.643 10.165,13.591C10.175,13.35 10.322,13.181 10.533,13.168C10.746,13.154 10.952,13.325 10.983,13.549C10.993,13.625 10.989,13.704 10.989,13.782C10.99,14.714 10.991,15.646 10.993,16.579C10.993,16.655 10.993,16.731 10.993,16.826C11.317,16.852 11.623,16.835 11.939,16.837M12.128,28.176L12.128,28.175C11.654,28.175 11.179,28.175 10.704,28.176C10.635,28.176 10.565,28.172 10.498,28.184C10.326,28.215 10.211,28.355 10.204,28.529C10.196,28.7 10.303,28.854 10.47,28.896C10.545,28.914 10.624,28.916 10.702,28.916C11.651,28.919 12.6,28.92 13.55,28.92C13.618,28.92 13.688,28.913 13.754,28.897C13.941,28.85 14.066,28.662 14.047,28.466C14.03,28.291 13.899,28.186 13.682,28.177C13.63,28.174 13.578,28.177 13.526,28.177C13.061,28.176 12.595,28.176 12.128,28.176ZM28.13,24.048C28.51,24.052 28.808,23.761 28.809,23.385C28.811,23.011 28.524,22.739 28.122,22.734C27.743,22.728 27.466,23.011 27.458,23.408C27.452,23.755 27.755,24.043 28.13,24.048ZM18.093,15.156C18.099,14.794 17.808,14.488 17.451,14.478C17.112,14.468 16.743,14.807 16.758,15.148C16.775,15.528 17.036,15.797 17.415,15.825C17.776,15.853 18.087,15.528 18.093,15.156ZM32.786,14.95C32.782,15.227 32.99,15.43 33.28,15.432C33.516,15.434 33.765,15.184 33.761,14.949C33.757,14.713 33.503,14.471 33.263,14.472C32.991,14.475 32.789,14.678 32.786,14.95Z" fill="#FFC424"/>
<path d="M12.004,22.904C11.634,23.256 11.187,23.366 10.692,23.312C10.362,23.276 10.087,23.121 9.851,22.895C9.364,22.43 9.179,21.617 9.576,20.95C9.947,20.326 10.619,20.047 11.331,20.253C11.715,20.364 12.02,20.598 12.237,20.94C12.451,21.278 12.479,21.65 12.431,22.034C12.629,22.33 12.897,22.445 13.246,22.443C14.626,22.434 16.005,22.436 17.385,22.438C17.539,22.438 17.697,22.444 17.846,22.479C18.033,22.523 18.168,22.642 18.192,22.85C18.219,23.07 18.088,23.238 17.867,23.264C17.781,23.274 17.694,23.273 17.609,23.273C16.048,23.273 14.487,23.266 12.926,23.276C12.661,23.278 12.436,23.222 12.233,23.057C12.167,23.004 12.091,22.962 12.004,22.904ZM10.889,22.534C11.319,22.536 11.696,22.202 11.693,21.796C11.689,21.324 11.314,21.021 10.926,21.023C10.496,21.025 10.141,21.351 10.128,21.772C10.117,22.149 10.499,22.531 10.889,22.534Z" fill="#FFC424"/>
<path d="M23.994,19.026C24.041,19.316 23.988,19.59 23.802,19.827C23.575,20.115 23.287,20.25 22.917,20.167C22.549,20.083 22.236,19.782 22.189,19.445C22.093,18.758 22.751,18.235 23.295,18.427C23.318,18.436 23.346,18.436 23.396,18.444C23.948,17.909 24.509,17.364 25.084,16.806C25.035,16.771 25.005,16.743 24.969,16.726C24.009,16.251 23.729,14.918 24.674,14.08C25.332,13.497 26.405,13.606 26.937,14.409C27.506,15.266 27.238,16.268 26.388,16.741C26.197,16.848 26.035,16.978 25.882,17.133C25.3,17.722 24.711,18.302 24.125,18.887C24.083,18.928 24.043,18.973 23.994,19.026ZM26.478,15.354C26.473,14.88 26.131,14.506 25.621,14.518C25.13,14.53 24.85,14.925 24.86,15.355C24.87,15.783 25.246,16.159 25.674,16.16C26.107,16.163 26.483,15.785 26.478,15.354Z" fill="#FFC424"/>
<path d="M19.82,21.033C18.591,19.782 17.366,18.534 16.101,17.246C16.518,17.24 16.882,17.253 17.256,17.268C18.321,18.272 19.309,19.353 20.334,20.325C20.608,20.278 20.834,20.21 21.061,20.205C21.93,20.185 22.634,20.843 22.685,21.712C22.701,21.995 22.615,22.264 22.47,22.5C22.038,23.204 21.527,23.378 20.809,23.227C20.02,23.062 19.678,22.396 19.658,21.792C19.653,21.665 19.676,21.534 19.702,21.408C19.728,21.291 19.774,21.178 19.82,21.033ZM21.153,21.034C20.738,21.023 20.422,21.321 20.415,21.73C20.408,22.122 20.731,22.468 21.118,22.483C21.534,22.499 21.886,22.168 21.897,21.752C21.907,21.394 21.544,21.045 21.153,21.034Z" fill="#FFC424"/>
<path d="M31.062,18.483C31.691,18.483 32.304,18.478 32.916,18.486C33.22,18.49 33.388,18.675 33.373,18.957C33.36,19.206 33.201,19.373 32.942,19.379C32.554,19.389 32.166,19.384 31.777,19.385C31.657,19.386 31.537,19.385 31.396,19.385C31.123,19.65 30.846,19.919 30.567,20.188C30.363,20.386 30.159,20.585 29.952,20.78C29.621,21.092 29.232,21.209 28.785,21.112C28.084,20.96 27.436,19.978 28.154,19.12C28.28,18.969 28.433,18.838 28.577,18.703C29.024,18.285 29.473,17.869 29.924,17.454C30.01,17.375 30.108,17.308 30.22,17.22C30.284,17.411 30.251,17.573 30.257,17.732C30.262,17.896 30.258,18.059 30.258,18.185C29.979,18.477 29.727,18.748 29.466,19.01C29.205,19.273 28.936,19.527 28.661,19.792C28.648,19.921 28.701,20.034 28.797,20.129C28.973,20.305 29.216,20.306 29.393,20.13C29.846,19.68 30.297,19.229 30.75,18.78C30.848,18.683 30.95,18.59 31.062,18.483Z" fill="#FFC424"/>
<path d="M21.399,24.032C21.399,24.24 21.399,24.419 21.399,24.611C20.444,25.522 19.485,26.438 18.518,27.36C18.06,27.36 17.604,27.36 17.167,27.36C16.612,27.886 16.171,28.009 15.724,27.774C15.318,27.561 15.072,27.082 15.147,26.652C15.229,26.186 15.606,25.806 16.053,25.741C16.569,25.666 16.926,25.898 17.261,26.535C17.543,26.535 17.834,26.535 18.159,26.535C19.054,25.741 19.898,24.853 20.807,24.031C20.998,24.032 21.186,24.032 21.399,24.032ZM15.741,26.781C15.707,27.022 15.921,27.266 16.158,27.28C16.407,27.294 16.663,27.076 16.68,26.84C16.697,26.588 16.487,26.344 16.236,26.324C15.984,26.305 15.757,26.514 15.741,26.781Z" fill="#FFC424"/>
<path d="M30.293,10.169C30.293,10.824 30.293,11.461 30.293,12.145C30.056,11.963 29.834,11.827 29.642,11.629C29.642,11.295 29.642,10.96 29.642,10.623C29.192,10.28 28.986,9.817 28.973,9.276C28.962,8.829 29.113,8.417 29.434,8.104C30.094,7.459 31.065,7.457 31.721,8.062C32.301,8.597 32.591,9.708 31.616,10.605C31.616,10.946 31.616,11.299 31.616,11.67C31.415,11.813 31.214,11.957 30.99,12.117C30.99,11.441 30.99,10.79 30.99,10.139C31.564,9.703 31.577,9.366 31.456,8.997C31.325,8.593 30.987,8.379 30.562,8.393C30.182,8.405 29.853,8.648 29.766,9.015C29.675,9.396 29.681,9.765 30.293,10.169Z" fill="#FFC424"/>
<path d="M23.363,22.886C24.01,22.889 24.534,23.441 24.532,24.118C24.53,24.792 23.997,25.33 23.341,25.323C22.673,25.315 22.126,24.782 22.134,24.126C22.142,23.44 22.708,22.864 23.363,22.886ZM22.837,24.124C22.839,24.381 23.061,24.6 23.317,24.599C23.6,24.598 23.841,24.363 23.834,24.098C23.827,23.84 23.611,23.626 23.348,23.623C23.108,23.621 22.822,23.806 22.837,24.124Z" fill="#FFC424"/>
<path d="M21.194,6.576C20.61,6.579 20.143,6.111 20.138,5.529C20.133,4.924 20.552,4.432 21.187,4.409C21.76,4.388 22.277,4.907 22.277,5.499C22.275,6.03 21.9,6.578 21.194,6.576ZM21.201,5.959C21.469,5.959 21.671,5.765 21.667,5.511C21.662,5.243 21.451,5.027 21.194,5.027C20.939,5.027 20.732,5.23 20.728,5.483C20.724,5.751 20.93,5.958 21.201,5.959Z" fill="#FFC424"/>
<path d="M12.809,7.277C12.813,7.851 12.388,8.289 11.826,8.292C11.277,8.294 10.808,7.911 10.799,7.317C10.79,6.721 11.243,6.265 11.812,6.262C12.439,6.258 12.83,6.845 12.809,7.277ZM11.817,6.878C11.554,6.877 11.36,7.061 11.367,7.303C11.372,7.514 11.576,7.703 11.797,7.702C12.028,7.702 12.233,7.501 12.228,7.278C12.224,7.043 12.055,6.879 11.817,6.878Z" fill="#FFC424"/>
<path d="M16.779,28.971C17.06,28.707 17.342,28.444 17.621,28.185C17.989,28.185 18.342,28.185 18.701,28.185C19.061,27.879 19.36,27.506 19.778,27.234C19.778,27.543 19.783,27.825 19.774,28.106C19.772,28.158 19.729,28.218 19.688,28.257C19.41,28.526 19.128,28.79 18.872,29.033C18.157,29.033 17.48,29.033 16.804,29.033C16.795,29.012 16.787,28.992 16.779,28.971Z" fill="#FFC424"/>
<path d="M31.624,16.012C31.365,16.056 31.188,16.053 30.988,16C30.988,14.971 30.988,13.939 30.988,12.886C31.183,12.768 31.367,12.615 31.599,12.537C31.647,12.71 31.667,15.638 31.624,16.012Z" fill="#FFC424"/>
<path d="M33.349,28.003C33.831,28.003 34.267,28.446 34.268,28.936C34.268,29.442 33.857,29.874 33.369,29.88C32.861,29.887 32.421,29.45 32.447,28.939C32.476,28.38 32.873,27.984 33.349,28.003ZM33.342,29.274C33.546,29.274 33.717,29.113 33.714,28.925C33.71,28.729 33.543,28.575 33.338,28.579C33.123,28.584 32.99,28.724 32.993,28.945C32.995,29.148 33.13,29.274 33.342,29.274Z" fill="#FFC424"/>
<path d="M36.384,26.698C36.388,27.148 36.06,27.492 35.616,27.501C35.179,27.509 34.798,27.145 34.8,26.743C34.803,26.198 35.195,25.892 35.551,25.896C36.021,25.899 36.379,26.239 36.384,26.698ZM35.566,26.473C35.368,26.583 35.324,26.657 35.371,26.786C35.409,26.892 35.508,26.946 35.637,26.931C35.746,26.918 35.832,26.836 35.843,26.737C35.855,26.621 35.785,26.552 35.566,26.473Z" fill="#FFC424"/>
<path d="M11.944,9.824C12.358,9.822 12.739,10.203 12.726,10.621C12.711,11.115 12.322,11.418 11.964,11.411C11.508,11.401 11.189,11.086 11.18,10.627C11.171,10.153 11.591,9.777 11.944,9.824ZM11.726,10.612C11.816,10.809 11.869,10.85 12.001,10.83C12.107,10.813 12.182,10.73 12.188,10.622C12.195,10.517 12.141,10.441 12.04,10.414C11.905,10.378 11.829,10.424 11.726,10.612Z" fill="#FFC424"/>
<path d="M23.685,26.755C23.682,27.198 23.392,27.494 22.964,27.494C22.531,27.494 22.189,27.172 22.185,26.761C22.181,26.346 22.554,25.949 22.94,25.959C23.372,25.971 23.689,26.31 23.685,26.755ZM22.868,26.912C22.926,26.959 23.007,26.962 23.07,26.922C23.167,26.859 23.203,26.792 23.191,26.708C23.176,26.609 23.087,26.528 22.979,26.518C22.881,26.508 22.79,26.564 22.757,26.654C22.723,26.744 22.75,26.816 22.868,26.912Z" fill="#FFC424"/>
<path d="M14.912,20.187C15.281,20.145 15.686,20.554 15.667,20.942C15.646,21.367 15.325,21.699 14.904,21.692C14.52,21.686 14.146,21.326 14.157,20.972C14.17,20.513 14.486,20.185 14.912,20.187ZM14.903,21.132C15.036,21.131 15.129,21.051 15.126,20.94C15.123,20.83 15.023,20.726 14.914,20.722C14.792,20.717 14.678,20.823 14.679,20.941C14.679,21.055 14.77,21.133 14.903,21.132Z" fill="#FFC424"/>
<path d="M30.369,28.894C30.361,29.316 30.054,29.629 29.657,29.621C29.247,29.613 28.936,29.277 28.949,28.856C28.962,28.443 29.279,28.15 29.693,28.164C30.086,28.177 30.378,28.492 30.369,28.894ZM29.49,28.989C29.566,29.073 29.657,29.143 29.775,29.068C29.825,29.036 29.876,28.964 29.881,28.907C29.893,28.759 29.78,28.703 29.658,28.669C29.47,28.762 29.47,28.762 29.49,28.989Z" fill="#FFC424"/>
<path d="M22.654,16.779C22.232,16.408 22.166,16.107 22.431,15.828C22.666,15.581 23.051,15.582 23.283,15.831C23.531,16.095 23.466,16.438 23.092,16.774Z" fill="#FFC424"/>
<path d="M8.597,9.585C8.604,9.188 8.893,8.902 9.284,8.905C9.679,8.907 10.015,9.251 10,9.635C9.984,10.027 9.673,10.373 9.328,10.354C8.871,10.328 8.558,9.972 8.597,9.585ZM9.08,9.617C9.187,9.783 9.25,9.82 9.365,9.789C9.449,9.766 9.499,9.712 9.499,9.623C9.499,9.525 9.448,9.461 9.355,9.433C9.247,9.399 9.178,9.445 9.08,9.617Z" fill="#FFC424"/>
<path d="M30.291,14.795C30.065,14.795 29.87,14.795 29.68,14.795C29.626,14.596 29.614,12.814 29.662,12.446C29.88,12.616 30.088,12.78 30.291,12.939C30.291,13.562 30.291,14.171 30.291,14.795Z" fill="#FFC424"/>
<path d="M35.686,33.342C36.068,33.355 36.363,33.674 36.345,34.053C36.327,34.427 36.017,34.726 35.659,34.715C35.282,34.703 34.973,34.378 34.987,34.007C35.001,33.605 35.293,33.328 35.686,33.342ZM35.63,33.839C35.47,33.905 35.467,34.015 35.501,34.143C35.584,34.223 35.676,34.275 35.775,34.193C35.819,34.156 35.853,34.079 35.853,34.02C35.852,33.892 35.75,33.856 35.63,33.839Z" fill="#FFC424"/>
<path d="M30.026,16.678C29.695,16.676 29.418,16.424 29.443,16.122C29.473,15.752 29.701,15.524 30.022,15.521C30.404,15.518 30.619,15.876 30.607,16.116C30.593,16.387 30.415,16.68 30.026,16.678Z" fill="#FFC424"/>
<path d="M22.005,7.616C22.275,7.613 22.493,7.832 22.496,8.109C22.498,8.395 22.295,8.633 22.03,8.629C21.775,8.624 21.541,8.487 21.525,8.152C21.512,7.861 21.732,7.62 22.005,7.616Z" fill="#FFC424"/>
<path d="M31.433,32.357C31.707,32.361 31.924,32.582 31.92,32.854C31.916,33.139 31.698,33.357 31.43,33.346C31.152,33.335 30.954,33.117 30.963,32.833C30.971,32.547 31.163,32.353 31.433,32.357Z" fill="#FFC424"/>
<path d="M29.025,33.507C28.752,33.514 28.547,33.316 28.546,33.048C28.544,32.768 28.737,32.554 28.992,32.551C29.25,32.549 29.48,32.781 29.48,33.046C29.48,33.299 29.281,33.502 29.025,33.507Z" fill="#FFC424"/>
<path d="M13.526,5.116C13.52,5.366 13.308,5.558 13.045,5.549C12.801,5.54 12.598,5.339 12.598,5.105C12.599,4.856 12.809,4.656 13.067,4.657C13.317,4.658 13.532,4.872 13.526,5.116Z" fill="#FFC424"/>
<path d="M8.103,28.246C8.103,28.425 7.99,28.54 7.816,28.54C7.64,28.54 7.501,28.403 7.505,28.231C7.508,28.071 7.64,27.936 7.801,27.931C7.969,27.924 8.103,28.064 8.103,28.246Z" fill="#FFC424"/>
<path d="M36.377,10.452C36.382,10.298 36.509,10.163 36.651,10.162C36.814,10.16 36.972,10.313 36.97,10.472C36.968,10.639 36.812,10.785 36.648,10.771C36.493,10.759 36.372,10.616 36.377,10.452Z" fill="#FFC424"/>
<path d="M20.055,8.021C20.064,7.865 20.164,7.767 20.317,7.765C20.481,7.764 20.58,7.87 20.576,8.044Z" fill="#FFC424"/>
<path d="M13.709,13.145C13.621,13.145 13.521,13.145 13.425,13.145C13.292,12.965 13.287,12.82 13.407,12.709C13.501,12.621 13.638,12.617 13.738,12.699C13.861,12.799 13.856,12.938 13.709,13.145Z" fill="#FFC424"/>
<path d="M36.78,28.552C36.776,28.385 36.887,28.255 37.033,28.257C37.164,28.26 37.278,28.369 37.285,28.5C37.294,28.65 37.172,28.784 37.021,28.789C36.879,28.794 36.785,28.702 36.78,28.552Z" fill="#FFC424"/>
<path d="M15.966,11.953C15.964,11.799 16.053,11.704 16.198,11.703C16.351,11.701 16.466,11.805 16.473,11.951C16.48,12.101 16.37,12.217 16.22,12.216C16.066,12.216 15.967,12.113 15.966,11.953Z" fill="#FFC424"/>
<path d="M16.133,13.408C15.898,13.266 15.89,13.12 16.11,12.95C16.139,12.927 16.177,12.918 16.213,12.925C16.389,12.96 16.462,13.024 16.471,13.147C16.48,13.281 16.408,13.368 16.24,13.421C16.205,13.432 16.166,13.428 16.133,13.408Z" fill="#FFC424"/>
<path d="M18.947,4.74C19.144,5.006 19.095,5.138 18.769,5.217C18.566,5.107 18.507,5.011 18.557,4.867C18.604,4.728 18.712,4.694 18.947,4.74Z" fill="#FFC424"/>
<path d="M16.222,13.465C16.393,13.465 16.532,13.325 16.532,13.154C16.532,12.982 16.393,12.843 16.222,12.843C16.05,12.843 15.911,12.982 15.911,13.154C15.911,13.325 16.05,13.465 16.222,13.465Z" fill="#FFC424"/>
<path d="M13.58,13.205C13.752,13.205 13.891,13.066 13.891,12.894C13.891,12.723 13.752,12.584 13.58,12.584C13.409,12.584 13.27,12.723 13.27,12.894C13.27,13.066 13.409,13.205 13.58,13.205Z" fill="#FFC424"/>
<path d="M16.222,12.273C16.393,12.273 16.532,12.134 16.532,11.963C16.532,11.791 16.393,11.652 16.222,11.652C16.05,11.652 15.911,11.791 15.911,11.963C15.911,12.134 16.05,12.273 16.222,12.273Z" fill="#FFC424"/>
<path d="M29.676,28.402C29.926,28.403 30.152,28.633 30.153,28.886C30.153,29.149 29.94,29.374 29.686,29.377C29.422,29.38 29.194,29.154 29.208,28.888C29.222,28.598 29.429,28.392 29.676,28.402ZM29.672,29.063C29.778,29.063 29.867,28.979 29.865,28.881C29.862,28.779 29.776,28.7 29.669,28.702C29.558,28.704 29.489,28.777 29.491,28.891C29.493,28.997 29.562,29.063 29.672,29.063Z" fill="#FFC424"/>
<path d="M35.58,26.227C35.83,26.228 36.056,26.458 36.057,26.711C36.057,26.974 35.844,27.199 35.59,27.202C35.326,27.205 35.098,26.979 35.112,26.713C35.126,26.423 35.333,26.217 35.58,26.227ZM35.576,26.888C35.682,26.888 35.771,26.804 35.769,26.706C35.766,26.604 35.68,26.525 35.573,26.527C35.462,26.529 35.393,26.602 35.395,26.716C35.396,26.821 35.466,26.888 35.576,26.888Z" fill="#FFC424"/>
<path d="M12.221,35.61L12.894,35.61L12.894,37.16C12.894,37.893 12.544,38.164 11.941,38.164C11.804,38.164 11.622,38.146 11.496,38.104L11.567,37.563C11.649,37.586 11.754,37.605 11.863,37.605C12.079,37.605 12.221,37.509 12.221,37.163L12.221,35.61Z" fill="#FFFFFF"/>
<path d="M15.703,36.842C15.703,37.65 15.217,38.164 14.442,38.164C13.663,38.164 13.234,37.58 13.234,36.881C13.234,36.15 13.713,35.569 14.483,35.569C15.292,35.569 15.703,36.169 15.703,36.842ZM13.947,36.869C13.947,37.342 14.153,37.631 14.474,37.631C14.801,37.631 14.99,37.315 14.99,36.862C14.99,36.43 14.797,36.102 14.47,36.102C14.153,36.102 13.947,36.407 13.947,36.869Z" fill="#FFFFFF"/>
<path d="M16.062,35.645C16.214,35.616 16.545,35.59 16.856,35.59C17.211,35.59 17.427,35.616 17.622,35.713C17.818,35.804 17.96,35.985 17.96,36.231C17.96,36.442 17.844,36.649 17.553,36.759L17.553,36.768C17.861,36.851 18.045,37.079 18.045,37.378C18.045,37.614 17.93,37.8 17.764,37.926C17.575,38.067 17.262,38.151 16.724,38.151C16.42,38.151 16.197,38.131 16.062,38.11L16.062,35.645ZM16.729,36.578L16.864,36.578C17.148,36.578 17.286,36.477 17.286,36.315C17.286,36.167 17.174,36.075 16.949,36.075C16.836,36.075 16.773,36.081 16.729,36.09L16.729,36.578ZM16.729,37.651C16.778,37.658 16.836,37.658 16.922,37.658C17.146,37.658 17.337,37.569 17.337,37.348C17.337,37.135 17.143,37.053 16.89,37.053L16.729,37.053L16.729,37.651Z" fill="#FFFFFF"/>
<path d="M20.778,36.842C20.778,37.65 20.292,38.164 19.517,38.164C18.738,38.164 18.309,37.58 18.309,36.881C18.309,36.15 18.788,35.569 19.558,35.569C20.367,35.569 20.778,36.169 20.778,36.842ZM19.022,36.869C19.022,37.342 19.227,37.631 19.549,37.631C19.876,37.631 20.065,37.315 20.065,36.862C20.065,36.43 19.872,36.102 19.546,36.102C19.227,36.102 19.022,36.407 19.022,36.869Z" fill="#FFFFFF"/>
<path d="M21.137,35.645C21.32,35.615 21.583,35.59 21.966,35.59C22.327,35.59 22.586,35.656 22.763,35.791C22.934,35.918 23.048,36.14 23.048,36.396C23.048,36.651 22.964,36.873 22.804,37.016C22.601,37.198 22.306,37.279 21.967,37.279C21.902,37.279 21.844,37.273 21.803,37.27L21.803,38.123L21.137,38.123L21.137,35.645ZM21.803,36.754C21.839,36.76 21.884,36.763 21.957,36.763C22.219,36.763 22.383,36.628 22.383,36.412C22.383,36.224 22.259,36.098 22.002,36.098C21.904,36.098 21.838,36.105 21.803,36.113L21.803,36.754Z" fill="#FFFFFF"/>
<path d="M23.331,37.773C23.331,37.542 23.49,37.38 23.715,37.38C23.94,37.38 24.095,37.538 24.098,37.773C24.098,38.002 23.944,38.164 23.714,38.164C23.488,38.164 23.331,38.002 23.331,37.773Z" fill="#FFFFFF"/>
<path d="M26.317,38.059C26.222,38.105 25.985,38.162 25.684,38.162C24.744,38.162 24.331,37.577 24.331,36.908C24.331,36.021 24.981,35.571 25.73,35.571C26.019,35.571 26.254,35.626 26.359,35.683L26.227,36.213C26.118,36.167 25.963,36.122 25.762,36.122C25.375,36.122 25.041,36.351 25.041,36.865C25.041,37.321 25.313,37.605 25.774,37.605C25.937,37.605 26.12,37.573 26.224,37.533L26.317,38.059Z" fill="#FFFFFF"/>
<path d="M29.044,36.842C29.044,37.65 28.558,38.164 27.783,38.164C27.004,38.164 26.575,37.58 26.575,36.881C26.575,36.15 27.054,35.569 27.824,35.569C28.633,35.569 29.044,36.169 29.044,36.842ZM27.288,36.869C27.288,37.342 27.494,37.631 27.816,37.631C28.143,37.631 28.332,37.315 28.332,36.862C28.332,36.43 28.138,36.102 27.812,36.102C27.493,36.102 27.288,36.407 27.288,36.869Z" fill="#FFFFFF"/>
<path d="M29.352,37.773C29.352,37.542 29.512,37.38 29.736,37.38C29.962,37.38 30.117,37.538 30.12,37.773C30.12,38.002 29.966,38.164 29.736,38.164C29.51,38.164 29.352,38.002 29.352,37.773Z" fill="#FFFFFF"/>
<path d="M30.302,37.765L31.414,36.181L31.414,36.167L30.408,36.167L30.408,35.61L32.287,35.61L32.287,35.995L31.209,37.553L31.209,37.567L32.306,37.567L32.306,38.123L30.303,38.123L30.303,37.765L30.302,37.765Z" fill="#FFFFFF"/>
<path d="M33.308,37.541L33.167,38.123L32.47,38.123L33.199,35.61L34.096,35.61L34.845,38.123L34.118,38.123L33.958,37.541L33.308,37.541ZM33.866,37.044L33.749,36.592C33.711,36.45 33.663,36.245 33.624,36.097L33.617,36.097C33.579,36.245 33.542,36.452 33.506,36.595L33.398,37.045L33.866,37.045L33.866,37.044Z" fill="#FFFFFF"/>
</svg>
