<svg width="18" height="10" viewBox="0 0 18 10" fill="none" xmlns="http://www.w3.org/2000/svg" xmlns:xlink="http://www.w3.org/1999/xlink">
<path d="M0.485,4.682C0.327,4.525 0.072,4.525 -0.085,4.682C-0.242,4.84 -0.242,5.095 -0.085,5.252L0.485,4.682ZM4.109,8.876L3.824,9.161C3.981,9.318 4.236,9.318 4.393,9.161L4.109,8.876ZM12.584,0.992C12.742,0.834 12.742,0.579 12.585,0.422C12.428,0.264 12.173,0.264 12.015,0.421L12.584,0.992ZM-0.085,5.252L3.824,9.161L4.394,8.591L0.485,4.682L-0.085,5.252ZM4.393,9.161L12.584,0.992L12.015,0.421L3.824,8.591L4.393,9.161Z" fill="#3CA7D6"/>
<path d="M4.311,4.682C4.154,4.525 3.899,4.525 3.742,4.682C3.584,4.84 3.584,5.095 3.742,5.252L4.311,4.682ZM7.936,8.876L7.651,9.161C7.808,9.318 8.063,9.318 8.22,9.161L7.936,8.876ZM16.39,0.991C16.548,0.834 16.548,0.579 16.39,0.421C16.233,0.264 15.978,0.264 15.821,0.421L16.39,0.991ZM3.742,5.252L7.651,9.161L8.22,8.591L4.311,4.682L3.742,5.252ZM8.22,9.161L16.39,0.991L15.821,0.421L7.651,8.591L8.22,9.161Z" fill="#3CA7D6"/>
</svg>
