<svg width="486" height="136" viewBox="0 0 486 136" fill="none" xmlns="http://www.w3.org/2000/svg" xmlns:xlink="http://www.w3.org/1999/xlink">
<path d="M485.255,56.992L485.255,134.351L0.971,134.351L0.971,56.992C0.971,25.544 26.524,-0.034 57.997,-0.034L149.219,-0.034C145.896,4.288 143.898,9.683 143.898,15.578C143.898,15.578 143.898,15.578 143.898,15.603C143.923,29.741 155.363,41.181 169.501,41.181L316.699,41.181C330.837,41.181 342.303,29.716 342.303,15.578L342.303,15.478C342.277,9.633 340.279,4.263 336.957,-0.034L428.179,-0.034C459.651,-0.034 485.255,25.569 485.255,56.992Z" fill="url(#pf_0_26_544)"/>
<path d="M49.076,99.156L32.265,99.156L37.635,93.786C38.135,93.286 38.135,92.512 37.635,92.012C37.136,91.513 36.362,91.513 35.862,92.012L28.368,99.506C28.244,99.631 28.169,99.755 28.094,99.905C27.969,100.205 27.969,100.555 28.094,100.854C28.169,101.004 28.244,101.154 28.368,101.254L35.862,108.748C36.112,108.998 36.436,109.122 36.736,109.122C37.036,109.122 37.386,108.998 37.61,108.748C38.11,108.248 38.11,107.474 37.61,106.974L32.24,101.604L49.051,101.604C49.75,101.604 50.3,101.054 50.3,100.355C50.3,99.656 49.75,99.156 49.076,99.156Z" fill="url(#pf_0_26_656)"/>
<path d="M400.926,92.712C400.127,93.961 400.377,95.659 401.101,97.083C401.901,99.231 403.599,101.804 406.022,104.202C408.42,106.6 410.993,108.323 413.141,109.123C414.54,109.847 416.263,110.097 417.512,109.297C417.787,109.123 418.037,108.923 418.262,108.698C419.535,107.424 419.461,105.326 418.187,104.052C417.212,103.078 415.764,102.828 414.49,103.353C414.19,103.477 413.89,103.552 413.591,103.627C412.891,104.077 410.918,103.028 409.045,101.154C407.171,99.281 406.122,97.308 406.572,96.608C406.622,96.309 406.722,96.009 406.846,95.709C407.371,94.435 407.121,92.986 406.147,92.012C404.873,90.738 402.775,90.663 401.501,91.937C401.326,92.187 401.101,92.437 400.926,92.712Z" fill="url(#pf_0_26_664)"/>
<defs>
<linearGradient id="pf_0_26_544" x1="243.1" y1="-3.297" x2="243.1" y2="132.95" gradientUnits="userSpaceOnUse">
<stop stop-color="#2FA38A"/>
<stop offset="0.294" stop-color="#2B9F87"/>
<stop offset="0.584" stop-color="#1F937F"/>
<stop offset="0.871" stop-color="#0B7F70"/>
<stop offset="1" stop-color="#007468"/>
</linearGradient>
<linearGradient id="pf_0_26_656" x1="39.157" y1="91.666" x2="39.157" y2="109.161" gradientUnits="userSpaceOnUse">
<stop stop-color="#FFFFFF"/>
<stop offset="1" stop-color="#CBE3EB"/>
</linearGradient>
<linearGradient id="pf_0_26_664" x1="405.674" y1="104.553" x2="419.776" y2="90.451" gradientUnits="userSpaceOnUse">
<stop stop-color="#FFFFFF"/>
<stop offset="1" stop-color="#CBE3EB"/>
</linearGradient>
</defs>
</svg>
