<svg width="58" height="58" viewBox="0 0 58 58" fill="none" xmlns="http://www.w3.org/2000/svg" xmlns:xlink="http://www.w3.org/1999/xlink">
<path d="M28.601,57.172C44.148,57.172 56.752,44.569 56.752,29.022C56.752,13.475 44.148,0.871 28.601,0.871C13.054,0.871 0.45,13.475 0.45,29.022C0.45,44.569 13.054,57.172 28.601,57.172Z" fill="url(#pf_0_26_1601)"/>
<path d="M32.997,20.729C32.997,18.306 31.024,16.333 28.601,16.333C26.178,16.333 24.205,18.306 24.205,20.729L24.205,29.597C24.205,32.02 26.178,33.993 28.601,33.993C31.024,33.993 32.997,32.02 32.997,29.597L32.997,20.729Z" fill="url(#pf_0_26_1603)"/>
<path d="M35.995,30.096C35.995,29.671 35.645,29.322 35.221,29.322C34.796,29.322 34.446,29.671 34.446,30.096C34.446,33.318 31.823,35.916 28.626,35.916C25.404,35.916 22.806,33.293 22.806,30.096C22.806,29.671 22.457,29.322 22.032,29.322C21.607,29.322 21.258,29.671 21.258,30.096C21.258,33.893 24.155,36.99 27.852,37.39L27.852,40.937C27.852,41.361 28.202,41.711 28.626,41.711C29.051,41.711 29.401,41.361 29.401,40.937L29.401,37.39C33.072,37.015 35.995,33.918 35.995,30.096Z" fill="url(#pf_0_26_1604)"/>
<defs>
<linearGradient id="pf_0_26_1601" x1="28.611" y1="1.47" x2="28.611" y2="58.239" gradientUnits="userSpaceOnUse">
<stop stop-color="#2FA38A"/>
<stop offset="0.294" stop-color="#2B9F87"/>
<stop offset="0.584" stop-color="#1F937F"/>
<stop offset="0.871" stop-color="#0B7F70"/>
<stop offset="1" stop-color="#007468"/>
</linearGradient>
<linearGradient id="pf_0_26_1603" x1="21.471" y1="25.174" x2="36.023" y2="25.174" gradientUnits="userSpaceOnUse">
<stop stop-color="#FFFFFF"/>
<stop offset="1" stop-color="#CBE3EB"/>
</linearGradient>
<linearGradient id="pf_0_26_1604" x1="21.471" y1="35.523" x2="36.023" y2="35.523" gradientUnits="userSpaceOnUse">
<stop stop-color="#FFFFFF"/>
<stop offset="1" stop-color="#CBE3EB"/>
</linearGradient>
</defs>
</svg>
