<svg width="150" height="156" viewBox="0 0 150 156" fill="none" xmlns="http://www.w3.org/2000/svg" xmlns:xlink="http://www.w3.org/1999/xlink">
<path d="M34.389,106.615C36.361,106.615 38.331,106.615 40.304,106.615C40.523,106.615 40.742,106.605 40.962,106.615C41.883,106.656 42.437,107.098 42.508,107.84C42.586,108.672 42.059,109.467 41.267,109.665C40.989,109.736 40.691,109.763 40.404,109.763C36.388,109.763 32.37,109.755 28.355,109.746C28.028,109.746 27.691,109.738 27.377,109.66C26.67,109.485 26.216,108.83 26.248,108.108C26.28,107.369 26.767,106.778 27.494,106.646C27.779,106.595 28.077,106.612 28.367,106.612C30.376,106.61 32.382,106.61 34.391,106.61C34.389,106.612 34.389,106.612 34.389,106.615Z" fill="#116034"/>
<path d="M102.087,89.131C100.5,89.114 99.215,87.891 99.244,86.422C99.276,84.738 100.451,83.545 102.053,83.567C103.755,83.589 104.969,84.741 104.961,86.327C104.952,87.918 103.691,89.148 102.087,89.131Z" fill="#116034"/>
<path d="M59.623,51.477C59.599,53.054 58.282,54.428 56.753,54.313C55.149,54.193 54.047,53.054 53.976,51.448C53.913,49.998 55.471,48.568 56.905,48.609C58.421,48.651 59.647,49.947 59.623,51.477Z" fill="#116034"/>
<path d="M121.781,50.606C121.796,49.454 122.654,48.592 123.8,48.582C124.814,48.573 125.89,49.603 125.907,50.601C125.924,51.596 124.87,52.658 123.871,52.648C122.645,52.639 121.767,51.779 121.781,50.606Z" fill="#116034"/>
<path d="M29.145,82.72C27.496,82.71 25.878,81.087 25.926,79.494C25.98,77.71 27.482,76.328 29.301,76.321C30.941,76.314 32.531,77.597 32.546,79.594C32.558,81.319 30.966,82.732 29.145,82.72Z" fill="#116034"/>
<path d="M95.097,52.317C95.116,54.14 93.524,55.738 91.696,55.731C89.887,55.723 88.294,54.135 88.251,52.321C88.209,50.501 89.392,48.827 91.469,48.778C93.627,48.729 95.077,50.308 95.097,52.317Z" fill="#116034"/>
<path d="M72.566,76.37C74.222,76.414 75.755,77.895 75.716,79.408C75.67,81.173 74.181,82.576 72.42,82.505C70.782,82.439 69.417,80.977 69.446,79.318C69.477,77.583 70.811,76.323 72.566,76.37Z" fill="#116034"/>
<path d="M49.67,100.706C49.741,99.576 50.702,98.69 51.765,98.773C52.825,98.856 53.715,99.889 53.642,100.955C53.574,101.956 52.489,102.881 51.436,102.82C50.429,102.761 49.529,101.729 49.67,100.706Z" fill="#116034"/>
<path d="M79.693,89.456C79.63,88.106 80.839,87.32 81.856,87.332C82.968,87.344 83.882,88.247 83.911,89.343C83.94,90.468 82.919,91.459 81.722,91.466C80.639,91.471 79.698,90.542 79.693,89.456Z" fill="#116034"/>
<path d="M72.769,12.529C71.623,12.527 70.753,11.651 70.77,10.516C70.784,9.444 71.662,8.585 72.74,8.585C73.832,8.588 74.722,9.498 74.741,10.633C74.763,11.709 73.908,12.532 72.769,12.529Z" fill="#116034"/>
<path d="M33.07,16.422C34.077,16.424 34.791,17.12 34.811,18.118C34.83,19.06 33.962,19.912 32.984,19.914C32.051,19.914 31.19,19.116 31.166,18.226C31.139,17.198 31.963,16.42 33.07,16.422Z" fill="#116034"/>
<path d="M124.131,111.266C123.237,111.266 122.669,110.729 122.656,109.873C122.644,108.935 123.203,108.342 124.114,108.323C124.985,108.306 125.692,108.955 125.706,109.785C125.721,110.583 124.995,111.266 124.131,111.266Z" fill="#116034"/>
<path d="M133.545,99.401C134.469,99.737 134.764,100.027 134.713,100.517C134.669,100.941 134.303,101.285 133.845,101.339C133.296,101.402 132.877,101.175 132.716,100.724C132.519,100.181 132.706,99.869 133.545,99.401Z" fill="#116034"/>
<path d="M32.687,32.233C33.121,31.438 33.443,31.243 34.016,31.399C34.44,31.514 34.669,31.833 34.642,32.277C34.613,32.735 34.294,33.089 33.848,33.157C33.292,33.24 33.065,33.067 32.687,32.233Z" fill="#116034"/>
<path d="M81.007,101.02C80.636,101.456 79.949,101.439 79.561,101.02C79.288,100.725 79.239,100.471 79.352,100.166C79.491,99.788 79.878,99.552 80.293,99.591C80.749,99.635 81.124,99.976 81.187,100.398C81.222,100.629 81.166,100.834 81.007,101.02Z" fill="#116034"/>
<path d="M46.126,76.783C45.565,76.785 45.18,76.459 45.177,75.974C45.175,75.474 45.655,75.028 46.174,75.049C46.633,75.069 47.057,75.505 47.069,75.971C47.081,76.442 46.689,76.781 46.126,76.783Z" fill="#116034"/>
<path d="M107.838,110.057C107.755,109.096 107.755,109.096 108.547,108.704C109.069,108.845 109.542,109.079 109.491,109.711C109.471,109.952 109.259,110.254 109.045,110.388C108.542,110.705 108.155,110.413 107.838,110.057Z" fill="#116034"/>
<path d="M21.492,28.018C21.909,27.289 22.199,27.099 22.66,27.241C23.05,27.36 23.267,27.633 23.267,28.045C23.267,28.423 23.057,28.652 22.701,28.747C22.213,28.881 21.948,28.725 21.492,28.018Z" fill="#116034"/>
<path d="M133.816,130.597C134.323,130.665 134.752,130.819 134.754,131.36C134.757,131.609 134.613,131.933 134.423,132.092C134.006,132.44 133.616,132.218 133.265,131.879C133.126,131.341 133.135,130.873 133.816,130.597Z" fill="#116034"/>
<path d="M35.727,58.515C36.071,58.552 36.315,58.601 36.561,58.601C38.863,58.613 41.162,58.618 43.463,58.623C43.719,58.623 43.978,58.623 44.229,58.586C45.075,58.459 45.589,57.847 45.584,56.997C45.58,56.138 44.97,55.44 44.134,55.352C43.953,55.333 43.768,55.355 43.588,55.36C41.016,55.409 39.155,53.417 39.441,50.864C39.626,49.207 40.384,47.86 41.905,47.087C42.473,46.796 43.144,46.711 43.931,46.484C43.975,46.357 44.124,46.101 44.148,45.835C44.192,45.327 44.17,44.814 44.17,44.302C44.17,38.674 44.161,33.044 44.175,27.416C44.183,24.898 44.236,22.377 44.268,19.858C44.273,19.502 44.268,19.145 44.268,18.694C42.932,18.694 41.705,18.694 40.462,18.694C40.226,18.042 40.399,17.459 40.318,16.905C41.091,16.666 45.272,16.6 47.04,16.798C47.064,16.947 47.108,17.115 47.113,17.286C47.44,26.743 47.315,36.202 47.347,45.661C47.35,46.401 47.294,47.118 47.016,47.811C46.487,49.122 45.775,49.6 44.348,49.605C43.768,49.608 43.19,49.569 42.737,50.083C42.074,50.838 42.115,51.611 42.915,52.241C43.029,52.331 43.159,52.397 43.341,52.509C43.802,52.48 44.312,52.46 44.819,52.417C45.628,52.346 46.335,52.595 46.96,53.088C49.593,55.157 49.466,59.657 46.725,61.576C45.95,62.12 45.092,62.337 44.148,62.335C39.84,62.322 35.53,62.33 31.222,62.33C30.717,62.33 30.21,62.33 29.635,62.33C29.635,63.406 29.635,64.409 29.635,65.544C36.927,65.588 44.217,65.539 51.592,65.58C55.641,69.429 59.474,73.549 63.575,77.514C63.575,78.351 63.555,79.225 63.58,80.099C63.602,80.916 63.668,81.734 63.729,82.791C59.021,78.242 54.681,73.663 50.222,69.351C42.027,69.351 33.996,69.351 25.86,69.351C23.617,71.176 21.601,73.346 19.295,75.435C18.536,75.435 17.664,75.401 16.796,75.445C15.735,75.499 15.118,76.336 15.36,77.319C15.513,77.951 16.079,78.434 16.788,78.478C17.222,78.505 17.661,78.461 18.1,78.442C18.317,78.432 18.536,78.373 18.751,78.388C19.002,78.405 19.248,78.481 19.446,78.52C19.534,79.638 19.478,80.748 19.726,81.788C20.626,85.548 22.915,88.033 26.726,88.975C27.323,89.121 27.952,89.192 28.567,89.194C38.058,89.212 47.55,89.216 57.043,89.212C58.392,89.212 59.74,89.141 61.134,89.099C62.588,87.74 64.05,86.373 65.525,84.994C66.359,85.81 67.154,86.588 68.039,87.452C66.15,89.282 64.306,91.079 62.402,92.816C62.195,92.833 62.015,92.86 61.837,92.86C50.151,92.86 38.468,92.858 26.782,92.853C26.053,92.853 25.322,92.838 24.593,92.855C24.034,92.867 23.513,92.994 23.091,93.407C22.252,94.222 22.457,95.459 23.539,95.903C23.864,96.035 24.246,96.072 24.605,96.074C30.812,96.101 37.02,96.118 43.227,96.135C44.1,96.138 44.97,96.135 45.994,96.135C44.897,97.57 43.48,98.481 42.291,99.671C41.92,99.671 41.557,99.671 41.196,99.671C36.778,99.669 32.36,99.662 27.94,99.674C27.511,99.674 27.05,99.713 26.665,99.874C26.104,100.111 25.707,100.584 25.687,101.224C25.67,101.856 26.012,102.346 26.555,102.646C26.836,102.8 27.165,102.893 27.484,102.942C27.916,103.008 28.357,103.025 28.793,103.027C32.702,103.034 36.607,103.03 40.516,103.044C41.096,103.047 41.696,103.052 42.252,103.188C44.434,103.723 45.516,105.321 45.931,107.374C46.318,109.287 45.587,110.895 44.126,112.147C43.266,112.884 42.213,113.199 41.086,113.204C38.165,113.219 35.245,113.197 32.324,113.223C31.712,113.228 31.078,113.299 30.49,113.465C27.843,114.212 26.151,117.114 26.938,119.613C27.553,121.562 28.954,122.707 30.954,123.051C31.775,123.193 32.626,123.22 33.462,123.222C37.188,123.234 40.911,123.227 44.636,123.212C46.899,123.202 49.161,123.151 51.424,123.149C53.174,123.146 54.927,123.217 56.678,123.205C58.83,123.19 60.981,123.127 63.27,123.08C64.857,121.592 66.501,120.037 68.161,118.5C69.821,116.962 71.501,115.442 73.249,113.841C77.335,113.841 81.492,113.841 85.649,113.841C86.763,112.772 87.839,111.742 89.033,110.595C83.277,110.595 77.679,110.595 72.052,110.595C70.677,111.874 69.295,113.175 67.898,114.456C67.091,115.195 66.245,115.896 65.443,116.64C64.984,117.067 64.477,117.216 63.855,117.214C60.386,117.192 56.917,117.201 53.45,117.204C53.047,117.204 52.645,117.248 52.245,117.218C51.494,117.165 50.914,117.441 50.39,117.97C49.697,118.668 48.954,119.317 48.205,120.01C47.947,120.01 47.693,120.01 47.44,120.01C42.547,120.015 37.653,120.02 32.76,120.023C32.468,120.023 32.17,120.037 31.887,119.988C31.019,119.837 30.254,119.022 30.264,118.297C30.276,117.423 31.071,116.577 32.007,116.467C32.295,116.433 32.59,116.452 32.882,116.452C37.336,116.452 41.791,116.452 46.326,116.452C47.323,115.559 48.354,114.636 49.429,113.675C54.037,113.675 58.67,113.675 63.209,113.675C64.331,112.97 68.987,108.674 70.08,107.354C70.08,104.95 70.119,102.505 70.058,100.059C70.036,99.2 70.289,98.605 70.943,98.078C71.874,97.326 72.757,96.513 73.793,95.613C73.793,99.408 73.793,103.017 73.793,106.529C73.9,106.649 73.922,106.678 73.946,106.702C73.973,106.727 74.005,106.766 74.032,106.766C78.45,106.778 82.867,106.788 87.285,106.795C87.795,106.795 88.304,106.773 88.816,106.754C88.882,106.751 88.943,106.693 89.084,106.619C89.106,106.275 89.133,105.885 89.165,105.411C88.882,105.17 88.599,104.889 88.282,104.657C86.193,103.137 85.447,99.998 87.054,97.377C87.929,95.95 89.109,94.925 90.859,94.712C91.096,94.683 91.366,94.564 91.53,94.398C93.217,92.684 94.887,90.954 96.56,89.226C96.582,89.202 96.584,89.16 96.618,89.063C95.96,87.432 95.777,85.739 96.508,84.016C97.084,82.654 97.991,81.595 99.268,80.86C101.143,79.779 104.588,79.689 107.109,82.93C108.908,81.173 110.693,79.418 112.492,77.675C114.301,75.926 116.12,74.188 117.927,72.455C119.594,72.455 121.199,72.46 122.803,72.453C123.495,72.45 124.19,72.441 124.883,72.404C126.636,72.311 127.901,70.986 128.05,69.593C128.13,68.834 128.296,68.08 128.491,67.34C129.015,65.356 130.307,63.867 131.719,62.469C132.472,61.725 133.272,61.029 134.05,60.311C135.452,59.013 135.452,59.013 137.217,58.584C138.126,57.769 138.799,56.741 139.111,55.655C138.338,55.396 137.539,55.562 136.761,55.531C135.998,55.499 135.23,55.523 134.437,55.523C133.062,56.841 131.692,58.152 130.322,59.465C129.53,60.224 128.732,60.973 127.95,61.742C127.535,62.147 127.072,62.347 126.482,62.344C123.013,62.332 119.543,62.352 116.076,62.332C114.816,62.325 114.077,61.617 114.062,60.507C114.048,59.452 114.667,58.774 115.73,58.754C117.008,58.732 118.285,58.759 119.565,58.759C121.391,58.759 123.217,58.742 125.044,58.752C125.665,58.754 126.128,58.549 126.589,58.103C128.681,56.065 130.819,54.076 133.001,52.009C134.513,52.009 136.081,52.009 137.648,52.009C138.416,52.009 139.182,52.038 139.947,52.007C141.057,51.963 141.622,51.318 141.559,50.237C141.52,49.573 141.218,49.144 140.572,48.949C140.228,48.844 139.855,48.792 139.496,48.792C135.954,48.783 132.411,48.79 128.871,48.795C128.657,48.795 128.442,48.827 128.142,48.849C128.203,49.095 128.233,49.298 128.303,49.481C128.988,51.233 127.981,53.432 126.426,54.574C124.939,55.665 122.769,55.675 121.306,54.574C120.472,53.949 120.045,53.105 120.053,52.026C120.075,48.81 120.067,45.593 120.07,42.376C120.072,39.599 120.07,36.822 120.07,34.013C122.466,31.485 123.303,28.432 122.827,25.032C122.401,21.981 120.865,19.563 118.278,17.862C113.587,14.779 105.646,15.524 102.621,23.062C102.118,22.892 101.792,22.484 101.448,22.135C100.809,21.486 100.236,20.771 99.6,20.119C99.224,19.739 98.815,19.358 98.349,19.106C97.74,18.775 97.137,18.955 96.66,19.455C96.189,19.951 96.043,20.554 96.326,21.171C96.501,21.557 96.791,21.906 97.081,22.225C98.586,23.868 100.107,25.493 101.85,27.375C101.838,28.356 102.272,29.674 102.877,30.923C103.481,32.178 104.269,33.322 105.307,34.245C105.307,34.689 105.307,35.082 105.307,35.563C104.725,35.404 104.435,34.967 104.103,34.628C100.907,31.367 97.723,28.095 94.553,24.81C94.053,24.292 93.566,23.863 92.781,23.904C91.64,23.968 90.864,25.13 91.362,26.172C91.576,26.618 91.932,27.016 92.288,27.372C96.182,31.28 100.09,35.172 103.991,39.072C104.325,39.404 104.625,39.77 104.937,40.114C104.951,47.099 104.986,54.037 104.922,60.846C99.268,66.225 93.736,71.482 88.214,76.746C87.314,77.602 86.459,78.505 85.557,79.357C85.188,79.703 84.781,80.031 84.34,80.275C83.606,80.68 82.68,80.523 82.219,79.996C81.807,79.525 81.736,78.571 82.131,77.932C82.358,77.563 82.655,77.229 82.967,76.926C87.826,72.231 92.695,67.545 97.554,62.85C98.864,61.583 100.141,60.282 101.38,59.05C101.38,53.249 101.38,47.587 101.38,41.761C97.101,37.432 92.793,32.983 88.268,28.588C87.514,29.359 86.839,30.047 86.088,30.816C90.135,34.965 94.129,39.062 98.125,43.157C98.125,44.014 98.125,44.846 98.125,45.693C97.12,44.727 96.14,43.785 95.089,42.774C94.619,42.716 94.08,42.638 93.539,42.589C92.822,42.523 92.252,42.257 91.73,41.713C89.272,39.162 86.771,36.654 84.281,34.133C84.079,33.928 83.847,33.747 83.545,33.478C83.153,33.979 82.775,34.457 82.397,34.938C82.336,34.892 82.272,34.848 82.212,34.801C82.212,35.126 82.212,35.45 82.212,35.773C82.209,39.755 82.207,43.741 82.202,47.724C82.202,48.09 82.214,48.458 82.165,48.819C82.065,49.534 81.519,50.083 80.815,50.232C80.166,50.369 79.471,50.113 79.14,49.483C78.91,49.046 78.72,48.529 78.715,48.048C78.684,43.775 78.696,39.502 78.696,35.201C77.845,35.082 76.918,35.079 76.085,34.799C75.246,34.516 74.5,33.954 73.773,33.547C73.773,34.516 73.773,35.563 73.773,36.61C73.781,46.772 73.793,56.931 73.79,67.094C73.79,67.489 73.754,67.906 73.622,68.272C73.298,69.161 72.503,69.551 71.494,69.392C70.758,69.278 70.204,68.626 70.121,67.765C70.102,67.547 70.114,67.325 70.114,67.108C70.114,56.363 70.114,45.615 70.114,34.87C70.114,34.14 70.114,33.41 70.114,32.632C69.894,32.571 69.697,32.514 69.468,32.451C69.268,32.693 69.085,32.912 68.905,33.132C67.561,34.757 65.83,35.558 63.731,35.538C62.709,35.528 61.69,35.465 60.669,35.433C60.274,35.421 59.879,35.431 59.43,35.431C59.43,38.909 59.43,42.328 59.43,45.813C61.147,46.55 62.205,47.897 62.773,49.634C63.26,51.126 63.041,52.587 62.48,54.02C61.498,56.531 58.94,57.939 56.246,57.617C53.357,57.271 51.085,54.869 50.795,52.163C50.5,49.425 52.257,46.24 55.834,45.332C55.834,41.896 55.834,38.44 55.834,34.94C54.079,34.34 53.672,32.964 53.676,31.297C53.693,24.607 53.684,17.918 53.684,11.231C53.684,11.011 53.672,10.792 53.693,10.575C53.789,9.659 54.422,9.01 55.217,9.005C56.049,9 56.856,9.676 56.946,10.538C57.009,11.153 56.973,11.78 56.963,12.4C56.943,13.855 57.629,14.611 59.082,14.726C59.225,14.738 59.369,14.76 59.52,14.779C60.093,15.207 60.622,15.736 60.722,16.417C60.81,17.027 60.586,17.684 60.469,18.53C60.788,18.816 61.193,19.177 61.734,19.66C61.732,19.656 61.768,19.836 61.849,19.995C62.634,21.564 62.012,22.896 60.939,23.946C58.587,26.245 58.928,26.831 58.921,29.088C58.918,29.889 58.921,30.691 58.921,31.477C59.991,31.817 62.534,31.882 63.475,31.621C64.458,31.348 65.269,30.813 65.903,30.02C66.313,29.508 66.674,28.956 67.066,28.429C67.303,28.112 67.559,27.807 67.815,27.485C68.814,27.646 69.665,28.07 70.531,28.429C71.238,28.722 71.889,29.144 72.591,29.447C73.186,29.703 73.82,29.869 74.437,30.074C74.773,30.186 75.146,30.245 75.443,30.425C77.521,31.692 79.496,31.328 81.397,30.062C81.999,29.659 82.548,29.161 83.07,28.654C87.48,24.334 91.876,20.002 96.279,15.675C98.571,13.423 100.88,11.187 103.162,8.922C103.662,8.424 104.188,8.198 104.905,8.2C112.317,8.21 119.731,8.193 127.143,8.185C127.426,8.185 127.708,8.224 128.067,8.251C128.423,10.333 128.771,12.373 129.108,14.338C128.028,16.368 128.037,16.505 129.344,18.264C128.803,19.241 129.157,20.114 129.837,20.922C129.929,21.032 130.039,21.147 130.083,21.281C130.341,22.035 130.58,22.794 130.819,23.529C131.131,23.726 131.404,23.897 131.753,24.117C131.57,24.627 131.29,25.108 131.244,25.613C131.2,26.094 131.402,26.596 131.512,27.17C131.717,27.304 131.985,27.482 132.321,27.704C132.292,28.153 132.263,28.615 132.224,29.21C132.353,29.391 132.563,29.684 132.775,29.979C132.775,30.457 132.721,30.94 132.787,31.404C132.916,32.319 132.528,32.959 131.829,33.464C131.509,33.693 131.163,33.888 130.831,34.098C130.575,33.971 130.383,33.874 130.19,33.781C128.979,33.203 128.181,33.3 127.228,34.257C125.914,35.58 125.292,37.21 125.592,39.053C125.985,41.466 127.308,43.179 129.686,44.019C132.516,45.019 135.161,43.489 136.283,41.51C136.551,41.037 136.775,40.541 137.056,39.985C138.948,41.256 140.847,42.396 143.1,41.027C143.631,41.361 143.736,41.822 143.722,42.303C143.622,45.735 143.904,49.178 143.48,52.597C143.31,53.969 143.068,55.348 142.676,56.668C141.808,59.582 139.952,61.707 137.207,63.037C136.78,63.245 136.359,63.46 135.934,63.672C133.352,64.956 131.87,67.03 131.47,69.888C131.414,70.283 131.322,70.676 131.246,71.069C130.675,74.081 128.011,76.101 124.951,76.14C123.054,76.165 121.155,76.145 119.153,76.145C118.339,76.946 117.488,77.793 116.625,78.627C113.999,81.165 111.376,83.706 108.733,86.229C108.37,86.576 108.165,86.954 108.062,87.44C107.199,91.545 103.206,93.539 99.385,91.784C99.254,91.723 99.12,91.662 99.044,91.628C96.94,93.683 94.858,95.715 92.788,97.741C92.339,97.702 91.947,97.634 91.554,97.643C90.394,97.668 89.662,98.275 89.343,99.401C89.021,100.538 89.316,101.512 90.157,102.29C90.945,103.02 91.915,103.232 92.898,102.785C93.912,102.324 94.585,101.524 94.69,100.352C94.709,100.135 94.692,99.915 94.692,99.596C95.989,98.373 97.313,97.128 98.622,95.896C100.339,95.896 101.977,95.896 103.664,95.896C104.005,95.571 104.349,95.252 104.688,94.925C107.287,92.413 109.884,89.897 112.487,87.389C113.251,86.654 114.028,85.934 114.804,85.214C115.496,84.572 116.305,84.538 116.959,85.107C117.744,85.79 117.88,86.778 117.286,87.545C117.151,87.718 116.988,87.867 116.832,88.021C110.752,94.029 104.676,100.04 98.59,106.041C95.26,109.324 91.917,112.594 88.568,115.854C87.863,116.54 87.1,117.16 86.378,117.799C82.221,117.799 78.133,117.799 73.917,117.799C70.675,120.867 67.391,123.976 64.133,127.056C63.039,127.056 62.054,127.056 61.071,127.056C59.208,127.056 57.346,127.044 55.485,127.066C54.883,127.073 54.359,126.924 53.818,126.656C52.472,125.99 51.082,125.492 49.532,125.514C48.371,125.531 47.301,125.824 46.257,126.273C45.472,126.612 44.775,127.061 44.626,128.069C42.878,127.666 41.652,128.579 40.45,129.553C39.392,130.412 39.397,130.417 38.507,130.534C38.207,130.351 37.87,130.143 37.505,129.916C36.668,130.202 35.886,130.753 34.896,130.495C34.752,130.841 34.655,131.149 34.508,131.427C34.077,132.247 33.46,132.42 32.519,132.401C31.044,132.369 29.937,131.822 29.106,130.607C28.913,130.326 28.528,130.182 28.24,129.96C27.986,129.765 27.633,129.599 27.528,129.335C27.233,128.611 26.689,128.489 26.026,128.528C25.736,128.545 25.448,128.557 25.212,128.432C24.285,127.959 23.357,127.488 22.315,126.956C22.233,126.714 22.442,126.397 22.642,126.109C23.335,125.113 23.408,124.103 22.862,123.012C22.689,122.666 22.591,122.241 22.591,121.853C22.584,120.35 21.626,119.371 20.667,118.446C20.25,118.043 19.816,117.677 19.473,117.201C19.092,116.672 18.661,116.179 18.222,115.632C18.22,114.617 18.302,114.558 19.994,114.441C21.882,113.126 22.94,111.271 23.354,109.026C23.934,105.89 23.227,103.083 21.104,100.682C20.745,100.277 20.287,99.959 19.855,99.625C19.531,99.374 19.261,99.115 19.146,98.693C18.846,97.568 18.512,96.455 18.159,95.227C18.168,95.205 18.198,95.057 18.278,94.942C18.795,94.202 18.771,93.409 18.412,92.65C17.932,91.63 17.388,90.637 16.837,89.653C16.498,89.048 16.089,88.484 15.723,87.896C15.25,87.135 14.992,86.315 15.038,85.402C15.082,84.541 14.835,83.777 14.343,83.04C13.044,81.099 11.81,79.113 10.547,77.146C10.388,76.899 10.242,76.638 10.04,76.431C9.089,75.46 8.64,74.244 8.233,72.98C7.516,70.757 6.702,68.568 5.958,66.352C5.69,65.554 5.566,64.726 5.946,63.936C6.478,63.665 6.829,64.016 7.199,64.204C8.043,64.634 8.86,65.122 9.711,65.537C10.864,66.1 12.049,66.288 13.314,65.851C13.655,65.734 14.104,65.832 14.477,65.934C14.931,66.059 15.36,66.281 15.791,66.476C17.198,67.111 18.702,67.25 20.189,67.081C20.984,66.991 21.74,66.503 22.501,66.159C22.759,66.042 22.971,65.82 23.279,65.59C24.12,65.59 25.027,65.59 26.053,65.59C26.068,65.144 26.092,64.758 26.092,64.37C26.09,58.083 26.087,51.797 26.082,45.51C26.082,45.29 26.075,45.071 26.082,44.851C26.124,43.831 26.746,43.116 27.638,43.057C28.54,42.999 29.41,43.724 29.542,44.673C29.586,44.995 29.566,45.329 29.566,45.659C29.574,49.608 29.579,53.554 29.586,57.502C29.586,57.825 29.586,58.149 29.586,58.549C30.956,58.659 32.251,58.586 33.589,58.598M34.389,106.615L34.389,106.612C32.38,106.612 30.373,106.612 28.364,106.615C28.072,106.615 27.774,106.598 27.492,106.649C26.765,106.781 26.277,107.371 26.246,108.111C26.214,108.833 26.667,109.487 27.375,109.663C27.689,109.741 28.025,109.748 28.352,109.748C32.368,109.76 36.386,109.765 40.401,109.765C40.689,109.765 40.986,109.736 41.264,109.668C42.057,109.47 42.586,108.674 42.505,107.842C42.434,107.1 41.881,106.659 40.959,106.617C40.74,106.607 40.521,106.617 40.301,106.617C38.334,106.615 36.361,106.615 34.389,106.615ZM102.087,89.131C103.693,89.148 104.951,87.918 104.959,86.327C104.966,84.741 103.752,83.589 102.05,83.567C100.448,83.545 99.276,84.741 99.241,86.422C99.215,87.891 100.499,89.114 102.087,89.131ZM59.623,51.477C59.647,49.947 58.418,48.651 56.904,48.607C55.471,48.565 53.913,49.998 53.976,51.445C54.047,53.054 55.149,54.191 56.753,54.31C58.282,54.428 59.598,53.054 59.623,51.477ZM121.781,50.606C121.767,51.78 122.647,52.639 123.871,52.648C124.87,52.656 125.924,51.597 125.907,50.601C125.89,49.603 124.814,48.575 123.8,48.583C122.652,48.592 121.794,49.454 121.781,50.606Z" fill="#FFC424"/>
<path d="M33.86,84.289C32.295,85.778 30.405,86.246 28.313,86.017C26.914,85.863 25.753,85.209 24.754,84.252C22.694,82.281 21.911,78.839 23.588,76.016C25.161,73.37 28.001,72.189 31.015,73.063C32.641,73.534 33.931,74.522 34.847,75.972C35.754,77.404 35.871,78.979 35.667,80.604C36.505,81.856 37.641,82.346 39.116,82.337C44.953,82.298 50.79,82.307 56.627,82.315C57.278,82.315 57.948,82.339 58.577,82.488C59.369,82.676 59.938,83.181 60.042,84.06C60.155,84.992 59.601,85.705 58.665,85.814C58.304,85.856 57.936,85.853 57.573,85.853C50.97,85.851 44.366,85.822 37.763,85.863C36.642,85.87 35.691,85.634 34.83,84.938C34.55,84.714 34.231,84.536 33.86,84.289ZM29.145,82.72C30.966,82.732 32.558,81.317 32.546,79.596C32.531,77.6 30.942,76.316 29.301,76.323C27.482,76.331 25.98,77.712 25.926,79.496C25.878,81.09 27.497,82.71 29.145,82.72Z" fill="#FFC424"/>
<path d="M84.586,67.865C84.786,69.095 84.559,70.254 83.774,71.257C82.816,72.477 81.595,73.051 80.032,72.697C78.474,72.343 77.148,71.067 76.95,69.639C76.545,66.73 79.327,64.516 81.629,65.331C81.729,65.368 81.843,65.368 82.058,65.402C84.391,63.135 86.763,60.829 89.197,58.466C88.989,58.318 88.863,58.198 88.711,58.125C84.652,56.116 83.465,50.471 87.463,46.923C90.247,44.451 94.785,44.914 97.037,48.314C99.444,51.943 98.31,56.187 94.716,58.191C93.907,58.642 93.219,59.191 92.573,59.848C90.113,62.342 87.619,64.802 85.14,67.276C84.962,67.452 84.793,67.643 84.586,67.865ZM95.097,52.316C95.075,50.308 93.627,48.727 91.469,48.778C89.392,48.827 88.209,50.501 88.251,52.321C88.292,54.135 89.884,55.723 91.696,55.731C93.524,55.74 95.116,54.139 95.097,52.316Z" fill="#FFC424"/>
<path d="M66.927,76.365C61.729,71.066 56.546,65.783 51.194,60.328C52.959,60.302 54.5,60.358 56.08,60.421C60.586,64.672 64.767,69.251 69.104,73.368C70.262,73.168 71.218,72.88 72.179,72.858C75.855,72.775 78.832,75.562 79.047,79.242C79.118,80.438 78.752,81.578 78.14,82.576C76.314,85.561 74.149,86.295 71.111,85.656C67.773,84.955 66.327,82.137 66.242,79.579C66.223,79.04 66.318,78.486 66.43,77.951C66.537,77.456 66.732,76.98 66.927,76.365ZM72.567,76.37C70.811,76.323 69.475,77.583 69.446,79.318C69.416,80.977 70.784,82.442 72.42,82.505C74.178,82.573 75.67,81.173 75.716,79.408C75.755,77.895 74.222,76.414 72.567,76.37Z" fill="#FFC424"/>
<path d="M114.489,65.568C117.149,65.568 119.741,65.544 122.33,65.578C123.62,65.595 124.329,66.378 124.266,67.574C124.21,68.629 123.537,69.334 122.442,69.361C120.801,69.402 119.158,69.383 117.515,69.387C117.005,69.39 116.496,69.387 115.903,69.387C114.747,70.508 113.572,71.647 112.395,72.787C111.529,73.624 110.669,74.469 109.793,75.293C108.394,76.614 106.748,77.109 104.856,76.699C101.891,76.055 99.146,71.899 102.184,68.265C102.72,67.623 103.364,67.071 103.976,66.498C105.868,64.729 107.767,62.964 109.674,61.209C110.04,60.873 110.452,60.59 110.927,60.216C111.195,61.026 111.059,61.715 111.081,62.386C111.103,63.079 111.085,63.772 111.085,64.304C109.905,65.539 108.84,66.688 107.738,67.799C106.634,68.912 105.493,69.985 104.332,71.11C104.276,71.655 104.498,72.133 104.905,72.538C105.651,73.282 106.68,73.285 107.428,72.541C109.345,70.637 111.254,68.726 113.17,66.825C113.584,66.413 114.014,66.02 114.489,65.568Z" fill="#FFC424"/>
<path d="M73.61,89.065C73.61,89.946 73.61,90.705 73.61,91.515C69.57,95.376 65.511,99.254 61.422,103.159C59.481,103.159 57.553,103.159 55.702,103.159C53.354,105.387 51.492,105.907 49.6,104.911C47.883,104.008 46.84,101.98 47.159,100.162C47.506,98.188 49.102,96.579 50.992,96.304C53.174,95.986 54.683,96.967 56.102,99.666C57.297,99.666 58.526,99.666 59.903,99.666C63.687,96.304 67.256,92.543 71.104,89.063C71.913,89.065 72.705,89.065 73.61,89.065ZM49.671,100.706C49.529,101.729 50.431,102.761 51.436,102.82C52.489,102.881 53.571,101.956 53.642,100.955C53.715,99.889 52.828,98.856 51.765,98.773C50.699,98.69 49.741,99.576 49.671,100.706Z" fill="#FFC424"/>
<path d="M111.237,30.359C111.237,33.134 111.237,35.829 111.237,38.728C110.232,37.954 109.294,37.378 108.479,36.541C108.479,35.128 108.479,33.71 108.479,32.28C106.575,30.83 105.707,28.868 105.649,26.577C105.603,24.683 106.241,22.94 107.599,21.613C110.393,18.882 114.501,18.875 117.278,21.437C119.729,23.699 120.955,28.405 116.832,32.207C116.832,33.649 116.832,35.143 116.832,36.714C115.984,37.32 115.133,37.93 114.185,38.606C114.185,35.743 114.185,32.99 114.185,30.23C116.61,28.385 116.666,26.957 116.157,25.396C115.601,23.685 114.172,22.779 112.373,22.838C110.766,22.889 109.374,23.919 109.004,25.471C108.621,27.087 108.645,28.649 111.237,30.359Z" fill="#FFC424"/>
<path d="M81.919,84.213C84.655,84.223 86.873,86.564 86.863,89.429C86.854,92.282 84.601,94.563 81.824,94.532C78.998,94.5 76.682,92.243 76.716,89.463C76.75,86.556 79.145,84.118 81.919,84.213ZM79.693,89.456C79.7,90.542 80.639,91.471 81.722,91.466C82.919,91.462 83.94,90.468 83.911,89.343C83.882,88.25 82.967,87.347 81.856,87.332C80.839,87.323 79.63,88.108 79.693,89.456Z" fill="#FFC424"/>
<path d="M72.742,15.143C70.272,15.155 68.295,13.176 68.273,10.709C68.251,8.146 70.026,6.065 72.71,5.967C75.136,5.877 77.323,8.075 77.321,10.582C77.316,12.832 75.729,15.153 72.742,15.143ZM72.769,12.529C73.905,12.532 74.761,11.709 74.741,10.633C74.722,9.498 73.83,8.586 72.74,8.586C71.662,8.583 70.784,9.442 70.77,10.516C70.753,11.651 71.625,12.527 72.769,12.529Z" fill="#FFC424"/>
<path d="M37.268,18.113C37.285,20.544 35.486,22.396 33.111,22.408C30.785,22.421 28.801,20.798 28.764,18.282C28.728,15.758 30.644,13.828 33.05,13.813C35.7,13.796 37.358,16.283 37.268,18.113ZM33.07,16.422C31.96,16.42 31.139,17.198 31.166,18.223C31.19,19.114 32.051,19.914 32.984,19.912C33.962,19.912 34.83,19.06 34.811,18.116C34.794,17.122 34.077,16.424 33.07,16.422Z" fill="#FFC424"/>
<path d="M54.062,109.98C55.254,108.865 56.446,107.749 57.624,106.651C59.184,106.651 60.676,106.651 62.192,106.651C63.716,105.358 64.982,103.776 66.752,102.627C66.752,103.935 66.771,105.126 66.735,106.317C66.727,106.536 66.542,106.79 66.369,106.956C65.194,108.096 64.002,109.216 62.919,110.244C59.891,110.244 57.029,110.244 54.169,110.244C54.132,110.156 54.096,110.068 54.062,109.98Z" fill="#FFC424"/>
<path d="M116.866,55.101C115.769,55.286 115.02,55.274 114.174,55.052C114.174,50.696 114.174,46.325 114.174,41.866C115.001,41.366 115.776,40.717 116.759,40.385C116.963,41.117 117.046,53.52 116.866,55.101Z" fill="#FFC424"/>
<path d="M124.163,105.88C126.202,105.882 128.047,107.759 128.05,109.831C128.052,111.976 126.314,113.807 124.249,113.831C122.098,113.858 120.238,112.01 120.348,109.843C120.47,107.476 122.15,105.799 124.163,105.88ZM124.132,111.266C124.995,111.266 125.721,110.583 125.707,109.785C125.69,108.955 124.985,108.306 124.115,108.323C123.205,108.34 122.645,108.935 122.657,109.873C122.666,110.729 123.237,111.266 124.132,111.266Z" fill="#FFC424"/>
<path d="M137.002,100.355C137.019,102.258 135.632,103.715 133.755,103.754C131.904,103.791 130.293,102.248 130.302,100.545C130.314,98.236 131.972,96.943 133.482,96.958C135.469,96.972 136.983,98.41 137.002,100.355ZM133.545,99.4C132.706,99.869 132.519,100.181 132.716,100.726C132.879,101.177 133.296,101.404 133.845,101.341C134.303,101.287 134.669,100.94 134.713,100.518C134.764,100.03 134.469,99.737 133.545,99.4Z" fill="#FFC424"/>
<path d="M33.609,28.898C35.362,28.89 36.973,30.503 36.917,32.273C36.852,34.364 35.208,35.648 33.694,35.616C31.763,35.577 30.415,34.242 30.376,32.3C30.339,30.291 32.117,28.697 33.609,28.898ZM32.687,32.234C33.065,33.068 33.292,33.242 33.848,33.156C34.296,33.088 34.616,32.734 34.643,32.275C34.669,31.833 34.44,31.511 34.016,31.397C33.443,31.243 33.121,31.438 32.687,32.234Z" fill="#FFC424"/>
<path d="M83.28,100.596C83.265,102.471 82.041,103.725 80.227,103.725C78.399,103.725 76.95,102.361 76.933,100.621C76.916,98.864 78.496,97.184 80.13,97.226C81.953,97.277 83.294,98.71 83.28,100.596ZM79.822,101.263C80.066,101.46 80.412,101.472 80.676,101.302C81.088,101.038 81.239,100.752 81.188,100.399C81.124,99.976 80.749,99.635 80.293,99.591C79.878,99.552 79.493,99.788 79.352,100.167C79.21,100.55 79.323,100.853 79.822,101.263Z" fill="#FFC424"/>
<path d="M46.164,72.782C47.725,72.607 49.436,74.337 49.356,75.982C49.268,77.778 47.91,79.186 46.128,79.157C44.507,79.132 42.924,77.605 42.968,76.106C43.027,74.164 44.363,72.772 46.164,72.782ZM46.125,76.785C46.689,76.782 47.081,76.443 47.069,75.972C47.057,75.506 46.633,75.067 46.174,75.049C45.655,75.027 45.175,75.474 45.177,75.974C45.18,76.458 45.565,76.787 46.125,76.785Z" fill="#FFC424"/>
<path d="M111.558,109.653C111.522,111.442 110.225,112.769 108.545,112.735C106.809,112.701 105.495,111.278 105.551,109.494C105.605,107.747 106.943,106.502 108.699,106.563C110.359,106.619 111.593,107.954 111.558,109.653ZM107.838,110.058C108.157,110.414 108.545,110.707 109.045,110.39C109.257,110.256 109.471,109.953 109.491,109.712C109.542,109.082 109.067,108.845 108.547,108.704C107.755,109.097 107.755,109.097 107.838,110.058Z" fill="#FFC424"/>
<path d="M78.915,58.352C77.13,56.78 76.852,55.504 77.974,54.322C78.969,53.275 80.597,53.28 81.58,54.335C82.626,55.452 82.353,56.904 80.77,58.33Z" fill="#FFC424"/>
<path d="M19.449,27.885C19.478,26.203 20.699,24.993 22.357,25.005C24.025,25.015 25.449,26.469 25.383,28.097C25.317,29.757 24.001,31.221 22.543,31.14C20.607,31.033 19.285,29.522 19.449,27.885ZM21.492,28.019C21.945,28.724 22.213,28.881 22.699,28.749C23.055,28.654 23.264,28.424 23.264,28.046C23.264,27.633 23.047,27.36 22.657,27.241C22.199,27.099 21.909,27.292 21.492,28.019Z" fill="#FFC424"/>
<path d="M111.227,49.949C110.269,49.949 109.445,49.949 108.64,49.949C108.413,49.107 108.362,41.559 108.567,40.002C109.486,40.722 110.369,41.415 111.227,42.088C111.227,44.727 111.227,47.306 111.227,49.949Z" fill="#FFC424"/>
<path d="M134.05,128.491C135.667,128.547 136.917,129.897 136.839,131.502C136.761,133.084 135.45,134.35 133.936,134.304C132.343,134.255 131.034,132.876 131.093,131.307C131.154,129.606 132.387,128.432 134.05,128.491ZM133.816,130.597C133.136,130.873 133.126,131.341 133.267,131.883C133.619,132.22 134.009,132.442 134.426,132.095C134.613,131.937 134.76,131.612 134.757,131.363C134.752,130.819 134.323,130.665 133.816,130.597Z" fill="#FFC424"/>
<path d="M110.103,57.922C108.706,57.912 107.534,56.848 107.638,55.567C107.768,54 108.731,53.034 110.089,53.024C111.703,53.012 112.614,54.527 112.563,55.543C112.502,56.692 111.751,57.932 110.103,57.922Z" fill="#FFC424"/>
<path d="M76.17,19.548C77.314,19.534 78.235,20.461 78.247,21.637C78.259,22.845 77.399,23.856 76.277,23.836C75.197,23.817 74.207,23.238 74.142,21.818C74.085,20.585 75.017,19.563 76.17,19.548Z" fill="#FFC424"/>
<path d="M116.057,124.318C117.215,124.335 118.134,125.272 118.117,126.424C118.1,127.629 117.178,128.554 116.045,128.508C114.87,128.459 114.033,127.539 114.067,126.334C114.102,125.125 114.916,124.303 116.057,124.318Z" fill="#FFC424"/>
<path d="M105.87,129.191C104.717,129.221 103.847,128.381 103.842,127.244C103.837,126.058 104.651,125.155 105.731,125.143C106.824,125.13 107.796,126.114 107.796,127.236C107.794,128.31 106.953,129.167 105.87,129.191Z" fill="#FFC424"/>
<path d="M40.301,8.959C40.277,10.018 39.377,10.833 38.268,10.794C37.234,10.758 36.374,9.906 36.376,8.915C36.378,7.861 37.268,7.011 38.361,7.016C39.416,7.021 40.326,7.929 40.301,8.959Z" fill="#FFC424"/>
<path d="M17.359,106.91C17.359,107.666 16.879,108.157 16.143,108.157C15.401,108.157 14.814,107.574 14.828,106.846C14.841,106.168 15.401,105.599 16.082,105.575C16.793,105.548 17.359,106.139 17.359,106.91Z" fill="#FFC424"/>
<path d="M136.973,31.555C136.995,30.906 137.534,30.335 138.134,30.328C138.824,30.32 139.492,30.97 139.482,31.641C139.472,32.351 138.814,32.966 138.122,32.91C137.466,32.858 136.951,32.253 136.973,31.555Z" fill="#FFC424"/>
<path d="M67.922,21.26C67.958,20.602 68.385,20.185 69.029,20.178C69.726,20.173 70.143,20.622 70.126,21.358Z" fill="#FFC424"/>
<path d="M41.077,42.962C40.704,42.962 40.279,42.962 39.872,42.962C39.311,42.201 39.289,41.583 39.797,41.115C40.196,40.744 40.774,40.727 41.196,41.071C41.72,41.498 41.698,42.086 41.077,42.962Z" fill="#FFC424"/>
<path d="M138.68,108.206C138.66,107.5 139.131,106.949 139.748,106.959C140.301,106.968 140.784,107.432 140.816,107.986C140.852,108.621 140.338,109.187 139.699,109.209C139.097,109.231 138.699,108.843 138.68,108.206Z" fill="#FFC424"/>
<path d="M50.622,37.915C50.617,37.264 50.99,36.861 51.604,36.854C52.25,36.846 52.738,37.288 52.767,37.905C52.796,38.542 52.333,39.031 51.699,39.028C51.048,39.028 50.627,38.591 50.622,37.915Z" fill="#FFC424"/>
<path d="M51.331,44.077C50.334,43.474 50.302,42.855 51.231,42.135C51.355,42.039 51.516,42 51.67,42.03C52.413,42.179 52.723,42.449 52.759,42.972C52.798,43.535 52.491,43.904 51.782,44.128C51.633,44.177 51.467,44.16 51.331,44.077Z" fill="#FFC424"/>
<path d="M63.234,7.37C64.07,8.493 63.86,9.054 62.483,9.389C61.622,8.922 61.374,8.515 61.586,7.905C61.786,7.319 62.239,7.173 63.234,7.37Z" fill="#FFC424"/>
<path d="M51.704,44.314C52.43,44.314 53.018,43.725 53.018,42.999C53.018,42.272 52.43,41.683 51.704,41.683C50.978,41.683 50.39,42.272 50.39,42.999C50.39,43.725 50.978,44.314 51.704,44.314Z" fill="#FFC424"/>
<path d="M40.53,43.216C41.256,43.216 41.845,42.627 41.845,41.9C41.845,41.174 41.256,40.585 40.53,40.585C39.805,40.585 39.216,41.174 39.216,41.9C39.216,42.627 39.805,43.216 40.53,43.216Z" fill="#FFC424"/>
<path d="M51.704,39.27C52.43,39.27 53.018,38.681 53.018,37.954C53.018,37.228 52.43,36.639 51.704,36.639C50.978,36.639 50.39,37.228 50.39,37.954C50.39,38.681 50.978,39.27 51.704,39.27Z" fill="#FFC424"/>
<path d="M108.623,107.571C109.681,107.574 110.64,108.547 110.642,109.621C110.642,110.734 109.74,111.686 108.667,111.698C107.551,111.713 106.585,110.754 106.644,109.629C106.705,108.401 107.577,107.53 108.623,107.571ZM108.606,110.368C109.055,110.368 109.433,110.014 109.423,109.599C109.413,109.167 109.048,108.833 108.597,108.84C108.124,108.85 107.833,109.158 107.841,109.643C107.848,110.09 108.143,110.368 108.606,110.368Z" fill="#FFC424"/>
<path d="M133.601,98.361C134.659,98.363 135.617,99.337 135.62,100.411C135.62,101.524 134.718,102.475 133.645,102.488C132.528,102.502 131.563,101.543 131.621,100.418C131.682,99.188 132.555,98.317 133.601,98.361ZM133.584,101.158C134.032,101.158 134.41,100.804 134.401,100.389C134.391,99.957 134.025,99.622 133.574,99.63C133.101,99.64 132.811,99.947 132.818,100.433C132.823,100.877 133.118,101.158 133.584,101.158Z" fill="#FFC424"/>
<path d="M34.779,138.094L37.627,138.094L37.627,144.659C37.627,147.761 36.147,148.91 33.597,148.91C33.016,148.91 32.243,148.832 31.712,148.654L32.012,146.365C32.358,146.462 32.804,146.543 33.265,146.543C34.179,146.543 34.779,146.135 34.779,144.669L34.779,138.094Z" fill="#FFFFFF"/>
<path d="M49.51,143.31C49.51,146.731 47.454,148.91 44.175,148.91C40.879,148.91 39.067,146.436 39.067,143.478C39.067,140.379 41.093,137.921 44.351,137.921C47.771,137.921 49.51,140.459 49.51,143.31ZM42.081,143.427C42.081,145.428 42.951,146.651 44.312,146.651C45.696,146.651 46.496,145.316 46.496,143.397C46.496,141.567 45.677,140.176 44.295,140.176C42.954,140.178 42.081,141.469 42.081,143.427Z" fill="#FFFFFF"/>
<path d="M51.029,138.241C51.672,138.121 53.074,138.011 54.388,138.011C55.89,138.011 56.802,138.118 57.628,138.531C58.457,138.917 59.06,139.683 59.06,140.722C59.06,141.618 58.57,142.492 57.336,142.958L57.336,142.997C58.638,143.348 59.418,144.315 59.418,145.579C59.418,146.582 58.933,147.368 58.228,147.9C57.428,148.5 56.107,148.854 53.827,148.854C52.543,148.854 51.599,148.771 51.029,148.681L51.029,138.241ZM53.849,142.192L54.42,142.192C55.622,142.192 56.207,141.765 56.207,141.079C56.207,140.454 55.734,140.061 54.781,140.061C54.303,140.061 54.035,140.088 53.849,140.125L53.849,142.192ZM53.849,146.736C54.059,146.768 54.303,146.768 54.669,146.768C55.615,146.768 56.424,146.389 56.424,145.452C56.424,144.552 55.6,144.205 54.532,144.205L53.849,144.205L53.849,146.736Z" fill="#FFFFFF"/>
<path d="M70.979,143.31C70.979,146.731 68.924,148.91 65.645,148.91C62.349,148.91 60.537,146.436 60.537,143.478C60.537,140.379 62.563,137.921 65.82,137.921C69.241,137.921 70.979,140.459 70.979,143.31ZM63.551,143.427C63.551,145.428 64.421,146.651 65.781,146.651C67.166,146.651 67.966,145.316 67.966,143.397C67.966,141.567 67.147,140.176 65.767,140.176C64.421,140.178 63.551,141.469 63.551,143.427Z" fill="#FFFFFF"/>
<path d="M72.498,138.241C73.271,138.114 74.388,138.011 76.004,138.011C77.535,138.011 78.63,138.287 79.376,138.86C80.103,139.397 80.585,140.337 80.585,141.423C80.585,142.502 80.227,143.444 79.552,144.049C78.691,144.818 77.445,145.162 76.012,145.162C75.736,145.162 75.49,145.137 75.317,145.125L75.317,148.737L72.498,148.737L72.498,138.241ZM75.317,142.938C75.47,142.965 75.66,142.977 75.968,142.977C77.077,142.977 77.769,142.406 77.769,141.489C77.769,140.696 77.245,140.159 76.16,140.159C75.743,140.159 75.463,140.19 75.317,140.225L75.317,142.938Z" fill="#FFFFFF"/>
<path d="M81.78,147.253C81.78,146.277 82.456,145.591 83.404,145.591C84.36,145.591 85.013,146.258 85.025,147.253C85.025,148.225 84.374,148.91 83.402,148.91C82.446,148.91 81.78,148.225 81.78,147.253Z" fill="#FFFFFF"/>
<path d="M94.414,148.464C94.012,148.661 93.01,148.903 91.737,148.903C87.758,148.903 86.013,146.424 86.013,143.59C86.013,139.837 88.76,137.931 91.932,137.931C93.154,137.931 94.149,138.16 94.59,138.404L94.034,140.647C93.573,140.454 92.915,140.264 92.066,140.264C90.43,140.264 89.014,141.23 89.014,143.41C89.014,145.34 90.165,146.541 92.118,146.541C92.808,146.541 93.58,146.406 94.022,146.236L94.414,148.464Z" fill="#FFFFFF"/>
<path d="M105.949,143.31C105.949,146.731 103.893,148.91 100.614,148.91C97.318,148.91 95.506,146.436 95.506,143.478C95.506,140.379 97.532,137.921 100.79,137.921C104.21,137.921 105.949,140.459 105.949,143.31ZM98.52,143.427C98.52,145.428 99.393,146.651 100.753,146.651C102.138,146.651 102.938,145.316 102.938,143.397C102.938,141.567 102.118,140.176 100.736,140.176C99.39,140.178 98.52,141.469 98.52,143.427Z" fill="#FFFFFF"/>
<path d="M107.255,147.253C107.255,146.277 107.931,145.591 108.879,145.591C109.835,145.591 110.488,146.258 110.5,147.253C110.5,148.225 109.849,148.91 108.877,148.91C107.921,148.91 107.255,148.225 107.255,147.253Z" fill="#FFFFFF"/>
<path d="M111.273,147.221L115.979,140.51L115.979,140.452L111.72,140.452L111.72,138.094L119.67,138.094L119.67,139.724L115.109,146.321L115.109,146.38L119.751,146.38L119.751,148.737L111.276,148.737L111.276,147.221L111.273,147.221Z" fill="#FFFFFF"/>
<path d="M123.99,146.27L123.391,148.737L120.445,148.737L123.529,138.094L127.323,138.094L130.493,148.737L127.416,148.737L126.738,146.27L123.99,146.27ZM126.348,144.166L125.855,142.253C125.694,141.652 125.492,140.784 125.326,140.156L125.295,140.156C125.136,140.784 124.98,141.66 124.827,142.265L124.368,144.168L126.348,144.168L126.348,144.166Z" fill="#FFFFFF"/>
</svg>
