<svg width="150" height="156" viewBox="0 0 150 156" fill="none" xmlns="http://www.w3.org/2000/svg" xmlns:xlink="http://www.w3.org/1999/xlink">
<path d="M145.075,62.491C145.419,62.042 145.723,61.634 146.038,61.234C147.825,58.952 148.844,56.399 148.822,53.461C148.795,49.478 148.805,45.493 148.783,41.51C148.771,39.011 147.83,36.898 146.074,35.136C145.767,34.826 145.445,34.53 145.092,34.191C145.092,33.908 145.087,33.618 145.092,33.327C145.126,31.86 144.916,30.423 144.629,28.988C143.439,23.05 140.737,17.847 136.861,13.264C133.767,9.606 130.042,6.677 125.758,4.51C122.423,2.824 118.873,1.725 115.245,0.881C113.187,0.403 111.112,0 108.984,0C89.265,0.007 69.548,0.015 49.829,0.002C47.593,0 45.394,0.227 43.21,0.666C39.082,1.496 35.074,2.714 31.329,4.654C27.282,6.75 23.666,9.42 20.672,12.92C17.14,17.049 14.343,21.562 12.858,26.831C12.093,29.547 11.595,32.297 11.593,35.128C11.583,42.877 11.571,50.625 11.561,58.374C11.561,58.769 11.561,59.164 11.561,59.865C10.94,59.474 10.562,59.203 10.154,58.986C8.355,58.025 6.48,57.583 4.484,58.296C1.139,59.489 -0.212,62.972 0.027,65.724C0.205,67.77 0.77,69.737 1.565,71.628C2.216,73.175 2.887,74.715 3.63,76.218C4.874,78.735 6.137,81.243 7.473,83.713C8.599,85.8 9.828,87.83 11.03,89.873C11.434,90.559 11.564,91.274 11.561,92.064C11.552,101.348 11.552,110.632 11.581,119.915C11.586,121.443 11.627,122.99 11.861,124.496C12.366,127.751 13.363,130.87 14.784,133.848C15.964,136.325 17.364,138.66 19.014,140.862C20.887,143.356 22.952,145.643 25.424,147.551C29.062,150.358 33.014,152.566 37.388,154.016C41.254,155.297 45.219,155.98 49.288,155.983C69.078,155.993 88.87,155.978 108.66,156C111.264,156.002 113.809,155.685 116.337,155.097C119.982,154.25 123.427,152.876 126.672,151.031C130.156,149.047 133.153,146.465 135.805,143.454C138.136,140.81 140.089,137.94 141.637,134.775C143.965,130.009 145.114,125.011 145.097,119.683C145.041,101.043 145.075,82.403 145.075,63.76C145.075,63.33 145.075,62.893 145.075,62.491ZM139.482,31.641C139.472,32.351 138.814,32.966 138.121,32.91C137.463,32.859 136.949,32.253 136.971,31.555C136.993,30.906 137.531,30.335 138.131,30.328C138.824,30.32 139.494,30.97 139.482,31.641ZM136.6,22.857C137.505,23.255 137.839,23.692 137.714,24.271C137.602,24.79 137.144,25.2 136.661,25.213C136.108,25.225 135.598,24.825 135.483,24.283C135.364,23.712 135.695,23.272 136.6,22.857ZM80.751,6.726C81.071,6.697 81.349,6.65 81.629,6.648L92.776,6.645C93.029,6.645 93.29,6.628 93.539,6.677C94.134,6.792 94.468,7.265 94.419,7.871C94.373,8.439 94.046,8.791 93.415,8.791C89.265,8.786 85.113,8.754 80.963,8.73C80.929,8.73 80.895,8.703 80.737,8.639C80.719,8.288 80.688,7.966 80.69,7.644C80.688,7.36 80.724,7.075 80.751,6.726ZM88.241,14.37C88.234,15.443 87.319,16.28 86.134,16.295C84.967,16.31 84.162,15.551 84.155,14.428C84.147,13.191 85.086,12.185 86.232,12.2C87.368,12.217 88.246,13.166 88.241,14.37ZM78.25,21.637C78.262,22.845 77.401,23.856 76.28,23.836C75.2,23.817 74.21,23.238 74.144,21.818C74.086,20.585 75.019,19.565 76.172,19.551C77.314,19.534 78.238,20.461 78.25,21.637ZM72.71,5.967C75.136,5.877 77.323,8.076 77.321,10.582C77.318,12.832 75.731,15.153 72.742,15.143C70.272,15.155 68.295,13.176 68.273,10.709C68.249,8.146 70.024,6.065 72.71,5.967ZM69.031,20.18C69.729,20.175 70.146,20.624 70.129,21.361C70.111,22.062 69.736,22.428 69.041,22.421C68.322,22.413 67.883,21.959 67.922,21.264C67.959,20.602 68.388,20.185 69.031,20.18ZM61.583,7.905C61.785,7.319 62.239,7.173 63.234,7.37C64.07,8.493 63.86,9.054 62.483,9.389C61.62,8.925 61.373,8.515 61.583,7.905ZM51.604,36.856C52.25,36.849 52.738,37.29 52.767,37.908C52.796,38.545 52.333,39.033 51.699,39.03C51.048,39.028 50.626,38.594 50.622,37.918C50.617,37.266 50.99,36.863 51.604,36.856ZM51.431,41.991C52.35,42.127 52.721,42.401 52.76,42.974C52.804,43.597 52.421,43.982 51.543,44.197C50.268,43.516 50.234,42.821 51.431,41.991ZM44.295,9.442C44.331,8.044 44.946,7.251 46.15,6.955C47.042,6.736 47.937,7.158 48.322,7.978C48.732,8.854 48.525,9.73 47.757,10.301C47.584,10.431 47.386,10.523 47.157,10.658C47.157,11.683 47.157,12.722 47.157,13.801C46.221,13.801 45.324,13.801 44.368,13.801C44.339,13.53 44.29,13.288 44.29,13.044C44.28,11.844 44.261,10.643 44.295,9.442ZM38.361,7.016C39.419,7.021 40.326,7.929 40.301,8.959C40.277,10.018 39.377,10.833 38.268,10.794C37.234,10.758 36.373,9.906 36.376,8.915C36.378,7.863 37.268,7.011 38.361,7.016ZM41.194,41.071C41.72,41.5 41.698,42.088 41.077,42.962C40.703,42.962 40.279,42.962 39.872,42.962C39.311,42.201 39.289,41.583 39.797,41.115C40.194,40.744 40.772,40.727 41.194,41.071ZM33.05,13.813C35.703,13.796 37.361,16.283 37.268,18.113C37.285,20.544 35.486,22.396 33.111,22.408C30.785,22.421 28.801,20.798 28.764,18.282C28.728,15.758 30.642,13.828 33.05,13.813ZM32.863,25.23C33.765,25.003 33.779,25.003 34.525,25.215C34.525,26.228 34.525,27.233 34.525,28.268C33.972,28.268 33.482,28.268 32.899,28.268C32.816,27.219 32.885,26.216 32.863,25.23ZM33.609,28.898C35.362,28.89 36.973,30.503 36.917,32.273C36.851,34.364 35.208,35.648 33.694,35.616C31.763,35.577 30.415,34.242 30.376,32.3C30.339,30.291 32.117,28.698 33.609,28.898ZM22.698,17.85C22.862,17.481 23.176,17.33 23.569,17.332C24.242,17.34 24.485,17.801 24.646,18.352C24.354,19.524 24.176,19.641 23.018,19.409C22.569,18.967 22.435,18.445 22.698,17.85ZM19.448,27.885C19.478,26.203 20.699,24.993 22.357,25.005C24.025,25.015 25.448,26.469 25.383,28.097C25.317,29.757 24,31.221 22.542,31.14C20.606,31.033 19.285,29.522 19.448,27.885ZM16.698,54.354C16.701,50.374 16.691,46.391 16.713,42.411C16.72,40.988 16.781,39.567 16.852,38.147C16.925,36.719 17.798,35.865 19.236,35.829C20.548,35.794 21.865,35.829 23.176,35.816C23.988,35.809 24.581,36.119 24.941,36.924C24.542,38.067 24.41,38.181 23.396,38.191C22.301,38.203 21.206,38.193 20.112,38.193C19.756,38.193 19.4,38.193 18.932,38.193C18.758,40.263 18.868,42.223 18.844,44.177C18.819,46.113 18.815,48.05 18.844,49.986C18.873,51.945 18.953,53.905 19.012,55.784C18.588,56.324 18.132,56.47 17.588,56.287C16.986,56.085 16.786,55.582 16.713,55.013C16.681,54.794 16.696,54.571 16.698,54.354ZM16.14,108.157C15.399,108.157 14.811,107.574 14.826,106.846C14.838,106.168 15.399,105.599 16.079,105.575C16.793,105.55 17.359,106.141 17.359,106.912C17.357,107.666 16.879,108.154 16.14,108.157ZM19.838,133.98C18.919,133.609 18.576,133.191 18.658,132.596C18.724,132.113 19.217,131.673 19.709,131.654C20.246,131.634 20.804,132.042 20.933,132.552C21.077,133.123 20.738,133.579 19.838,133.98ZM27.492,141.872C26.292,141.85 25.402,140.937 25.453,139.785C25.505,138.643 26.387,137.775 27.484,137.787C28.601,137.799 29.562,138.79 29.535,139.905C29.505,141.057 28.635,141.894 27.492,141.872ZM134.437,77.941C134.618,76.123 135.457,75.025 136.59,75.137C137.775,75.254 138.526,75.83 138.563,77.197C138.597,78.466 137.826,79.408 135.998,79.45C130.488,84.833 124.958,90.239 119.48,95.591C118.458,95.591 117.549,95.591 116.508,95.591C122.564,89.629 128.537,83.75 134.437,77.941ZM119.402,79.928C120.033,80.094 120.494,80.34 120.516,81.021C120.538,81.685 120.111,81.985 119.631,82.21C118.907,82.161 118.473,81.829 118.354,81.17C118.263,80.658 118.597,80.279 119.402,79.928ZM136.19,88.387C135.727,88.379 135.322,88.457 134.913,89.002C134.913,90.83 134.913,92.714 134.913,94.659C134.279,94.659 133.713,94.659 133.028,94.659C132.96,94.339 132.831,94.005 132.826,93.668C132.806,92.211 132.794,90.754 132.831,89.299C132.858,88.25 133.167,87.279 134.035,86.605C134.369,86.346 134.779,86.102 135.183,86.036C136.512,85.819 137.86,85.905 139.197,86.012C139.877,86.066 140.221,86.537 140.201,87.208C140.184,87.828 139.76,88.348 139.136,88.377C138.155,88.418 137.173,88.401 136.19,88.387ZM137.002,100.355C137.019,102.258 135.632,103.715 133.755,103.754C131.904,103.791 130.293,102.249 130.302,100.545C130.315,98.236 131.973,96.943 133.482,96.958C135.469,96.972 136.983,98.41 137.002,100.355ZM139.962,70.815C139.804,71.223 139.428,71.372 138.736,71.306C138.226,71.257 137.8,70.869 137.751,70.356C137.714,69.971 137.907,69.695 138.219,69.402C138.604,69.039 139.209,69 139.616,69.314C139.996,69.607 140.16,70.31 139.962,70.815ZM126.575,99.205C126.575,99.913 126.575,100.55 126.575,101.189C125.785,101.372 113.026,101.436 111.01,101.27C111.659,100.535 112.285,99.83 112.836,99.208C117.498,99.205 122.003,99.205 126.575,99.205ZM124.249,113.831C122.098,113.858 120.238,112.01 120.348,109.843C120.467,107.476 122.15,105.799 124.163,105.88C126.202,105.882 128.047,107.759 128.05,109.831C128.052,111.976 126.314,113.804 124.249,113.831ZM116.057,124.318C117.215,124.335 118.134,125.272 118.117,126.424C118.1,127.629 117.178,128.554 116.045,128.508C114.87,128.459 114.033,127.539 114.067,126.334C114.102,125.126 114.916,124.303 116.057,124.318ZM115.467,108.752C115.711,108.55 116.057,108.511 116.337,108.66C116.978,108.999 117.137,109.414 116.849,110.063C116.659,110.488 116.218,110.749 115.757,110.702C115.282,110.654 115.033,110.451 114.904,110.063C114.752,109.624 114.943,109.184 115.467,108.752ZM117.961,120.457C116.81,120.452 116.086,119.764 116.076,118.668C116.067,117.431 116.908,116.513 118.073,116.579C119.165,116.64 119.95,117.558 119.955,118.614C119.963,119.559 119.214,120.523 117.961,120.457ZM111.559,109.653C111.522,111.442 110.225,112.769 108.545,112.735C106.809,112.701 105.495,111.278 105.551,109.494C105.605,107.747 106.943,106.502 108.699,106.563C110.359,106.619 111.593,107.954 111.559,109.653ZM111.861,117.56C112.114,117.56 112.368,117.587 112.729,117.606C112.909,117.89 113.063,118.129 113.18,118.312C113.185,118.958 112.753,119.51 112.149,119.644C111.868,119.705 111.568,119.7 111.278,119.7C105.844,119.703 100.412,119.703 94.977,119.7C94.614,119.7 94.243,119.708 93.887,119.647C93.261,119.537 92.881,119.066 92.912,118.519C92.946,117.946 93.324,117.619 94.026,117.565C94.173,117.553 94.319,117.56 94.463,117.56C100.265,117.558 106.063,117.558 111.861,117.56ZM107.794,127.237C107.794,128.313 106.953,129.167 105.871,129.194C104.717,129.223 103.847,128.384 103.842,127.246C103.837,126.06 104.652,125.157 105.732,125.145C106.824,125.13 107.794,126.114 107.794,127.237ZM96.162,124.847C96.491,124.847 96.82,124.833 97.145,124.872C97.883,124.957 98.315,125.409 98.332,126.07C98.347,126.675 97.866,127.112 97.091,127.19C96.911,127.207 96.728,127.198 96.545,127.198C88.412,127.19 80.278,127.178 72.145,127.183C71.304,127.183 70.621,127.019 70.365,126.029C70.553,125.089 71.157,124.833 71.979,124.838C74.349,124.85 76.721,124.845 79.091,124.845C84.781,124.845 90.472,124.845 96.162,124.847ZM123.393,133.589C123.393,128.327 123.393,123.066 123.393,117.807C123.393,117.484 123.393,117.162 123.393,116.725C124.161,116.725 124.773,116.725 125.512,116.725C125.526,117.182 125.548,117.606 125.548,118.029C125.551,123.342 125.553,128.652 125.556,133.965L123.391,133.965C123.393,133.84 123.393,133.714 123.393,133.589ZM127.604,93.646C126.977,93.665 126.47,93.214 126.443,92.618C126.416,92.023 126.984,91.484 127.633,91.484C128.252,91.484 128.601,91.847 128.618,92.511C128.635,93.199 128.255,93.626 127.604,93.646ZM130.863,141.003C130.156,140.847 129.976,140.254 130.293,139.129C131.292,138.634 131.553,138.702 132.265,139.683C131.98,140.801 131.582,141.162 130.863,141.003ZM133.935,134.304C132.343,134.255 131.034,132.876 131.092,131.307C131.156,129.609 132.387,128.435 134.05,128.491C135.666,128.547 136.917,129.897 136.839,131.503C136.761,133.084 135.449,134.348 133.935,134.304ZM140.355,122.775C140.184,123.339 139.748,123.642 139.218,123.656C137.87,123.693 136.51,123.747 135.174,123.617C133.726,123.478 132.967,122.526 132.965,121.101C132.958,117.301 132.97,113.502 132.975,109.702C132.975,109.524 132.999,109.345 133.018,109.048C133.687,109.048 134.252,109.048 134.915,109.048C134.915,113.109 134.915,117.113 134.915,121.196C135.281,121.238 135.559,121.296 135.834,121.299C136.966,121.306 138.097,121.27 139.228,121.306C140.106,121.333 140.586,122.004 140.355,122.775ZM139.701,109.209C139.097,109.231 138.699,108.843 138.68,108.206C138.66,107.5 139.131,106.949 139.748,106.959C140.301,106.968 140.784,107.432 140.815,107.986C140.854,108.621 140.34,109.184 139.701,109.209ZM143.47,52.587C143.3,53.959 143.058,55.338 142.666,56.658C141.798,59.572 139.943,61.698 137.197,63.028C136.771,63.235 136.349,63.45 135.925,63.662C133.343,64.946 131.86,67.02 131.461,69.878C131.404,70.273 131.312,70.666 131.236,71.059C130.666,74.071 128.001,76.092 124.941,76.131C123.044,76.155 121.145,76.135 119.143,76.135C118.329,76.936 117.478,77.783 116.615,78.617C113.989,81.156 111.366,83.696 108.723,86.22C108.36,86.566 108.155,86.944 108.053,87.43C107.19,91.535 103.196,93.529 99.376,91.774C99.244,91.713 99.11,91.652 99.034,91.618C96.93,93.673 94.848,95.706 92.778,97.731C92.33,97.692 91.937,97.624 91.545,97.634C90.384,97.658 89.653,98.266 89.333,99.391C89.011,100.528 89.306,101.502 90.147,102.28C90.935,103.01 91.905,103.222 92.888,102.776C93.902,102.314 94.575,101.514 94.68,100.343C94.699,100.125 94.682,99.906 94.682,99.586C95.979,98.363 97.303,97.119 98.612,95.886C100.329,95.886 101.967,95.886 103.654,95.886C103.996,95.562 104.34,95.242 104.678,94.915C107.277,92.404 109.874,89.888 112.478,87.379C113.241,86.644 114.019,85.924 114.794,85.204C115.486,84.562 116.296,84.528 116.949,85.097C117.734,85.778 117.871,86.769 117.276,87.535C117.142,87.708 116.978,87.857 116.822,88.011C110.742,94.019 104.666,100.03 98.581,106.031C95.25,109.314 91.908,112.584 88.558,115.844C87.853,116.53 87.09,117.15 86.368,117.789C82.212,117.789 78.125,117.789 73.908,117.789C70.665,120.857 67.381,123.966 64.124,127.046C63.029,127.046 62.044,127.046 61.061,127.046C59.199,127.046 57.336,127.034 55.476,127.056C54.874,127.063 54.349,126.914 53.808,126.646C52.462,125.98 51.073,125.482 49.522,125.504C48.361,125.521 47.291,125.814 46.248,126.263C45.463,126.602 44.765,127.051 44.617,128.059C42.868,127.656 41.642,128.569 40.44,129.543C39.382,130.402 39.387,130.407 38.497,130.524C38.197,130.341 37.861,130.133 37.495,129.906C36.659,130.192 35.876,130.744 34.886,130.485C34.742,130.831 34.645,131.139 34.499,131.417C34.067,132.237 33.45,132.41 32.509,132.391C31.034,132.359 29.927,131.812 29.096,130.597C28.903,130.316 28.518,130.172 28.23,129.95C27.977,129.755 27.623,129.589 27.518,129.326C27.223,128.601 26.68,128.479 26.017,128.518C25.726,128.535 25.439,128.547 25.202,128.423C24.276,127.949 23.347,127.478 22.306,126.946C22.223,126.705 22.433,126.387 22.633,126.099C23.325,125.104 23.398,124.093 22.852,123.002C22.679,122.656 22.581,122.231 22.581,121.843C22.574,120.34 21.616,119.361 20.658,118.436C20.241,118.034 19.807,117.667 19.463,117.192C19.083,116.662 18.651,116.169 18.212,115.622C18.21,114.607 18.293,114.549 19.985,114.431C21.872,113.116 22.93,111.261 23.344,109.016C23.925,105.88 23.218,103.073 21.094,100.672C20.736,100.267 20.277,99.95 19.846,99.615C19.522,99.364 19.251,99.105 19.136,98.683C18.836,97.558 18.502,96.445 18.149,95.218C18.159,95.196 18.188,95.047 18.268,94.932C18.785,94.193 18.761,93.399 18.402,92.64C17.922,91.62 17.378,90.627 16.828,89.643C16.489,89.038 16.079,88.475 15.713,87.886C15.24,87.125 14.982,86.305 15.028,85.392C15.072,84.531 14.826,83.767 14.333,83.03C13.034,81.09 11.8,79.103 10.537,77.136C10.379,76.89 10.233,76.628 10.03,76.421C9.079,75.45 8.631,74.234 8.224,72.97C7.507,70.747 6.692,68.558 5.949,66.342C5.681,65.544 5.556,64.716 5.937,63.926C6.468,63.655 6.819,64.006 7.19,64.194C8.033,64.624 8.85,65.112 9.701,65.527C10.854,66.09 12.039,66.278 13.304,65.842C13.646,65.724 14.094,65.822 14.467,65.925C14.921,66.049 15.35,66.271 15.782,66.466C17.188,67.101 18.693,67.24 20.18,67.072C20.975,66.981 21.73,66.493 22.491,66.149C22.75,66.032 22.962,65.81 23.269,65.58C24.11,65.58 25.017,65.58 26.043,65.58C26.058,65.134 26.082,64.748 26.082,64.36C26.08,58.074 26.078,51.787 26.073,45.5C26.073,45.281 26.065,45.061 26.073,44.841C26.114,43.821 26.736,43.106 27.628,43.048C28.53,42.989 29.401,43.714 29.532,44.663C29.576,44.985 29.557,45.32 29.557,45.649C29.564,49.598 29.569,53.544 29.576,57.493C29.576,57.815 29.576,58.139 29.576,58.54C30.946,58.649 32.241,58.576 33.579,58.588C33.579,52.011 33.579,45.522 33.579,38.957C34.289,38.957 34.957,38.957 35.73,38.957C35.73,45.486 35.73,51.972 35.73,58.513C36.074,58.549 36.317,58.598 36.564,58.598C38.865,58.61 41.164,58.615 43.466,58.62C43.722,58.62 43.98,58.62 44.231,58.584C45.077,58.457 45.592,57.844 45.587,56.995C45.582,56.136 44.973,55.438 44.136,55.35C43.956,55.33 43.771,55.352 43.59,55.357C41.018,55.406 39.158,53.415 39.443,50.862C39.628,49.205 40.387,47.858 41.908,47.084C42.476,46.794 43.146,46.708 43.934,46.481C43.978,46.354 44.127,46.098 44.151,45.832C44.195,45.324 44.173,44.812 44.173,44.299C44.173,38.672 44.163,33.042 44.178,27.414C44.185,24.895 44.239,22.374 44.27,19.856C44.275,19.499 44.27,19.143 44.27,18.692C42.934,18.692 41.708,18.692 40.465,18.692C40.228,18.04 40.401,17.457 40.321,16.903C41.094,16.664 45.275,16.598 47.042,16.795C47.067,16.944 47.111,17.113 47.116,17.283C47.442,26.74 47.318,36.2 47.35,45.659C47.352,46.398 47.296,47.116 47.018,47.809C46.489,49.119 45.777,49.598 44.351,49.603C43.768,49.605 43.193,49.566 42.739,50.081C42.076,50.835 42.118,51.609 42.917,52.238C43.032,52.329 43.161,52.395 43.344,52.507C43.805,52.478 44.314,52.458 44.821,52.414C45.631,52.343 46.338,52.592 46.962,53.085C49.595,55.155 49.468,59.655 46.728,61.573C45.953,62.117 45.094,62.335 44.151,62.332C39.843,62.32 35.532,62.327 31.224,62.327C30.72,62.327 30.212,62.327 29.637,62.327C29.637,63.404 29.637,64.407 29.637,65.541C36.929,65.585 44.219,65.536 51.594,65.578C55.644,69.427 59.477,73.546 63.577,77.512C63.577,78.349 63.558,79.223 63.582,80.096C63.604,80.914 63.67,81.731 63.731,82.788C59.023,78.239 54.683,73.661 50.224,69.349C42.03,69.349 33.999,69.349 25.863,69.349C23.62,71.174 21.604,73.344 19.297,75.433C18.539,75.433 17.666,75.398 16.798,75.442C15.738,75.496 15.121,76.333 15.362,77.317C15.516,77.949 16.081,78.432 16.791,78.476C17.225,78.503 17.664,78.459 18.103,78.439C18.32,78.43 18.539,78.371 18.754,78.386C19.005,78.403 19.251,78.478 19.448,78.517C19.536,79.635 19.48,80.746 19.729,81.785C20.628,85.546 22.918,88.03 26.728,88.972C27.326,89.119 27.955,89.19 28.569,89.192C38.061,89.209 47.552,89.214 57.046,89.209C58.394,89.209 59.742,89.138 61.137,89.097C62.59,87.737 64.053,86.371 65.528,84.992C66.362,85.807 67.157,86.586 68.042,87.45C66.152,89.28 64.309,91.076 62.405,92.814C62.197,92.831 62.017,92.858 61.839,92.858C50.153,92.858 38.47,92.855 26.785,92.85C26.056,92.85 25.324,92.836 24.595,92.853C24.037,92.865 23.515,92.992 23.093,93.404C22.255,94.219 22.459,95.457 23.542,95.901C23.866,96.033 24.249,96.069 24.607,96.072C30.815,96.099 37.022,96.116 43.229,96.133C44.102,96.135 44.973,96.133 45.997,96.133C44.899,97.568 43.483,98.478 42.293,99.669C41.923,99.669 41.559,99.669 41.198,99.669C36.781,99.667 32.363,99.659 27.943,99.671C27.514,99.671 27.053,99.71 26.668,99.872C26.107,100.108 25.709,100.582 25.69,101.221C25.673,101.853 26.014,102.344 26.558,102.644C26.838,102.798 27.167,102.89 27.487,102.939C27.918,103.005 28.36,103.022 28.796,103.025C32.704,103.032 36.61,103.027 40.518,103.042C41.098,103.044 41.698,103.049 42.254,103.186C44.436,103.72 45.519,105.319 45.933,107.371C46.321,109.284 45.589,110.893 44.129,112.145C43.268,112.882 42.215,113.197 41.089,113.201C38.168,113.216 35.247,113.194 32.326,113.221C31.714,113.226 31.08,113.297 30.493,113.463C27.845,114.209 26.153,117.111 26.941,119.61C27.555,121.56 28.957,122.705 30.956,123.049C31.778,123.19 32.629,123.217 33.465,123.22C37.19,123.232 40.913,123.224 44.639,123.21C46.901,123.2 49.164,123.149 51.426,123.146C53.177,123.144 54.93,123.215 56.68,123.202C58.833,123.188 60.983,123.124 63.273,123.078C64.86,121.589 66.503,120.035 68.163,118.497C69.824,116.96 71.504,115.439 73.252,113.838C77.338,113.838 81.495,113.838 85.652,113.838C86.766,112.769 87.841,111.74 89.036,110.593C83.279,110.593 77.682,110.593 72.055,110.593C70.68,111.871 69.297,113.172 67.9,114.453C67.093,115.193 66.247,115.893 65.445,116.638C64.987,117.065 64.48,117.214 63.858,117.211C60.388,117.189 56.919,117.199 53.452,117.201C53.05,117.201 52.648,117.245 52.248,117.216C51.497,117.162 50.917,117.438 50.392,117.968C49.7,118.666 48.956,119.315 48.208,120.008C47.949,120.008 47.696,120.008 47.442,120.008C42.549,120.013 37.656,120.018 32.763,120.02C32.47,120.02 32.173,120.035 31.89,119.986C31.022,119.835 30.256,119.019 30.266,118.295C30.278,117.421 31.073,116.574 32.009,116.464C32.297,116.43 32.592,116.45 32.885,116.45C37.339,116.45 41.793,116.45 46.328,116.45C47.325,115.556 48.357,114.634 49.432,113.672C54.04,113.672 58.672,113.672 63.212,113.672C64.333,112.967 68.99,108.672 70.082,107.352C70.082,104.948 70.121,102.502 70.06,100.057C70.038,99.198 70.292,98.602 70.945,98.075C71.877,97.324 72.759,96.511 73.795,95.61C73.795,99.405 73.795,103.015 73.795,106.527C73.903,106.646 73.925,106.676 73.949,106.7C73.976,106.724 74.007,106.763 74.037,106.763C78.455,106.776 82.872,106.785 87.29,106.793C87.8,106.793 88.309,106.771 88.821,106.751C88.887,106.749 88.948,106.69 89.089,106.617C89.111,106.273 89.138,105.882 89.17,105.409C88.887,105.167 88.604,104.887 88.287,104.655C86.198,103.134 85.452,99.996 87.058,97.375C87.934,95.947 89.114,94.922 90.864,94.71C91.101,94.681 91.371,94.561 91.535,94.395C93.222,92.682 94.892,90.952 96.564,89.224C96.586,89.199 96.589,89.158 96.623,89.06C95.965,87.43 95.782,85.736 96.513,84.013C97.089,82.652 97.996,81.592 99.273,80.858C101.148,79.777 104.593,79.686 107.114,82.927C108.913,81.17 110.698,79.415 112.497,77.673C114.306,75.923 116.125,74.186 117.932,72.453C119.599,72.453 121.204,72.458 122.808,72.45C123.5,72.448 124.195,72.438 124.888,72.402C126.641,72.309 127.906,70.984 128.055,69.59C128.135,68.831 128.301,68.077 128.496,67.338C129.02,65.353 130.312,63.865 131.724,62.466C132.477,61.722 133.277,61.026 134.055,60.309C135.457,59.011 135.457,59.011 137.222,58.581C138.131,57.766 138.804,56.739 139.116,55.653C138.343,55.394 137.544,55.56 136.766,55.528C136.003,55.496 135.235,55.521 134.442,55.521C133.067,56.839 131.697,58.149 130.327,59.462C129.535,60.221 128.737,60.97 127.955,61.739C127.54,62.144 127.077,62.344 126.487,62.342C123.018,62.33 119.548,62.349 116.081,62.33C114.821,62.322 114.082,61.615 114.067,60.504C114.053,59.45 114.672,58.771 115.735,58.752C117.013,58.73 118.29,58.757 119.57,58.757C121.396,58.757 123.222,58.74 125.048,58.75C125.67,58.752 126.133,58.547 126.594,58.1C128.686,56.063 130.824,54.074 133.006,52.007C134.518,52.007 136.086,52.007 137.653,52.007C138.421,52.007 139.187,52.036 139.952,52.004C141.062,51.96 141.627,51.313 141.564,50.235C141.525,49.571 141.223,49.141 140.576,48.946C140.233,48.841 139.86,48.79 139.501,48.79C135.959,48.78 132.416,48.788 128.876,48.792C128.662,48.792 128.447,48.824 128.147,48.846C128.208,49.093 128.237,49.295 128.308,49.478C128.993,51.23 127.986,53.429 126.431,54.571C124.944,55.662 122.774,55.672 121.311,54.571C120.477,53.947 120.05,53.102 120.058,52.024C120.08,48.807 120.072,45.59 120.075,42.374C120.077,39.597 120.075,36.819 120.075,34.01C122.471,31.482 123.308,28.429 122.832,25.03C122.406,21.979 120.87,19.56 118.283,17.859C113.592,14.777 105.651,15.521 102.626,23.06C102.123,22.889 101.797,22.482 101.453,22.133C100.814,21.483 100.241,20.768 99.605,20.117C99.229,19.736 98.82,19.355 98.354,19.104C97.745,18.772 97.142,18.953 96.664,19.453C96.194,19.948 96.048,20.551 96.33,21.169C96.506,21.554 96.796,21.903 97.086,22.223C98.591,23.865 100.112,25.491 101.855,27.372C101.843,28.353 102.277,29.671 102.882,30.921C103.486,32.175 104.274,33.32 105.312,34.242C105.312,34.686 105.312,35.079 105.312,35.56C104.73,35.402 104.439,34.965 104.108,34.625C100.912,31.365 97.727,28.092 94.558,24.807C94.058,24.29 93.571,23.861 92.785,23.902C91.644,23.965 90.869,25.127 91.367,26.169C91.581,26.616 91.937,27.014 92.293,27.37C96.187,31.277 100.095,35.17 103.996,39.07C104.33,39.401 104.63,39.768 104.942,40.112C104.956,47.096 104.99,54.035 104.927,60.843C99.273,66.222 93.741,71.479 88.219,76.743C87.319,77.6 86.464,78.503 85.561,79.354C85.193,79.701 84.786,80.028 84.345,80.272C83.611,80.677 82.685,80.521 82.224,79.994C81.812,79.523 81.741,78.569 82.136,77.929C82.363,77.561 82.66,77.226 82.972,76.924C87.831,72.228 92.7,67.543 97.559,62.847C98.868,61.58 100.146,60.28 101.385,59.047C101.385,53.246 101.385,47.584 101.385,41.759C97.106,37.43 92.798,32.981 88.273,28.585C87.519,29.356 86.844,30.045 86.093,30.813C90.14,34.962 94.134,39.06 98.13,43.155C98.13,44.012 98.13,44.844 98.13,45.691C97.125,44.724 96.145,43.782 95.094,42.772C94.624,42.713 94.085,42.635 93.544,42.586C92.827,42.52 92.256,42.254 91.735,41.71C89.277,39.16 86.776,36.651 84.286,34.13C84.084,33.925 83.852,33.744 83.55,33.476C83.158,33.976 82.78,34.455 82.402,34.935C82.341,34.889 82.277,34.845 82.216,34.799C82.216,35.123 82.216,35.448 82.216,35.77C82.214,39.753 82.212,43.738 82.207,47.721C82.207,48.087 82.219,48.456 82.17,48.817C82.07,49.532 81.524,50.081 80.819,50.23C80.171,50.367 79.476,50.11 79.144,49.481C78.915,49.044 78.725,48.526 78.72,48.046C78.689,43.772 78.701,39.499 78.701,35.199C77.85,35.079 76.923,35.077 76.09,34.796C75.251,34.513 74.505,33.952 73.778,33.544C73.778,34.513 73.778,35.56 73.778,36.607C73.786,46.769 73.798,56.929 73.795,67.091C73.795,67.486 73.759,67.904 73.627,68.27C73.303,69.158 72.508,69.549 71.499,69.39C70.762,69.275 70.209,68.624 70.126,67.762C70.107,67.545 70.119,67.323 70.119,67.106C70.119,56.36 70.119,45.612 70.119,34.867C70.119,34.137 70.119,33.408 70.119,32.629C69.899,32.568 69.702,32.512 69.473,32.449C69.273,32.69 69.09,32.91 68.909,33.129C67.566,34.755 65.835,35.555 63.736,35.536C62.714,35.526 61.693,35.463 60.674,35.431C60.279,35.419 59.884,35.428 59.435,35.428C59.435,38.906 59.435,42.325 59.435,45.81C61.152,46.547 62.21,47.894 62.778,49.632C63.265,51.123 63.046,52.585 62.485,54.017C61.503,56.529 58.945,57.937 56.251,57.615C53.362,57.268 51.09,54.867 50.8,52.16C50.505,49.422 52.262,46.237 55.839,45.329C55.839,41.893 55.839,38.437 55.839,34.938C54.084,34.337 53.676,32.961 53.681,31.294C53.698,24.605 53.689,17.916 53.689,11.229C53.689,11.009 53.676,10.789 53.698,10.572C53.793,9.657 54.427,9.008 55.222,9.003C56.054,8.998 56.861,9.674 56.951,10.536C57.014,11.151 56.978,11.778 56.968,12.398C56.948,13.852 57.633,14.609 59.087,14.723C59.23,14.736 59.374,14.758 59.525,14.777C60.098,15.204 60.627,15.734 60.727,16.415C60.815,17.025 60.591,17.681 60.474,18.528C60.793,18.814 61.198,19.175 61.737,19.658C61.734,19.653 61.771,19.834 61.851,19.992C62.636,21.562 62.015,22.894 60.942,23.943C58.589,26.242 58.93,26.828 58.923,29.086C58.921,29.886 58.923,30.689 58.923,31.475C59.993,31.814 62.536,31.88 63.477,31.619C64.46,31.345 65.272,30.811 65.906,30.018C66.315,29.505 66.676,28.954 67.069,28.427C67.305,28.109 67.561,27.804 67.817,27.482C68.817,27.643 69.668,28.068 70.533,28.427C71.24,28.72 71.891,29.142 72.593,29.444C73.188,29.701 73.822,29.867 74.439,30.072C74.775,30.184 75.149,30.242 75.446,30.423C77.523,31.69 79.498,31.326 81.4,30.059C82.002,29.657 82.55,29.159 83.072,28.651C87.483,24.332 91.879,20 96.282,15.673C98.573,13.42 100.882,11.185 103.164,8.92C103.664,8.422 104.191,8.195 104.908,8.198C112.319,8.207 119.733,8.19 127.145,8.183C127.428,8.183 127.711,8.222 128.069,8.249C128.425,10.331 128.774,12.371 129.11,14.335C128.03,16.366 128.04,16.505 129.347,18.262C128.806,19.238 129.159,20.112 129.839,20.92C129.932,21.03 130.042,21.144 130.085,21.278C130.344,22.033 130.583,22.792 130.822,23.526C131.134,23.724 131.407,23.895 131.756,24.114C131.573,24.624 131.292,25.105 131.246,25.61C131.202,26.091 131.404,26.594 131.514,27.167C131.719,27.302 131.987,27.48 132.324,27.702C132.294,28.151 132.265,28.612 132.226,29.208C132.355,29.388 132.565,29.679 132.777,29.976C132.777,30.455 132.723,30.938 132.789,31.402C132.919,32.317 132.531,32.956 131.831,33.461C131.512,33.691 131.166,33.886 130.834,34.096C130.578,33.969 130.385,33.871 130.193,33.779C128.981,33.2 128.184,33.298 127.231,34.254C125.916,35.577 125.295,37.207 125.595,39.05C125.987,41.464 127.311,43.177 129.688,44.016C132.519,45.017 135.164,43.487 136.286,41.508C136.554,41.034 136.778,40.539 137.058,39.982C138.95,41.254 140.85,42.393 143.102,41.024C143.634,41.359 143.739,41.82 143.724,42.301C143.612,45.725 143.895,49.168 143.47,52.587ZM69.107,73.37C70.265,73.17 71.221,72.882 72.181,72.86C75.858,72.777 78.835,75.564 79.049,79.245C79.12,80.44 78.754,81.58 78.142,82.578C76.316,85.563 74.151,86.298 71.114,85.658C67.776,84.958 66.33,82.139 66.245,79.581C66.225,79.042 66.32,78.488 66.432,77.954C66.535,77.456 66.73,76.98 66.925,76.365C61.727,71.067 56.544,65.783 51.192,60.329C52.957,60.302 54.498,60.358 56.078,60.421C60.586,64.675 64.767,69.253 69.107,73.37ZM63.373,43.006C62.461,42.555 62.051,41.671 62.293,40.732C62.524,39.824 63.239,39.277 64.216,39.255C65.596,39.226 66.386,39.885 66.606,41.268C66.679,41.735 66.757,42.208 66.757,42.679C66.771,50.535 66.774,58.393 66.776,66.252C66.776,66.432 66.757,66.61 66.742,66.901C65.903,66.217 65.233,65.502 64.755,64.641C64.592,64.348 64.597,63.938 64.594,63.579C64.543,57.368 64.501,51.16 64.46,44.949C64.458,44.441 64.46,43.933 64.46,43.421C64.041,43.265 63.692,43.165 63.373,43.006ZM77.974,54.323C78.969,53.276 80.598,53.28 81.58,54.335C82.626,55.452 82.353,56.905 80.771,58.33C80.771,58.955 80.771,59.643 80.771,60.333C80.771,61.019 80.771,61.705 80.771,62.503C80.164,62.503 79.727,62.508 79.291,62.498C79.188,62.496 79.088,62.449 78.913,62.4C78.913,61.024 78.913,59.65 78.913,58.347C77.128,56.78 76.853,55.504 77.974,54.323ZM81.629,65.329C81.729,65.366 81.843,65.366 82.058,65.4C84.391,63.133 86.763,60.826 89.197,58.464C88.989,58.315 88.863,58.196 88.711,58.122C84.652,56.114 83.465,50.469 87.463,46.921C90.247,44.448 94.785,44.912 97.037,48.312C99.444,51.941 98.31,56.185 94.716,58.188C93.907,58.64 93.219,59.189 92.573,59.845C90.113,62.339 87.619,64.799 85.14,67.274C84.959,67.452 84.791,67.643 84.586,67.862C84.786,69.092 84.559,70.251 83.774,71.255C82.816,72.475 81.595,73.048 80.032,72.694C78.474,72.341 77.148,71.064 76.95,69.636C76.546,66.73 79.325,64.516 81.629,65.329ZM81.824,94.532C78.998,94.5 76.682,92.243 76.716,89.463C76.753,86.556 79.145,84.118 81.919,84.216C84.655,84.226 86.873,86.566 86.863,89.431C86.854,92.282 84.601,94.563 81.824,94.532ZM83.279,100.596C83.265,102.471 82.041,103.725 80.227,103.725C78.398,103.725 76.95,102.361 76.933,100.621C76.916,98.864 78.496,97.185 80.129,97.226C81.953,97.277 83.294,98.71 83.279,100.596ZM61.422,103.159C59.481,103.159 57.553,103.159 55.702,103.159C53.355,105.387 51.492,105.907 49.6,104.911C47.884,104.008 46.84,101.98 47.159,100.162C47.506,98.188 49.103,96.579 50.992,96.304C53.174,95.986 54.683,96.967 56.102,99.667C57.297,99.667 58.526,99.667 59.903,99.667C63.687,96.304 67.256,92.543 71.104,89.063C71.916,89.063 72.706,89.063 73.61,89.063C73.61,89.944 73.61,90.703 73.61,91.513C69.57,95.376 65.511,99.254 61.422,103.159ZM66.735,106.317C66.727,106.536 66.542,106.79 66.369,106.956C65.194,108.096 64.002,109.216 62.919,110.244C59.891,110.244 57.029,110.244 54.169,110.244C54.135,110.156 54.098,110.068 54.064,109.98C55.256,108.865 56.449,107.749 57.626,106.651C59.186,106.651 60.679,106.651 62.195,106.651C63.719,105.358 64.984,103.776 66.754,102.627C66.752,103.935 66.771,105.126 66.735,106.317ZM51.275,110.002C50.909,110.517 50.288,110.568 49.451,110.153C49.049,108.835 49.356,108.396 50.729,108.418C51.47,109.121 51.607,109.533 51.275,110.002ZM39.116,82.337C44.953,82.298 50.79,82.307 56.627,82.315C57.277,82.315 57.948,82.339 58.577,82.488C59.369,82.676 59.937,83.181 60.042,84.06C60.154,84.992 59.601,85.705 58.665,85.814C58.304,85.856 57.936,85.853 57.572,85.853C50.97,85.851 44.365,85.822 37.763,85.863C36.642,85.871 35.691,85.634 34.83,84.938C34.55,84.714 34.23,84.536 33.86,84.289C32.295,85.778 30.405,86.246 28.313,86.017C26.914,85.863 25.753,85.209 24.754,84.252C22.693,82.281 21.911,78.84 23.588,76.016C25.161,73.37 28.001,72.189 31.015,73.063C32.641,73.534 33.931,74.522 34.847,75.972C35.754,77.405 35.871,78.979 35.666,80.604C36.503,81.856 37.639,82.346 39.116,82.337ZM37.766,74.249C37.739,73.829 38.009,73.302 38.339,73.139C38.707,72.956 39.272,73.024 39.558,73.331C39.699,73.483 39.828,73.69 39.862,73.89C39.938,74.322 39.957,74.769 39.455,75.225C39.226,75.225 38.865,75.272 38.521,75.213C38.095,75.145 37.797,74.71 37.766,74.249ZM42.968,76.109C43.025,74.164 44.363,72.772 46.165,72.785C47.725,72.609 49.437,74.339 49.356,75.984C49.268,77.78 47.91,79.188 46.128,79.159C44.507,79.135 42.925,77.607 42.968,76.109ZM52.367,77.304C52.477,76.814 52.857,76.526 53.396,76.526C53.964,76.526 54.371,76.841 54.501,77.38C54.586,77.734 54.527,77.99 54.262,78.234C53.801,78.652 53.086,78.652 52.623,78.237C52.34,77.985 52.279,77.702 52.367,77.304ZM90.299,90.695C90.299,86.825 90.299,83.218 90.299,79.594C90.669,78.974 95.728,74.161 97.118,73.124C97.462,73.124 97.849,73.124 98.235,73.124C98.515,74.061 98.286,74.798 97.618,75.435C96.562,76.443 95.521,77.461 94.482,78.486C93.785,79.174 93.105,79.879 92.432,80.562C92.432,81.922 92.432,83.196 92.432,84.47C92.432,85.746 92.432,87.022 92.432,88.413C91.805,89.085 91.14,89.795 90.299,90.695ZM116.832,32.207C116.832,33.649 116.832,35.143 116.832,36.714C115.984,37.32 115.133,37.93 114.184,38.606C114.184,35.743 114.184,32.99 114.184,30.23C116.61,28.385 116.666,26.957 116.157,25.396C115.601,23.685 114.172,22.779 112.373,22.838C110.766,22.889 109.374,23.919 109.004,25.471C108.618,27.084 108.643,28.646 111.234,30.357C111.234,33.132 111.234,35.826 111.234,38.725C110.23,37.952 109.291,37.376 108.477,36.539C108.477,35.126 108.477,33.708 108.477,32.278C106.573,30.828 105.705,28.866 105.646,26.574C105.6,24.681 106.239,22.938 107.597,21.61C110.391,18.88 114.499,18.872 117.276,21.435C119.731,23.697 120.957,28.402 116.832,32.207ZM116.866,55.101C115.769,55.286 115.021,55.274 114.175,55.052C114.175,50.696 114.175,46.325 114.175,41.866C115.001,41.366 115.776,40.717 116.759,40.385C116.964,41.117 117.047,53.52 116.866,55.101ZM110.088,53.022C111.702,53.01 112.614,54.525 112.563,55.54C112.505,56.69 111.754,57.93 110.106,57.92C108.709,57.91 107.536,56.846 107.641,55.565C107.765,53.998 108.73,53.034 110.088,53.022ZM108.567,40.002C109.486,40.722 110.369,41.415 111.227,42.088C111.227,44.727 111.227,47.306 111.227,49.949C110.269,49.949 109.445,49.949 108.64,49.949C108.414,49.11 108.362,41.559 108.567,40.002ZM109.674,61.21C110.04,60.873 110.452,60.59 110.927,60.216C111.195,61.026 111.059,61.715 111.081,62.386C111.103,63.079 111.086,63.772 111.086,64.304C109.906,65.539 108.84,66.688 107.738,67.799C106.634,68.912 105.493,69.985 104.332,71.111C104.276,71.655 104.498,72.133 104.905,72.538C105.651,73.283 106.68,73.285 107.429,72.541C109.345,70.637 111.254,68.726 113.17,66.825C113.585,66.415 114.014,66.02 114.487,65.571C117.147,65.571 119.738,65.546 122.328,65.58C123.617,65.598 124.327,66.381 124.263,67.577C124.207,68.631 123.534,69.336 122.44,69.363C120.799,69.405 119.156,69.385 117.512,69.39C117.003,69.392 116.493,69.39 115.901,69.39C114.745,70.51 113.57,71.65 112.392,72.79C111.527,73.627 110.666,74.471 109.791,75.296C108.392,76.616 106.746,77.112 104.854,76.702C101.889,76.057 99.144,71.901 102.182,68.267C102.718,67.626 103.362,67.074 103.974,66.5C105.871,64.729 107.767,62.964 109.674,61.21Z" fill="#116034"/>
<path d="M34.389,106.615C36.361,106.615 38.331,106.615 40.304,106.615C40.523,106.615 40.742,106.605 40.962,106.615C41.883,106.656 42.437,107.098 42.508,107.84C42.586,108.672 42.059,109.467 41.267,109.665C40.989,109.736 40.691,109.763 40.404,109.763C36.388,109.763 32.37,109.755 28.355,109.746C28.028,109.746 27.691,109.738 27.377,109.66C26.67,109.485 26.216,108.83 26.248,108.108C26.28,107.369 26.767,106.778 27.494,106.646C27.779,106.595 28.077,106.612 28.367,106.612C30.376,106.61 32.382,106.61 34.391,106.61C34.389,106.612 34.389,106.612 34.389,106.615Z" fill="#116034"/>
<path d="M102.087,89.131C100.5,89.114 99.215,87.891 99.244,86.422C99.276,84.738 100.451,83.545 102.053,83.567C103.755,83.589 104.969,84.741 104.961,86.327C104.952,87.918 103.691,89.148 102.087,89.131Z" fill="#116034"/>
<path d="M59.623,51.477C59.599,53.054 58.282,54.428 56.753,54.313C55.149,54.193 54.047,53.054 53.976,51.448C53.913,49.998 55.471,48.568 56.905,48.609C58.421,48.651 59.647,49.947 59.623,51.477Z" fill="#116034"/>
<path d="M121.781,50.606C121.796,49.454 122.654,48.592 123.8,48.582C124.814,48.573 125.89,49.603 125.907,50.601C125.924,51.596 124.87,52.658 123.871,52.648C122.645,52.639 121.767,51.779 121.781,50.606Z" fill="#116034"/>
<path d="M29.145,82.72C27.496,82.71 25.878,81.087 25.926,79.494C25.98,77.71 27.482,76.328 29.301,76.321C30.941,76.314 32.531,77.597 32.546,79.594C32.558,81.319 30.966,82.732 29.145,82.72Z" fill="#116034"/>
<path d="M95.097,52.317C95.116,54.14 93.524,55.738 91.696,55.731C89.887,55.723 88.294,54.135 88.251,52.321C88.209,50.501 89.392,48.827 91.469,48.778C93.627,48.729 95.077,50.308 95.097,52.317Z" fill="#116034"/>
<path d="M72.566,76.37C74.222,76.414 75.755,77.895 75.716,79.408C75.67,81.173 74.181,82.576 72.42,82.505C70.782,82.439 69.417,80.977 69.446,79.318C69.477,77.583 70.811,76.323 72.566,76.37Z" fill="#116034"/>
<path d="M49.67,100.706C49.741,99.576 50.702,98.69 51.765,98.773C52.825,98.856 53.715,99.889 53.642,100.955C53.574,101.956 52.489,102.881 51.436,102.82C50.429,102.761 49.529,101.729 49.67,100.706Z" fill="#116034"/>
<path d="M79.693,89.456C79.63,88.106 80.839,87.32 81.856,87.332C82.968,87.344 83.882,88.247 83.911,89.343C83.94,90.468 82.919,91.459 81.722,91.466C80.639,91.471 79.698,90.542 79.693,89.456Z" fill="#116034"/>
<path d="M72.769,12.529C71.623,12.527 70.753,11.651 70.77,10.516C70.784,9.444 71.662,8.585 72.74,8.585C73.832,8.588 74.722,9.498 74.741,10.633C74.763,11.709 73.908,12.532 72.769,12.529Z" fill="#116034"/>
<path d="M33.07,16.422C34.077,16.424 34.791,17.12 34.811,18.118C34.83,19.06 33.962,19.912 32.984,19.914C32.051,19.914 31.19,19.116 31.166,18.226C31.139,17.198 31.963,16.42 33.07,16.422Z" fill="#116034"/>
<path d="M124.131,111.266C123.237,111.266 122.669,110.729 122.656,109.873C122.644,108.935 123.203,108.342 124.114,108.323C124.985,108.306 125.692,108.955 125.706,109.785C125.721,110.583 124.995,111.266 124.131,111.266Z" fill="#116034"/>
<path d="M133.545,99.401C134.469,99.737 134.764,100.027 134.713,100.517C134.669,100.941 134.303,101.285 133.845,101.339C133.296,101.402 132.877,101.175 132.716,100.724C132.519,100.181 132.706,99.869 133.545,99.401Z" fill="#116034"/>
<path d="M32.687,32.233C33.121,31.438 33.443,31.243 34.016,31.399C34.44,31.514 34.669,31.833 34.642,32.277C34.613,32.735 34.294,33.089 33.848,33.157C33.292,33.24 33.065,33.067 32.687,32.233Z" fill="#116034"/>
<path d="M81.007,101.02C80.636,101.456 79.949,101.439 79.561,101.02C79.288,100.725 79.239,100.471 79.352,100.166C79.491,99.788 79.878,99.552 80.293,99.591C80.749,99.635 81.124,99.976 81.187,100.398C81.222,100.629 81.166,100.834 81.007,101.02Z" fill="#116034"/>
<path d="M46.126,76.783C45.565,76.785 45.18,76.459 45.177,75.974C45.175,75.474 45.655,75.028 46.174,75.049C46.633,75.069 47.057,75.505 47.069,75.971C47.081,76.442 46.689,76.781 46.126,76.783Z" fill="#116034"/>
<path d="M107.838,110.057C107.755,109.096 107.755,109.096 108.547,108.704C109.069,108.845 109.542,109.079 109.491,109.711C109.471,109.952 109.259,110.254 109.045,110.388C108.542,110.705 108.155,110.413 107.838,110.057Z" fill="#116034"/>
<path d="M21.492,28.018C21.909,27.289 22.199,27.099 22.66,27.241C23.05,27.36 23.267,27.633 23.267,28.045C23.267,28.423 23.057,28.652 22.701,28.747C22.213,28.881 21.948,28.725 21.492,28.018Z" fill="#116034"/>
<path d="M133.816,130.597C134.323,130.665 134.752,130.819 134.754,131.36C134.757,131.609 134.613,131.933 134.423,132.092C134.006,132.44 133.616,132.218 133.265,131.879C133.126,131.341 133.135,130.873 133.816,130.597Z" fill="#116034"/>
<path d="M35.727,58.515C36.071,58.552 36.315,58.601 36.561,58.601C38.863,58.613 41.162,58.618 43.463,58.623C43.719,58.623 43.978,58.623 44.229,58.586C45.075,58.459 45.589,57.847 45.584,56.997C45.58,56.138 44.97,55.44 44.134,55.352C43.953,55.333 43.768,55.355 43.588,55.36C41.016,55.409 39.155,53.417 39.441,50.864C39.626,49.207 40.384,47.86 41.905,47.087C42.473,46.796 43.144,46.711 43.931,46.484C43.975,46.357 44.124,46.101 44.148,45.835C44.192,45.327 44.17,44.814 44.17,44.302C44.17,38.674 44.161,33.044 44.175,27.416C44.183,24.898 44.236,22.377 44.268,19.858C44.273,19.502 44.268,19.145 44.268,18.694C42.932,18.694 41.705,18.694 40.462,18.694C40.226,18.042 40.399,17.459 40.318,16.905C41.091,16.666 45.272,16.6 47.04,16.798C47.064,16.947 47.108,17.115 47.113,17.286C47.44,26.743 47.315,36.202 47.347,45.661C47.35,46.401 47.294,47.118 47.016,47.811C46.487,49.122 45.775,49.6 44.348,49.605C43.768,49.608 43.19,49.569 42.737,50.083C42.074,50.838 42.115,51.611 42.915,52.241C43.029,52.331 43.159,52.397 43.341,52.509C43.802,52.48 44.312,52.46 44.819,52.417C45.628,52.346 46.335,52.595 46.96,53.088C49.593,55.157 49.466,59.657 46.725,61.576C45.95,62.12 45.092,62.337 44.148,62.335C39.84,62.322 35.53,62.33 31.222,62.33C30.717,62.33 30.21,62.33 29.635,62.33C29.635,63.406 29.635,64.409 29.635,65.544C36.927,65.588 44.217,65.539 51.592,65.58C55.641,69.429 59.474,73.549 63.575,77.514C63.575,78.351 63.555,79.225 63.58,80.099C63.602,80.916 63.668,81.734 63.729,82.791C59.021,78.242 54.681,73.663 50.222,69.351C42.027,69.351 33.996,69.351 25.86,69.351C23.617,71.176 21.601,73.346 19.295,75.435C18.536,75.435 17.664,75.401 16.796,75.445C15.735,75.499 15.118,76.336 15.36,77.319C15.513,77.951 16.079,78.434 16.788,78.478C17.222,78.505 17.661,78.461 18.1,78.442C18.317,78.432 18.536,78.373 18.751,78.388C19.002,78.405 19.248,78.481 19.446,78.52C19.534,79.638 19.478,80.748 19.726,81.788C20.626,85.548 22.915,88.033 26.726,88.975C27.323,89.121 27.952,89.192 28.567,89.194C38.058,89.212 47.55,89.216 57.043,89.212C58.392,89.212 59.74,89.141 61.134,89.099C62.588,87.74 64.05,86.373 65.525,84.994C66.359,85.81 67.154,86.588 68.039,87.452C66.15,89.282 64.306,91.079 62.402,92.816C62.195,92.833 62.015,92.86 61.837,92.86C50.151,92.86 38.468,92.858 26.782,92.853C26.053,92.853 25.322,92.838 24.593,92.855C24.034,92.867 23.513,92.994 23.091,93.407C22.252,94.222 22.457,95.459 23.539,95.903C23.864,96.035 24.246,96.072 24.605,96.074C30.812,96.101 37.02,96.118 43.227,96.135C44.1,96.138 44.97,96.135 45.994,96.135C44.897,97.57 43.48,98.481 42.291,99.671C41.92,99.671 41.557,99.671 41.196,99.671C36.778,99.669 32.36,99.662 27.94,99.674C27.511,99.674 27.05,99.713 26.665,99.874C26.104,100.111 25.707,100.584 25.687,101.224C25.67,101.856 26.012,102.346 26.555,102.646C26.836,102.8 27.165,102.893 27.484,102.942C27.916,103.008 28.357,103.025 28.793,103.027C32.702,103.034 36.607,103.03 40.516,103.044C41.096,103.047 41.696,103.052 42.252,103.188C44.434,103.723 45.516,105.321 45.931,107.374C46.318,109.287 45.587,110.895 44.126,112.147C43.266,112.884 42.213,113.199 41.086,113.204C38.165,113.219 35.245,113.197 32.324,113.223C31.712,113.228 31.078,113.299 30.49,113.465C27.843,114.212 26.151,117.114 26.938,119.613C27.553,121.562 28.954,122.707 30.954,123.051C31.775,123.193 32.626,123.22 33.462,123.222C37.188,123.234 40.911,123.227 44.636,123.212C46.899,123.202 49.161,123.151 51.424,123.149C53.174,123.146 54.927,123.217 56.678,123.205C58.83,123.19 60.981,123.127 63.27,123.08C64.857,121.592 66.501,120.037 68.161,118.5C69.821,116.962 71.501,115.442 73.249,113.841C77.335,113.841 81.492,113.841 85.649,113.841C86.763,112.772 87.839,111.742 89.033,110.595C83.277,110.595 77.679,110.595 72.052,110.595C70.677,111.874 69.295,113.175 67.898,114.456C67.091,115.195 66.245,115.896 65.443,116.64C64.984,117.067 64.477,117.216 63.855,117.214C60.386,117.192 56.917,117.201 53.45,117.204C53.047,117.204 52.645,117.248 52.245,117.218C51.494,117.165 50.914,117.441 50.39,117.97C49.697,118.668 48.954,119.317 48.205,120.01C47.947,120.01 47.693,120.01 47.44,120.01C42.547,120.015 37.653,120.02 32.76,120.023C32.468,120.023 32.17,120.037 31.887,119.988C31.019,119.837 30.254,119.022 30.264,118.297C30.276,117.423 31.071,116.577 32.007,116.467C32.295,116.433 32.59,116.452 32.882,116.452C37.336,116.452 41.791,116.452 46.326,116.452C47.323,115.559 48.354,114.636 49.429,113.675C54.037,113.675 58.67,113.675 63.209,113.675C64.331,112.97 68.987,108.674 70.08,107.354C70.08,104.95 70.119,102.505 70.058,100.059C70.036,99.2 70.289,98.605 70.943,98.078C71.874,97.326 72.757,96.513 73.793,95.613C73.793,99.408 73.793,103.017 73.793,106.529C73.9,106.649 73.922,106.678 73.946,106.702C73.973,106.727 74.005,106.766 74.032,106.766C78.45,106.778 82.867,106.788 87.285,106.795C87.795,106.795 88.304,106.773 88.816,106.754C88.882,106.751 88.943,106.693 89.084,106.619C89.106,106.275 89.133,105.885 89.165,105.411C88.882,105.17 88.599,104.889 88.282,104.657C86.193,103.137 85.447,99.998 87.054,97.377C87.929,95.95 89.109,94.925 90.859,94.712C91.096,94.683 91.366,94.564 91.53,94.398C93.217,92.684 94.887,90.954 96.56,89.226C96.582,89.202 96.584,89.16 96.618,89.063C95.96,87.432 95.777,85.739 96.508,84.016C97.084,82.654 97.991,81.595 99.268,80.86C101.143,79.779 104.588,79.689 107.109,82.93C108.908,81.173 110.693,79.418 112.492,77.675C114.301,75.926 116.12,74.188 117.927,72.455C119.594,72.455 121.199,72.46 122.803,72.453C123.495,72.45 124.19,72.441 124.883,72.404C126.636,72.311 127.901,70.986 128.05,69.593C128.13,68.834 128.296,68.08 128.491,67.34C129.015,65.356 130.307,63.867 131.719,62.469C132.472,61.725 133.272,61.029 134.05,60.311C135.452,59.013 135.452,59.013 137.217,58.584C138.126,57.769 138.799,56.741 139.111,55.655C138.338,55.396 137.539,55.562 136.761,55.531C135.998,55.499 135.23,55.523 134.437,55.523C133.062,56.841 131.692,58.152 130.322,59.465C129.53,60.224 128.732,60.973 127.95,61.742C127.535,62.147 127.072,62.347 126.482,62.344C123.013,62.332 119.543,62.352 116.076,62.332C114.816,62.325 114.077,61.617 114.062,60.507C114.048,59.452 114.667,58.774 115.73,58.754C117.008,58.732 118.285,58.759 119.565,58.759C121.391,58.759 123.217,58.742 125.044,58.752C125.665,58.754 126.128,58.549 126.589,58.103C128.681,56.065 130.819,54.076 133.001,52.009C134.513,52.009 136.081,52.009 137.648,52.009C138.416,52.009 139.182,52.038 139.947,52.007C141.057,51.963 141.622,51.318 141.559,50.237C141.52,49.573 141.218,49.144 140.572,48.949C140.228,48.844 139.855,48.792 139.496,48.792C135.954,48.783 132.411,48.79 128.871,48.795C128.657,48.795 128.442,48.827 128.142,48.849C128.203,49.095 128.233,49.298 128.303,49.481C128.988,51.233 127.981,53.432 126.426,54.574C124.939,55.665 122.769,55.675 121.306,54.574C120.472,53.949 120.045,53.105 120.053,52.026C120.075,48.81 120.067,45.593 120.07,42.376C120.072,39.599 120.07,36.822 120.07,34.013C122.466,31.485 123.303,28.432 122.827,25.032C122.401,21.981 120.865,19.563 118.278,17.862C113.587,14.779 105.646,15.524 102.621,23.062C102.118,22.892 101.792,22.484 101.448,22.135C100.809,21.486 100.236,20.771 99.6,20.119C99.224,19.739 98.815,19.358 98.349,19.106C97.74,18.775 97.137,18.955 96.66,19.455C96.189,19.951 96.043,20.554 96.326,21.171C96.501,21.557 96.791,21.906 97.081,22.225C98.586,23.868 100.107,25.493 101.85,27.375C101.838,28.356 102.272,29.674 102.877,30.923C103.481,32.178 104.269,33.322 105.307,34.245C105.307,34.689 105.307,35.082 105.307,35.563C104.725,35.404 104.435,34.967 104.103,34.628C100.907,31.367 97.723,28.095 94.553,24.81C94.053,24.292 93.566,23.863 92.781,23.904C91.64,23.968 90.864,25.13 91.362,26.172C91.576,26.618 91.932,27.016 92.288,27.372C96.182,31.28 100.09,35.172 103.991,39.072C104.325,39.404 104.625,39.77 104.937,40.114C104.951,47.099 104.986,54.037 104.922,60.846C99.268,66.225 93.736,71.482 88.214,76.746C87.314,77.602 86.459,78.505 85.557,79.357C85.188,79.703 84.781,80.031 84.34,80.275C83.606,80.68 82.68,80.523 82.219,79.996C81.807,79.525 81.736,78.571 82.131,77.932C82.358,77.563 82.655,77.229 82.967,76.926C87.826,72.231 92.695,67.545 97.554,62.85C98.864,61.583 100.141,60.282 101.38,59.05C101.38,53.249 101.38,47.587 101.38,41.761C97.101,37.432 92.793,32.983 88.268,28.588C87.514,29.359 86.839,30.047 86.088,30.816C90.135,34.965 94.129,39.062 98.125,43.157C98.125,44.014 98.125,44.846 98.125,45.693C97.12,44.727 96.14,43.785 95.089,42.774C94.619,42.716 94.08,42.638 93.539,42.589C92.822,42.523 92.252,42.257 91.73,41.713C89.272,39.162 86.771,36.654 84.281,34.133C84.079,33.928 83.847,33.747 83.545,33.478C83.153,33.979 82.775,34.457 82.397,34.938C82.336,34.892 82.272,34.848 82.212,34.801C82.212,35.126 82.212,35.45 82.212,35.773C82.209,39.755 82.207,43.741 82.202,47.724C82.202,48.09 82.214,48.458 82.165,48.819C82.065,49.534 81.519,50.083 80.815,50.232C80.166,50.369 79.471,50.113 79.14,49.483C78.91,49.046 78.72,48.529 78.715,48.048C78.684,43.775 78.696,39.502 78.696,35.201C77.845,35.082 76.918,35.079 76.085,34.799C75.246,34.516 74.5,33.954 73.773,33.547C73.773,34.516 73.773,35.563 73.773,36.61C73.781,46.772 73.793,56.931 73.79,67.094C73.79,67.489 73.754,67.906 73.622,68.272C73.298,69.161 72.503,69.551 71.494,69.392C70.758,69.278 70.204,68.626 70.121,67.765C70.102,67.547 70.114,67.325 70.114,67.108C70.114,56.363 70.114,45.615 70.114,34.87C70.114,34.14 70.114,33.41 70.114,32.632C69.894,32.571 69.697,32.514 69.468,32.451C69.268,32.693 69.085,32.912 68.905,33.132C67.561,34.757 65.83,35.558 63.731,35.538C62.709,35.528 61.69,35.465 60.669,35.433C60.274,35.421 59.879,35.431 59.43,35.431C59.43,38.909 59.43,42.328 59.43,45.813C61.147,46.55 62.205,47.897 62.773,49.634C63.26,51.126 63.041,52.587 62.48,54.02C61.498,56.531 58.94,57.939 56.246,57.617C53.357,57.271 51.085,54.869 50.795,52.163C50.5,49.425 52.257,46.24 55.834,45.332C55.834,41.896 55.834,38.44 55.834,34.94C54.079,34.34 53.672,32.964 53.676,31.297C53.693,24.607 53.684,17.918 53.684,11.231C53.684,11.011 53.672,10.792 53.693,10.575C53.789,9.659 54.422,9.01 55.217,9.005C56.049,9 56.856,9.676 56.946,10.538C57.009,11.153 56.973,11.78 56.963,12.4C56.943,13.855 57.629,14.611 59.082,14.726C59.225,14.738 59.369,14.76 59.52,14.779C60.093,15.207 60.622,15.736 60.722,16.417C60.81,17.027 60.586,17.684 60.469,18.53C60.788,18.816 61.193,19.177 61.734,19.66C61.732,19.656 61.768,19.836 61.849,19.995C62.634,21.564 62.012,22.896 60.939,23.946C58.587,26.245 58.928,26.831 58.921,29.088C58.918,29.889 58.921,30.691 58.921,31.477C59.991,31.817 62.534,31.882 63.475,31.621C64.458,31.348 65.269,30.813 65.903,30.02C66.313,29.508 66.674,28.956 67.066,28.429C67.303,28.112 67.559,27.807 67.815,27.485C68.814,27.646 69.665,28.07 70.531,28.429C71.238,28.722 71.889,29.144 72.591,29.447C73.186,29.703 73.82,29.869 74.437,30.074C74.773,30.186 75.146,30.245 75.443,30.425C77.521,31.692 79.496,31.328 81.397,30.062C81.999,29.659 82.548,29.161 83.07,28.654C87.48,24.334 91.876,20.002 96.279,15.675C98.571,13.423 100.88,11.187 103.162,8.922C103.662,8.424 104.188,8.198 104.905,8.2C112.317,8.21 119.731,8.193 127.143,8.185C127.426,8.185 127.708,8.224 128.067,8.251C128.423,10.333 128.771,12.373 129.108,14.338C128.028,16.368 128.037,16.505 129.344,18.264C128.803,19.241 129.157,20.114 129.837,20.922C129.929,21.032 130.039,21.147 130.083,21.281C130.341,22.035 130.58,22.794 130.819,23.529C131.131,23.726 131.404,23.897 131.753,24.117C131.57,24.627 131.29,25.108 131.244,25.613C131.2,26.094 131.402,26.596 131.512,27.17C131.717,27.304 131.985,27.482 132.321,27.704C132.292,28.153 132.263,28.615 132.224,29.21C132.353,29.391 132.563,29.684 132.775,29.979C132.775,30.457 132.721,30.94 132.787,31.404C132.916,32.319 132.528,32.959 131.829,33.464C131.509,33.693 131.163,33.888 130.831,34.098C130.575,33.971 130.383,33.874 130.19,33.781C128.979,33.203 128.181,33.3 127.228,34.257C125.914,35.58 125.292,37.21 125.592,39.053C125.985,41.466 127.308,43.179 129.686,44.019C132.516,45.019 135.161,43.489 136.283,41.51C136.551,41.037 136.775,40.541 137.056,39.985C138.948,41.256 140.847,42.396 143.1,41.027C143.631,41.361 143.736,41.822 143.722,42.303C143.622,45.735 143.904,49.178 143.48,52.597C143.31,53.969 143.068,55.348 142.676,56.668C141.808,59.582 139.952,61.707 137.207,63.037C136.78,63.245 136.359,63.46 135.934,63.672C133.352,64.956 131.87,67.03 131.47,69.888C131.414,70.283 131.322,70.676 131.246,71.069C130.675,74.081 128.011,76.101 124.951,76.14C123.054,76.165 121.155,76.145 119.153,76.145C118.339,76.946 117.488,77.793 116.625,78.627C113.999,81.165 111.376,83.706 108.733,86.229C108.37,86.576 108.165,86.954 108.062,87.44C107.199,91.545 103.206,93.539 99.385,91.784C99.254,91.723 99.12,91.662 99.044,91.628C96.94,93.683 94.858,95.715 92.788,97.741C92.339,97.702 91.947,97.634 91.554,97.643C90.394,97.668 89.662,98.275 89.343,99.401C89.021,100.538 89.316,101.512 90.157,102.29C90.945,103.02 91.915,103.232 92.898,102.785C93.912,102.324 94.585,101.524 94.69,100.352C94.709,100.135 94.692,99.915 94.692,99.596C95.989,98.373 97.313,97.128 98.622,95.896C100.339,95.896 101.977,95.896 103.664,95.896C104.005,95.571 104.349,95.252 104.688,94.925C107.287,92.413 109.884,89.897 112.487,87.389C113.251,86.654 114.028,85.934 114.804,85.214C115.496,84.572 116.305,84.538 116.959,85.107C117.744,85.79 117.88,86.778 117.286,87.545C117.151,87.718 116.988,87.867 116.832,88.021C110.752,94.029 104.676,100.04 98.59,106.041C95.26,109.324 91.917,112.594 88.568,115.854C87.863,116.54 87.1,117.16 86.378,117.799C82.221,117.799 78.133,117.799 73.917,117.799C70.675,120.867 67.391,123.976 64.133,127.056C63.039,127.056 62.054,127.056 61.071,127.056C59.208,127.056 57.346,127.044 55.485,127.066C54.883,127.073 54.359,126.924 53.818,126.656C52.472,125.99 51.082,125.492 49.532,125.514C48.371,125.531 47.301,125.824 46.257,126.273C45.472,126.612 44.775,127.061 44.626,128.069C42.878,127.666 41.652,128.579 40.45,129.553C39.392,130.412 39.397,130.417 38.507,130.534C38.207,130.351 37.87,130.143 37.505,129.916C36.668,130.202 35.886,130.753 34.896,130.495C34.752,130.841 34.655,131.149 34.508,131.427C34.077,132.247 33.46,132.42 32.519,132.401C31.044,132.369 29.937,131.822 29.106,130.607C28.913,130.326 28.528,130.182 28.24,129.96C27.986,129.765 27.633,129.599 27.528,129.335C27.233,128.611 26.689,128.489 26.026,128.528C25.736,128.545 25.448,128.557 25.212,128.432C24.285,127.959 23.357,127.488 22.315,126.956C22.233,126.714 22.442,126.397 22.642,126.109C23.335,125.113 23.408,124.103 22.862,123.012C22.689,122.666 22.591,122.241 22.591,121.853C22.584,120.35 21.626,119.371 20.667,118.446C20.25,118.043 19.816,117.677 19.473,117.201C19.092,116.672 18.661,116.179 18.222,115.632C18.22,114.617 18.302,114.558 19.994,114.441C21.882,113.126 22.94,111.271 23.354,109.026C23.934,105.89 23.227,103.083 21.104,100.682C20.745,100.277 20.287,99.959 19.855,99.625C19.531,99.374 19.261,99.115 19.146,98.693C18.846,97.568 18.512,96.455 18.159,95.227C18.168,95.205 18.198,95.057 18.278,94.942C18.795,94.202 18.771,93.409 18.412,92.65C17.932,91.63 17.388,90.637 16.837,89.653C16.498,89.048 16.089,88.484 15.723,87.896C15.25,87.135 14.992,86.315 15.038,85.402C15.082,84.541 14.835,83.777 14.343,83.04C13.044,81.099 11.81,79.113 10.547,77.146C10.388,76.899 10.242,76.638 10.04,76.431C9.089,75.46 8.64,74.244 8.233,72.98C7.516,70.757 6.702,68.568 5.958,66.352C5.69,65.554 5.566,64.726 5.946,63.936C6.478,63.665 6.829,64.016 7.199,64.204C8.043,64.634 8.86,65.122 9.711,65.537C10.864,66.1 12.049,66.288 13.314,65.851C13.655,65.734 14.104,65.832 14.477,65.934C14.931,66.059 15.36,66.281 15.791,66.476C17.198,67.111 18.702,67.25 20.189,67.081C20.984,66.991 21.74,66.503 22.501,66.159C22.759,66.042 22.971,65.82 23.279,65.59C24.12,65.59 25.027,65.59 26.053,65.59C26.068,65.144 26.092,64.758 26.092,64.37C26.09,58.083 26.087,51.797 26.082,45.51C26.082,45.29 26.075,45.071 26.082,44.851C26.124,43.831 26.746,43.116 27.638,43.057C28.54,42.999 29.41,43.724 29.542,44.673C29.586,44.995 29.566,45.329 29.566,45.659C29.574,49.608 29.579,53.554 29.586,57.502C29.586,57.825 29.586,58.149 29.586,58.549C30.956,58.659 32.251,58.586 33.589,58.598M34.389,106.615L34.389,106.612C32.38,106.612 30.373,106.612 28.364,106.615C28.072,106.615 27.774,106.598 27.492,106.649C26.765,106.781 26.277,107.371 26.246,108.111C26.214,108.833 26.667,109.487 27.375,109.663C27.689,109.741 28.025,109.748 28.352,109.748C32.368,109.76 36.386,109.765 40.401,109.765C40.689,109.765 40.986,109.736 41.264,109.668C42.057,109.47 42.586,108.674 42.505,107.842C42.434,107.1 41.881,106.659 40.959,106.617C40.74,106.607 40.521,106.617 40.301,106.617C38.334,106.615 36.361,106.615 34.389,106.615ZM102.087,89.131C103.693,89.148 104.951,87.918 104.959,86.327C104.966,84.741 103.752,83.589 102.05,83.567C100.448,83.545 99.276,84.741 99.241,86.422C99.215,87.891 100.499,89.114 102.087,89.131ZM59.623,51.477C59.647,49.947 58.418,48.651 56.904,48.607C55.471,48.565 53.913,49.998 53.976,51.445C54.047,53.054 55.149,54.191 56.753,54.31C58.282,54.428 59.598,53.054 59.623,51.477ZM121.781,50.606C121.767,51.78 122.647,52.639 123.871,52.648C124.87,52.656 125.924,51.597 125.907,50.601C125.89,49.603 124.814,48.575 123.8,48.583C122.652,48.592 121.794,49.454 121.781,50.606Z" fill="#FFC424"/>
<path d="M33.86,84.289C32.295,85.778 30.405,86.246 28.313,86.017C26.914,85.863 25.753,85.209 24.754,84.252C22.694,82.281 21.911,78.839 23.588,76.016C25.161,73.37 28.001,72.189 31.015,73.063C32.641,73.534 33.931,74.522 34.847,75.972C35.754,77.404 35.871,78.979 35.667,80.604C36.505,81.856 37.641,82.346 39.116,82.337C44.953,82.298 50.79,82.307 56.627,82.315C57.278,82.315 57.948,82.339 58.577,82.488C59.369,82.676 59.938,83.181 60.042,84.06C60.155,84.992 59.601,85.705 58.665,85.814C58.304,85.856 57.936,85.853 57.573,85.853C50.97,85.851 44.366,85.822 37.763,85.863C36.642,85.87 35.691,85.634 34.83,84.938C34.55,84.714 34.231,84.536 33.86,84.289ZM29.145,82.72C30.966,82.732 32.558,81.317 32.546,79.596C32.531,77.6 30.942,76.316 29.301,76.323C27.482,76.331 25.98,77.712 25.926,79.496C25.878,81.09 27.497,82.71 29.145,82.72Z" fill="#FFC424"/>
<path d="M84.586,67.865C84.786,69.095 84.559,70.254 83.774,71.257C82.816,72.477 81.595,73.051 80.032,72.697C78.474,72.343 77.148,71.067 76.95,69.639C76.545,66.73 79.327,64.516 81.629,65.331C81.729,65.368 81.843,65.368 82.058,65.402C84.391,63.135 86.763,60.829 89.197,58.466C88.989,58.318 88.863,58.198 88.711,58.125C84.652,56.116 83.465,50.471 87.463,46.923C90.247,44.451 94.785,44.914 97.037,48.314C99.444,51.943 98.31,56.187 94.716,58.191C93.907,58.642 93.219,59.191 92.573,59.848C90.113,62.342 87.619,64.802 85.14,67.276C84.962,67.452 84.793,67.643 84.586,67.865ZM95.097,52.316C95.075,50.308 93.627,48.727 91.469,48.778C89.392,48.827 88.209,50.501 88.251,52.321C88.292,54.135 89.884,55.723 91.696,55.731C93.524,55.74 95.116,54.139 95.097,52.316Z" fill="#FFC424"/>
<path d="M66.927,76.365C61.729,71.066 56.546,65.783 51.194,60.328C52.959,60.302 54.5,60.358 56.08,60.421C60.586,64.672 64.767,69.251 69.104,73.368C70.262,73.168 71.218,72.88 72.179,72.858C75.855,72.775 78.832,75.562 79.047,79.242C79.118,80.438 78.752,81.578 78.14,82.576C76.314,85.561 74.149,86.295 71.111,85.656C67.773,84.955 66.327,82.137 66.242,79.579C66.223,79.04 66.318,78.486 66.43,77.951C66.537,77.456 66.732,76.98 66.927,76.365ZM72.567,76.37C70.811,76.323 69.475,77.583 69.446,79.318C69.416,80.977 70.784,82.442 72.42,82.505C74.178,82.573 75.67,81.173 75.716,79.408C75.755,77.895 74.222,76.414 72.567,76.37Z" fill="#FFC424"/>
<path d="M114.489,65.568C117.149,65.568 119.741,65.544 122.33,65.578C123.62,65.595 124.329,66.378 124.266,67.574C124.21,68.629 123.537,69.334 122.442,69.361C120.801,69.402 119.158,69.383 117.515,69.387C117.005,69.39 116.496,69.387 115.903,69.387C114.747,70.508 113.572,71.647 112.395,72.787C111.529,73.624 110.669,74.469 109.793,75.293C108.394,76.614 106.748,77.109 104.856,76.699C101.891,76.055 99.146,71.899 102.184,68.265C102.72,67.623 103.364,67.071 103.976,66.498C105.868,64.729 107.767,62.964 109.674,61.209C110.04,60.873 110.452,60.59 110.927,60.216C111.195,61.026 111.059,61.715 111.081,62.386C111.103,63.079 111.085,63.772 111.085,64.304C109.905,65.539 108.84,66.688 107.738,67.799C106.634,68.912 105.493,69.985 104.332,71.11C104.276,71.655 104.498,72.133 104.905,72.538C105.651,73.282 106.68,73.285 107.428,72.541C109.345,70.637 111.254,68.726 113.17,66.825C113.584,66.413 114.014,66.02 114.489,65.568Z" fill="#FFC424"/>
<path d="M73.61,89.065C73.61,89.946 73.61,90.705 73.61,91.515C69.57,95.376 65.511,99.254 61.422,103.159C59.481,103.159 57.553,103.159 55.702,103.159C53.354,105.387 51.492,105.907 49.6,104.911C47.883,104.008 46.84,101.98 47.159,100.162C47.506,98.188 49.102,96.579 50.992,96.304C53.174,95.986 54.683,96.967 56.102,99.666C57.297,99.666 58.526,99.666 59.903,99.666C63.687,96.304 67.256,92.543 71.104,89.063C71.913,89.065 72.705,89.065 73.61,89.065ZM49.671,100.706C49.529,101.729 50.431,102.761 51.436,102.82C52.489,102.881 53.571,101.956 53.642,100.955C53.715,99.889 52.828,98.856 51.765,98.773C50.699,98.69 49.741,99.576 49.671,100.706Z" fill="#FFC424"/>
<path d="M111.237,30.359C111.237,33.134 111.237,35.829 111.237,38.728C110.232,37.954 109.294,37.378 108.479,36.541C108.479,35.128 108.479,33.71 108.479,32.28C106.575,30.83 105.707,28.868 105.649,26.577C105.603,24.683 106.241,22.94 107.599,21.613C110.393,18.882 114.501,18.875 117.278,21.437C119.729,23.699 120.955,28.405 116.832,32.207C116.832,33.649 116.832,35.143 116.832,36.714C115.984,37.32 115.133,37.93 114.185,38.606C114.185,35.743 114.185,32.99 114.185,30.23C116.61,28.385 116.666,26.957 116.157,25.396C115.601,23.685 114.172,22.779 112.373,22.838C110.766,22.889 109.374,23.919 109.004,25.471C108.621,27.087 108.645,28.649 111.237,30.359Z" fill="#FFC424"/>
<path d="M81.919,84.213C84.655,84.223 86.873,86.564 86.863,89.429C86.854,92.282 84.601,94.563 81.824,94.532C78.998,94.5 76.682,92.243 76.716,89.463C76.75,86.556 79.145,84.118 81.919,84.213ZM79.693,89.456C79.7,90.542 80.639,91.471 81.722,91.466C82.919,91.462 83.94,90.468 83.911,89.343C83.882,88.25 82.967,87.347 81.856,87.332C80.839,87.323 79.63,88.108 79.693,89.456Z" fill="#FFC424"/>
<path d="M72.742,15.143C70.272,15.155 68.295,13.176 68.273,10.709C68.251,8.146 70.026,6.065 72.71,5.967C75.136,5.877 77.323,8.075 77.321,10.582C77.316,12.832 75.729,15.153 72.742,15.143ZM72.769,12.529C73.905,12.532 74.761,11.709 74.741,10.633C74.722,9.498 73.83,8.586 72.74,8.586C71.662,8.583 70.784,9.442 70.77,10.516C70.753,11.651 71.625,12.527 72.769,12.529Z" fill="#FFC424"/>
<path d="M37.268,18.113C37.285,20.544 35.486,22.396 33.111,22.408C30.785,22.421 28.801,20.798 28.764,18.282C28.728,15.758 30.644,13.828 33.05,13.813C35.7,13.796 37.358,16.283 37.268,18.113ZM33.07,16.422C31.96,16.42 31.139,17.198 31.166,18.223C31.19,19.114 32.051,19.914 32.984,19.912C33.962,19.912 34.83,19.06 34.811,18.116C34.794,17.122 34.077,16.424 33.07,16.422Z" fill="#FFC424"/>
<path d="M54.062,109.98C55.254,108.865 56.446,107.749 57.624,106.651C59.184,106.651 60.676,106.651 62.192,106.651C63.716,105.358 64.982,103.776 66.752,102.627C66.752,103.935 66.771,105.126 66.735,106.317C66.727,106.536 66.542,106.79 66.369,106.956C65.194,108.096 64.002,109.216 62.919,110.244C59.891,110.244 57.029,110.244 54.169,110.244C54.132,110.156 54.096,110.068 54.062,109.98Z" fill="#FFC424"/>
<path d="M116.866,55.101C115.769,55.286 115.02,55.274 114.174,55.052C114.174,50.696 114.174,46.325 114.174,41.866C115.001,41.366 115.776,40.717 116.759,40.385C116.963,41.117 117.046,53.52 116.866,55.101Z" fill="#FFC424"/>
<path d="M124.163,105.88C126.202,105.882 128.047,107.759 128.05,109.831C128.052,111.976 126.314,113.807 124.249,113.831C122.098,113.858 120.238,112.01 120.348,109.843C120.47,107.476 122.15,105.799 124.163,105.88ZM124.132,111.266C124.995,111.266 125.721,110.583 125.707,109.785C125.69,108.955 124.985,108.306 124.115,108.323C123.205,108.34 122.645,108.935 122.657,109.873C122.666,110.729 123.237,111.266 124.132,111.266Z" fill="#FFC424"/>
<path d="M137.002,100.355C137.019,102.258 135.632,103.715 133.755,103.754C131.904,103.791 130.293,102.248 130.302,100.545C130.314,98.236 131.972,96.943 133.482,96.958C135.469,96.972 136.983,98.41 137.002,100.355ZM133.545,99.4C132.706,99.869 132.519,100.181 132.716,100.726C132.879,101.177 133.296,101.404 133.845,101.341C134.303,101.287 134.669,100.94 134.713,100.518C134.764,100.03 134.469,99.737 133.545,99.4Z" fill="#FFC424"/>
<path d="M33.609,28.898C35.362,28.89 36.973,30.503 36.917,32.273C36.852,34.364 35.208,35.648 33.694,35.616C31.763,35.577 30.415,34.242 30.376,32.3C30.339,30.291 32.117,28.697 33.609,28.898ZM32.687,32.234C33.065,33.068 33.292,33.242 33.848,33.156C34.296,33.088 34.616,32.734 34.643,32.275C34.669,31.833 34.44,31.511 34.016,31.397C33.443,31.243 33.121,31.438 32.687,32.234Z" fill="#FFC424"/>
<path d="M83.28,100.596C83.265,102.471 82.041,103.725 80.227,103.725C78.399,103.725 76.95,102.361 76.933,100.621C76.916,98.864 78.496,97.184 80.13,97.226C81.953,97.277 83.294,98.71 83.28,100.596ZM79.822,101.263C80.066,101.46 80.412,101.472 80.676,101.302C81.088,101.038 81.239,100.752 81.188,100.399C81.124,99.976 80.749,99.635 80.293,99.591C79.878,99.552 79.493,99.788 79.352,100.167C79.21,100.55 79.323,100.853 79.822,101.263Z" fill="#FFC424"/>
<path d="M46.164,72.782C47.725,72.607 49.436,74.337 49.356,75.982C49.268,77.778 47.91,79.186 46.128,79.157C44.507,79.132 42.924,77.605 42.968,76.106C43.027,74.164 44.363,72.772 46.164,72.782ZM46.125,76.785C46.689,76.782 47.081,76.443 47.069,75.972C47.057,75.506 46.633,75.067 46.174,75.049C45.655,75.027 45.175,75.474 45.177,75.974C45.18,76.458 45.565,76.787 46.125,76.785Z" fill="#FFC424"/>
<path d="M111.558,109.653C111.522,111.442 110.225,112.769 108.545,112.735C106.809,112.701 105.495,111.278 105.551,109.494C105.605,107.747 106.943,106.502 108.699,106.563C110.359,106.619 111.593,107.954 111.558,109.653ZM107.838,110.058C108.157,110.414 108.545,110.707 109.045,110.39C109.257,110.256 109.471,109.953 109.491,109.712C109.542,109.082 109.067,108.845 108.547,108.704C107.755,109.097 107.755,109.097 107.838,110.058Z" fill="#FFC424"/>
<path d="M78.915,58.352C77.13,56.78 76.852,55.504 77.974,54.322C78.969,53.275 80.597,53.28 81.58,54.335C82.626,55.452 82.353,56.904 80.77,58.33Z" fill="#FFC424"/>
<path d="M19.449,27.885C19.478,26.203 20.699,24.993 22.357,25.005C24.025,25.015 25.449,26.469 25.383,28.097C25.317,29.757 24.001,31.221 22.543,31.14C20.607,31.033 19.285,29.522 19.449,27.885ZM21.492,28.019C21.945,28.724 22.213,28.881 22.699,28.749C23.055,28.654 23.264,28.424 23.264,28.046C23.264,27.633 23.047,27.36 22.657,27.241C22.199,27.099 21.909,27.292 21.492,28.019Z" fill="#FFC424"/>
<path d="M111.227,49.949C110.269,49.949 109.445,49.949 108.64,49.949C108.413,49.107 108.362,41.559 108.567,40.002C109.486,40.722 110.369,41.415 111.227,42.088C111.227,44.727 111.227,47.306 111.227,49.949Z" fill="#FFC424"/>
<path d="M134.05,128.491C135.667,128.547 136.917,129.897 136.839,131.502C136.761,133.084 135.45,134.35 133.936,134.304C132.343,134.255 131.034,132.876 131.093,131.307C131.154,129.606 132.387,128.432 134.05,128.491ZM133.816,130.597C133.136,130.873 133.126,131.341 133.267,131.883C133.619,132.22 134.009,132.442 134.426,132.095C134.613,131.937 134.76,131.612 134.757,131.363C134.752,130.819 134.323,130.665 133.816,130.597Z" fill="#FFC424"/>
<path d="M110.103,57.922C108.706,57.912 107.534,56.848 107.638,55.567C107.768,54 108.731,53.034 110.089,53.024C111.703,53.012 112.614,54.527 112.563,55.543C112.502,56.692 111.751,57.932 110.103,57.922Z" fill="#FFC424"/>
<path d="M76.17,19.548C77.314,19.534 78.235,20.461 78.247,21.637C78.259,22.845 77.399,23.856 76.277,23.836C75.197,23.817 74.207,23.238 74.142,21.818C74.085,20.585 75.017,19.563 76.17,19.548Z" fill="#FFC424"/>
<path d="M116.057,124.318C117.215,124.335 118.134,125.272 118.117,126.424C118.1,127.629 117.178,128.554 116.045,128.508C114.87,128.459 114.033,127.539 114.067,126.334C114.102,125.125 114.916,124.303 116.057,124.318Z" fill="#FFC424"/>
<path d="M105.87,129.191C104.717,129.221 103.847,128.381 103.842,127.244C103.837,126.058 104.651,125.155 105.731,125.143C106.824,125.13 107.796,126.114 107.796,127.236C107.794,128.31 106.953,129.167 105.87,129.191Z" fill="#FFC424"/>
<path d="M40.301,8.959C40.277,10.018 39.377,10.833 38.268,10.794C37.234,10.758 36.374,9.906 36.376,8.915C36.378,7.861 37.268,7.011 38.361,7.016C39.416,7.021 40.326,7.929 40.301,8.959Z" fill="#FFC424"/>
<path d="M17.359,106.91C17.359,107.666 16.879,108.157 16.143,108.157C15.401,108.157 14.814,107.574 14.828,106.846C14.841,106.168 15.401,105.599 16.082,105.575C16.793,105.548 17.359,106.139 17.359,106.91Z" fill="#FFC424"/>
<path d="M136.973,31.555C136.995,30.906 137.534,30.335 138.134,30.328C138.824,30.32 139.492,30.97 139.482,31.641C139.472,32.351 138.814,32.966 138.122,32.91C137.466,32.858 136.951,32.253 136.973,31.555Z" fill="#FFC424"/>
<path d="M67.922,21.26C67.958,20.602 68.385,20.185 69.029,20.178C69.726,20.173 70.143,20.622 70.126,21.358Z" fill="#FFC424"/>
<path d="M41.077,42.962C40.704,42.962 40.279,42.962 39.872,42.962C39.311,42.201 39.289,41.583 39.797,41.115C40.196,40.744 40.774,40.727 41.196,41.071C41.72,41.498 41.698,42.086 41.077,42.962Z" fill="#FFC424"/>
<path d="M138.68,108.206C138.66,107.5 139.131,106.949 139.748,106.959C140.301,106.968 140.784,107.432 140.816,107.986C140.852,108.621 140.338,109.187 139.699,109.209C139.097,109.231 138.699,108.843 138.68,108.206Z" fill="#FFC424"/>
<path d="M50.622,37.915C50.617,37.264 50.99,36.861 51.604,36.854C52.25,36.846 52.738,37.288 52.767,37.905C52.796,38.542 52.333,39.031 51.699,39.028C51.048,39.028 50.627,38.591 50.622,37.915Z" fill="#FFC424"/>
<path d="M51.331,44.077C50.334,43.474 50.302,42.855 51.231,42.135C51.355,42.039 51.516,42 51.67,42.03C52.413,42.179 52.723,42.449 52.759,42.972C52.798,43.535 52.491,43.904 51.782,44.128C51.633,44.177 51.467,44.16 51.331,44.077Z" fill="#FFC424"/>
<path d="M63.234,7.37C64.07,8.493 63.86,9.054 62.483,9.389C61.622,8.922 61.374,8.515 61.586,7.905C61.786,7.319 62.239,7.173 63.234,7.37Z" fill="#FFC424"/>
<path d="M51.704,44.314C52.43,44.314 53.018,43.725 53.018,42.999C53.018,42.272 52.43,41.683 51.704,41.683C50.978,41.683 50.39,42.272 50.39,42.999C50.39,43.725 50.978,44.314 51.704,44.314Z" fill="#FFC424"/>
<path d="M40.53,43.216C41.256,43.216 41.845,42.627 41.845,41.9C41.845,41.174 41.256,40.585 40.53,40.585C39.805,40.585 39.216,41.174 39.216,41.9C39.216,42.627 39.805,43.216 40.53,43.216Z" fill="#FFC424"/>
<path d="M51.704,39.27C52.43,39.27 53.018,38.681 53.018,37.954C53.018,37.228 52.43,36.639 51.704,36.639C50.978,36.639 50.39,37.228 50.39,37.954C50.39,38.681 50.978,39.27 51.704,39.27Z" fill="#FFC424"/>
<path d="M108.623,107.571C109.681,107.574 110.64,108.547 110.642,109.621C110.642,110.734 109.74,111.686 108.667,111.698C107.551,111.713 106.585,110.754 106.644,109.629C106.705,108.401 107.577,107.53 108.623,107.571ZM108.606,110.368C109.055,110.368 109.433,110.014 109.423,109.599C109.413,109.167 109.048,108.833 108.597,108.84C108.124,108.85 107.833,109.158 107.841,109.643C107.848,110.09 108.143,110.368 108.606,110.368Z" fill="#FFC424"/>
<path d="M133.601,98.361C134.659,98.363 135.617,99.337 135.62,100.411C135.62,101.524 134.718,102.475 133.645,102.488C132.528,102.502 131.563,101.543 131.621,100.418C131.682,99.188 132.555,98.317 133.601,98.361ZM133.584,101.158C134.032,101.158 134.41,100.804 134.401,100.389C134.391,99.957 134.025,99.622 133.574,99.63C133.101,99.64 132.811,99.947 132.818,100.433C132.823,100.877 133.118,101.158 133.584,101.158Z" fill="#FFC424"/>
<path d="M34.779,138.094L37.627,138.094L37.627,144.659C37.627,147.761 36.147,148.91 33.597,148.91C33.016,148.91 32.243,148.832 31.712,148.654L32.012,146.365C32.358,146.462 32.804,146.543 33.265,146.543C34.179,146.543 34.779,146.135 34.779,144.669L34.779,138.094Z" fill="#FFFFFF"/>
<path d="M49.51,143.31C49.51,146.731 47.454,148.91 44.175,148.91C40.879,148.91 39.067,146.436 39.067,143.478C39.067,140.379 41.093,137.921 44.351,137.921C47.771,137.921 49.51,140.459 49.51,143.31ZM42.081,143.427C42.081,145.428 42.951,146.651 44.312,146.651C45.696,146.651 46.496,145.316 46.496,143.397C46.496,141.567 45.677,140.176 44.295,140.176C42.954,140.178 42.081,141.469 42.081,143.427Z" fill="#FFFFFF"/>
<path d="M51.028,138.241C51.672,138.121 53.074,138.011 54.388,138.011C55.89,138.011 56.802,138.118 57.628,138.531C58.457,138.917 59.059,139.683 59.059,140.722C59.059,141.618 58.569,142.492 57.336,142.958L57.336,142.997C58.638,143.348 59.418,144.315 59.418,145.579C59.418,146.582 58.933,147.368 58.228,147.9C57.428,148.5 56.107,148.854 53.827,148.854C52.542,148.854 51.599,148.771 51.028,148.681L51.028,138.241ZM53.849,142.192L54.42,142.192C55.622,142.192 56.207,141.765 56.207,141.079C56.207,140.454 55.734,140.061 54.781,140.061C54.303,140.061 54.034,140.088 53.849,140.125L53.849,142.192ZM53.849,146.736C54.059,146.768 54.303,146.768 54.668,146.768C55.614,146.768 56.424,146.389 56.424,145.452C56.424,144.552 55.6,144.205 54.532,144.205L53.849,144.205L53.849,146.736Z" fill="#FFFFFF"/>
<path d="M70.979,143.31C70.979,146.731 68.924,148.91 65.645,148.91C62.349,148.91 60.537,146.436 60.537,143.478C60.537,140.379 62.563,137.921 65.82,137.921C69.241,137.921 70.979,140.459 70.979,143.31ZM63.551,143.427C63.551,145.428 64.421,146.651 65.781,146.651C67.166,146.651 67.966,145.316 67.966,143.397C67.966,141.567 67.147,140.176 65.767,140.176C64.421,140.178 63.551,141.469 63.551,143.427Z" fill="#FFFFFF"/>
<path d="M72.498,138.241C73.271,138.114 74.388,138.011 76.004,138.011C77.535,138.011 78.63,138.287 79.376,138.86C80.102,139.397 80.585,140.337 80.585,141.423C80.585,142.502 80.227,143.444 79.551,144.049C78.691,144.818 77.445,145.162 76.011,145.162C75.736,145.162 75.49,145.137 75.316,145.125L75.316,148.737L72.498,148.737L72.498,138.241ZM75.316,142.938C75.47,142.965 75.66,142.977 75.967,142.977C77.077,142.977 77.769,142.406 77.769,141.489C77.769,140.696 77.245,140.159 76.16,140.159C75.743,140.159 75.463,140.19 75.316,140.225L75.316,142.938Z" fill="#FFFFFF"/>
<path d="M81.78,147.253C81.78,146.277 82.456,145.591 83.404,145.591C84.36,145.591 85.013,146.258 85.025,147.253C85.025,148.225 84.374,148.91 83.402,148.91C82.446,148.91 81.78,148.225 81.78,147.253Z" fill="#FFFFFF"/>
<path d="M94.414,148.464C94.012,148.661 93.01,148.903 91.737,148.903C87.758,148.903 86.013,146.424 86.013,143.59C86.013,139.837 88.76,137.931 91.932,137.931C93.154,137.931 94.149,138.16 94.59,138.404L94.034,140.647C93.573,140.454 92.915,140.264 92.066,140.264C90.43,140.264 89.014,141.23 89.014,143.41C89.014,145.34 90.165,146.541 92.118,146.541C92.808,146.541 93.58,146.406 94.022,146.236L94.414,148.464Z" fill="#FFFFFF"/>
<path d="M105.949,143.31C105.949,146.731 103.893,148.91 100.614,148.91C97.318,148.91 95.506,146.436 95.506,143.478C95.506,140.379 97.532,137.921 100.79,137.921C104.21,137.921 105.949,140.459 105.949,143.31ZM98.52,143.427C98.52,145.428 99.393,146.651 100.753,146.651C102.138,146.651 102.938,145.316 102.938,143.397C102.938,141.567 102.118,140.176 100.736,140.176C99.39,140.178 98.52,141.469 98.52,143.427Z" fill="#FFFFFF"/>
<path d="M107.255,147.253C107.255,146.277 107.931,145.591 108.879,145.591C109.835,145.591 110.488,146.258 110.5,147.253C110.5,148.225 109.849,148.91 108.877,148.91C107.921,148.91 107.255,148.225 107.255,147.253Z" fill="#FFFFFF"/>
<path d="M111.273,147.221L115.979,140.51L115.979,140.452L111.72,140.452L111.72,138.094L119.67,138.094L119.67,139.724L115.109,146.321L115.109,146.38L119.751,146.38L119.751,148.737L111.276,148.737L111.276,147.221L111.273,147.221Z" fill="#FFFFFF"/>
<path d="M123.99,146.27L123.391,148.737L120.445,148.737L123.529,138.094L127.323,138.094L130.493,148.737L127.416,148.737L126.738,146.27L123.99,146.27ZM126.348,144.166L125.855,142.253C125.694,141.652 125.492,140.784 125.326,140.156L125.295,140.156C125.136,140.784 124.98,141.66 124.827,142.265L124.368,144.168L126.348,144.168L126.348,144.166Z" fill="#FFFFFF"/>
</svg>
