<svg width="64" height="64" viewBox="0 0 64 64" fill="none" xmlns="http://www.w3.org/2000/svg" xmlns:xlink="http://www.w3.org/1999/xlink">
<path d="M32.07,64L31.93,64C14.324,64 0,49.676 0,32.07L0,31.93C0,14.324 14.324,0 31.93,0L32.07,0C49.676,0 64,14.324 64,31.93L64,32.07C64,49.676 49.676,64 32.07,64ZM31.93,2.166C15.517,2.166 2.166,15.517 2.166,31.93L2.166,32.07C2.166,48.483 15.517,61.834 31.93,61.834L32.07,61.834C48.483,61.834 61.834,48.483 61.834,32.07L61.834,31.93C61.834,15.517 48.483,2.166 32.07,2.166L31.93,2.166Z" fill="#FFFFFF"/>
<path d="M36.305,24.824L36.305,31.559L44.637,31.559L43.318,40.632L36.305,40.632L36.305,61.535C34.9,61.73 33.461,61.832 32.001,61.832C30.316,61.832 28.66,61.697 27.049,61.437L27.049,40.632L19.365,40.632L19.365,31.559L27.049,31.559L27.049,23.318C27.049,18.206 31.193,14.06 36.308,14.06L36.308,14.064C36.323,14.064 36.336,14.06 36.351,14.06L44.639,14.06L44.639,21.906L39.224,21.906C37.614,21.906 36.308,23.212 36.308,24.822L36.305,24.824Z" fill="#FFFFFF"/>
</svg>
