<svg width="768" height="830" viewBox="0 0 768 830" fill="none" xmlns="http://www.w3.org/2000/svg" xmlns:xlink="http://www.w3.org/1999/xlink">
<path d="M384,829.681C595.856,829.681 767.6,812.023 767.6,790.241C767.6,768.459 595.856,750.801 384,750.801C172.144,750.801 0.4,768.459 0.4,790.241C0.4,812.023 172.144,829.681 384,829.681Z" fill="url(#pf_0_26_1331)"/>
<path d="M586.92,214.32L580.46,214.32L580.46,96.94L586.92,96.94C589.32,96.94 591.28,98.9 591.28,101.3L591.28,209.98C591.28,212.38 589.34,214.32 586.92,214.32Z" fill="url(#pf_0_26_1334)"/>
<path d="M586.92,269.28L580.46,269.28L580.46,231.94L586.92,231.94C589.32,231.94 591.28,233.9 591.28,236.3L591.28,264.92C591.28,267.34 589.34,269.28 586.92,269.28Z" fill="url(#pf_0_26_1335)"/>
<path d="M532.2,791.881L235.78,791.881C206.14,791.881 182.12,767.861 182.12,738.221L182.12,53.801C182.12,24.161 206.14,0.141 235.78,0.141L532.2,0.141C561.84,0.141 585.86,24.161 585.86,53.801L585.86,738.221C585.88,767.841 561.84,791.881 532.2,791.881Z" fill="url(#pf_0_26_1336)"/>
<path d="M532.2,8.121L459.16,8.121C461.82,11.581 463.44,15.901 463.44,20.621C463.44,31.941 454.26,41.121 442.94,41.121L325.08,41.121C313.76,41.121 304.58,31.941 304.58,20.621C304.58,15.921 306.18,11.581 308.86,8.121L235.8,8.121C210.62,8.121 190.14,28.601 190.14,53.781L190.14,738.201C190.14,744.121 191.28,749.781 193.34,754.961C200.02,771.881 216.54,783.861 235.8,783.861L532.2,783.861C551.46,783.861 567.98,771.881 574.68,754.961C576.74,749.781 577.88,744.121 577.88,738.201L577.88,53.781C577.88,28.621 557.38,8.121 532.2,8.121Z" fill="url(#pf_0_26_1337)"/>
<path d="M577.9,53.781L577.9,115.721L190.14,115.721L190.14,53.781C190.14,28.601 210.6,8.121 235.8,8.121L308.84,8.121C306.18,11.581 304.58,15.901 304.58,20.621C304.58,20.621 304.58,20.621 304.58,20.641C304.6,31.961 313.76,41.121 325.08,41.121L442.94,41.121C454.26,41.121 463.44,31.941 463.44,20.621L463.44,20.541C463.42,15.861 461.82,11.561 459.16,8.121L532.2,8.121C557.4,8.121 577.9,28.621 577.9,53.781Z" fill="url(#pf_0_26_1338)"/>
<path d="M393.5,23.541L349.1,23.541C347.84,23.541 346.82,22.501 346.82,21.261L346.82,20.001C346.82,18.741 347.86,17.721 349.1,17.721L393.5,17.721C394.76,17.721 395.78,18.761 395.78,20.001L395.78,21.261C395.8,22.521 394.76,23.541 393.5,23.541Z" fill="url(#pf_0_26_1340)"/>
<path d="M413.72,25.8C416.581,25.8 418.9,23.481 418.9,20.62C418.9,17.76 416.581,15.44 413.72,15.44C410.859,15.44 408.54,17.76 408.54,20.62C408.54,23.481 410.859,25.8 413.72,25.8Z" fill="#000000"/>
<path d="M413.72,28.061C417.829,28.061 421.16,24.73 421.16,20.621C421.16,16.512 417.829,13.181 413.72,13.181C409.611,13.181 406.28,16.512 406.28,20.621C406.28,24.73 409.611,28.061 413.72,28.061Z" fill="url(#pf_0_26_1343)"/>
<path d="M413.72,26.721C417.089,26.721 419.82,23.989 419.82,20.621C419.82,17.252 417.089,14.521 413.72,14.521C410.351,14.521 407.62,17.252 407.62,20.621C407.62,23.989 410.351,26.721 413.72,26.721Z" fill="url(#pf_0_26_1344)"/>
<path d="M413.72,25.8C416.581,25.8 418.9,23.481 418.9,20.62C418.9,17.76 416.581,15.44 413.72,15.44C410.859,15.44 408.54,17.76 408.54,20.62C408.54,23.481 410.859,25.8 413.72,25.8Z" fill="url(#pf_0_26_1345)"/>
<path d="M413.72,25.8C416.581,25.8 418.9,23.481 418.9,20.62C418.9,17.76 416.581,15.44 413.72,15.44C410.859,15.44 408.54,17.76 408.54,20.62C408.54,23.481 410.859,25.8 413.72,25.8Z" fill="url(#pf_0_26_1346)"/>
<path d="M413.72,25.8C416.581,25.8 418.9,23.481 418.9,20.62C418.9,17.76 416.581,15.44 413.72,15.44C410.859,15.44 408.54,17.76 408.54,20.62C408.54,23.481 410.859,25.8 413.72,25.8Z" fill="url(#pf_0_26_1347)"/>
<g opacity="0.5">
<path d="M413.72,25.8C416.581,25.8 418.9,23.481 418.9,20.62C418.9,17.76 416.581,15.44 413.72,15.44C410.859,15.44 408.54,17.76 408.54,20.62C408.54,23.481 410.859,25.8 413.72,25.8Z" fill="url(#pf_0_26_1348)"/>
</g>
<path d="M495.7,41.321L493.34,41.321L493.34,45.181L495.7,45.181L495.7,41.321Z" fill="#FFFFFF"/>
<path d="M499.08,39.761L496.72,39.761L496.72,45.181L499.08,45.181L499.08,39.761Z" fill="#FFFFFF"/>
<path d="M502.48,38.261L500.12,38.261L500.12,45.181L502.48,45.181L502.48,38.261Z" fill="#FFFFFF"/>
<path d="M505.86,36.541L503.5,36.541L503.5,45.181L505.86,45.181L505.86,36.541Z" fill="#FFFFFF"/>
<path d="M517,40.941C518.36,39.621 520.22,38.801 522.26,38.801C524.3,38.801 526.16,39.621 527.52,40.941L529.12,39.341C527.36,37.601 524.94,36.541 522.28,36.541C519.62,36.541 517.2,37.621 515.44,39.341L517,40.941Z" fill="#FFFFFF"/>
<path d="M519.12,43.061C519.94,42.281 521.04,41.801 522.26,41.801C523.48,41.801 524.58,42.281 525.4,43.061L526.98,41.481C525.76,40.301 524.1,39.561 522.26,39.561C520.42,39.561 518.76,40.301 517.54,41.481L519.12,43.061Z" fill="#FFFFFF"/>
<path d="M521.24,45.201C521.52,44.961 521.86,44.801 522.24,44.801C522.62,44.801 522.98,44.961 523.24,45.201L524.84,43.601C524.16,42.961 523.24,42.561 522.24,42.561C521.22,42.561 520.32,42.961 519.64,43.601L521.24,45.201Z" fill="#FFFFFF"/>
<path d="M554.7,44.141L540.56,44.141C540.32,44.141 540.12,43.941 540.12,43.701L540.12,38.041C540.12,37.801 540.32,37.601 540.56,37.601L554.7,37.601C554.94,37.601 555.14,37.801 555.14,38.041L555.14,43.701C555.14,43.941 554.94,44.141 554.7,44.141Z" fill="#FFFFFF"/>
<path d="M556.26,42.281L555.94,42.281C555.7,42.281 555.5,42.081 555.5,41.841L555.5,39.901C555.5,39.661 555.7,39.461 555.94,39.461L556.26,39.461C556.5,39.461 556.7,39.661 556.7,39.901L556.7,41.841C556.7,42.081 556.5,42.281 556.26,42.281Z" fill="#FFFFFF"/>
<path d="M252.48,36.54L252.48,43.241L262.58,43.241L264.34,45.001L264.34,43.241L264.34,42.461L264.34,36.521L252.48,36.521L252.48,36.54ZM255.46,40.421C255.14,40.421 254.86,40.161 254.86,39.821C254.86,39.501 255.12,39.221 255.46,39.221C255.78,39.221 256.06,39.481 256.06,39.821C256.04,40.161 255.78,40.421 255.46,40.421ZM258.42,40.421C258.1,40.421 257.82,40.161 257.82,39.821C257.82,39.501 258.08,39.221 258.42,39.221C258.74,39.221 259.02,39.481 259.02,39.821C259,40.161 258.74,40.421 258.42,40.421ZM261.36,40.421C261.04,40.421 260.76,40.161 260.76,39.821C260.76,39.501 261.02,39.221 261.36,39.221C261.7,39.221 261.96,39.481 261.96,39.821C261.96,40.161 261.68,40.421 261.36,40.421Z" fill="#FFFFFF"/>
<path d="M275.2,36.541C273.46,36.541 272.06,37.941 272.06,39.681C272.06,41.421 275.2,45.021 275.2,45.021C275.2,45.021 278.34,41.421 278.34,39.681C278.34,37.961 276.94,36.541 275.2,36.541ZM275.2,41.001C274.48,41.001 273.88,40.401 273.88,39.681C273.88,38.961 274.48,38.361 275.2,38.361C275.92,38.361 276.52,38.961 276.52,39.681C276.52,40.421 275.92,41.001 275.2,41.001Z" fill="#FFFFFF"/>
<rect  x="230.951" y="67.278" width="46.56" height="46.56" fill="url(#pattern_0_26_1364)"/>
<path d="M269.48,88.54C269.48,94.14 266.8,99.14 262.66,102.3C259.76,104.5 256.14,105.82 252.22,105.82C248.3,105.82 244.68,104.52 241.78,102.3C237.64,99.14 234.96,94.16 234.96,88.54C234.96,79 242.7,71.28 252.22,71.28C261.74,71.28 269.48,79 269.48,88.54Z" fill="url(#pf_0_26_1366)"/>
<path d="M228.18,87.54L214.72,87.54L219.02,83.241C219.42,82.841 219.42,82.221 219.02,81.821C218.62,81.421 218,81.421 217.6,81.821L211.6,87.821C211.5,87.921 211.44,88.021 211.38,88.141C211.28,88.381 211.28,88.66 211.38,88.9C211.44,89.02 211.5,89.141 211.6,89.221L217.6,95.221C217.8,95.421 218.06,95.521 218.3,95.521C218.54,95.521 218.82,95.421 219,95.221C219.4,94.821 219.4,94.201 219,93.801L214.7,89.501L228.16,89.501C228.72,89.501 229.16,89.061 229.16,88.501C229.16,87.941 228.72,87.54 228.18,87.54Z" fill="url(#pf_0_26_1367)"/>
<path d="M556.7,82.901C556.7,83.921 555.88,84.761 554.84,84.761C553.8,84.761 552.98,83.921 552.98,82.901C552.98,81.881 553.8,81.041 554.84,81.041C555.88,81.041 556.7,81.881 556.7,82.901Z" fill="url(#pf_0_26_1369)"/>
<path d="M554.84,90.401C555.867,90.401 556.7,89.568 556.7,88.541C556.7,87.513 555.867,86.681 554.84,86.681C553.813,86.681 552.98,87.513 552.98,88.541C552.98,89.568 553.813,90.401 554.84,90.401Z" fill="url(#pf_0_26_1370)"/>
<path d="M556.7,94.201C556.7,95.221 555.88,96.061 554.84,96.061C553.8,96.061 552.98,95.241 552.98,94.201C552.98,93.181 553.8,92.341 554.84,92.341C555.88,92.341 556.7,93.181 556.7,94.201Z" fill="url(#pf_0_26_1371)"/>
<path d="M477.64,96.061L461.82,96.061C461.22,96.061 460.74,95.581 460.74,94.981L460.74,82.121C460.74,81.521 461.22,81.041 461.82,81.041L477.64,81.041C478.24,81.041 478.72,81.521 478.72,82.121L478.72,94.981C478.72,95.581 478.24,96.061 477.64,96.061Z" fill="url(#pf_0_26_1373)"/>
<path d="M483,93.461L480.58,92.321C480.2,92.141 479.96,91.761 479.96,91.341L479.96,85.741C479.96,85.321 480.2,84.941 480.58,84.781L483,83.641C483.72,83.301 484.52,83.821 484.52,84.621L484.52,92.501C484.52,93.281 483.7,93.801 483,93.461Z" fill="url(#pf_0_26_1374)"/>
<path d="M510.38,82.381C509.74,83.381 509.94,84.741 510.52,85.881C511.16,87.601 512.52,89.661 514.46,91.581C516.38,93.501 518.44,94.881 520.16,95.521C521.28,96.101 522.66,96.301 523.66,95.661C523.88,95.521 524.08,95.361 524.26,95.181C525.28,94.161 525.22,92.481 524.2,91.461C523.42,90.681 522.26,90.481 521.24,90.901C521,91.001 520.76,91.061 520.52,91.121C519.96,91.481 518.38,90.641 516.88,89.141C515.38,87.641 514.54,86.061 514.9,85.501C514.94,85.261 515.02,85.021 515.12,84.781C515.54,83.761 515.34,82.601 514.56,81.821C513.54,80.801 511.86,80.741 510.84,81.761C510.7,81.961 510.52,82.161 510.38,82.381Z" fill="url(#pf_0_26_1375)"/>
<rect  x="211.336" y="235.117" width="413.28" height="60.96" fill="url(#pattern_0_26_1377)"/>
<path d="M235.64,271.821L235.64,246.741C235.64,242.521 239.06,239.101 243.28,239.101L608.54,239.101C612.76,239.101 616.18,242.521 616.18,246.741L616.18,280.421C616.18,284.641 612.76,288.061 608.54,288.061L253.14,288.061L235.64,288.061L215.32,288.061C220.38,279.521 228.34,274.641 235.64,271.821Z" fill="url(#pf_0_26_1379)"/>
<path d="M593.133,275.927C592.938,275.731 592.622,275.731 592.426,275.927C592.231,276.122 592.231,276.438 592.426,276.634L593.133,275.927ZM596.56,280.06L596.206,280.414C596.401,280.609 596.718,280.609 596.913,280.414L596.56,280.06ZM604.833,272.514C605.028,272.319 605.029,272.003 604.834,271.807C604.639,271.612 604.322,271.611 604.127,271.806L604.833,272.514ZM592.426,276.634L596.206,280.414L596.913,279.707L593.133,275.927L592.426,276.634ZM596.913,280.414L604.833,272.514L604.127,271.806L596.207,279.706L596.913,280.414Z" fill="#3CA7D6"/>
<path d="M596.833,275.927C596.638,275.731 596.322,275.731 596.126,275.927C595.931,276.122 595.931,276.438 596.126,276.634L596.833,275.927ZM600.26,280.06L599.906,280.414C600.102,280.609 600.418,280.609 600.613,280.414L600.26,280.06ZM608.513,272.514C608.709,272.318 608.709,272.002 608.513,271.807C608.318,271.611 608.002,271.611 607.806,271.807L608.513,272.514ZM596.126,276.634L599.906,280.414L600.613,279.707L596.833,275.927L596.126,276.634ZM600.613,280.414L608.513,272.514L607.806,271.807L599.906,279.707L600.613,280.414Z" fill="#3CA7D6"/>
<rect  x="147.829" y="295.713" width="413.28" height="60.96" fill="url(#pattern_0_26_1384)"/>
<path d="M532.36,332.421L532.36,307.341C532.36,303.121 528.94,299.701 524.72,299.701L159.46,299.701C155.24,299.701 151.82,303.121 151.82,307.341L151.82,341.021C151.82,345.241 155.24,348.661 159.46,348.661L514.86,348.661L532.36,348.661L552.68,348.661C547.62,340.121 539.66,335.221 532.36,332.421Z" fill="url(#pf_0_26_1386)"/>
<rect  x="147.829" y="478.006" width="413.28" height="60.96" fill="url(#pattern_0_26_1388)"/>
<path d="M532.36,514.721L532.36,489.641C532.36,485.421 528.94,482.001 524.72,482.001L159.46,482.001C155.24,482.001 151.82,485.421 151.82,489.641L151.82,523.321C151.82,527.541 155.24,530.961 159.46,530.961L514.86,530.961L532.36,530.961L552.68,530.961C547.62,522.421 539.66,517.521 532.36,514.721Z" fill="url(#pf_0_26_1390)"/>
<rect  x="340.428" y="356.309" width="199.2" height="60.96" fill="url(#pattern_0_26_1392)"/>
<path d="M523.74,360.301L352.06,360.301C347.84,360.301 344.42,363.721 344.42,367.941L344.42,401.621C344.42,405.841 347.84,409.261 352.06,409.261L523.74,409.261C527.96,409.261 531.38,405.841 531.38,401.621L531.38,367.941C531.38,363.721 527.96,360.301 523.74,360.301Z" fill="url(#pf_0_26_1394)"/>
<rect  x="231.649" y="417.41" width="221.28" height="60.96" fill="url(#pattern_0_26_1396)"/>
<path d="M436.9,421.401L243.28,421.401C239.06,421.401 235.64,424.821 235.64,429.041L235.64,462.721C235.64,466.941 239.06,470.361 243.28,470.361L436.9,470.361C441.12,470.361 444.54,466.941 444.54,462.721L444.54,429.041C444.54,424.821 441.12,421.401 436.9,421.401Z" fill="url(#pf_0_26_1398)"/>
<rect  x="147.829" y="125.566" width="413.28" height="109.92" fill="url(#pattern_0_26_1400)"/>
<path d="M532.36,211.221L532.36,137.201C532.36,132.981 528.94,129.561 524.72,129.561L159.46,129.561C155.24,129.561 151.82,132.981 151.82,137.201L151.82,219.841C151.82,224.061 155.24,227.481 159.46,227.481L514.86,227.481L532.36,227.481L552.68,227.481C547.62,218.941 539.66,214.041 532.36,211.221Z" fill="url(#pf_0_26_1402)"/>
<rect  x="507.601" y="696.637" width="57.12" height="57.12" fill="url(#pattern_0_26_1405)"/>
<path d="M534.14,745.721C546.588,745.721 556.68,735.629 556.68,723.181C556.68,710.732 546.588,700.641 534.14,700.641C521.691,700.641 511.6,710.732 511.6,723.181C511.6,735.629 521.691,745.721 534.14,745.721Z" fill="url(#pf_0_26_1407)"/>
<path d="M537.66,716.541C537.66,714.601 536.08,713.021 534.14,713.021C532.2,713.021 530.62,714.601 530.62,716.541L530.62,723.641C530.62,725.581 532.2,727.161 534.14,727.161C536.08,727.161 537.66,725.581 537.66,723.641L537.66,716.541Z" fill="url(#pf_0_26_1409)"/>
<path d="M540.06,724.042C540.06,723.702 539.78,723.422 539.44,723.422C539.1,723.422 538.82,723.702 538.82,724.042C538.82,726.622 536.72,728.702 534.16,728.702C531.58,728.702 529.5,726.602 529.5,724.042C529.5,723.702 529.22,723.422 528.88,723.422C528.54,723.422 528.26,723.702 528.26,724.042C528.26,727.082 530.58,729.562 533.54,729.882L533.54,732.722C533.54,733.062 533.82,733.342 534.16,733.342C534.5,733.342 534.78,733.062 534.78,732.722L534.78,729.882C537.72,729.582 540.06,727.102 540.06,724.042Z" fill="url(#pf_0_26_1410)"/>
<rect  x="207.305" y="696.636" width="297.6" height="57.12" fill="url(#pattern_0_26_1412)"/>
<path d="M474.02,745.721L233.86,745.721C221.4,745.721 211.32,735.621 211.32,723.181C211.32,710.721 221.42,700.641 233.86,700.641L474.02,700.641C486.48,700.641 496.56,710.741 496.56,723.181C496.56,735.641 486.46,745.721 474.02,745.721Z" fill="url(#pf_0_26_1414)"/>
<path d="M246.17,723.18C246.17,728.026 242.246,731.95 237.4,731.95L237.4,733.45C243.074,733.45 247.67,728.854 247.67,723.18L246.17,723.18ZM237.4,731.95C232.554,731.95 228.63,728.026 228.63,723.18L227.13,723.18C227.13,728.854 231.726,733.45 237.4,733.45L237.4,731.95ZM228.63,723.18C228.63,718.334 232.554,714.41 237.4,714.41L237.4,712.91C231.726,712.91 227.13,717.506 227.13,723.18L228.63,723.18ZM237.4,714.41C242.246,714.41 246.17,718.334 246.17,723.18L247.67,723.18C247.67,717.506 243.074,712.91 237.4,712.91L237.4,714.41Z" fill="#87817C"/>
<path d="M244.69,723.18C244.69,722.765 244.354,722.43 243.94,722.43C243.526,722.43 243.19,722.765 243.19,723.18L244.69,723.18ZM231.57,723.18C231.57,722.765 231.234,722.43 230.82,722.43C230.406,722.43 230.07,722.765 230.07,723.18L231.57,723.18ZM243.19,723.18C243.19,726.385 240.586,728.99 237.38,728.99L237.38,730.49C241.414,730.49 244.69,727.214 244.69,723.18L243.19,723.18ZM237.38,728.99C234.174,728.99 231.57,726.385 231.57,723.18L230.07,723.18C230.07,727.214 233.346,730.49 237.38,730.49L237.38,728.99Z" fill="#87817C"/>
<line x1="233.67" y1="719.4" x2="233.67" y2="721.66" stroke="#87817C" stroke-width="0.75" stroke-miterlimit="10" stroke-linecap="round" stroke-linejoin="round"/>
<line x1="239.61" y1="719.4" x2="239.61" y2="721.66" stroke="#87817C" stroke-width="0.75" stroke-miterlimit="10" stroke-linecap="round" stroke-linejoin="round"/>
<path d="M423.45,730.171C423.742,730.464 424.217,730.464 424.51,730.171C424.803,729.878 424.803,729.403 424.51,729.11L423.45,730.171ZM414.22,719.881L413.69,720.411L414.22,719.881ZM416.9,717.201L417.43,716.67L416.9,717.201ZM426.78,727.081L426.25,727.611L426.78,727.081ZM422.14,731.721L422.67,731.19L422.67,731.19L422.14,731.721ZM411.98,721.561L411.45,722.091L411.45,722.091L411.98,721.561ZM411.98,715.001L412.507,715.534L412.51,715.531L411.98,715.001ZM418.54,715.001L418.007,715.528L418.01,715.531L418.54,715.001ZM428.91,726.431C429.202,726.724 429.677,726.724 429.97,726.431C430.263,726.138 430.263,725.663 429.97,725.37L428.91,726.431ZM424.51,729.11L414.75,719.35L413.69,720.411L423.45,730.171L424.51,729.11ZM414.75,719.35C414.303,718.903 414.303,718.178 414.75,717.731L413.69,716.67C412.657,717.703 412.657,719.378 413.69,720.411L414.75,719.35ZM414.75,717.731C415.197,717.284 415.922,717.284 416.37,717.731L417.43,716.67C416.397,715.638 414.722,715.638 413.69,716.67L414.75,717.731ZM416.37,717.731L426.25,727.611L427.31,726.55L417.43,716.67L416.37,717.731ZM426.25,727.611C427.237,728.598 427.237,730.203 426.25,731.19L427.31,732.251C428.883,730.678 428.883,728.123 427.31,726.55L426.25,727.611ZM426.25,731.19C425.262,732.177 423.657,732.177 422.67,731.19L421.61,732.251C423.182,733.824 425.737,733.824 427.31,732.251L426.25,731.19ZM422.67,731.19L412.51,721.03L411.45,722.091L421.61,732.251L422.67,731.19ZM412.51,721.03C410.981,719.502 410.986,717.039 412.507,715.534L411.452,714.467C409.334,716.563 409.338,719.98 411.45,722.091L412.51,721.03ZM412.51,715.531C414.039,714.002 416.502,714.007 418.007,715.528L419.073,714.473C416.978,712.355 413.561,712.359 411.45,714.47L412.51,715.531ZM418.01,715.531L428.91,726.431L429.97,725.37L419.07,714.47L418.01,715.531Z" fill="#87817C"/>
<path d="M478.24,716.46L475.52,716.46L473.72,714.18C473.46,713.86 473.04,713.66 472.58,713.66L465.68,713.66C465.22,713.66 464.8,713.86 464.54,714.18L462.74,716.46L459.44,716.46C458.46,716.46 457.68,717.24 457.68,718.22L457.68,730.94C457.68,731.92 458.46,732.7 459.44,732.7L478.26,732.7C479.24,732.7 480.02,731.92 480.02,730.94L480.02,718.22C480,717.24 479.2,716.46 478.24,716.46ZM468.82,730.74C465.2,730.74 462.28,727.8 462.28,724.2C462.28,720.58 465.22,717.66 468.82,717.66C472.44,717.66 475.36,720.6 475.36,724.2C475.38,727.8 472.44,730.74 468.82,730.74Z" fill="#87817C" stroke="#87817C" stroke-width="0.75" stroke-miterlimit="10" stroke-linecap="round" stroke-linejoin="round"/>
<path d="M468.82,728.24C471.062,728.24 472.88,726.422 472.88,724.18C472.88,721.938 471.062,720.12 468.82,720.12C466.578,720.12 464.76,721.938 464.76,724.18C464.76,726.422 466.578,728.24 468.82,728.24Z" fill="#87817C"/>
<path d="M194.48,757.601C201.78,773.101 217.54,783.861 235.78,783.861L532.2,783.861C550.44,783.861 566.2,773.101 573.52,757.601L194.48,757.601Z" fill="url(#pf_0_26_1425)"/>
<path d="M421.513,458.227C421.318,458.032 421.002,458.032 420.806,458.227C420.611,458.423 420.611,458.739 420.806,458.934L421.513,458.227ZM424.94,462.361L424.586,462.714C424.782,462.91 425.098,462.91 425.293,462.714L424.94,462.361ZM433.194,454.814C433.389,454.619 433.389,454.303 433.194,454.107C432.998,453.912 432.682,453.912 432.486,454.107L433.194,454.814ZM420.806,458.934L424.586,462.714L425.293,462.007L421.513,458.227L420.806,458.934ZM425.293,462.714L433.194,454.814L432.486,454.107L424.586,462.007L425.293,462.714Z" fill="#3CA7D6"/>
<path d="M425.213,458.227C425.018,458.032 424.702,458.032 424.506,458.227C424.311,458.423 424.311,458.739 424.506,458.934L425.213,458.227ZM428.64,462.361L428.286,462.714C428.482,462.91 428.798,462.91 428.994,462.714L428.64,462.361ZM436.893,454.814C437.089,454.619 437.089,454.303 436.893,454.107C436.698,453.912 436.382,453.912 436.186,454.107L436.893,454.814ZM424.506,458.934L428.286,462.714L428.994,462.007L425.213,458.227L424.506,458.934ZM428.994,462.714L436.893,454.814L436.186,454.107L428.286,462.007L428.994,462.714Z" fill="#3CA7D6"/>
<g opacity="0.5">
<path d="M463.86,24.521C463.86,29.601 461.8,34.201 458.46,37.521C455.14,40.861 450.52,43.861 445.44,43.861L322.54,43.861C312.36,43.861 304.14,34.681 304.14,24.521C304.14,23.181 304.28,21.881 304.56,20.641C304.58,31.961 313.74,41.121 325.06,41.121L442.92,41.121C454.24,41.121 463.42,31.941 463.42,20.621L463.42,20.541C463.72,21.841 463.86,23.161 463.86,24.521Z" fill="url(#pf_0_26_1429)"/>
</g>
<defs>
<radialGradient id="pf_0_26_1331" cx="0" cy="0" r="1" gradientUnits="userSpaceOnUse" gradientTransform="matrix(179.359443 0 0 13.639781 192 395.112)">
<stop stop-color="#098C5D"/>
<stop offset="1" stop-color="#098C5D" stop-opacity="0"/>
</radialGradient>
<linearGradient id="pf_0_26_1334" x1="585.871" y1="96.766" x2="585.871" y2="215.464" gradientUnits="userSpaceOnUse">
<stop stop-color="#B3B3B3"/>
<stop offset="0.029" stop-color="#B9B9B9"/>
<stop offset="0.068" stop-color="#C9C9C9"/>
<stop offset="0.111" stop-color="#E4E4E4"/>
<stop offset="0.146" stop-color="#FFFFFF"/>
<stop offset="0.158" stop-color="#F6F6F6"/>
<stop offset="0.209" stop-color="#D7D7D7"/>
<stop offset="0.267" stop-color="#BBBBBB"/>
<stop offset="0.332" stop-color="#A5A5A5"/>
<stop offset="0.408" stop-color="#949494"/>
<stop offset="0.502" stop-color="#898989"/>
<stop offset="0.634" stop-color="#828282"/>
<stop offset="1" stop-color="#808080"/>
</linearGradient>
<linearGradient id="pf_0_26_1335" x1="585.871" y1="231.767" x2="585.871" y2="269.819" gradientUnits="userSpaceOnUse">
<stop stop-color="#B3B3B3"/>
<stop offset="0.029" stop-color="#B9B9B9"/>
<stop offset="0.068" stop-color="#C9C9C9"/>
<stop offset="0.111" stop-color="#E4E4E4"/>
<stop offset="0.146" stop-color="#FFFFFF"/>
<stop offset="0.158" stop-color="#F6F6F6"/>
<stop offset="0.209" stop-color="#D7D7D7"/>
<stop offset="0.267" stop-color="#BBBBBB"/>
<stop offset="0.332" stop-color="#A5A5A5"/>
<stop offset="0.408" stop-color="#949494"/>
<stop offset="0.502" stop-color="#898989"/>
<stop offset="0.634" stop-color="#828282"/>
<stop offset="1" stop-color="#808080"/>
</linearGradient>
<linearGradient id="pf_0_26_1336" x1="182.124" y1="396.001" x2="588.031" y2="396.001" gradientUnits="userSpaceOnUse">
<stop stop-color="#FFFFFF"/>
<stop offset="0.001" stop-color="#F1F1F1"/>
<stop offset="0.004" stop-color="#E0E0E0"/>
<stop offset="0.006" stop-color="#D5D5D5"/>
<stop offset="0.01" stop-color="#CECECE"/>
<stop offset="0.021" stop-color="#CCCCCC"/>
<stop offset="0.137" stop-color="#D2D2D2"/>
<stop offset="0.299" stop-color="#E4E4E4"/>
<stop offset="0.471" stop-color="#FFFFFF"/>
<stop offset="0.682" stop-color="#DADADA"/>
<stop offset="0.884" stop-color="#BEBEBE"/>
<stop offset="1" stop-color="#B3B3B3"/>
</linearGradient>
<linearGradient id="pf_0_26_1337" x1="383.998" y1="783.871" x2="383.998" y2="9.098" gradientUnits="userSpaceOnUse">
<stop stop-color="#BFB1A5"/>
<stop offset="0.057" stop-color="#C6B9AE"/>
<stop offset="0.235" stop-color="#D9CDC3"/>
<stop offset="0.433" stop-color="#E6DCD2"/>
<stop offset="0.662" stop-color="#EEE4DB"/>
<stop offset="1" stop-color="#F0E7DE"/>
</linearGradient>
<linearGradient id="pf_0_26_1338" x1="384.01" y1="5.508" x2="384.01" y2="114.599" gradientUnits="userSpaceOnUse">
<stop stop-color="#2FA38A"/>
<stop offset="0.294" stop-color="#2B9F87"/>
<stop offset="0.584" stop-color="#1F937F"/>
<stop offset="0.871" stop-color="#0B7F70"/>
<stop offset="1" stop-color="#007468"/>
</linearGradient>
<linearGradient id="pf_0_26_1340" x1="371.308" y1="23.76" x2="371.308" y2="17.615" gradientUnits="userSpaceOnUse">
<stop stop-color="#4D4D4D"/>
<stop offset="0.069" stop-color="#434343"/>
<stop offset="0.309" stop-color="#262626"/>
<stop offset="0.547" stop-color="#111111"/>
<stop offset="0.779" stop-color="#040404"/>
<stop offset="1" stop-color="#000000"/>
</linearGradient>
<linearGradient id="pf_0_26_1343" x1="419.574" y1="26.474" x2="408.481" y2="15.381" gradientUnits="userSpaceOnUse">
<stop stop-color="#4D4D4D"/>
<stop offset="1" stop-color="#000000"/>
</linearGradient>
<linearGradient id="pf_0_26_1344" x1="418.509" y1="25.41" x2="409.435" y2="16.336" gradientUnits="userSpaceOnUse">
<stop stop-color="#000000"/>
<stop offset="1" stop-color="#4D4D4D"/>
</linearGradient>
<linearGradient id="pf_0_26_1345" x1="409.911" y1="16.811" x2="418.21" y2="25.111" gradientUnits="userSpaceOnUse">
<stop stop-color="#0058EE"/>
<stop offset="0.694" stop-color="#000000" stop-opacity="0"/>
</linearGradient>
<radialGradient id="pf_0_26_1346" cx="0" cy="0" r="1" gradientUnits="userSpaceOnUse" gradientTransform="matrix(2.594212 0 0 2.5942 207.078 12.903)">
<stop stop-color="#0058EE"/>
<stop offset="0.86" stop-color="#000000" stop-opacity="0"/>
</radialGradient>
<radialGradient id="pf_0_26_1347" cx="0" cy="0" r="1" gradientUnits="userSpaceOnUse" gradientTransform="matrix(1.703108 0 0 1.7031 209.321 9.497)">
<stop stop-color="#0058EE"/>
<stop offset="0.704" stop-color="#000000" stop-opacity="0"/>
</radialGradient>
<radialGradient id="pf_0_26_1348" cx="0" cy="0" r="1" gradientUnits="userSpaceOnUse" gradientTransform="matrix(2.583311 0 0 2.5833 205.267 11.188)">
<stop stop-color="#FFFFFF"/>
<stop offset="0.148" stop-color="#BDBDBD" stop-opacity="0.833"/>
<stop offset="0.295" stop-color="#838383" stop-opacity="0.668"/>
<stop offset="0.435" stop-color="#545454" stop-opacity="0.51"/>
<stop offset="0.567" stop-color="#303030" stop-opacity="0.36"/>
<stop offset="0.691" stop-color="#151515" stop-opacity="0.221"/>
<stop offset="0.801" stop-color="#060606" stop-opacity="0.097"/>
<stop offset="0.887" stop-color="#000000" stop-opacity="0"/>
</radialGradient>
<linearGradient id="pf_0_26_1366" x1="252.212" y1="71.568" x2="252.212" y2="115.395" gradientUnits="userSpaceOnUse">
<stop stop-color="#FFFFFF"/>
<stop offset="1" stop-color="#CBE3EB"/>
</linearGradient>
<linearGradient id="pf_0_26_1367" x1="220.238" y1="81.543" x2="220.238" y2="95.551" gradientUnits="userSpaceOnUse">
<stop stop-color="#FFFFFF"/>
<stop offset="1" stop-color="#CBE3EB"/>
</linearGradient>
<linearGradient id="pf_0_26_1369" x1="554.841" y1="80.943" x2="554.841" y2="84.882" gradientUnits="userSpaceOnUse">
<stop stop-color="#FFFFFF"/>
<stop offset="1" stop-color="#CBE3EB"/>
</linearGradient>
<linearGradient id="pf_0_26_1370" x1="554.841" y1="86.594" x2="554.841" y2="90.533" gradientUnits="userSpaceOnUse">
<stop stop-color="#FFFFFF"/>
<stop offset="1" stop-color="#CBE3EB"/>
</linearGradient>
<linearGradient id="pf_0_26_1371" x1="554.841" y1="92.246" x2="554.841" y2="96.185" gradientUnits="userSpaceOnUse">
<stop stop-color="#FFFFFF"/>
<stop offset="1" stop-color="#CBE3EB"/>
</linearGradient>
<linearGradient id="pf_0_26_1373" x1="469.732" y1="80.641" x2="469.732" y2="96.588" gradientUnits="userSpaceOnUse">
<stop stop-color="#FFFFFF"/>
<stop offset="1" stop-color="#CBE3EB"/>
</linearGradient>
<linearGradient id="pf_0_26_1374" x1="482.241" y1="83.265" x2="482.241" y2="93.919" gradientUnits="userSpaceOnUse">
<stop stop-color="#FFFFFF"/>
<stop offset="1" stop-color="#CBE3EB"/>
</linearGradient>
<linearGradient id="pf_0_26_1375" x1="514.181" y1="91.862" x2="525.473" y2="80.571" gradientUnits="userSpaceOnUse">
<stop stop-color="#FFFFFF"/>
<stop offset="1" stop-color="#CBE3EB"/>
</linearGradient>
<linearGradient id="pf_0_26_1379" x1="415.753" y1="237.107" x2="415.753" y2="289.893" gradientUnits="userSpaceOnUse">
<stop stop-color="#E2FFC7"/>
<stop offset="0.267" stop-color="#DBF7C1"/>
<stop offset="0.678" stop-color="#C9E2AF"/>
<stop offset="1" stop-color="#B6CC9E"/>
</linearGradient>
<linearGradient id="pf_0_26_1386" x1="352.246" y1="297.703" x2="352.246" y2="350.49" gradientUnits="userSpaceOnUse">
<stop stop-color="#FFFFFF"/>
<stop offset="1" stop-color="#CBE3EB"/>
</linearGradient>
<linearGradient id="pf_0_26_1390" x1="352.246" y1="479.996" x2="352.246" y2="532.782" gradientUnits="userSpaceOnUse">
<stop stop-color="#FFFFFF"/>
<stop offset="1" stop-color="#CBE3EB"/>
</linearGradient>
<linearGradient id="pf_0_26_1394" x1="437.901" y1="358.298" x2="437.901" y2="411.085" gradientUnits="userSpaceOnUse">
<stop stop-color="#FFFFFF"/>
<stop offset="1" stop-color="#CBE3EB"/>
</linearGradient>
<linearGradient id="pf_0_26_1398" x1="340.096" y1="419.4" x2="340.096" y2="472.187" gradientUnits="userSpaceOnUse">
<stop stop-color="#E2FFC7"/>
<stop offset="0.267" stop-color="#DBF7C1"/>
<stop offset="0.678" stop-color="#C9E2AF"/>
<stop offset="1" stop-color="#B6CC9E"/>
</linearGradient>
<linearGradient id="pf_0_26_1402" x1="352.246" y1="125.546" x2="352.246" y2="231.12" gradientUnits="userSpaceOnUse">
<stop stop-color="#FFFFFF"/>
<stop offset="1" stop-color="#CBE3EB"/>
</linearGradient>
<linearGradient id="pf_0_26_1407" x1="534.148" y1="701.12" x2="534.148" y2="746.574" gradientUnits="userSpaceOnUse">
<stop stop-color="#2FA38A"/>
<stop offset="0.294" stop-color="#2B9F87"/>
<stop offset="0.584" stop-color="#1F937F"/>
<stop offset="0.871" stop-color="#0B7F70"/>
<stop offset="1" stop-color="#007468"/>
</linearGradient>
<linearGradient id="pf_0_26_1409" x1="528.431" y1="720.1" x2="540.082" y2="720.1" gradientUnits="userSpaceOnUse">
<stop stop-color="#FFFFFF"/>
<stop offset="1" stop-color="#CBE3EB"/>
</linearGradient>
<linearGradient id="pf_0_26_1410" x1="528.431" y1="728.387" x2="540.082" y2="728.387" gradientUnits="userSpaceOnUse">
<stop stop-color="#FFFFFF"/>
<stop offset="1" stop-color="#CBE3EB"/>
</linearGradient>
<linearGradient id="pf_0_26_1414" x1="353.932" y1="701.015" x2="353.932" y2="758.237" gradientUnits="userSpaceOnUse">
<stop stop-color="#FFFFFF"/>
<stop offset="1" stop-color="#CBE3EB"/>
</linearGradient>
<linearGradient id="pf_0_26_1425" x1="383.996" y1="753.784" x2="383.996" y2="784.946" gradientUnits="userSpaceOnUse">
<stop stop-color="#FFFFFF"/>
<stop offset="1" stop-color="#CCCCCC"/>
</linearGradient>
<linearGradient id="pf_0_26_1429" x1="384.01" y1="43.869" x2="384.01" y2="20.551" gradientUnits="userSpaceOnUse">
<stop stop-color="#2FA38A"/>
<stop offset="0.294" stop-color="#2B9F87"/>
<stop offset="0.584" stop-color="#1F937F"/>
<stop offset="0.871" stop-color="#0B7F70"/>
<stop offset="1" stop-color="#007468"/>
</linearGradient>
</defs>
</svg>
