<svg width="26" height="26" viewBox="0 0 26 26" fill="none" xmlns="http://www.w3.org/2000/svg" xmlns:xlink="http://www.w3.org/1999/xlink">
<path d="M-0.82,1.268L-0.82,20.309C-0.82,20.911 -0.614,21.427 -0.201,21.857C0.212,22.287 0.728,22.494 1.347,22.477L4.83,22.477L4.83,24.102C4.83,24.326 4.908,24.515 5.063,24.67C5.217,24.825 5.407,24.902 5.63,24.902C5.854,24.902 6.043,24.825 6.198,24.67C6.353,24.515 6.43,24.326 6.43,24.102L6.43,22.477L11.281,22.477L11.281,24.102C11.281,24.326 11.358,24.515 11.513,24.67C11.668,24.825 11.857,24.902 12.081,24.902C12.304,24.902 12.494,24.825 12.648,24.67C12.803,24.515 12.881,24.326 12.881,24.102L12.881,22.477L17.731,22.477L17.731,24.102C17.731,24.326 17.809,24.515 17.963,24.67C18.118,24.825 18.307,24.902 18.531,24.902C18.755,24.902 18.944,24.825 19.099,24.67C19.254,24.515 19.331,24.326 19.331,24.102L19.331,22.477L22.814,22.477C23.416,22.477 23.932,22.27 24.362,21.857C24.792,21.445 24.999,20.928 24.982,20.309L24.982,1.268C24.982,0.666 24.775,0.15 24.362,-0.28C23.949,-0.71 23.433,-0.917 22.814,-0.9L1.347,-0.9C0.745,-0.9 0.229,-0.693 -0.201,-0.28C-0.631,0.132 -0.837,0.648 -0.82,1.268ZM0.805,1.268C0.805,1.096 0.848,0.958 0.934,0.855C1.02,0.752 1.158,0.7 1.347,0.7L22.814,0.7C22.986,0.7 23.124,0.752 23.227,0.855C23.33,0.958 23.373,1.096 23.356,1.268L23.356,20.309C23.356,20.481 23.313,20.619 23.227,20.722C23.141,20.825 23.003,20.877 22.814,20.877L19.331,20.877L19.331,19.251C19.331,19.028 19.254,18.838 19.099,18.684C18.944,18.529 18.755,18.451 18.531,18.451C18.307,18.451 18.118,18.529 17.963,18.684C17.809,18.838 17.731,19.028 17.731,19.251L17.731,20.877L12.881,20.877L12.881,19.251C12.881,19.028 12.803,18.838 12.648,18.684C12.494,18.529 12.304,18.451 12.081,18.451C11.857,18.451 11.668,18.529 11.513,18.684C11.358,18.838 11.281,19.028 11.281,19.251L11.281,20.877L6.43,20.877L6.43,19.251C6.43,19.028 6.353,18.838 6.198,18.684C6.043,18.529 5.854,18.451 5.63,18.451C5.407,18.451 5.217,18.529 5.063,18.684C4.908,18.838 4.83,19.028 4.83,19.251L4.83,20.877L1.347,20.877C1.175,20.877 1.038,20.825 0.934,20.722C0.831,20.619 0.788,20.481 0.805,20.309L0.805,1.268ZM4.83,4.751L4.83,7.176L8.056,7.176L8.056,4.751L4.83,4.751ZM4.83,8.776L4.83,11.201L8.056,11.201L8.056,8.776L4.83,8.776ZM4.83,12.801L4.83,15.226L8.056,15.226L8.056,12.801L4.83,12.801ZM10.481,4.751L10.481,7.176L13.706,7.176L13.706,4.751L10.481,4.751ZM10.481,8.776L10.481,11.201L13.706,11.201L13.706,8.776L10.481,8.776ZM10.481,12.801L10.481,15.226L13.706,15.226L13.706,12.801L10.481,12.801ZM16.106,4.751L16.106,7.176L19.331,7.176L19.331,4.751L16.106,4.751ZM16.106,8.776L16.106,11.201L19.331,11.201L19.331,8.776L16.106,8.776ZM16.106,12.801L16.106,15.226L19.331,15.226L19.331,12.801L16.106,12.801Z" fill="#FF002A"/>
</svg>
