<svg width="82" height="80" viewBox="0 0 82 80" fill="none" xmlns="http://www.w3.org/2000/svg" xmlns:xlink="http://www.w3.org/1999/xlink">
<path d="M37.39,68L44.39,68L44.39,63C47.723,62.4 50.59,61.1 52.99,59.1C55.39,57.1 56.59,54.133 56.59,50.2C56.59,47.4 55.79,44.833 54.19,42.5C52.59,40.167 49.39,38.133 44.59,36.4C40.59,35.067 37.823,33.9 36.29,32.9C34.757,31.9 33.99,30.533 33.99,28.8C33.99,27.067 34.607,25.7 35.84,24.7C37.073,23.7 38.857,23.2 41.19,23.2C43.323,23.2 44.99,23.717 46.19,24.75C47.39,25.783 48.257,27.067 48.79,28.6L55.19,26C54.457,23.667 53.107,21.633 51.14,19.9C49.173,18.167 46.99,17.2 44.59,17L44.59,12L37.59,12L37.59,17C34.257,17.733 31.657,19.2 29.79,21.4C27.923,23.6 26.99,26.067 26.99,28.8C26.99,31.933 27.907,34.467 29.74,36.4C31.573,38.333 34.457,40 38.39,41.4C42.59,42.933 45.507,44.3 47.14,45.5C48.773,46.7 49.59,48.267 49.59,50.2C49.59,52.4 48.807,54.017 47.24,55.05C45.673,56.083 43.79,56.6 41.59,56.6C39.39,56.6 37.44,55.917 35.74,54.55C34.04,53.183 32.79,51.133 31.99,48.4L25.39,51C26.323,54.2 27.773,56.783 29.74,58.75C31.707,60.717 34.257,62.067 37.39,62.8L37.39,68ZM40.99,80C35.457,80 30.257,78.95 25.39,76.85C20.523,74.75 16.29,71.9 12.69,68.3C9.09,64.7 6.24,60.467 4.14,55.6C2.04,50.733 0.99,45.533 0.99,40C0.99,34.467 2.04,29.267 4.14,24.4C6.24,19.533 9.09,15.3 12.69,11.7C16.29,8.1 20.523,5.25 25.39,3.15C30.257,1.05 35.457,0 40.99,0C46.523,0 51.723,1.05 56.59,3.15C61.457,5.25 65.69,8.1 69.29,11.7C72.89,15.3 75.74,19.533 77.84,24.4C79.94,29.267 80.99,34.467 80.99,40C80.99,45.533 79.94,50.733 77.84,55.6C75.74,60.467 72.89,64.7 69.29,68.3C65.69,71.9 61.457,74.75 56.59,76.85C51.723,78.95 46.523,80 40.99,80ZM40.99,72C49.923,72 57.49,68.9 63.69,62.7C69.89,56.5 72.99,48.933 72.99,40C72.99,31.067 69.89,23.5 63.69,17.3C57.49,11.1 49.923,8 40.99,8C32.057,8 24.49,11.1 18.29,17.3C12.09,23.5 8.99,31.067 8.99,40C8.99,48.933 12.09,56.5 18.29,62.7C24.49,68.9 32.057,72 40.99,72Z" fill="#FFFFFF"/>
</svg>
