<svg width="112" height="112" viewBox="0 0 112 112" fill="none" xmlns="http://www.w3.org/2000/svg" xmlns:xlink="http://www.w3.org/1999/xlink">
<path d="M56,112C46.497,112 37.758,109.836 29.782,105.509C21.806,101.182 15.273,95.412 10.182,88.2L10.182,101.818L0,101.818L0,71.273L30.545,71.273L30.545,81.455L17.945,81.455C22.018,87.564 27.385,92.485 34.045,96.218C40.706,99.952 48.024,101.818 56,101.818C62.364,101.818 68.324,100.609 73.882,98.191C79.439,95.773 84.276,92.506 88.391,88.391C92.506,84.276 95.773,79.439 98.191,73.882C100.609,68.324 101.818,62.364 101.818,56L112,56C112,63.721 110.536,70.976 107.609,77.764C104.682,84.552 100.673,90.491 95.582,95.582C90.491,100.673 84.552,104.682 77.764,107.609C70.976,110.536 63.721,112 56,112ZM51.418,91.636L51.418,85.018C47.43,84.085 44.185,82.367 41.682,79.864C39.179,77.361 37.333,74.073 36.145,70L44.545,66.691C45.564,70.17 47.155,72.779 49.318,74.518C51.482,76.258 53.964,77.127 56.764,77.127C59.564,77.127 61.961,76.47 63.955,75.155C65.948,73.839 66.945,71.782 66.945,68.982C66.945,66.521 65.906,64.527 63.827,63C61.748,61.473 58.036,59.733 52.691,57.782C47.685,56 44.015,53.879 41.682,51.418C39.348,48.958 38.182,45.733 38.182,41.745C38.182,38.267 39.391,35.106 41.809,32.264C44.227,29.421 47.515,27.576 51.673,26.727L51.673,20.364L60.582,20.364L60.582,26.727C63.636,26.982 66.415,28.212 68.918,30.418C71.421,32.624 73.139,35.212 74.073,38.182L65.927,41.491C65.248,39.539 64.145,37.906 62.618,36.591C61.091,35.276 58.97,34.618 56.255,34.618C53.285,34.618 51.015,35.255 49.445,36.527C47.876,37.8 47.091,39.539 47.091,41.745C47.091,43.952 48.067,45.691 50.018,46.964C51.97,48.236 55.491,49.721 60.582,51.418C66.691,53.624 70.764,56.212 72.8,59.182C74.836,62.152 75.855,65.418 75.855,68.982C75.855,71.442 75.43,73.606 74.582,75.473C73.733,77.339 72.609,78.93 71.209,80.245C69.809,81.561 68.176,82.621 66.309,83.427C64.442,84.233 62.448,84.848 60.327,85.273L60.327,91.636L51.418,91.636ZM0,56C0,48.279 1.464,41.024 4.391,34.236C7.318,27.448 11.327,21.509 16.418,16.418C21.509,11.327 27.448,7.318 34.236,4.391C41.024,1.464 48.279,0 56,0C65.503,0 74.242,2.164 82.218,6.491C90.194,10.818 96.727,16.588 101.818,23.8L101.818,10.182L112,10.182L112,40.727L81.455,40.727L81.455,30.545L94.055,30.545C89.982,24.436 84.615,19.515 77.955,15.782C71.294,12.048 63.976,10.182 56,10.182C49.636,10.182 43.676,11.391 38.118,13.809C32.561,16.227 27.724,19.494 23.609,23.609C19.494,27.724 16.227,32.561 13.809,38.118C11.391,43.676 10.182,49.636 10.182,56L0,56Z" fill="#0C95D7"/>
</svg>
