<svg width="16" height="26" viewBox="0 0 16 26" fill="none" xmlns="http://www.w3.org/2000/svg" xmlns:xlink="http://www.w3.org/1999/xlink">
<path d="M14.789,3.234L5.078,12.945L14.789,22.656C15.161,23 15.348,23.422 15.348,23.924C15.348,24.425 15.161,24.862 14.789,25.234C14.445,25.578 14.016,25.75 13.5,25.75C12.984,25.75 12.555,25.578 12.211,25.234L1.211,14.234C0.839,13.862 0.652,13.425 0.652,12.924C0.652,12.423 0.839,12 1.211,11.656L12.211,0.656C12.555,0.284 12.984,0.098 13.5,0.098C14.016,0.098 14.445,0.284 14.789,0.656C15.161,1 15.348,1.423 15.348,1.924C15.348,2.425 15.161,2.862 14.789,3.234Z" fill="#000000"/>
</svg>
