<svg width="80" height="80" viewBox="0 0 80 80" fill="none" xmlns="http://www.w3.org/2000/svg" xmlns:xlink="http://www.w3.org/1999/xlink">
<path d="M20.267,80C19.733,80 19.333,79.867 19.067,79.6C18.8,79.333 18.667,78.978 18.667,78.533C18.667,78.089 18.8,77.689 19.067,77.333C19.333,76.978 19.733,76.8 20.267,76.8C24.533,76.8 28.267,75.2 31.467,72C34.667,68.8 36.267,64.978 36.267,60.533C36.267,60 36.4,59.6 36.667,59.333C36.933,59.067 37.289,58.933 37.733,58.933C38.178,58.933 38.533,59.067 38.8,59.333C39.067,59.6 39.2,60 39.2,60.533C39.2,64.089 38.356,67.333 36.667,70.267C34.978,73.2 32.667,75.556 29.733,77.333C26.8,79.111 23.644,80 20.267,80ZM20.267,72.533C19.733,72.533 19.333,72.4 19.067,72.133C18.8,71.867 18.667,71.511 18.667,71.067C18.667,70.622 18.8,70.222 19.067,69.867C19.333,69.511 19.733,69.333 20.267,69.333C22.578,69.333 24.578,68.489 26.267,66.8C27.956,65.111 28.8,63.022 28.8,60.533C28.8,60 28.978,59.6 29.333,59.333C29.689,59.067 30.089,58.933 30.533,58.933C30.978,58.933 31.333,59.067 31.6,59.333C31.867,59.6 32,60 32,60.533C32,63.911 30.844,66.756 28.533,69.067C26.222,71.378 23.467,72.533 20.267,72.533ZM20.267,65.867C19.733,65.867 19.333,65.689 19.067,65.333C18.8,64.978 18.667,64.578 18.667,64.133C18.667,63.689 18.8,63.333 19.067,63.067C19.333,62.8 19.733,62.667 20.267,62.667C20.8,62.667 21.244,62.444 21.6,62C21.956,61.556 22.133,61.067 22.133,60.533C22.133,60 22.311,59.6 22.667,59.333C23.022,59.067 23.422,58.933 23.867,58.933C24.311,58.933 24.667,59.067 24.933,59.333C25.2,59.6 25.333,60 25.333,60.533C25.333,61.956 24.844,63.2 23.867,64.267C22.889,65.333 21.689,65.867 20.267,65.867ZM71.733,67.733L68.267,67.733C67.733,67.733 67.333,67.556 67.067,67.2C66.8,66.844 66.667,66.444 66.667,66C66.667,65.556 66.8,65.2 67.067,64.933C67.333,64.667 67.733,64.533 68.267,64.533L71.733,64.533C73.156,64.533 74.356,64 75.333,62.933C76.311,61.867 76.8,60.622 76.8,59.2L76.8,38.133C76.8,36.356 76.178,34.933 74.933,33.867L74.933,38.133C74.933,39.733 74.4,41.111 73.333,42.267C72.267,43.422 71.022,44.178 69.6,44.533L68.533,44.8C68.711,45.511 68.8,46.222 68.8,46.933L68.8,50.4C68.8,52.356 68.089,54.044 66.667,55.467C65.244,56.889 63.6,57.6 61.733,57.6C59.867,57.6 58.222,56.889 56.8,55.467C55.378,54.044 54.667,52.356 54.667,50.4L54.667,46.933C54.667,46.222 54.756,45.511 54.933,44.8L53.867,44.533C52.444,44.178 51.2,43.422 50.133,42.267C49.067,41.111 48.533,39.733 48.533,38.133L48.533,33.6C47.822,33.956 47.2,34.533 46.667,35.333C46.133,36.133 45.867,37.067 45.867,38.133L45.867,59.2C45.867,60.622 46.4,61.867 47.467,62.933C48.533,64 49.778,64.533 51.2,64.533L54.933,64.533C55.289,64.533 55.644,64.667 56,64.933C56.356,65.2 56.533,65.556 56.533,66C56.533,66.444 56.356,66.844 56,67.2C55.644,67.556 55.289,67.733 54.933,67.733L51.2,67.733C48.889,67.733 46.933,66.889 45.333,65.2C43.733,63.511 42.933,61.511 42.933,59.2L42.933,38.133C42.933,35.822 43.733,33.822 45.333,32.133C46.933,30.444 48.889,29.6 51.2,29.6L58.933,29.6L58.933,25.067C58.933,24.533 59.289,24.089 60,23.733L60.533,23.733C61.067,23.733 61.422,23.822 61.6,24L67.2,29.6L71.733,29.6C74.044,29.6 76,30.444 77.6,32.133C79.2,33.822 80,35.822 80,38.133L80,59.2C80,61.511 79.2,63.511 77.6,65.2C76,66.889 74.044,67.733 71.733,67.733ZM57.867,50.4C57.867,51.644 58.222,52.622 58.933,53.333C59.644,54.044 60.578,54.4 61.733,54.4C62.889,54.4 63.822,54.044 64.533,53.333C65.244,52.622 65.6,51.644 65.6,50.4L65.6,46.933C65.6,45.867 65.244,44.933 64.533,44.133C63.822,43.333 62.889,42.933 61.733,42.933C60.578,42.933 59.644,43.333 58.933,44.133C58.222,44.933 57.867,45.867 57.867,46.933L57.867,50.4ZM71.733,32.8L66.667,32.8C66.311,32.8 65.956,32.622 65.6,32.267L62.133,29.067L62.133,31.2C62.133,31.733 62,32.133 61.733,32.4C61.467,32.667 61.067,32.8 60.533,32.8L51.733,32.8L51.733,38.133C51.733,38.844 52,39.556 52.533,40.267C53.067,40.978 53.778,41.333 54.667,41.333L56.8,41.867C58.222,40.444 59.867,39.733 61.733,39.733C63.6,39.733 65.244,40.444 66.667,41.867L68.8,41.333C69.689,41.333 70.4,40.978 70.933,40.267C71.467,39.556 71.733,38.844 71.733,38.133L71.733,32.8ZM61.867,67.2C61.511,67.556 61.111,67.733 60.667,67.733C60.222,67.733 59.867,67.556 59.6,67.2C59.333,66.844 59.2,66.444 59.2,66C59.2,65.556 59.333,65.2 59.6,64.933C59.867,64.667 60.222,64.533 60.667,64.533C61.111,64.533 61.511,64.667 61.867,64.933C62.222,65.2 62.4,65.556 62.4,66C62.4,66.444 62.222,66.844 61.867,67.2ZM29.067,27.467C28.711,27.822 28.311,28 27.867,28C27.422,28 27.067,27.822 26.8,27.467C26.533,27.111 26.4,26.711 26.4,26.267C26.4,25.822 26.533,25.467 26.8,25.2C27.067,24.933 27.422,24.8 27.867,24.8C28.311,24.8 28.711,24.933 29.067,25.2C29.422,25.467 29.6,25.822 29.6,26.267C29.6,26.711 29.422,27.111 29.067,27.467ZM63.2,13.333L51.2,25.333C50.489,26.044 49.556,26.444 48.4,26.533C47.244,26.622 46.222,26.4 45.333,25.867L37.6,20.533C37.422,20.356 37.111,20.267 36.667,20.267C36.222,20.267 35.911,20.444 35.733,20.8L33.067,23.2C32.889,23.556 32.578,23.733 32.133,23.733C31.689,23.733 31.289,23.6 30.933,23.333C30.578,23.067 30.4,22.711 30.4,22.267C30.4,21.822 30.578,21.422 30.933,21.067L33.6,18.667C34.311,17.778 35.244,17.289 36.4,17.2C37.556,17.111 38.578,17.422 39.467,18.133L47.2,23.2C47.378,23.378 47.689,23.467 48.133,23.467C48.578,23.467 48.889,23.289 49.067,22.933L61.067,11.2C61.422,10.844 61.6,10.444 61.6,10C61.6,9.556 61.422,9.156 61.067,8.8C58.578,6.311 55.644,4.622 52.267,3.733C48.889,2.844 45.511,2.844 42.133,3.733C38.756,4.622 35.733,6.311 33.067,8.8L8.8,33.067C7.022,35.022 5.644,37.2 4.667,39.6C3.689,42 3.2,44.489 3.2,47.067C3.2,49.644 3.689,52.133 4.667,54.533C5.644,56.933 7.022,59.111 8.8,61.067C9.156,61.422 9.556,61.6 10,61.6C10.444,61.6 10.844,61.422 11.2,61.067L22.933,49.067C23.289,48.711 23.467,48.356 23.467,48C23.467,47.644 23.378,47.378 23.2,47.2L18.133,39.467C17.422,38.578 17.111,37.556 17.2,36.4C17.289,35.244 17.778,34.311 18.667,33.6L22.4,29.6C22.756,29.422 23.111,29.333 23.467,29.333C23.822,29.333 24.178,29.467 24.533,29.733C24.889,30 25.067,30.356 25.067,30.8C25.067,31.244 24.889,31.644 24.533,32L20.8,35.733C20.444,35.911 20.267,36.222 20.267,36.667C20.267,37.111 20.356,37.422 20.533,37.6L25.867,45.333C26.4,46.222 26.622,47.244 26.533,48.4C26.444,49.556 26.044,50.489 25.333,51.2L13.333,63.2C12.444,64.089 11.333,64.533 10,64.533C8.667,64.533 7.556,64.089 6.667,63.2C3.822,60.356 1.867,56.978 0.8,53.067C-0.267,49.156 -0.267,45.244 0.8,41.333C1.867,37.422 3.822,33.956 6.667,30.933L30.933,6.667C33.067,4.533 35.556,2.889 38.4,1.733C41.244,0.578 44.133,0 47.067,0C50,0 52.889,0.578 55.733,1.733C58.578,2.889 61.067,4.533 63.2,6.667C64.089,7.556 64.533,8.667 64.533,10C64.533,11.333 64.089,12.444 63.2,13.333ZM21.067,41.6L11.467,50.933C11.289,51.289 10.978,51.467 10.533,51.467C10.089,51.467 9.689,51.333 9.333,51.067C8.978,50.8 8.8,50.444 8.8,50C8.8,49.556 8.978,49.156 9.333,48.8L18.933,39.467C19.111,39.111 19.422,38.933 19.867,38.933C20.311,38.933 20.711,39.067 21.067,39.333C21.422,39.6 21.6,39.956 21.6,40.4C21.6,40.844 21.422,41.244 21.067,41.6ZM57.333,5.333L47.467,15.2C47.111,15.556 46.711,15.733 46.267,15.733C45.822,15.733 45.467,15.6 45.2,15.333C44.933,15.067 44.8,14.711 44.8,14.267C44.8,13.822 44.889,13.422 45.067,13.067L55.2,3.2C55.378,2.844 55.689,2.667 56.133,2.667C56.578,2.667 56.978,2.8 57.333,3.067C57.689,3.333 57.867,3.689 57.867,4.133C57.867,4.578 57.689,4.978 57.333,5.333Z" fill="#FF002A"/>
</svg>
