<svg width="140" height="112" viewBox="0 0 140 112" fill="none" xmlns="http://www.w3.org/2000/svg" xmlns:xlink="http://www.w3.org/1999/xlink">
<path d="M140,14L140,98C140,101.85 138.629,105.146 135.887,107.887C133.146,110.629 129.85,112 126,112L14,112C10.15,112 6.854,110.629 4.112,107.887C1.371,105.146 0,101.85 0,98L0,14C0,10.15 1.371,6.854 4.112,4.113C6.854,1.371 10.15,0 14,0L126,0C129.85,0 133.146,1.371 135.887,4.113C138.629,6.854 140,10.15 140,14ZM14,28L126,28L126,14L14,14L14,28ZM14,56L14,98L126,98L126,56L14,56Z" fill="#0C95D7"/>
</svg>
