<svg width="112" height="112" viewBox="0 0 112 112" fill="none" xmlns="http://www.w3.org/2000/svg" xmlns:xlink="http://www.w3.org/1999/xlink">
<path d="M96,66.667L96,32L69.333,13.333L42.667,32L42.667,40L32,40L32,26.667L69.333,0L106.667,26.667L106.667,66.667L96,66.667ZM72,34.667L77.333,34.667L77.333,29.333L72,29.333L72,34.667ZM61.333,34.667L66.667,34.667L66.667,29.333L61.333,29.333L61.333,34.667ZM72,45.333L77.333,45.333L77.333,40L72,40L72,45.333ZM61.333,45.333L66.667,45.333L66.667,40L61.333,40L61.333,45.333ZM32,90.667L69.067,100.8L100.8,90.933C100.356,90.133 99.711,89.444 98.867,88.867C98.022,88.289 97.067,88 96,88L69.067,88C66.667,88 64.756,87.911 63.333,87.733C61.911,87.556 60.444,87.2 58.933,86.667L46.533,82.533L49.467,72.133L60.267,75.733C61.778,76.178 63.556,76.533 65.6,76.8C67.644,77.067 70.667,77.244 74.667,77.333C74.667,76.356 74.378,75.422 73.8,74.533C73.222,73.644 72.533,73.067 71.733,72.8L40.533,61.333L32,61.333L32,90.667ZM0,109.333L0,50.667L40.533,50.667C41.156,50.667 41.778,50.733 42.4,50.867C43.022,51 43.6,51.156 44.133,51.333L75.467,62.933C78.4,64 80.778,65.867 82.6,68.533C84.422,71.2 85.333,74.133 85.333,77.333L96,77.333C100.444,77.333 104.222,78.8 107.333,81.733C110.444,84.667 112,88.533 112,93.333L112,98.667L69.333,112L32,101.6L32,109.333L0,109.333ZM10.667,98.667L21.333,98.667L21.333,61.333L10.667,61.333L10.667,98.667Z" fill="#0C95D7"/>
</svg>
