<svg width="64" height="64" viewBox="0 0 64 64" fill="none" xmlns="http://www.w3.org/2000/svg" xmlns:xlink="http://www.w3.org/1999/xlink">
<path d="M32,64C27.627,64 23.493,63.16 19.6,61.48C15.707,59.8 12.307,57.507 9.4,54.6C6.493,51.693 4.2,48.293 2.52,44.4C0.84,40.507 0,36.373 0,32C0,27.573 0.84,23.427 2.52,19.56C4.2,15.693 6.493,12.307 9.4,9.4C12.307,6.493 15.707,4.2 19.6,2.52C23.493,0.84 27.627,0 32,0C36.427,0 40.573,0.84 44.44,2.52C48.307,4.2 51.693,6.493 54.6,9.4C57.507,12.307 59.8,15.693 61.48,19.56C63.16,23.427 64,27.573 64,32C64,36.373 63.16,40.507 61.48,44.4C59.8,48.293 57.507,51.693 54.6,54.6C51.693,57.507 48.307,59.8 44.44,61.48C40.573,63.16 36.427,64 32,64ZM32,57.44C33.387,55.52 34.587,53.52 35.6,51.44C36.613,49.36 37.44,47.147 38.08,44.8L25.92,44.8C26.56,47.147 27.387,49.36 28.4,51.44C29.413,53.52 30.613,55.52 32,57.44ZM23.68,56.16C22.72,54.4 21.88,52.573 21.16,50.68C20.44,48.787 19.84,46.827 19.36,44.8L9.92,44.8C11.467,47.467 13.4,49.787 15.72,51.76C18.04,53.733 20.693,55.2 23.68,56.16ZM40.32,56.16C43.307,55.2 45.96,53.733 48.28,51.76C50.6,49.787 52.533,47.467 54.08,44.8L44.64,44.8C44.16,46.827 43.56,48.787 42.84,50.68C42.12,52.573 41.28,54.4 40.32,56.16ZM7.2,38.4L18.08,38.4C17.92,37.333 17.8,36.28 17.72,35.24C17.64,34.2 17.6,33.12 17.6,32C17.6,30.88 17.64,29.8 17.72,28.76C17.8,27.72 17.92,26.667 18.08,25.6L7.2,25.6C6.933,26.667 6.733,27.72 6.6,28.76C6.467,29.8 6.4,30.88 6.4,32C6.4,33.12 6.467,34.2 6.6,35.24C6.733,36.28 6.933,37.333 7.2,38.4ZM24.48,38.4L39.52,38.4C39.68,37.333 39.8,36.28 39.88,35.24C39.96,34.2 40,33.12 40,32C40,30.88 39.96,29.8 39.88,28.76C39.8,27.72 39.68,26.667 39.52,25.6L24.48,25.6C24.32,26.667 24.2,27.72 24.12,28.76C24.04,29.8 24,30.88 24,32C24,33.12 24.04,34.2 24.12,35.24C24.2,36.28 24.32,37.333 24.48,38.4ZM45.92,38.4L56.8,38.4C57.067,37.333 57.267,36.28 57.4,35.24C57.533,34.2 57.6,33.12 57.6,32C57.6,30.88 57.533,29.8 57.4,28.76C57.267,27.72 57.067,26.667 56.8,25.6L45.92,25.6C46.08,26.667 46.2,27.72 46.28,28.76C46.36,29.8 46.4,30.88 46.4,32C46.4,33.12 46.36,34.2 46.28,35.24C46.2,36.28 46.08,37.333 45.92,38.4ZM44.64,19.2L54.08,19.2C52.533,16.533 50.6,14.213 48.28,12.24C45.96,10.267 43.307,8.8 40.32,7.84C41.28,9.6 42.12,11.427 42.84,13.32C43.56,15.213 44.16,17.173 44.64,19.2ZM25.92,19.2L38.08,19.2C37.44,16.853 36.613,14.64 35.6,12.56C34.587,10.48 33.387,8.48 32,6.56C30.613,8.48 29.413,10.48 28.4,12.56C27.387,14.64 26.56,16.853 25.92,19.2ZM9.92,19.2L19.36,19.2C19.84,17.173 20.44,15.213 21.16,13.32C21.88,11.427 22.72,9.6 23.68,7.84C20.693,8.8 18.04,10.267 15.72,12.24C13.4,14.213 11.467,16.533 9.92,19.2Z" fill="#000000"/>
</svg>
