<svg width="48" height="48" viewBox="0 0 48 48" fill="none" xmlns="http://www.w3.org/2000/svg" xmlns:xlink="http://www.w3.org/1999/xlink">
<path d="M38.914,11.914C39.695,11.133 39.695,9.867 38.914,9.086C38.133,8.305 36.867,8.305 36.086,9.086L38.914,11.914ZM9.086,36.086C8.305,36.867 8.305,38.133 9.086,38.914C9.867,39.695 11.133,39.695 11.914,38.914L9.086,36.086ZM36.086,9.086L9.086,36.086L11.914,38.914L38.914,11.914L36.086,9.086Z" fill="#000000"/>
<path d="M36.086,38.914C36.867,39.695 38.133,39.695 38.914,38.914C39.695,38.133 39.695,36.867 38.914,36.086L36.086,38.914ZM11.914,9.086C11.133,8.305 9.867,8.305 9.086,9.086C8.305,9.867 8.305,11.133 9.086,11.914L11.914,9.086ZM38.914,36.086L11.914,9.086L9.086,11.914L36.086,38.914L38.914,36.086Z" fill="#000000"/>
</svg>
