<svg width="18" height="10" viewBox="0 0 18 10" fill="none" xmlns="http://www.w3.org/2000/svg" xmlns:xlink="http://www.w3.org/1999/xlink">
<path d="M0.484,3.804C0.327,3.647 0.072,3.647 -0.085,3.804C-0.243,3.962 -0.243,4.217 -0.085,4.374L0.484,3.804ZM4.109,7.998L3.824,8.283C3.981,8.44 4.236,8.44 4.393,8.284L4.109,7.998ZM12.584,0.114C12.741,-0.044 12.742,-0.299 12.585,-0.456C12.428,-0.614 12.172,-0.614 12.015,-0.457L12.584,0.114ZM-0.085,4.374L3.824,8.283L4.394,7.713L0.484,3.804L-0.085,4.374ZM4.393,8.284L12.584,0.114L12.015,-0.457L3.824,7.713L4.393,8.284Z" fill="#3CA7D6"/>
<path d="M4.311,3.804C4.154,3.647 3.899,3.647 3.741,3.804C3.584,3.962 3.584,4.217 3.741,4.374L4.311,3.804ZM7.936,7.998L7.651,8.283C7.808,8.44 8.063,8.44 8.22,8.283L7.936,7.998ZM16.39,0.113C16.548,-0.044 16.548,-0.299 16.39,-0.457C16.233,-0.614 15.978,-0.614 15.821,-0.457L16.39,0.113ZM3.741,4.374L7.651,8.283L8.22,7.713L4.311,3.804L3.741,4.374ZM8.22,8.283L16.39,0.113L15.821,-0.457L7.651,7.713L8.22,8.283Z" fill="#3CA7D6"/>
</svg>
