<svg width="20" height="12" viewBox="0 0 20 12" fill="none" xmlns="http://www.w3.org/2000/svg" xmlns:xlink="http://www.w3.org/1999/xlink">
<path d="M0.344,4.802C0.154,4.612 -0.154,4.612 -0.344,4.802C-0.534,4.992 -0.534,5.3 -0.344,5.49L0.344,4.802ZM4.721,9.867L4.377,10.211C4.567,10.4 4.874,10.4 5.064,10.211L4.721,9.867ZM14.956,0.344C15.146,0.155 15.147,-0.153 14.957,-0.344C14.767,-0.534 14.459,-0.534 14.269,-0.344L14.956,0.344ZM-0.344,5.49L4.377,10.211L5.065,9.523L0.344,4.802L-0.344,5.49ZM5.064,10.211L14.956,0.344L14.269,-0.344L4.377,9.522L5.064,10.211Z" fill="#3CA7D6"/>
<path d="M4.965,4.802C4.775,4.612 4.467,4.612 4.277,4.802C4.087,4.992 4.087,5.3 4.277,5.49L4.965,4.802ZM9.342,9.867L8.998,10.211C9.188,10.4 9.496,10.4 9.686,10.211L9.342,9.867ZM19.552,0.344C19.742,0.154 19.742,-0.154 19.552,-0.344C19.362,-0.534 19.054,-0.534 18.864,-0.344L19.552,0.344ZM4.277,5.49L8.998,10.211L9.686,9.523L4.965,4.802L4.277,5.49ZM9.686,10.211L19.552,0.344L18.864,-0.344L8.998,9.523L9.686,10.211Z" fill="#3CA7D6"/>
</svg>
