<svg width="356" height="58" viewBox="0 0 356 58" fill="none" xmlns="http://www.w3.org/2000/svg" xmlns:xlink="http://www.w3.org/1999/xlink">
<path d="M327.515,57.173L27.574,57.173C12.012,57.173 -0.577,44.559 -0.577,29.022C-0.577,13.461 12.037,0.872 27.574,0.872L327.515,0.872C343.077,0.872 355.667,13.486 355.667,29.022C355.667,44.584 343.053,57.173 327.515,57.173Z" fill="url(#pf_0_26_805)"/>
<path d="M43.155,29.023C43.155,35.189 38.162,40.183 31.995,40.183L31.995,41.642C38.968,41.642 44.615,35.995 44.615,29.023L43.155,29.023ZM31.995,40.183C25.829,40.183 20.835,35.189 20.835,29.023L19.376,29.023C19.376,35.995 25.023,41.642 31.995,41.642L31.995,40.183ZM20.835,29.023C20.835,22.856 25.829,17.863 31.995,17.863L31.995,16.403C25.023,16.403 19.376,22.05 19.376,29.023L20.835,29.023ZM31.995,17.863C38.162,17.863 43.155,22.856 43.155,29.023L44.615,29.023C44.615,22.05 38.968,16.403 31.995,16.403L31.995,17.863Z" fill="#87817C"/>
<path d="M40.893,29.022C40.893,28.619 40.566,28.293 40.163,28.293C39.76,28.293 39.434,28.619 39.434,29.022L40.893,29.022ZM24.507,29.022C24.507,28.619 24.18,28.293 23.777,28.293C23.374,28.293 23.048,28.619 23.048,29.022L24.507,29.022ZM39.434,29.022C39.434,33.141 36.088,36.486 31.97,36.486L31.97,37.945C36.894,37.945 40.893,33.947 40.893,29.022L39.434,29.022ZM31.97,36.486C27.852,36.486 24.507,33.141 24.507,29.022L23.048,29.022C23.048,33.947 27.046,37.945 31.97,37.945L31.97,36.486Z" fill="#87817C"/>
<line x1="27.544" y1="24.302" x2="27.544" y2="27.124" stroke="#87817C" stroke-width="0.73" stroke-miterlimit="10" stroke-linecap="round" stroke-linejoin="round"/>
<line x1="34.962" y1="24.302" x2="34.962" y2="27.124" stroke="#87817C" stroke-width="0.73" stroke-miterlimit="10" stroke-linecap="round" stroke-linejoin="round"/>
<path d="M264.504,37.607C264.789,37.892 265.251,37.892 265.536,37.607C265.821,37.322 265.821,36.86 265.536,36.575L264.504,37.607ZM252.83,24.901L252.314,25.417L252.83,24.901ZM256.177,21.554L256.693,21.038L256.177,21.554ZM268.517,33.893L268.001,34.409L268.517,33.893ZM262.722,39.688L263.238,39.172L263.238,39.172L262.722,39.688ZM250.033,26.999L249.517,27.515L249.517,27.515L250.033,26.999ZM250.033,18.806L250.546,19.325L250.549,19.322L250.033,18.806ZM258.225,18.806L257.707,19.319L257.709,19.322L258.225,18.806ZM271.323,32.936C271.608,33.221 272.07,33.221 272.355,32.936C272.64,32.651 272.64,32.189 272.355,31.904L271.323,32.936ZM265.536,36.575L253.346,24.385L252.314,25.417L264.504,37.607L265.536,36.575ZM253.346,24.385C252.707,23.746 252.707,22.709 253.346,22.07L252.314,21.038C251.105,22.247 251.105,24.208 252.314,25.417L253.346,24.385ZM253.346,22.07C253.985,21.431 255.022,21.431 255.661,22.07L256.693,21.038C255.484,19.829 253.523,19.829 252.314,21.038L253.346,22.07ZM255.661,22.07L268.001,34.409L269.033,33.377L256.693,21.038L255.661,22.07ZM268.001,34.409C269.314,35.723 269.314,37.859 268.001,39.172L269.033,40.204C270.916,38.321 270.916,35.261 269.033,33.377L268.001,34.409ZM268.001,39.172C266.687,40.486 264.551,40.486 263.238,39.172L262.206,40.204C264.089,42.088 267.149,42.088 269.033,40.204L268.001,39.172ZM263.238,39.172L250.549,26.483L249.517,27.515L262.206,40.204L263.238,39.172ZM250.549,26.483C248.559,24.494 248.563,21.286 250.546,19.325L249.519,18.288C246.956,20.823 246.96,24.959 249.517,27.515L250.549,26.483ZM250.549,19.322C252.538,17.333 255.746,17.337 257.707,19.319L258.744,18.293C256.209,15.73 252.073,15.734 249.517,18.29L250.549,19.322ZM257.709,19.322L271.323,32.936L272.355,31.904L258.741,18.29L257.709,19.322Z" fill="#87817C"/>
<path d="M332.786,20.63L329.389,20.63L327.141,17.782C326.816,17.383 326.292,17.133 325.717,17.133L317.1,17.133C316.525,17.133 316.001,17.383 315.676,17.782L313.428,20.63L309.307,20.63C308.083,20.63 307.108,21.604 307.108,22.828L307.108,38.714C307.108,39.938 308.083,40.912 309.307,40.912L332.811,40.912C334.035,40.912 335.009,39.938 335.009,38.714L335.009,22.828C334.984,21.604 333.985,20.63 332.786,20.63ZM321.021,38.464C316.5,38.464 312.853,34.793 312.853,30.297C312.853,25.775 316.525,22.129 321.021,22.129C325.543,22.129 329.189,25.8 329.189,30.297C329.214,34.793 325.543,38.464 321.021,38.464Z" fill="#87817C" stroke="#87817C" stroke-width="0.73" stroke-miterlimit="10" stroke-linecap="round" stroke-linejoin="round"/>
<path d="M321.021,35.342C323.822,35.342 326.092,33.072 326.092,30.271C326.092,27.471 323.822,25.201 321.021,25.201C318.221,25.201 315.951,27.471 315.951,30.271C315.951,33.072 318.221,35.342 321.021,35.342Z" fill="#87817C"/>
<defs>
<linearGradient id="pf_0_26_805" x1="177.535" y1="1.339" x2="177.535" y2="72.806" gradientUnits="userSpaceOnUse">
<stop stop-color="#FFFFFF"/>
<stop offset="1" stop-color="#CBE3EB"/>
</linearGradient>
</defs>
</svg>
