<svg width="18" height="10" viewBox="0 0 18 10" fill="none" xmlns="http://www.w3.org/2000/svg" xmlns:xlink="http://www.w3.org/1999/xlink">
<path d="M1.513,4.227C1.318,4.032 1.002,4.032 0.806,4.227C0.611,4.423 0.611,4.739 0.806,4.934L1.513,4.227ZM4.94,8.361L4.586,8.714C4.782,8.91 5.098,8.91 5.293,8.714L4.94,8.361ZM13.194,0.814C13.389,0.619 13.389,0.303 13.194,0.107C12.998,-0.088 12.682,-0.088 12.486,0.107L13.194,0.814ZM0.806,4.934L4.586,8.714L5.293,8.007L1.513,4.227L0.806,4.934ZM5.293,8.714L13.194,0.814L12.486,0.107L4.586,8.007L5.293,8.714Z" fill="#3CA7D6"/>
<path d="M5.213,4.227C5.018,4.032 4.702,4.032 4.506,4.227C4.311,4.423 4.311,4.739 4.506,4.934L5.213,4.227ZM8.64,8.361L8.286,8.714C8.482,8.91 8.798,8.91 8.994,8.714L8.64,8.361ZM16.893,0.814C17.089,0.619 17.089,0.303 16.893,0.107C16.698,-0.088 16.382,-0.088 16.186,0.107L16.893,0.814ZM4.506,4.934L8.286,8.714L8.994,8.007L5.213,4.227L4.506,4.934ZM8.994,8.714L16.893,0.814L16.186,0.107L8.286,8.007L8.994,8.714Z" fill="#3CA7D6"/>
</svg>
