<svg width="20" height="12" viewBox="0 0 20 12" fill="none" xmlns="http://www.w3.org/2000/svg" xmlns:xlink="http://www.w3.org/1999/xlink">
<path d="M-0.158,4.512C-0.348,4.323 -0.656,4.323 -0.846,4.513C-1.036,4.702 -1.036,5.011 -0.846,5.2L-0.158,4.512ZM4.219,9.577L3.875,9.921C4.065,10.111 4.373,10.111 4.563,9.921L4.219,9.577ZM14.429,0.055C14.619,-0.135 14.619,-0.443 14.429,-0.633C14.239,-0.823 13.931,-0.823 13.741,-0.633L14.429,0.055ZM-0.846,5.2L3.875,9.921L4.563,9.233L-0.158,4.512L-0.846,5.2ZM4.563,9.921L14.429,0.055L13.741,-0.633L3.875,9.233L4.563,9.921Z" fill="#3CA7D6"/>
<path d="M4.463,4.512C4.273,4.323 3.965,4.323 3.775,4.513C3.585,4.702 3.585,5.011 3.775,5.2L4.463,4.512ZM8.84,9.577L8.496,9.921C8.686,10.111 8.994,10.111 9.184,9.921L8.84,9.577ZM19.05,0.055C19.24,-0.135 19.24,-0.443 19.05,-0.633C18.86,-0.823 18.552,-0.823 18.362,-0.633L19.05,0.055ZM3.775,5.2L8.496,9.921L9.184,9.233L4.463,4.512L3.775,5.2ZM9.184,9.921L19.05,0.055L18.362,-0.633L8.496,9.233L9.184,9.921Z" fill="#3CA7D6"/>
</svg>
