<svg width="16" height="12" viewBox="0 0 16 12" fill="none" xmlns="http://www.w3.org/2000/svg" xmlns:xlink="http://www.w3.org/1999/xlink">
<path d="M0.829,0.025L0.829,8.393L13.443,8.393L15.641,10.591L15.641,8.393L15.641,7.419L15.641,0L0.829,0L0.829,0.025ZM4.551,4.871C4.151,4.871 3.802,4.546 3.802,4.121C3.802,3.722 4.126,3.372 4.551,3.372C4.951,3.372 5.3,3.697 5.3,4.121C5.275,4.546 4.951,4.871 4.551,4.871ZM8.248,4.871C7.848,4.871 7.498,4.546 7.498,4.121C7.498,3.722 7.823,3.372 8.248,3.372C8.647,3.372 8.997,3.697 8.997,4.121C8.972,4.546 8.647,4.871 8.248,4.871ZM11.92,4.871C11.52,4.871 11.17,4.546 11.17,4.121C11.17,3.722 11.495,3.372 11.92,3.372C12.344,3.372 12.669,3.697 12.669,4.121C12.669,4.546 12.319,4.871 11.92,4.871Z" fill="#FFFFFF"/>
</svg>
