<svg width="64" height="64" viewBox="0 0 64 64" fill="none" xmlns="http://www.w3.org/2000/svg" xmlns:xlink="http://www.w3.org/1999/xlink">
<path d="M32.07,64L31.93,64C14.324,64 0,49.676 0,32.07L0,31.93C0,14.324 14.324,0 31.93,0L32.07,0C49.676,0 64,14.324 64,31.93L64,32.07C64,49.676 49.676,64 32.07,64ZM31.93,2.166C15.517,2.166 2.166,15.517 2.166,31.93L2.166,32.07C2.166,48.483 15.517,61.834 31.93,61.834L32.07,61.834C48.483,61.834 61.834,48.483 61.834,32.07L61.834,31.93C61.834,15.517 48.483,2.166 32.07,2.166L31.93,2.166Z" fill="#FFFFFF"/>
<path d="M15.829,21.635C15.015,20.879 14.61,19.943 14.61,18.83C14.61,17.716 15.017,16.739 15.829,15.981C16.644,15.225 17.693,14.846 18.977,14.846C20.262,14.846 21.269,15.225 22.082,15.981C22.896,16.737 23.301,17.688 23.301,18.83C23.301,19.971 22.894,20.879 22.082,21.635C21.267,22.391 20.234,22.77 18.977,22.77C17.721,22.77 16.644,22.391 15.829,21.635ZM22.617,25.972L22.617,49.152L15.292,49.152L15.292,25.972L22.617,25.972Z" fill="#FFFFFF"/>
<path d="M46.998,28.262C48.595,29.995 49.392,32.373 49.392,35.402L49.392,48.742L42.436,48.742L42.436,36.342C42.436,34.815 42.04,33.628 41.249,32.783C40.458,31.938 39.392,31.513 38.058,31.513C36.724,31.513 35.658,31.936 34.867,32.783C34.076,33.628 33.68,34.815 33.68,36.342L33.68,48.742L26.683,48.742L26.683,25.907L33.68,25.907L33.68,28.935C34.388,27.926 35.344,27.129 36.544,26.542C37.744,25.955 39.094,25.662 40.595,25.662C43.268,25.662 45.404,26.529 46.998,28.262Z" fill="#FFFFFF"/>
</svg>
