<svg width="960" height="1038" viewBox="0 0 960 1038" fill="none" xmlns="http://www.w3.org/2000/svg" xmlns:xlink="http://www.w3.org/1999/xlink">
<path d="M479.088,1036.033C743.68,1036.033 958.176,1013.979 958.176,986.775C958.176,959.571 743.68,937.518 479.088,937.518C214.494,937.518 0,959.571 0,986.775C0,1013.979 214.494,1036.033 479.088,1036.033Z" fill="url(#pf_0_26_1158)"/>
<path d="M732.519,267.495L724.451,267.495L724.451,120.896L732.519,120.896C735.517,120.896 737.965,123.344 737.965,126.342L737.965,262.075C737.965,265.072 735.542,267.495 732.519,267.495Z" fill="url(#pf_0_26_1161)"/>
<path d="M732.519,336.136L724.451,336.136L724.451,289.501L732.519,289.501C735.517,289.501 737.965,291.949 737.965,294.946L737.965,330.691C737.965,333.713 735.542,336.136 732.519,336.136Z" fill="url(#pf_0_26_1162)"/>
<path d="M664.179,988.824L293.972,988.824C256.954,988.824 226.955,958.824 226.955,921.806L226.955,67.017C226.955,29.999 256.954,0 293.972,0L664.179,0C701.197,0 731.195,29.999 731.195,67.017L731.195,921.806C731.221,958.8 701.197,988.824 664.179,988.824Z" fill="url(#pf_0_26_1163)"/>
<path d="M664.179,9.967L572.957,9.967C576.279,14.288 578.303,19.683 578.303,25.578C578.303,39.716 566.837,51.181 552.699,51.181L405.501,51.181C391.363,51.181 379.898,39.716 379.898,25.578C379.898,19.708 381.896,14.288 385.243,9.967L293.997,9.967C262.549,9.967 236.971,35.545 236.971,66.993L236.971,921.783C236.971,929.175 238.395,936.245 240.967,942.715C249.31,963.845 269.943,978.809 293.997,978.809L664.179,978.809C688.233,978.809 708.865,963.845 717.233,942.715C719.805,936.245 721.229,929.175 721.229,921.783L721.229,66.993C721.229,35.57 695.627,9.967 664.179,9.967Z" fill="url(#pf_0_26_1164)"/>
<path d="M721.255,66.993L721.255,144.351L236.971,144.351L236.971,66.993C236.971,35.545 262.524,9.967 293.997,9.967L385.218,9.967C381.896,14.288 379.898,19.683 379.898,25.578C379.898,25.578 379.898,25.578 379.898,25.603C379.923,39.741 391.363,51.181 405.501,51.181L552.699,51.181C566.837,51.181 578.303,39.716 578.303,25.578L578.303,25.478C578.277,19.633 576.279,14.263 572.957,9.967L664.179,9.967C695.651,9.967 721.255,35.57 721.255,66.993Z" fill="url(#pf_0_26_1165)"/>
<path d="M490.952,29.225L435.5,29.225C433.926,29.225 432.653,27.926 432.653,26.377L432.653,24.804C432.653,23.23 433.951,21.956 435.5,21.956L490.952,21.956C492.526,21.956 493.8,23.255 493.8,24.804L493.8,26.377C493.825,27.951 492.526,29.225 490.952,29.225Z" fill="url(#pf_0_26_1167)"/>
<path d="M516.206,32.047C519.778,32.047 522.675,29.151 522.675,25.578C522.675,22.005 519.778,19.108 516.206,19.108C512.633,19.108 509.736,22.005 509.736,25.578C509.736,29.151 512.633,32.047 516.206,32.047Z" fill="#000000"/>
<path d="M516.205,34.87C521.337,34.87 525.498,30.71 525.498,25.578C525.498,20.446 521.337,16.286 516.205,16.286C511.074,16.286 506.914,20.446 506.914,25.578C506.914,30.71 511.074,34.87 516.205,34.87Z" fill="url(#pf_0_26_1170)"/>
<path d="M516.206,33.197C520.413,33.197 523.824,29.786 523.824,25.578C523.824,21.371 520.413,17.96 516.206,17.96C511.998,17.96 508.587,21.371 508.587,25.578C508.587,29.786 511.998,33.197 516.206,33.197Z" fill="url(#pf_0_26_1171)"/>
<path d="M516.206,32.047C519.778,32.047 522.675,29.151 522.675,25.578C522.675,22.005 519.778,19.108 516.206,19.108C512.633,19.108 509.736,22.005 509.736,25.578C509.736,29.151 512.633,32.047 516.206,32.047Z" fill="url(#pf_0_26_1172)"/>
<path d="M516.206,32.047C519.778,32.047 522.675,29.151 522.675,25.578C522.675,22.005 519.778,19.108 516.206,19.108C512.633,19.108 509.736,22.005 509.736,25.578C509.736,29.151 512.633,32.047 516.206,32.047Z" fill="url(#pf_0_26_1173)"/>
<path d="M516.206,32.047C519.778,32.047 522.675,29.151 522.675,25.578C522.675,22.005 519.778,19.108 516.206,19.108C512.633,19.108 509.736,22.005 509.736,25.578C509.736,29.151 512.633,32.047 516.206,32.047Z" fill="url(#pf_0_26_1174)"/>
<g opacity="0.5">
<path d="M516.206,32.047C519.778,32.047 522.675,29.151 522.675,25.578C522.675,22.005 519.778,19.108 516.206,19.108C512.633,19.108 509.736,22.005 509.736,25.578C509.736,29.151 512.633,32.047 516.206,32.047Z" fill="url(#pf_0_26_1175)"/>
</g>
<path d="M618.592,51.431L615.645,51.431L615.645,56.252L618.592,56.252L618.592,51.431Z" fill="#FFFFFF"/>
<path d="M622.814,49.482L619.866,49.482L619.866,56.252L622.814,56.252L622.814,49.482Z" fill="#FFFFFF"/>
<path d="M627.06,47.609L624.113,47.609L624.113,56.252L627.06,56.252L627.06,47.609Z" fill="#FFFFFF"/>
<path d="M631.281,45.461L628.334,45.461L628.334,56.252L631.281,56.252L631.281,45.461Z" fill="#FFFFFF"/>
<path d="M645.195,50.956C646.893,49.308 649.216,48.284 651.764,48.284C654.312,48.284 656.635,49.308 658.333,50.956L660.332,48.958C658.134,46.785 655.111,45.461 651.789,45.461C648.467,45.461 645.444,46.81 643.246,48.958L645.195,50.956Z" fill="#FFFFFF"/>
<path d="M647.842,53.604C648.867,52.63 650.24,52.03 651.764,52.03C653.288,52.03 654.662,52.63 655.686,53.604L657.659,51.63C656.135,50.157 654.062,49.232 651.764,49.232C649.466,49.232 647.393,50.157 645.869,51.63L647.842,53.604Z" fill="#FFFFFF"/>
<path d="M650.49,56.277C650.84,55.977 651.265,55.777 651.739,55.777C652.214,55.777 652.663,55.977 652.988,56.277L654.986,54.278C654.137,53.479 652.988,52.979 651.739,52.979C650.465,52.979 649.341,53.479 648.492,54.278L650.49,56.277Z" fill="#FFFFFF"/>
<path d="M692.279,54.953L674.619,54.953C674.32,54.953 674.07,54.703 674.07,54.404L674.07,47.335C674.07,47.035 674.32,46.785 674.619,46.785L692.279,46.785C692.579,46.785 692.829,47.035 692.829,47.335L692.829,54.404C692.829,54.703 692.579,54.953 692.279,54.953Z" fill="#FFFFFF"/>
<path d="M694.227,52.63L693.828,52.63C693.528,52.63 693.278,52.381 693.278,52.081L693.278,49.658C693.278,49.358 693.528,49.108 693.828,49.108L694.227,49.108C694.527,49.108 694.777,49.358 694.777,49.658L694.777,52.081C694.777,52.381 694.527,52.63 694.227,52.63Z" fill="#FFFFFF"/>
<path d="M314.829,45.461L314.829,53.828L327.443,53.828L329.641,56.026L329.641,53.828L329.641,52.854L329.641,45.436L314.829,45.436L314.829,45.461ZM318.551,50.306C318.151,50.306 317.802,49.982 317.802,49.557C317.802,49.157 318.126,48.808 318.551,48.808C318.951,48.808 319.3,49.132 319.3,49.557C319.275,49.982 318.951,50.306 318.551,50.306ZM322.248,50.306C321.848,50.306 321.498,49.982 321.498,49.557C321.498,49.157 321.823,48.808 322.248,48.808C322.647,48.808 322.997,49.132 322.997,49.557C322.972,49.982 322.647,50.306 322.248,50.306ZM325.92,50.306C325.52,50.306 325.17,49.982 325.17,49.557C325.17,49.157 325.495,48.808 325.92,48.808C326.344,48.808 326.669,49.132 326.669,49.557C326.669,49.982 326.319,50.306 325.92,50.306Z" fill="#FFFFFF"/>
<path d="M343.205,45.461C341.031,45.461 339.283,47.209 339.283,49.383C339.283,51.556 343.205,56.052 343.205,56.052C343.205,56.052 347.126,51.556 347.126,49.383C347.126,47.234 345.378,45.461 343.205,45.461ZM343.205,51.031C342.305,51.031 341.556,50.282 341.556,49.383C341.556,48.483 342.305,47.734 343.205,47.734C344.104,47.734 344.853,48.483 344.853,49.383C344.853,50.307 344.104,51.031 343.205,51.031Z" fill="#FFFFFF"/>
<rect  x="287.941" y="83.85" width="58.15" height="58.15" fill="url(#pattern_0_26_1191)"/>
<path d="M336.061,109.556C336.061,116.55 332.714,122.795 327.543,126.742C323.921,129.489 319.4,131.138 314.504,131.138C309.608,131.138 305.087,129.514 301.465,126.742C296.295,122.795 292.948,116.575 292.948,109.556C292.948,97.642 302.614,88 314.504,88C326.394,88 336.061,97.642 336.061,109.556Z" fill="url(#pattern_0_26_1193)"/>
<path d="M284.48,109.156L267.67,109.156L273.04,103.786C273.54,103.286 273.54,102.512 273.04,102.012C272.54,101.513 271.766,101.513 271.267,102.012L263.773,109.506C263.648,109.631 263.573,109.756 263.498,109.906C263.373,110.205 263.373,110.555 263.498,110.855C263.573,111.005 263.648,111.154 263.773,111.254L271.267,118.748C271.516,118.998 271.841,119.123 272.141,119.123C272.44,119.123 272.79,118.998 273.015,118.748C273.515,118.248 273.515,117.474 273.015,116.974L267.645,111.604L284.455,111.604C285.155,111.604 285.704,111.055 285.704,110.355C285.704,109.656 285.155,109.156 284.48,109.156Z" fill="url(#pf_0_26_1194)"/>
<path d="M694.777,103.361C694.777,104.635 693.753,105.684 692.454,105.684C691.155,105.684 690.131,104.635 690.131,103.361C690.131,102.087 691.155,101.038 692.454,101.038C693.753,101.038 694.777,102.087 694.777,103.361Z" fill="url(#pf_0_26_1196)"/>
<path d="M692.454,112.728C693.737,112.728 694.777,111.688 694.777,110.405C694.777,109.122 693.737,108.082 692.454,108.082C691.171,108.082 690.131,109.122 690.131,110.405C690.131,111.688 691.171,112.728 692.454,112.728Z" fill="url(#pf_0_26_1197)"/>
<path d="M694.777,117.474C694.777,118.748 693.753,119.797 692.454,119.797C691.155,119.797 690.131,118.773 690.131,117.474C690.131,116.2 691.155,115.151 692.454,115.151C693.753,115.151 694.777,116.2 694.777,117.474Z" fill="url(#pf_0_26_1198)"/>
<path d="M596.037,119.797L576.279,119.797C575.53,119.797 574.93,119.197 574.93,118.448L574.93,102.387C574.93,101.638 575.53,101.038 576.279,101.038L596.037,101.038C596.786,101.038 597.386,101.638 597.386,102.387L597.386,118.448C597.386,119.197 596.786,119.797 596.037,119.797Z" fill="url(#pf_0_26_1200)"/>
<path d="M602.731,116.55L599.709,115.126C599.234,114.901 598.935,114.427 598.935,113.902L598.935,106.908C598.935,106.384 599.234,105.909 599.709,105.709L602.731,104.285C603.631,103.861 604.63,104.51 604.63,105.509L604.63,115.351C604.63,116.325 603.606,116.975 602.731,116.55Z" fill="url(#pf_0_26_1201)"/>
<path d="M636.927,102.712C636.127,103.961 636.377,105.659 637.102,107.083C637.901,109.231 639.599,111.804 642.022,114.202C644.42,116.6 646.993,118.323 649.141,119.123C650.54,119.847 652.264,120.097 653.512,119.297C653.787,119.123 654.037,118.923 654.262,118.698C655.536,117.424 655.461,115.326 654.187,114.052C653.213,113.078 651.764,112.828 650.49,113.353C650.19,113.477 649.891,113.552 649.591,113.627C648.891,114.077 646.918,113.028 645.045,111.154C643.171,109.281 642.122,107.308 642.572,106.608C642.622,106.309 642.722,106.009 642.847,105.709C643.371,104.435 643.121,102.986 642.147,102.012C640.873,100.738 638.775,100.663 637.501,101.937C637.326,102.187 637.102,102.437 636.927,102.712Z" fill="url(#pf_0_26_1202)"/>
<rect  x="263.444" y="293.468" width="516.156" height="76.134" fill="url(#pattern_0_26_1204)"/>
<path d="M293.797,339.308L293.797,307.985C293.797,302.715 298.068,298.443 303.339,298.443L759.521,298.443C764.791,298.443 769.063,302.715 769.063,307.985L769.063,350.049C769.063,355.319 764.791,359.591 759.521,359.591L315.653,359.591L293.797,359.591L268.419,359.591C274.738,348.925 284.68,342.83 293.797,339.308Z" fill="url(#pf_0_26_1206)"/>
<path d="M740.182,344.534C739.992,344.344 739.684,344.344 739.494,344.534C739.304,344.724 739.304,345.032 739.494,345.222L740.182,344.534ZM744.559,349.599L744.215,349.943C744.405,350.133 744.713,350.133 744.903,349.943L744.559,349.599ZM754.794,340.077C754.984,339.887 754.985,339.579 754.795,339.389C754.605,339.199 754.297,339.198 754.107,339.388L754.794,340.077ZM739.494,345.222L744.215,349.943L744.903,349.255L740.182,344.534L739.494,345.222ZM744.903,349.943L754.794,340.077L754.107,339.388L744.215,349.255L744.903,349.943Z" fill="#3CA7D6"/>
<path d="M744.803,344.534C744.613,344.344 744.305,344.344 744.115,344.534C743.925,344.724 743.925,345.032 744.115,345.222L744.803,344.534ZM749.18,349.599L748.836,349.943C749.026,350.133 749.334,350.133 749.524,349.943L749.18,349.599ZM759.39,340.076C759.58,339.886 759.58,339.578 759.39,339.388C759.2,339.198 758.892,339.198 758.702,339.388L759.39,340.076ZM744.115,345.222L748.836,349.943L749.524,349.255L744.803,344.534L744.115,345.222ZM749.524,349.943L759.39,340.076L758.702,339.388L748.836,349.255L749.524,349.943Z" fill="#3CA7D6"/>
<rect  x="184.128" y="369.147" width="516.156" height="76.134" fill="url(#pattern_0_26_1211)"/>
<path d="M664.378,414.993L664.378,383.67C664.378,378.399 660.106,374.128 654.836,374.128L198.654,374.128C193.383,374.128 189.112,378.399 189.112,383.67L189.112,425.734C189.112,431.004 193.383,435.275 198.654,435.275L642.522,435.275L664.378,435.275L689.756,435.275C683.436,424.61 673.496,418.49 664.378,414.993Z" fill="url(#pf_0_26_1213)"/>
<rect  x="184.128" y="596.817" width="516.156" height="76.134" fill="url(#pattern_0_26_1215)"/>
<path d="M664.378,642.672L664.378,611.349C664.378,606.079 660.106,601.808 654.836,601.808L198.654,601.808C193.383,601.808 189.112,606.079 189.112,611.349L189.112,653.413C189.112,658.684 193.383,662.955 198.654,662.955L642.522,662.955L664.378,662.955L689.756,662.955C683.436,652.289 673.496,646.169 664.378,642.672Z" fill="url(#pf_0_26_1217)"/>
<rect  x="424.67" y="444.827" width="248.786" height="76.134" fill="url(#pattern_0_26_1219)"/>
<path d="M653.613,449.813L439.197,449.813C433.927,449.813 429.655,454.085 429.655,459.355L429.655,501.419C429.655,506.689 433.927,510.961 439.197,510.961L653.613,510.961C658.883,510.961 663.155,506.689 663.155,501.419L663.155,459.355C663.155,454.085 658.883,449.813 653.613,449.813Z" fill="url(#pf_0_26_1221)"/>
<rect  x="288.813" y="521.138" width="276.362" height="76.134" fill="url(#pattern_0_26_1223)"/>
<path d="M545.155,526.122L303.339,526.122C298.068,526.122 293.797,530.393 293.797,535.664L293.797,577.728C293.797,582.998 298.068,587.269 303.339,587.269L545.155,587.269C550.427,587.269 554.697,582.998 554.697,577.728L554.697,535.664C554.697,530.393 550.427,526.122 545.155,526.122Z" fill="url(#pf_0_26_1225)"/>
<rect  x="184.128" y="156.647" width="516.156" height="137.282" fill="url(#pattern_0_26_1227)"/>
<path d="M664.378,263.623L664.378,171.178C664.378,165.907 660.106,161.636 654.836,161.636L198.654,161.636C193.383,161.636 189.112,165.907 189.112,171.178L189.112,274.389C189.112,279.659 193.383,283.931 198.654,283.931L642.522,283.931L664.378,283.931L689.756,283.931C683.436,273.265 673.496,267.145 664.378,263.623Z" fill="url(#pf_0_26_1229)"/>
<rect  x="633.456" y="869.871" width="71.339" height="71.339" fill="url(#pattern_0_26_1232)"/>
<path d="M666.601,931.173C682.148,931.173 694.752,918.57 694.752,903.023C694.752,887.476 682.148,874.872 666.601,874.872C651.054,874.872 638.45,887.476 638.45,903.023C638.45,918.57 651.054,931.173 666.601,931.173Z" fill="url(#pf_0_26_1234)"/>
<path d="M670.997,894.73C670.997,892.307 669.024,890.334 666.601,890.334C664.178,890.334 662.205,892.307 662.205,894.73L662.205,903.598C662.205,906.02 664.178,907.994 666.601,907.994C669.024,907.994 670.997,906.02 670.997,903.598L670.997,894.73Z" fill="url(#pf_0_26_1236)"/>
<path d="M673.995,904.098C673.995,903.673 673.645,903.323 673.221,903.323C672.796,903.323 672.446,903.673 672.446,904.098C672.446,907.32 669.823,909.918 666.626,909.918C663.404,909.918 660.806,907.295 660.806,904.098C660.806,903.673 660.457,903.323 660.032,903.323C659.607,903.323 659.258,903.673 659.258,904.098C659.258,907.894 662.155,910.992 665.852,911.391L665.852,914.938C665.852,915.363 666.202,915.713 666.626,915.713C667.051,915.713 667.401,915.363 667.401,914.938L667.401,911.391C671.072,911.017 673.995,907.919 673.995,904.098Z" fill="url(#pf_0_26_1237)"/>
<rect  x="258.409" y="869.87" width="371.68" height="71.339" fill="url(#pattern_0_26_1239)"/>
<path d="M591.515,931.173L291.574,931.173C276.012,931.173 263.423,918.559 263.423,903.023C263.423,887.461 276.037,874.872 291.574,874.872L591.515,874.872C607.077,874.872 619.667,887.486 619.667,903.023C619.667,918.584 607.053,931.173 591.515,931.173Z" fill="url(#pf_0_26_1241)"/>
<path d="M307.155,903.023C307.155,909.189 302.162,914.183 295.995,914.183L295.995,915.642C302.968,915.642 308.615,909.995 308.615,903.023L307.155,903.023ZM295.995,914.183C289.829,914.183 284.835,909.189 284.835,903.023L283.376,903.023C283.376,909.995 289.023,915.642 295.995,915.642L295.995,914.183ZM284.835,903.023C284.835,896.856 289.829,891.863 295.995,891.863L295.995,890.403C289.023,890.403 283.376,896.05 283.376,903.023L284.835,903.023ZM295.995,891.863C302.162,891.863 307.155,896.856 307.155,903.023L308.615,903.023C308.615,896.05 302.968,890.403 295.995,890.403L295.995,891.863Z" fill="#87817C"/>
<path d="M304.893,903.022C304.893,902.619 304.566,902.293 304.163,902.293C303.76,902.293 303.434,902.619 303.434,903.022L304.893,903.022ZM288.507,903.022C288.507,902.619 288.18,902.293 287.777,902.293C287.374,902.293 287.048,902.619 287.048,903.022L288.507,903.022ZM303.434,903.022C303.434,907.141 300.088,910.486 295.97,910.486L295.97,911.945C300.894,911.945 304.893,907.947 304.893,903.022L303.434,903.022ZM295.97,910.486C291.852,910.486 288.507,907.141 288.507,903.022L287.048,903.022C287.048,907.947 291.046,911.945 295.97,911.945L295.97,910.486Z" fill="#87817C"/>
<line x1="291.544" y1="898.302" x2="291.544" y2="901.124" stroke="#87817C" stroke-width="0.73" stroke-miterlimit="10" stroke-linecap="round" stroke-linejoin="round"/>
<line x1="298.962" y1="898.302" x2="298.962" y2="901.124" stroke="#87817C" stroke-width="0.73" stroke-miterlimit="10" stroke-linecap="round" stroke-linejoin="round"/>
<path d="M528.504,911.607C528.788,911.892 529.251,911.892 529.536,911.607C529.82,911.322 529.82,910.86 529.536,910.575L528.504,911.607ZM516.83,898.901L516.314,899.417L516.83,898.901ZM520.177,895.554L520.693,895.038L520.177,895.554ZM532.517,907.893L532.001,908.409L532.517,907.893ZM526.722,913.688L527.238,913.172L527.238,913.172L526.722,913.688ZM514.032,900.999L513.516,901.515L513.516,901.515L514.032,900.999ZM514.032,892.806L514.546,893.325L514.548,893.322L514.032,892.806ZM522.225,892.806L521.707,893.319L521.709,893.322L522.225,892.806ZM535.323,906.936C535.608,907.221 536.07,907.221 536.355,906.936C536.64,906.651 536.64,906.189 536.355,905.904L535.323,906.936ZM529.536,910.575L517.346,898.385L516.314,899.417L528.504,911.607L529.536,910.575ZM517.346,898.385C516.707,897.746 516.707,896.709 517.346,896.07L516.314,895.038C515.105,896.247 515.105,898.208 516.314,899.417L517.346,898.385ZM517.346,896.07C517.985,895.431 519.022,895.431 519.661,896.07L520.693,895.038C519.484,893.829 517.523,893.829 516.314,895.038L517.346,896.07ZM519.661,896.07L532.001,908.409L533.033,907.377L520.693,895.038L519.661,896.07ZM532.001,908.409C533.314,909.723 533.314,911.859 532.001,913.172L533.033,914.204C534.916,912.321 534.916,909.261 533.033,907.377L532.001,908.409ZM532.001,913.172C530.687,914.486 528.551,914.486 527.238,913.172L526.206,914.204C528.089,916.088 531.149,916.088 533.033,914.204L532.001,913.172ZM527.238,913.172L514.548,900.483L513.516,901.515L526.206,914.204L527.238,913.172ZM514.548,900.483C512.559,898.494 512.563,895.286 514.546,893.325L513.519,892.288C510.956,894.823 510.96,898.959 513.516,901.515L514.548,900.483ZM514.548,893.322C516.538,891.333 519.746,891.337 521.707,893.319L522.744,892.293C520.209,889.73 516.073,889.734 513.516,892.29L514.548,893.322ZM521.709,893.322L535.323,906.936L536.355,905.904L522.741,892.29L521.709,893.322Z" fill="#87817C"/>
<path d="M596.786,894.63L593.389,894.63L591.141,891.782C590.816,891.383 590.292,891.133 589.717,891.133L581.1,891.133C580.525,891.133 580.001,891.383 579.676,891.782L577.428,894.63L573.307,894.63C572.083,894.63 571.108,895.604 571.108,896.828L571.108,912.714C571.108,913.938 572.083,914.912 573.307,914.912L596.811,914.912C598.035,914.912 599.009,913.938 599.009,912.714L599.009,896.828C598.984,895.604 597.985,894.63 596.786,894.63ZM585.021,912.464C580.5,912.464 576.853,908.793 576.853,904.297C576.853,899.775 580.525,896.129 585.021,896.129C589.543,896.129 593.189,899.8 593.189,904.297C593.214,908.793 589.543,912.464 585.021,912.464Z" fill="#87817C" stroke="#87817C" stroke-width="0.73" stroke-miterlimit="10" stroke-linecap="round" stroke-linejoin="round"/>
<path d="M585.021,909.342C587.822,909.342 590.092,907.072 590.092,904.272C590.092,901.471 587.822,899.201 585.021,899.201C582.221,899.201 579.951,901.471 579.951,904.272C579.951,907.072 582.221,909.342 585.021,909.342Z" fill="#87817C"/>
<path d="M242.391,946.011C251.509,965.369 271.192,978.808 293.972,978.808L664.177,978.808C686.959,978.808 706.641,965.369 715.783,946.011L242.391,946.011Z" fill="url(#pf_0_26_1252)"/>
<path d="M525.842,572.213C525.652,572.023 525.344,572.023 525.154,572.213C524.964,572.403 524.964,572.711 525.154,572.901L525.842,572.213ZM530.219,577.278L529.875,577.622C530.065,577.812 530.373,577.812 530.563,577.622L530.219,577.278ZM540.429,567.755C540.619,567.565 540.619,567.257 540.429,567.067C540.239,566.877 539.931,566.877 539.741,567.067L540.429,567.755ZM525.154,572.901L529.875,577.622L530.563,576.934L525.842,572.213L525.154,572.901ZM530.563,577.622L540.429,567.755L539.741,567.067L529.875,576.934L530.563,577.622Z" fill="#3CA7D6"/>
<path d="M530.463,572.213C530.273,572.023 529.965,572.023 529.775,572.213C529.585,572.403 529.585,572.711 529.775,572.901L530.463,572.213ZM534.84,577.278L534.496,577.622C534.686,577.812 534.994,577.812 535.184,577.622L534.84,577.278ZM545.05,567.755C545.24,567.565 545.24,567.257 545.05,567.067C544.86,566.877 544.552,566.877 544.362,567.067L545.05,567.755ZM529.775,572.901L534.496,577.622L535.184,576.934L530.463,572.213L529.775,572.901ZM535.184,577.622L545.05,567.755L544.362,567.067L534.496,576.934L535.184,577.622Z" fill="#3CA7D6"/>
<g opacity="0.5">
<path d="M578.827,30.449C578.827,36.794 576.254,42.539 572.083,46.685C567.936,50.857 562.166,54.604 555.822,54.604L402.329,54.604C389.615,54.604 379.349,43.138 379.349,30.449C379.349,28.776 379.523,27.152 379.873,25.603C379.898,39.741 391.338,51.181 405.476,51.181L552.674,51.181C566.812,51.181 578.277,39.716 578.277,25.578L578.277,25.479C578.652,27.102 578.827,28.751 578.827,30.449Z" fill="url(#pf_0_26_1256)"/>
</g>
<defs>
<radialGradient id="pf_0_26_1158" cx="0" cy="0" r="1" gradientUnits="userSpaceOnUse" gradientTransform="matrix(224.006485 0 0 17.035063 239.544 493.377)">
<stop stop-color="#098C5D"/>
<stop offset="1" stop-color="#098C5D" stop-opacity="0"/>
</radialGradient>
<linearGradient id="pf_0_26_1161" x1="731.209" y1="120.679" x2="731.209" y2="268.923" gradientUnits="userSpaceOnUse">
<stop stop-color="#B3B3B3"/>
<stop offset="0.029" stop-color="#B9B9B9"/>
<stop offset="0.068" stop-color="#C9C9C9"/>
<stop offset="0.111" stop-color="#E4E4E4"/>
<stop offset="0.146" stop-color="#FFFFFF"/>
<stop offset="0.158" stop-color="#F6F6F6"/>
<stop offset="0.209" stop-color="#D7D7D7"/>
<stop offset="0.267" stop-color="#BBBBBB"/>
<stop offset="0.332" stop-color="#A5A5A5"/>
<stop offset="0.408" stop-color="#949494"/>
<stop offset="0.502" stop-color="#898989"/>
<stop offset="0.634" stop-color="#828282"/>
<stop offset="1" stop-color="#808080"/>
</linearGradient>
<linearGradient id="pf_0_26_1162" x1="731.209" y1="289.284" x2="731.209" y2="336.809" gradientUnits="userSpaceOnUse">
<stop stop-color="#B3B3B3"/>
<stop offset="0.029" stop-color="#B9B9B9"/>
<stop offset="0.068" stop-color="#C9C9C9"/>
<stop offset="0.111" stop-color="#E4E4E4"/>
<stop offset="0.146" stop-color="#FFFFFF"/>
<stop offset="0.158" stop-color="#F6F6F6"/>
<stop offset="0.209" stop-color="#D7D7D7"/>
<stop offset="0.267" stop-color="#BBBBBB"/>
<stop offset="0.332" stop-color="#A5A5A5"/>
<stop offset="0.408" stop-color="#949494"/>
<stop offset="0.502" stop-color="#898989"/>
<stop offset="0.634" stop-color="#828282"/>
<stop offset="1" stop-color="#808080"/>
</linearGradient>
<linearGradient id="pf_0_26_1163" x1="226.96" y1="494.4" x2="733.907" y2="494.4" gradientUnits="userSpaceOnUse">
<stop stop-color="#FFFFFF"/>
<stop offset="0.001" stop-color="#F1F1F1"/>
<stop offset="0.004" stop-color="#E0E0E0"/>
<stop offset="0.006" stop-color="#D5D5D5"/>
<stop offset="0.01" stop-color="#CECECE"/>
<stop offset="0.021" stop-color="#CCCCCC"/>
<stop offset="0.137" stop-color="#D2D2D2"/>
<stop offset="0.299" stop-color="#E4E4E4"/>
<stop offset="0.471" stop-color="#FFFFFF"/>
<stop offset="0.682" stop-color="#DADADA"/>
<stop offset="0.884" stop-color="#BEBEBE"/>
<stop offset="1" stop-color="#B3B3B3"/>
</linearGradient>
<linearGradient id="pf_0_26_1164" x1="479.085" y1="978.82" x2="479.085" y2="11.187" gradientUnits="userSpaceOnUse">
<stop stop-color="#BFB1A5"/>
<stop offset="0.057" stop-color="#C6B9AE"/>
<stop offset="0.235" stop-color="#D9CDC3"/>
<stop offset="0.433" stop-color="#E6DCD2"/>
<stop offset="0.662" stop-color="#EEE4DB"/>
<stop offset="1" stop-color="#F0E7DE"/>
</linearGradient>
<linearGradient id="pf_0_26_1165" x1="479.1" y1="6.704" x2="479.1" y2="142.95" gradientUnits="userSpaceOnUse">
<stop stop-color="#2FA38A"/>
<stop offset="0.294" stop-color="#2B9F87"/>
<stop offset="0.584" stop-color="#1F937F"/>
<stop offset="0.871" stop-color="#0B7F70"/>
<stop offset="1" stop-color="#007468"/>
</linearGradient>
<linearGradient id="pf_0_26_1167" x1="463.236" y1="29.499" x2="463.236" y2="21.824" gradientUnits="userSpaceOnUse">
<stop stop-color="#4D4D4D"/>
<stop offset="0.069" stop-color="#434343"/>
<stop offset="0.309" stop-color="#262626"/>
<stop offset="0.547" stop-color="#111111"/>
<stop offset="0.779" stop-color="#040404"/>
<stop offset="1" stop-color="#000000"/>
</linearGradient>
<linearGradient id="pf_0_26_1170" x1="523.516" y1="32.889" x2="509.662" y2="19.035" gradientUnits="userSpaceOnUse">
<stop stop-color="#4D4D4D"/>
<stop offset="1" stop-color="#000000"/>
</linearGradient>
<linearGradient id="pf_0_26_1171" x1="522.187" y1="31.56" x2="510.854" y2="20.227" gradientUnits="userSpaceOnUse">
<stop stop-color="#000000"/>
<stop offset="1" stop-color="#4D4D4D"/>
</linearGradient>
<linearGradient id="pf_0_26_1172" x1="511.448" y1="20.821" x2="521.814" y2="31.186" gradientUnits="userSpaceOnUse">
<stop stop-color="#0058EE"/>
<stop offset="0.694" stop-color="#000000" stop-opacity="0"/>
</linearGradient>
<radialGradient id="pf_0_26_1173" cx="0" cy="0" r="1" gradientUnits="userSpaceOnUse" gradientTransform="matrix(3.239976 0 0 3.239961 258.375 16.027)">
<stop stop-color="#0058EE"/>
<stop offset="0.86" stop-color="#000000" stop-opacity="0"/>
</radialGradient>
<radialGradient id="pf_0_26_1174" cx="0" cy="0" r="1" gradientUnits="userSpaceOnUse" gradientTransform="matrix(2.127054 0 0 2.127044 261.176 11.773)">
<stop stop-color="#0058EE"/>
<stop offset="0.704" stop-color="#000000" stop-opacity="0"/>
</radialGradient>
<radialGradient id="pf_0_26_1175" cx="0" cy="0" r="1" gradientUnits="userSpaceOnUse" gradientTransform="matrix(3.226362 0 0 3.226348 256.114 13.885)">
<stop stop-color="#FFFFFF"/>
<stop offset="0.148" stop-color="#BDBDBD" stop-opacity="0.833"/>
<stop offset="0.295" stop-color="#838383" stop-opacity="0.668"/>
<stop offset="0.435" stop-color="#545454" stop-opacity="0.51"/>
<stop offset="0.567" stop-color="#303030" stop-opacity="0.36"/>
<stop offset="0.691" stop-color="#151515" stop-opacity="0.221"/>
<stop offset="0.801" stop-color="#060606" stop-opacity="0.097"/>
<stop offset="0.887" stop-color="#000000" stop-opacity="0"/>
</radialGradient>
<linearGradient id="pf_0_26_1194" x1="274.562" y1="101.666" x2="274.562" y2="119.161" gradientUnits="userSpaceOnUse">
<stop stop-color="#FFFFFF"/>
<stop offset="1" stop-color="#CBE3EB"/>
</linearGradient>
<linearGradient id="pf_0_26_1196" x1="692.456" y1="100.916" x2="692.456" y2="105.835" gradientUnits="userSpaceOnUse">
<stop stop-color="#FFFFFF"/>
<stop offset="1" stop-color="#CBE3EB"/>
</linearGradient>
<linearGradient id="pf_0_26_1197" x1="692.456" y1="107.974" x2="692.456" y2="112.894" gradientUnits="userSpaceOnUse">
<stop stop-color="#FFFFFF"/>
<stop offset="1" stop-color="#CBE3EB"/>
</linearGradient>
<linearGradient id="pf_0_26_1198" x1="692.456" y1="115.033" x2="692.456" y2="119.952" gradientUnits="userSpaceOnUse">
<stop stop-color="#FFFFFF"/>
<stop offset="1" stop-color="#CBE3EB"/>
</linearGradient>
<linearGradient id="pf_0_26_1200" x1="586.161" y1="100.539" x2="586.161" y2="120.455" gradientUnits="userSpaceOnUse">
<stop stop-color="#FFFFFF"/>
<stop offset="1" stop-color="#CBE3EB"/>
</linearGradient>
<linearGradient id="pf_0_26_1201" x1="601.783" y1="103.816" x2="601.783" y2="117.122" gradientUnits="userSpaceOnUse">
<stop stop-color="#FFFFFF"/>
<stop offset="1" stop-color="#CBE3EB"/>
</linearGradient>
<linearGradient id="pf_0_26_1202" x1="641.675" y1="114.553" x2="655.776" y2="100.451" gradientUnits="userSpaceOnUse">
<stop stop-color="#FFFFFF"/>
<stop offset="1" stop-color="#CBE3EB"/>
</linearGradient>
<linearGradient id="pf_0_26_1206" x1="518.745" y1="295.953" x2="518.745" y2="361.88" gradientUnits="userSpaceOnUse">
<stop stop-color="#E2FFC7"/>
<stop offset="0.267" stop-color="#DBF7C1"/>
<stop offset="0.678" stop-color="#C9E2AF"/>
<stop offset="1" stop-color="#B6CC9E"/>
</linearGradient>
<linearGradient id="pf_0_26_1213" x1="439.43" y1="371.633" x2="439.43" y2="437.559" gradientUnits="userSpaceOnUse">
<stop stop-color="#FFFFFF"/>
<stop offset="1" stop-color="#CBE3EB"/>
</linearGradient>
<linearGradient id="pf_0_26_1217" x1="439.43" y1="599.303" x2="439.43" y2="665.23" gradientUnits="userSpaceOnUse">
<stop stop-color="#FFFFFF"/>
<stop offset="1" stop-color="#CBE3EB"/>
</linearGradient>
<linearGradient id="pf_0_26_1221" x1="546.406" y1="447.313" x2="546.406" y2="513.239" gradientUnits="userSpaceOnUse">
<stop stop-color="#FFFFFF"/>
<stop offset="1" stop-color="#CBE3EB"/>
</linearGradient>
<linearGradient id="pf_0_26_1225" x1="424.255" y1="523.623" x2="424.255" y2="589.549" gradientUnits="userSpaceOnUse">
<stop stop-color="#E2FFC7"/>
<stop offset="0.267" stop-color="#DBF7C1"/>
<stop offset="0.678" stop-color="#C9E2AF"/>
<stop offset="1" stop-color="#B6CC9E"/>
</linearGradient>
<linearGradient id="pf_0_26_1229" x1="439.43" y1="156.622" x2="439.43" y2="288.476" gradientUnits="userSpaceOnUse">
<stop stop-color="#FFFFFF"/>
<stop offset="1" stop-color="#CBE3EB"/>
</linearGradient>
<linearGradient id="pf_0_26_1234" x1="666.611" y1="875.471" x2="666.611" y2="932.24" gradientUnits="userSpaceOnUse">
<stop stop-color="#2FA38A"/>
<stop offset="0.294" stop-color="#2B9F87"/>
<stop offset="0.584" stop-color="#1F937F"/>
<stop offset="0.871" stop-color="#0B7F70"/>
<stop offset="1" stop-color="#007468"/>
</linearGradient>
<linearGradient id="pf_0_26_1236" x1="659.471" y1="899.175" x2="674.023" y2="899.175" gradientUnits="userSpaceOnUse">
<stop stop-color="#FFFFFF"/>
<stop offset="1" stop-color="#CBE3EB"/>
</linearGradient>
<linearGradient id="pf_0_26_1237" x1="659.471" y1="909.525" x2="674.023" y2="909.525" gradientUnits="userSpaceOnUse">
<stop stop-color="#FFFFFF"/>
<stop offset="1" stop-color="#CBE3EB"/>
</linearGradient>
<linearGradient id="pf_0_26_1241" x1="441.535" y1="875.34" x2="441.535" y2="946.806" gradientUnits="userSpaceOnUse">
<stop stop-color="#FFFFFF"/>
<stop offset="1" stop-color="#CBE3EB"/>
</linearGradient>
<linearGradient id="pf_0_26_1252" x1="479.083" y1="941.244" x2="479.083" y2="980.163" gradientUnits="userSpaceOnUse">
<stop stop-color="#FFFFFF"/>
<stop offset="1" stop-color="#CCCCCC"/>
</linearGradient>
<linearGradient id="pf_0_26_1256" x1="479.1" y1="54.613" x2="479.1" y2="25.491" gradientUnits="userSpaceOnUse">
<stop stop-color="#2FA38A"/>
<stop offset="0.294" stop-color="#2B9F87"/>
<stop offset="0.584" stop-color="#1F937F"/>
<stop offset="0.871" stop-color="#0B7F70"/>
<stop offset="1" stop-color="#007468"/>
</linearGradient>
</defs>
</svg>
