<svg width="140" height="124" viewBox="0 0 140 124" fill="none" xmlns="http://www.w3.org/2000/svg" xmlns:xlink="http://www.w3.org/1999/xlink">
<path d="M7.778,15.5L7.778,0L132.222,0L132.222,15.5L7.778,15.5ZM7.778,124L7.778,77.5L0,77.5L0,62L7.778,23.25L132.222,23.25L140,62L140,77.5L132.222,77.5L132.222,124L116.667,124L116.667,77.5L85.556,77.5L85.556,124L7.778,124ZM23.333,108.5L70,108.5L70,77.5L23.333,77.5L23.333,108.5ZM15.944,62L124.056,62L119.389,38.75L20.611,38.75L15.944,62Z" fill="#0C95D7"/>
</svg>
