<svg width="34" height="30" viewBox="0 0 34 30" fill="none" xmlns="http://www.w3.org/2000/svg" xmlns:xlink="http://www.w3.org/1999/xlink">
<path d="M33.381,28.621C33.697,28.404 33.855,28.108 33.855,27.733L33.855,4.481C33.855,4.244 33.796,4.047 33.678,3.889C33.559,3.731 33.401,3.603 33.204,3.504L22.6,-0.732C22.343,-0.85 22.086,-0.85 21.83,-0.732L11.641,3.326L1.451,-0.732C1.353,-0.791 1.224,-0.821 1.066,-0.821C0.849,-0.821 0.652,-0.761 0.474,-0.643C0.158,-0.426 0,-0.129 0,0.246L0,23.497C0,23.734 0.059,23.942 0.178,24.119C0.296,24.297 0.454,24.415 0.652,24.475L11.255,28.71C11.512,28.829 11.769,28.829 12.026,28.71L22.215,24.652L32.404,28.71C32.759,28.868 33.085,28.839 33.381,28.621ZM12.174,26.4L12.174,5.4L21.682,1.579L21.682,22.579L12.174,26.4ZM2.103,22.786L2.103,1.816L11.107,5.4L11.107,26.4L2.103,22.786ZM31.723,5.192L31.723,26.163L22.748,22.579L22.748,1.579L31.723,5.192Z" fill="#FFFFFF"/>
</svg>
