<svg width="22" height="12" viewBox="0 0 22 12" fill="none" xmlns="http://www.w3.org/2000/svg" xmlns:xlink="http://www.w3.org/1999/xlink">
<path d="M1.714,5.046C1.524,4.856 1.216,4.856 1.026,5.046C0.836,5.236 0.836,5.544 1.026,5.734L1.714,5.046ZM6.091,10.111L5.747,10.455C5.937,10.645 6.245,10.645 6.435,10.455L6.091,10.111ZM16.302,0.588C16.492,0.398 16.492,0.09 16.302,-0.1C16.112,-0.29 15.804,-0.29 15.614,-0.1L16.302,0.588ZM1.026,5.734L5.747,10.455L6.435,9.767L1.714,5.046L1.026,5.734ZM6.435,10.455L16.302,0.588L15.614,-0.1L5.747,9.767L6.435,10.455Z" fill="#3CA7D6"/>
<path d="M6.335,5.046C6.145,4.856 5.837,4.856 5.647,5.046C5.457,5.236 5.457,5.544 5.647,5.734L6.335,5.046ZM10.712,10.111L10.368,10.455C10.558,10.645 10.866,10.645 11.056,10.455L10.712,10.111ZM20.923,0.588C21.113,0.398 21.113,0.09 20.923,-0.1C20.733,-0.29 20.425,-0.29 20.235,-0.1L20.923,0.588ZM5.647,5.734L10.368,10.455L11.056,9.767L6.335,5.046L5.647,5.734ZM11.056,10.455L20.923,0.588L20.235,-0.1L10.368,9.767L11.056,10.455Z" fill="#3CA7D6"/>
</svg>
